<svg width="124" height="124" viewBox="0 0 124 124" fill="none" xmlns="http://www.w3.org/2000/svg">
<path d="M19.3061 67.5159C19.1611 73.1264 20.3334 78.6928 22.7288 83.7683C25.1243 88.8438 28.6762 93.287 33.0996 96.7414L32.8469 103.505C32.7745 105.441 33.4745 107.328 34.7927 108.748C36.111 110.169 37.9396 111.008 39.8763 111.08C41.5099 111.137 43.1156 110.646 44.4367 109.683C45.7578 108.72 46.718 107.343 47.1639 105.77L47.5903 104.316C54.9045 106.5 62.6535 106.789 70.1102 105.158L70.427 106.639C70.7542 108.241 71.609 109.686 72.8546 110.745C74.1002 111.803 75.6647 112.414 77.298 112.478C79.2347 112.55 81.1208 111.85 82.5414 110.532C83.962 109.214 84.8007 107.385 84.8731 105.449L85.1258 98.6852C88.4694 96.3721 91.4312 93.551 93.9042 90.3238C95.4299 88.2532 97.4326 86.5811 99.7423 85.4494C102.052 84.3178 104.601 83.76 107.172 83.8234L108.008 83.8546C108.994 83.8915 109.953 83.5353 110.676 82.8644C111.399 82.1935 111.826 81.2629 111.863 80.2773L112.488 63.5546C112.525 62.569 112.168 61.6092 111.497 60.8862C110.827 60.1633 109.896 59.7364 108.91 59.6996L99.62 59.3525C98.476 55.6197 96.7212 52.1023 94.4269 48.9434L95.1565 29.415C92.4212 29.2924 89.7363 30.1801 87.613 31.909C85.4898 33.6378 84.0765 36.0871 83.6422 38.7905C81.3363 37.2903 78.8916 36.0151 76.3418 34.9825L75.9509 45.4435L46.2217 44.3328L46.6132 33.8532C31.1935 38.6917 19.8948 51.7594 19.3061 67.5159Z" fill="#F9A49B"/>
<path d="M11.3876 80.2446C11.8804 80.263 12.3604 80.0849 12.7218 79.7494C13.0833 79.414 13.2967 78.9487 13.3151 78.4559L13.454 74.7398C13.5092 73.2614 14.1495 71.8655 15.2339 70.8592C16.3183 69.8529 17.7581 69.3186 19.2365 69.3738C19.7293 69.3922 20.2092 69.2141 20.5707 68.8787C20.9321 68.5432 21.1456 68.0779 21.164 67.5851C21.1824 67.0923 21.0043 66.6124 20.6688 66.2509C20.3334 65.8895 19.8681 65.676 19.3753 65.6576C16.9114 65.5656 14.5117 66.4561 12.7044 68.1333C10.897 69.8105 9.82988 72.137 9.73782 74.6009L9.59898 78.3171C9.58057 78.8099 9.75867 79.2898 10.0941 79.6513C10.4296 80.0127 10.8948 80.2262 11.3876 80.2446Z" fill="#F26A56"/>
<path d="M47.3331 14.6035L46.2223 44.3327L53.8962 44.6194C53.753 44.008 53.695 43.3797 53.7241 42.7523C53.7977 40.7812 54.6514 38.92 56.0973 37.5782C57.5432 36.2365 59.4629 35.5241 61.4341 35.5977C63.4052 35.6714 65.2664 36.525 66.6082 37.9709C67.9499 39.4168 68.6624 41.3365 68.5887 43.3077C68.5709 43.9354 68.4662 44.5577 68.2777 45.1568L75.9516 45.4435L77.0623 15.7142C77.0992 14.7286 76.7429 13.7688 76.0721 13.0458C75.4012 12.3229 74.4706 11.896 73.485 11.8592L51.1881 11.0262C50.2025 10.9893 49.2426 11.3455 48.5197 12.0164C47.7967 12.6873 47.3699 13.6179 47.3331 14.6035Z" fill="#0E9347"/>
<path d="M53.7236 42.7519C53.6946 43.3793 53.7525 44.0076 53.8958 44.619L68.2773 45.1564C68.4658 44.5573 68.5704 43.9351 68.5883 43.3073C68.6619 41.3361 67.9495 39.4164 66.6077 37.9705C65.266 36.5246 63.4048 35.671 61.4336 35.5973C59.4625 35.5237 57.5428 36.2361 56.0969 37.5778C54.651 38.9196 53.7973 40.7808 53.7236 42.7519Z" fill="#3BB54A"/>
<path d="M89.3318 60.8285C87.7925 60.771 86.5913 59.4765 86.6488 57.9373C86.7063 56.398 88.0007 55.1968 89.54 55.2543C91.0793 55.3118 92.2805 56.6062 92.223 58.1455C92.1655 59.6848 90.8711 60.886 89.3318 60.8285Z" fill="#494A52"/>
<path d="M19.3061 67.5157C19.1611 73.1262 20.3334 78.6926 22.7288 83.7681C25.1243 88.8436 28.6762 93.2868 33.0996 96.7412L32.858 103.207C32.7726 104.681 33.1211 106.148 33.8604 107.425C34.5998 108.703 35.6975 109.736 37.0178 110.396C37.9779 110.848 39.0249 111.086 40.0861 111.092C41.1473 111.099 42.1972 110.874 43.1628 110.434C44.1284 109.994 44.9865 109.348 45.6774 108.543C46.3684 107.738 46.8756 106.791 47.1639 105.77L47.5903 104.316C54.9045 106.5 62.6535 106.789 70.1102 105.157L70.427 106.639C70.8001 108.387 71.8011 109.938 73.2406 110.998C74.6801 112.058 76.4583 112.554 78.2386 112.391C80.0188 112.228 81.6777 111.419 82.9012 110.115C84.1247 108.812 84.828 107.105 84.878 105.318L85.1258 98.685C88.4762 96.3664 91.4445 93.5393 93.9235 90.3058C95.4457 88.2328 97.448 86.5601 99.7588 85.4311C102.07 84.3022 104.62 83.7507 107.19 83.8239L108.008 83.8545C108.994 83.8913 109.953 83.5351 110.676 82.8642C111.399 82.1933 111.826 81.2627 111.863 80.2771L112.002 76.561L107.803 76.4041C105.398 76.2826 102.999 76.735 100.804 77.7239C98.6095 78.7128 96.6813 80.2099 95.1794 82.0913C87.9063 91.4951 74.8061 97.4994 60.0716 96.9489C38.0162 96.1248 20.6671 80.889 21.3377 62.9399C21.545 59.0605 22.5274 55.262 24.2271 51.7686C25.9267 48.2752 28.3091 45.1578 31.2336 42.6004C27.6738 45.7393 24.783 49.5632 22.7337 53.844C20.6845 58.1247 19.5187 62.7745 19.3061 67.5157Z" fill="#F26A56"/>
<path d="M42.4362 46.0518L79.5978 47.4402C80.0906 47.4586 80.5705 47.2805 80.932 46.9451C81.2935 46.6096 81.5069 46.1443 81.5253 45.6515C81.5437 45.1587 81.3656 44.6788 81.0302 44.3173C80.6947 43.9559 80.2294 43.7424 79.7366 43.724L42.5751 42.3356C42.0823 42.3172 41.6024 42.4953 41.2409 42.8308C40.8794 43.1662 40.666 43.6315 40.6476 44.1243C40.6292 44.6171 40.8073 45.097 41.1427 45.4585C41.4781 45.82 41.9434 46.0334 42.4362 46.0518Z" fill="#F04B4D"/>
</svg>
