<svg width="623" height="623" viewBox="0 0 623 623" fill="none" xmlns="http://www.w3.org/2000/svg">
<path d="M243.402 248.514L315.381 218.972C316.812 180.102 341.989 164.716 341.989 164.716L348.281 210.802C371.814 209.745 394.884 217.57 412.917 232.727L437.535 218.551C442.277 216.605 448.523 218.533 450.469 223.275L478.778 292.25C480.724 296.992 477.649 302.788 472.907 304.734L449.743 310.211C450.047 326.787 445.755 343.118 437.805 357.431C437.933 357.555 438.033 357.672 438.156 357.806L454.45 375.734C457.9 379.525 457.612 385.451 453.822 388.903L426.247 414.002C422.457 417.454 416.53 417.176 413.08 413.385L397.37 396.296C395.53 397.196 393.783 398.355 391.864 399.142L317.715 429.574C316.939 429.893 316.032 429.872 315.253 430.168L316.134 453.35C316.342 458.471 312.29 462.757 307.167 462.962L269.902 464.432C264.78 464.638 260.413 460.6 260.207 455.478L259.644 432.678C232.357 425.461 209 405.671 197.436 377.494L193.897 368.873C174.435 321.452 195.981 267.976 243.402 248.514Z" stroke="#132D46" stroke-width="7.45585" stroke-miterlimit="10" stroke-linecap="round" stroke-linejoin="round"/>
<path d="M300.779 256.194L245.599 278.842" stroke="#132D46" stroke-width="13.0477" stroke-miterlimit="10" stroke-linecap="round" stroke-linejoin="round"/>
<path d="M364.746 265.168C368.456 274.207 378.814 278.535 387.851 274.826C396.89 271.116 401.219 260.76 397.51 251.721C393.8 242.682 383.444 238.353 374.405 242.063C365.367 245.772 361.036 256.129 364.746 265.168Z" fill="#132D46"/>
<path d="M268.36 253.689C250.583 260.985 230.256 252.488 222.96 234.711C215.664 216.933 224.16 196.607 241.938 189.311C259.715 182.014 280.042 190.511 287.338 208.289C294.634 226.066 286.138 246.392 268.36 253.689Z" fill="#F0EB7A" stroke="#F9B618" stroke-width="7.45585" stroke-miterlimit="10" stroke-linecap="round" stroke-linejoin="round"/>
<path d="M191.665 365.695C187.94 375.292 177.144 380.053 167.545 376.327C163.858 374.895 160.891 372.058 159.295 368.439C157.7 364.82 157.607 360.715 159.038 357.028C160.183 354.078 162.453 351.704 165.349 350.428C168.244 349.152 171.528 349.079 174.478 350.224C176.837 351.14 178.735 352.956 179.756 355.272C180.776 357.588 180.835 360.215 179.919 362.574" stroke="#132D46" stroke-width="7.45585" stroke-miterlimit="10" stroke-linecap="round" stroke-linejoin="round"/>
<g filter="url(#filter0_d_225_18894)">
<path d="M321.002 389.643C311.855 388.281 304.258 385.017 298.21 379.851C292.161 374.685 287.908 367.888 285.448 359.459C282.989 351.03 282.578 341.291 284.217 330.243C285.861 319.161 289.032 310.01 293.732 302.789C298.465 295.572 304.437 290.428 311.648 287.356C318.893 284.289 327.091 283.421 336.242 284.75C345.393 286.08 353.002 289.262 359.069 294.296C365.142 299.298 369.419 305.931 371.903 314.196C374.386 322.461 374.808 332.118 373.169 343.167C371.554 354.286 368.368 363.536 363.611 370.916C358.855 378.297 352.843 383.602 345.574 386.833C338.344 390.036 330.153 390.973 321.002 389.643ZM324.233 367.405C328.956 368.091 333.184 366.194 336.916 361.712C340.686 357.203 343.324 349.648 344.831 339.049C345.836 332.129 345.969 326.371 345.23 321.775C344.491 317.18 343.061 313.657 340.939 311.205C338.821 308.72 336.188 307.249 333.039 306.792C328.316 306.105 324.114 307.94 320.434 312.295C316.753 316.65 314.127 324.005 312.556 334.36C311.498 341.407 311.327 347.31 312.043 352.07C312.762 356.796 314.179 360.418 316.291 362.936C318.437 365.458 321.084 366.948 324.233 367.405Z" fill="#37A3A5"/>
</g>
<defs>
<filter id="filter0_d_225_18894" x="272.476" y="278.281" width="112.291" height="125.831" filterUnits="userSpaceOnUse" color-interpolation-filters="sRGB">
<feFlood flood-opacity="0" result="BackgroundImageFix"/>
<feColorMatrix in="SourceAlpha" type="matrix" values="0 0 0 0 0 0 0 0 0 0 0 0 0 0 0 0 0 0 127 0" result="hardAlpha"/>
<feOffset dy="4"/>
<feGaussianBlur stdDeviation="2"/>
<feComposite in2="hardAlpha" operator="out"/>
<feColorMatrix type="matrix" values="0 0 0 0 0 0 0 0 0 0 0 0 0 0 0 0 0 0 0.25 0"/>
<feBlend mode="normal" in2="BackgroundImageFix" result="effect1_dropShadow_225_18894"/>
<feBlend mode="normal" in="SourceGraphic" in2="effect1_dropShadow_225_18894" result="shape"/>
</filter>
</defs>
</svg>
