<svg width="278" height="278" viewBox="0 0 278 278" fill="none" xmlns="http://www.w3.org/2000/svg">
<g clip-path="url(#clip0_225_18946)">
<path d="M69.6416 177.75C73.158 187.411 78.8903 196.114 86.3786 203.159C93.8668 210.204 102.902 215.396 112.76 218.317L116.866 230.016C118.042 233.366 120.5 236.112 123.701 237.65C126.901 239.187 130.581 239.39 133.931 238.214C136.754 237.217 139.161 235.301 140.768 232.774C142.374 230.247 143.087 227.254 142.792 224.274L142.544 221.51C156.477 220.326 169.881 215.621 181.498 207.837L183.032 210.151C184.664 212.661 187.09 214.552 189.924 215.521C192.757 216.49 195.834 216.481 198.661 215.495C202.011 214.319 204.757 211.861 206.294 208.661C207.832 205.46 208.035 201.78 206.859 198.43L202.753 186.731C206.901 180.545 210.058 173.749 212.109 166.589C213.32 162.036 215.613 157.842 218.791 154.364C221.969 150.885 225.94 148.225 230.365 146.608L231.812 146.1C233.516 145.502 234.914 144.251 235.696 142.622C236.479 140.994 236.582 139.121 235.984 137.416L225.831 108.49C225.233 106.785 223.981 105.388 222.353 104.605C220.724 103.823 218.851 103.72 217.147 104.318L201.077 109.958C196.622 104.362 191.271 99.5434 185.241 95.6974L173.385 61.918C168.64 63.544 164.659 66.8582 162.199 71.2297C159.739 75.6011 158.973 80.7245 160.046 85.6243C155.109 84.6138 150.086 84.0799 145.047 84.03L151.398 102.125L99.9731 120.174L93.6108 102.047C70.5706 120.639 60.0756 150.495 69.6416 177.75Z" fill="#F9A49B"/>
<path d="M64.682 204.759C65.5344 204.46 66.233 203.835 66.6242 203.02C67.0154 202.206 67.0671 201.27 66.7679 200.417L64.5118 193.989C63.6142 191.432 63.7693 188.623 64.9429 186.18C66.1165 183.737 68.2124 181.86 70.7697 180.963C71.6221 180.664 72.3207 180.038 72.7119 179.224C73.1031 178.41 73.1548 177.473 72.8556 176.621C72.5564 175.768 71.9309 175.07 71.1166 174.679C70.3023 174.287 69.3659 174.236 68.5135 174.535C64.2514 176.031 60.7582 179.158 58.8022 183.23C56.8463 187.301 56.5878 191.983 58.0837 196.245L60.3399 202.673C60.639 203.526 61.2646 204.224 62.0789 204.616C62.8932 205.007 63.8295 205.059 64.682 204.759Z" fill="#F26A56"/>
<path d="M81.9244 68.7492L99.9736 120.174L113.248 115.515C112.593 114.569 112.073 113.536 111.702 112.447C110.505 109.038 110.712 105.292 112.276 102.035C113.841 98.7779 116.636 96.2757 120.045 95.0789C123.455 93.8822 127.201 94.089 130.458 95.6538C133.715 97.2185 136.217 100.013 137.414 103.423C137.805 104.505 138.044 105.636 138.124 106.783L151.398 102.125L133.349 50.7C132.751 48.9952 131.499 47.5979 129.871 46.8155C128.242 46.0331 126.37 45.9297 124.665 46.5281L86.0963 60.065C84.3915 60.6633 82.9942 61.9144 82.2118 63.5431C81.4294 65.1717 81.3261 67.0444 81.9244 68.7492Z" fill="#0E9347"/>
<path d="M111.701 112.447C112.072 113.536 112.592 114.568 113.247 115.515L138.123 106.783C138.043 105.636 137.804 104.505 137.413 103.423C136.216 100.013 133.714 97.2184 130.457 95.6537C127.2 94.0889 123.454 93.8821 120.045 95.0789C116.635 96.2756 113.841 98.7778 112.276 102.035C110.711 105.292 110.504 109.038 111.701 112.447Z" fill="#3BB54A"/>
<path d="M184.528 119.376C181.865 120.311 178.949 118.91 178.015 116.247C177.08 113.585 178.481 110.669 181.144 109.734C183.806 108.8 186.722 110.2 187.657 112.863C188.591 115.526 187.191 118.442 184.528 119.376Z" fill="#494A52"/>
<path d="M69.6419 177.749C73.1582 187.411 78.8906 196.114 86.3788 203.159C93.867 210.204 102.903 215.396 112.76 218.317L116.686 229.502C117.529 232.072 119.107 234.338 121.224 236.02C123.342 237.702 125.906 238.726 128.599 238.966C130.539 239.093 132.484 238.796 134.297 238.095C136.11 237.394 137.75 236.307 139.1 234.909C140.451 233.511 141.481 231.835 142.118 229.999C142.756 228.162 142.986 226.209 142.792 224.274L142.544 221.509C156.477 220.326 169.881 215.621 181.498 207.837L183.032 210.151C184.841 212.881 187.587 214.853 190.752 215.695C193.917 216.536 197.281 216.188 200.207 214.716C203.132 213.245 205.417 210.752 206.628 207.709C207.84 204.666 207.894 201.285 206.78 198.205L202.753 186.731C206.909 180.531 210.073 173.721 212.13 166.546C213.334 161.991 215.625 157.796 218.807 154.322C221.989 150.847 225.966 148.196 230.398 146.597L231.812 146.1C233.517 145.502 234.914 144.251 235.696 142.622C236.479 140.994 236.582 139.121 235.984 137.416L233.728 130.988L226.464 133.537C222.284 134.943 218.498 137.323 215.42 140.482C212.341 143.64 210.059 147.485 208.76 151.7C202.67 172.609 184.366 191.633 158.879 200.578C120.728 213.968 80.9329 199.634 70.0357 168.586C67.7867 161.834 66.9134 154.7 67.4674 147.604C68.0213 140.509 69.9914 133.597 73.2612 127.275C69.2985 135.014 66.9357 143.472 66.3138 152.144C65.692 160.816 66.8239 169.524 69.6419 177.749Z" fill="#F26A56"/>
<path d="M94.6736 125.644L158.954 103.083C159.807 102.783 160.505 102.158 160.896 101.343C161.288 100.529 161.339 99.5928 161.04 98.7404C160.741 97.888 160.115 97.1893 159.301 96.7981C158.487 96.4069 157.55 96.3553 156.698 96.6544L92.4175 119.216C91.565 119.515 90.8664 120.141 90.4752 120.955C90.084 121.769 90.0323 122.706 90.3315 123.558C90.6307 124.41 91.2562 125.109 92.0705 125.5C92.8848 125.891 93.8212 125.943 94.6736 125.644Z" fill="#F04B4D"/>
</g>
<defs>
<clipPath id="clip0_225_18946">
<rect width="218" height="218" fill="white" transform="matrix(-0.943569 0.331177 0.331177 0.943569 205.803 0)"/>
</clipPath>
</defs>
</svg>
