<svg width="248" height="248" viewBox="0 0 248 248" fill="none" xmlns="http://www.w3.org/2000/svg">
<path d="M34.875 139.501C35.0095 151.196 37.884 162.697 43.2677 173.081C48.6513 183.465 56.3942 192.442 65.875 199.292V213.397C65.875 217.436 67.4794 221.309 70.3354 224.165C73.1913 227.021 77.0648 228.626 81.1037 228.626C84.5103 228.618 87.816 227.469 90.4924 225.362C93.1688 223.254 95.0614 220.31 95.8675 217.001L96.6425 213.939C112.045 217.918 128.205 217.918 143.607 213.939L144.382 217.001C145.189 220.31 147.081 223.254 149.758 225.362C152.434 227.469 155.74 228.618 159.146 228.626C163.185 228.626 167.059 227.021 169.915 224.165C172.771 221.309 174.375 217.436 174.375 213.397V199.292C181.158 194.215 187.107 188.109 192.006 181.196C195.022 176.765 199.063 173.127 203.785 170.59C208.507 168.054 213.771 166.694 219.131 166.626H220.875C222.93 166.626 224.902 165.809 226.355 164.356C227.808 162.902 228.625 160.931 228.625 158.876V124.001C228.625 121.945 227.808 119.974 226.355 118.521C224.902 117.067 222.93 116.251 220.875 116.251H201.5C198.827 108.566 194.899 101.377 189.875 94.9769V54.2506C184.169 54.2083 178.646 56.2658 174.359 60.0315C170.072 63.7972 167.319 69.008 166.625 74.6719C161.706 71.727 156.516 69.2615 151.125 67.3094V89.1256H89.125V67.2706C57.3887 78.5469 34.875 106.641 34.875 139.501Z" fill="#F9A49B"/>
<path d="M19.375 166.625C20.4027 166.625 21.3883 166.217 22.115 165.49C22.8417 164.763 23.25 163.778 23.25 162.75V155C23.25 151.917 24.4748 148.96 26.6549 146.78C28.835 144.6 31.7919 143.375 34.875 143.375C35.9027 143.375 36.8883 142.967 37.615 142.24C38.3417 141.513 38.75 140.528 38.75 139.5C38.75 138.472 38.3417 137.487 37.615 136.76C36.8883 136.033 35.9027 135.625 34.875 135.625C29.7364 135.625 24.8083 137.666 21.1748 141.3C17.5413 144.933 15.5 149.861 15.5 155V162.75C15.5 163.778 15.9083 164.763 16.635 165.49C17.3617 166.217 18.3473 166.625 19.375 166.625Z" fill="#F26A56"/>
<path d="M89.125 27.125V89.125H105.129C104.783 87.8628 104.613 86.5587 104.625 85.25C104.625 81.1391 106.258 77.1967 109.165 74.2898C112.072 71.383 116.014 69.75 120.125 69.75C124.236 69.75 128.178 71.383 131.085 74.2898C133.992 77.1967 135.625 81.1391 135.625 85.25C135.637 86.5587 135.467 87.8628 135.121 89.125H151.125V27.125C151.125 25.0696 150.308 23.0983 148.855 21.6449C147.402 20.1915 145.43 19.375 143.375 19.375H96.875C94.8196 19.375 92.8483 20.1915 91.3949 21.6449C89.9415 23.0983 89.125 25.0696 89.125 27.125Z" fill="#0E9347"/>
<path d="M104.624 85.25C104.613 86.5587 104.782 87.8628 105.128 89.125H135.121C135.467 87.8628 135.636 86.5587 135.624 85.25C135.624 81.1391 133.991 77.1967 131.085 74.2898C128.178 71.383 124.235 69.75 120.124 69.75C116.014 69.75 112.071 71.383 109.164 74.2898C106.257 77.1967 104.624 81.1391 104.624 85.25Z" fill="#3BB54A"/>
<path d="M180.188 120.125C176.977 120.125 174.375 117.523 174.375 114.312C174.375 111.102 176.977 108.5 180.188 108.5C183.398 108.5 186 111.102 186 114.312C186 117.523 183.398 120.125 180.188 120.125Z" fill="#494A52"/>
<path d="M34.875 139.5C35.0095 151.196 37.884 162.697 43.2677 173.081C48.6513 183.465 56.3942 192.442 65.875 199.292V212.777C65.8117 215.852 66.6516 218.879 68.2908 221.483C69.93 224.086 72.2965 226.152 75.0975 227.424C77.1321 228.291 79.3311 228.704 81.5417 228.635C83.7522 228.567 85.9212 228.017 87.8978 227.025C89.8745 226.033 91.6113 224.622 92.9877 222.891C94.364 221.16 95.3467 219.15 95.8675 217L96.6425 213.939C112.045 217.918 128.205 217.918 143.607 213.939L144.382 217C145.295 220.612 147.501 223.764 150.581 225.86C153.662 227.955 157.403 228.849 161.098 228.372C164.793 227.894 168.185 226.079 170.632 223.269C173.078 220.46 174.41 216.851 174.375 213.125V199.292C181.172 194.202 187.134 188.084 192.045 181.157C195.054 176.721 199.094 173.082 203.818 170.551C208.543 168.02 213.811 166.673 219.17 166.625H220.875C222.93 166.625 224.902 165.809 226.355 164.355C227.808 162.902 228.625 160.931 228.625 158.875V151.125H219.867C214.851 151.059 209.89 152.188 205.396 154.418C200.902 156.649 197.003 159.916 194.021 163.952C179.606 184.102 152.791 197.625 122.062 197.625C76.0663 197.625 38.75 167.245 38.75 129.813C38.8798 121.718 40.6302 113.73 43.8981 106.323C47.1659 98.9153 51.8848 92.2376 57.7762 86.6841C50.607 93.498 44.8842 101.687 40.9495 110.761C37.0148 119.836 34.9489 129.61 34.875 139.5Z" fill="#F26A56"/>
<path d="M81.375 93H158.875C159.903 93 160.888 92.5917 161.615 91.865C162.342 91.1383 162.75 90.1527 162.75 89.125C162.75 88.0973 162.342 87.1117 161.615 86.385C160.888 85.6583 159.903 85.25 158.875 85.25H81.375C80.3473 85.25 79.3617 85.6583 78.635 86.385C77.9083 87.1117 77.5 88.0973 77.5 89.125C77.5 90.1527 77.9083 91.1383 78.635 91.865C79.3617 92.5917 80.3473 93 81.375 93Z" fill="#F04B4D"/>
<g filter="url(#filter0_d_225_18928)">
<path d="M87.4663 153.091V131.614L128.432 67.1818H147.921V95.8182H136.784L114.711 130.818V131.614H175.165V153.091H87.4663ZM136.983 169V146.528L137.58 137.182V67.1818H163.432V169H136.983Z" fill="#37A3A5"/>
</g>
<defs>
<filter id="filter0_d_225_18928" x="83.4658" y="67.1816" width="95.6992" height="109.818" filterUnits="userSpaceOnUse" color-interpolation-filters="sRGB">
<feFlood flood-opacity="0" result="BackgroundImageFix"/>
<feColorMatrix in="SourceAlpha" type="matrix" values="0 0 0 0 0 0 0 0 0 0 0 0 0 0 0 0 0 0 127 0" result="hardAlpha"/>
<feOffset dy="4"/>
<feGaussianBlur stdDeviation="2"/>
<feComposite in2="hardAlpha" operator="out"/>
<feColorMatrix type="matrix" values="0 0 0 0 0 0 0 0 0 0 0 0 0 0 0 0 0 0 0.25 0"/>
<feBlend mode="normal" in2="BackgroundImageFix" result="effect1_dropShadow_225_18928"/>
<feBlend mode="normal" in="SourceGraphic" in2="effect1_dropShadow_225_18928" result="shape"/>
</filter>
</defs>
</svg>
