<svg width="254" height="255" viewBox="0 0 254 255" fill="none" xmlns="http://www.w3.org/2000/svg">
<path d="M109.531 146.137L148.727 148.355C157.728 132.926 172.524 131.659 172.524 131.659L165.498 151.524C176.466 155.725 185.315 163.426 190.29 173.099L204.571 172.212C207.153 172.358 209.589 174.366 209.459 176.665L207.567 210.112C207.436 212.411 204.788 214.149 202.206 214.003L190.458 211.66C187.036 218.42 181.57 224.176 174.868 228.397C174.899 228.473 174.92 228.539 174.947 228.618L178.534 239.069C179.294 241.28 177.89 243.619 175.419 244.268L157.443 248.989C154.972 249.638 152.327 248.36 151.566 246.15L148.066 236.152C147.033 236.154 145.987 236.279 144.942 236.22L104.564 233.935C104.141 233.911 103.732 233.724 103.312 233.69L98.7359 243.233C97.731 245.344 94.9612 246.279 92.5794 245.354L75.2552 238.619C72.8733 237.695 71.7472 235.203 72.7531 233.093L77.3928 223.766C66.4885 215.482 60.0784 202.889 60.8516 189.226L61.0882 185.046C62.3893 162.051 83.708 144.675 109.531 146.137Z" stroke="#132D46" stroke-width="3.76208" stroke-miterlimit="10" stroke-linecap="round" stroke-linejoin="round"/>
<path d="M134.069 160.527L104.02 158.827" stroke="#132D46" stroke-width="6.58364" stroke-miterlimit="10" stroke-linecap="round" stroke-linejoin="round"/>
<path d="M161.338 176.736C161.09 181.119 164.887 184.906 169.809 185.184C174.731 185.463 178.931 182.129 179.179 177.745C179.427 173.362 175.63 169.576 170.708 169.297C165.786 169.018 161.586 172.353 161.338 176.736Z" fill="#132D46"/>
<path d="M119.811 153.138C110.13 152.59 102.678 145.158 103.165 136.537C103.653 127.917 111.897 121.372 121.577 121.92C131.258 122.468 138.711 129.9 138.223 138.521C137.735 147.141 129.492 153.685 119.811 153.138Z" fill="#F0EB7A" stroke="#F9B618" stroke-width="3.76208" stroke-miterlimit="10" stroke-linecap="round" stroke-linejoin="round"/>
<path d="M60.7515 183.323C56.99 186.468 51.0402 186.269 47.4594 182.875C46.0842 181.571 45.3392 179.841 45.3883 178.064C45.4374 176.288 46.2766 174.61 47.7214 173.402C48.8775 172.435 50.4234 171.922 52.019 171.975C53.6146 172.029 55.1291 172.645 56.2295 173.688C57.1095 174.523 57.5861 175.63 57.5545 176.767C57.5228 177.904 56.9855 178.977 56.0608 179.75" stroke="#132D46" stroke-width="3.76208" stroke-miterlimit="10" stroke-linecap="round" stroke-linejoin="round"/>
<g filter="url(#filter0_d_225_18902)">
<path d="M104.342 213.182L104.342 203.977L121.899 176.364L130.251 176.364L130.251 188.636L125.479 188.636L116.018 203.636L116.018 203.977L141.927 203.977L141.927 213.182L104.342 213.182ZM125.564 220L125.564 210.369L125.819 206.364L125.819 176.364L136.899 176.364L136.899 220L125.564 220Z" fill="#37A3A5"/>
</g>
<defs>
<filter id="filter0_d_225_18902" x="100.342" y="176.364" width="45.585" height="51.6362" filterUnits="userSpaceOnUse" color-interpolation-filters="sRGB">
<feFlood flood-opacity="0" result="BackgroundImageFix"/>
<feColorMatrix in="SourceAlpha" type="matrix" values="0 0 0 0 0 0 0 0 0 0 0 0 0 0 0 0 0 0 127 0" result="hardAlpha"/>
<feOffset dy="4"/>
<feGaussianBlur stdDeviation="2"/>
<feComposite in2="hardAlpha" operator="out"/>
<feColorMatrix type="matrix" values="0 0 0 0 0 0 0 0 0 0 0 0 0 0 0 0 0 0 0.25 0"/>
<feBlend mode="normal" in2="BackgroundImageFix" result="effect1_dropShadow_225_18902"/>
<feBlend mode="normal" in="SourceGraphic" in2="effect1_dropShadow_225_18902" result="shape"/>
</filter>
</defs>
</svg>
