<svg width="73" height="65" viewBox="0 0 73 65" fill="none" xmlns="http://www.w3.org/2000/svg">
<path d="M15.627 39.582H26.1031C27.3242 39.582 28.5328 39.8029 29.6566 40.2317C30.7805 40.6605 31.7964 41.2882 32.6437 42.0773L35.336 44.5859H47.1379C48.2034 44.5859 49.2253 44.9658 49.9787 45.642C50.7322 46.3181 51.1554 47.2352 51.1554 48.1914C51.1554 48.2777 51.152 48.3636 51.1452 48.4484L61.3809 39.263C62.1343 38.5872 63.1559 38.2075 64.2212 38.2075C65.2864 38.2075 66.308 38.5872 67.0614 39.263C67.8145 39.9392 68.2376 40.856 68.2376 41.812C68.2376 42.768 67.8145 43.6849 67.0614 44.361L51.6279 58.2095C50.5411 59.1849 49.0671 59.7329 47.53 59.733H15.627V39.582Z" fill="#FCD0A3"/>
<path d="M4.76324 37.5177H15.627V61.7977H4.76324V37.5177Z" fill="#132D46"/>
<path d="M51.6145 34.8386C56.962 30.0396 56.962 22.259 51.6145 17.46C46.2671 12.661 37.5972 12.661 32.2498 17.46C26.9023 22.259 26.9023 30.0396 32.2498 34.8386C37.5972 39.6376 46.2671 39.6376 51.6145 34.8386Z" fill="#F4DD45"/>
<path d="M48.574 32.11C52.2423 28.818 52.2423 23.4806 48.574 20.1886C44.9058 16.8966 38.9585 16.8966 35.2902 20.1886C31.622 23.4806 31.622 28.818 35.2902 32.11C38.9585 35.402 44.9058 35.402 48.574 32.11Z" fill="#FCC101"/>
<path d="M42.7022 31.2269V32.1491H41.2418V31.1842C39.8435 31.0425 38.5326 30.5024 37.5015 29.643L38.6576 28.3608C39.3779 28.9763 40.2712 29.4046 41.2418 29.5999V26.7901C39.2675 26.3296 37.935 25.6958 37.935 23.9972C37.935 22.4417 39.2675 21.2458 41.2418 21.03V20.15H42.7022V21.0432C43.9551 21.1593 45.135 21.628 46.073 22.3823L44.9815 23.7077C44.3337 23.1831 43.5503 22.8118 42.7022 22.6276V25.3358C44.9017 25.7821 46.3621 26.459 46.3621 28.2161C46.3621 29.8731 45.0296 31.0827 42.7022 31.2269ZM41.2418 24.9894V22.5976C40.9033 22.6435 40.592 22.7909 40.3588 23.0158C40.1255 23.2407 39.984 23.5299 39.9573 23.8362C39.9573 24.4136 40.3755 24.7162 41.2418 24.9894ZM44.3539 28.3918C44.3539 27.7316 43.8402 27.4269 42.7005 27.1223V29.6862C43.7943 29.5704 44.3556 29.023 44.3556 28.3892L44.3539 28.3918ZM41.9321 10.9931C41.8021 10.9932 41.6733 10.9702 41.5531 10.9256C41.4329 10.881 41.3237 10.8155 41.2317 10.733C41.1398 10.6504 41.0668 10.5524 41.0171 10.4446C40.9674 10.3367 40.9418 10.2212 40.9419 10.1044V7.64815C40.9419 7.41246 41.0462 7.18642 41.2319 7.01976C41.4176 6.85311 41.6695 6.75948 41.9321 6.75948C42.1947 6.75948 42.4466 6.85311 42.6323 7.01976C42.818 7.18642 42.9223 7.41246 42.9223 7.64815V10.1055C42.922 10.341 42.8176 10.5667 42.6319 10.7332C42.4462 10.8996 42.1945 10.9931 41.9321 10.9931ZM41.9321 5.19846C41.8021 5.19853 41.6733 5.17559 41.5531 5.13095C41.4329 5.08632 41.3237 5.02086 41.2317 4.93832C41.1398 4.85579 41.0668 4.7578 41.0171 4.64995C40.9674 4.5421 40.9418 4.42651 40.9419 4.30979V3.20276C40.9419 2.96707 41.0462 2.74103 41.2319 2.57437C41.4176 2.40771 41.6695 2.31409 41.9321 2.31409C42.1947 2.31409 42.4466 2.40771 42.6323 2.57437C42.818 2.74103 42.9223 2.96707 42.9223 3.20276V4.30979C42.9223 4.54548 42.818 4.77152 42.6323 4.93818C42.4466 5.10483 42.1947 5.19846 41.9321 5.19846ZM34.8024 12.4922C34.5398 12.492 34.2881 12.3984 34.1024 12.2317C33.9167 12.0651 33.8123 11.8391 33.8122 11.6035V9.14721C33.8122 8.91152 33.9165 8.68548 34.1022 8.51883C34.2879 8.35217 34.5398 8.25854 34.8024 8.25854C35.0651 8.25854 35.3169 8.35217 35.5026 8.51883C35.6883 8.68548 35.7927 8.91152 35.7927 9.14721V11.604C35.7924 11.8396 35.6879 12.0654 35.5023 12.2319C35.3166 12.3984 35.0649 12.492 34.8024 12.4922ZM34.8024 6.69752C34.5398 6.69739 34.2881 6.60372 34.1024 6.43709C33.9167 6.27046 33.8123 6.0445 33.8122 5.80885V4.70182C33.8122 4.46613 33.9165 4.24009 34.1022 4.07344C34.2879 3.90678 34.5398 3.81315 34.8024 3.81315C35.0651 3.81315 35.3169 3.90678 35.5026 4.07344C35.6883 4.24009 35.7927 4.46613 35.7927 4.70182V5.80885C35.7925 6.0445 35.6881 6.27046 35.5025 6.43709C35.3168 6.60372 35.065 6.69739 34.8024 6.69752ZM49.0618 12.4922C48.7992 12.4922 48.5473 12.3985 48.3616 12.2319C48.1759 12.0652 48.0716 11.8392 48.0716 11.6035V9.14721C48.0716 8.91152 48.1759 8.68548 48.3616 8.51883C48.5473 8.35217 48.7992 8.25854 49.0618 8.25854C49.3244 8.25854 49.5763 8.35217 49.762 8.51883C49.9477 8.68548 50.052 8.91152 50.052 9.14721V11.604C50.0519 11.8396 49.9475 12.0655 49.7618 12.2321C49.5761 12.3986 49.3243 12.4922 49.0618 12.4922ZM49.0618 6.69752C48.7992 6.69752 48.5473 6.6039 48.3616 6.43724C48.1759 6.27058 48.0716 6.04454 48.0716 5.80885V4.70182C48.0716 4.46613 48.1759 4.24009 48.3616 4.07344C48.5473 3.90678 48.7992 3.81315 49.0618 3.81315C49.3244 3.81315 49.5763 3.90678 49.762 4.07344C49.9477 4.24009 50.052 4.46613 50.052 4.70182V5.80885C50.052 6.04454 49.9477 6.27058 49.762 6.43724C49.5763 6.6039 49.3244 6.69752 49.0618 6.69752Z" fill="#F4DD45"/>
<path d="M51.1441 48.4453L52.9435 46.8355C53.0704 47.2785 53.1351 47.734 53.1359 48.1914C53.1341 49.6185 52.5016 50.9867 51.3772 51.9958C50.2527 53.005 48.7282 53.5726 47.1379 53.5742H32.8107C32.548 53.5742 32.2962 53.4806 32.1105 53.3139C31.9248 53.1473 31.8204 52.9212 31.8204 52.6855C31.8204 52.4498 31.9248 52.2238 32.1105 52.0572C32.2962 51.8905 32.548 51.7969 32.8107 51.7969H47.1379C48.1541 51.7959 49.1322 51.4497 49.8756 50.8279C50.6191 50.2062 51.0727 49.3549 51.1453 48.4453H51.1441Z" fill="#FEB983"/>
</svg>
