<svg width="125" height="113" viewBox="0 0 125 113" fill="none" xmlns="http://www.w3.org/2000/svg">
<g filter="url(#filter0_d_30_804)">
<rect x="4" width="117" height="105" rx="15" fill="#37A3A5"/>
<path d="M43.7678 59.582H53.1694C54.2654 59.582 55.35 59.8029 56.3586 60.2317C57.3671 60.6605 58.2788 61.2882 59.0393 62.0773L61.4554 64.5859H72.0469C73.0031 64.5859 73.9202 64.9658 74.5963 65.642C75.2725 66.3181 75.6523 67.2352 75.6523 68.1914C75.6523 68.2777 75.6493 68.3636 75.6432 68.4484L84.829 59.263C85.5051 58.5872 86.422 58.2075 87.378 58.2075C88.334 58.2075 89.2508 58.5872 89.9269 59.263C90.6028 59.9392 90.9825 60.856 90.9825 61.812C90.9825 62.768 90.6028 63.6849 89.9269 64.361L76.0764 78.2095C75.101 79.1849 73.7782 79.7329 72.3988 79.733H43.7678V59.582Z" fill="#FCD0A3"/>
<path d="M34.0183 57.5177H43.7678V81.7977H34.0183V57.5177Z" fill="#132D46"/>
<path d="M76.0643 54.8386C80.8633 50.0396 80.8633 42.259 76.0643 37.46C71.2653 32.661 63.4847 32.661 58.6857 37.46C53.8867 42.259 53.8867 50.0396 58.6857 54.8386C63.4847 59.6376 71.2653 59.6376 76.0643 54.8386Z" fill="#F4DD45"/>
<path d="M73.3357 52.11C76.6277 48.818 76.6277 43.4806 73.3357 40.1886C70.0437 36.8966 64.7063 36.8966 61.4143 40.1886C58.1223 43.4806 58.1223 48.818 61.4143 52.11C64.7063 55.402 70.0437 55.402 73.3357 52.11Z" fill="#FCC101"/>
<path d="M68.0661 51.2269V52.1491H66.7555V51.1842C65.5006 51.0425 64.3242 50.5024 63.3988 49.643L64.4363 48.3608C65.0828 48.9763 65.8844 49.4046 66.7555 49.5999V46.7901C64.9837 46.3296 63.7878 45.6958 63.7878 43.9972C63.7878 42.4417 64.9837 41.2458 66.7555 41.03V40.15H68.0661V41.0432C69.1905 41.1593 70.2493 41.628 71.0912 42.3823L70.1116 43.7077C69.5303 43.1831 68.8272 42.8118 68.0661 42.6276V45.3358C70.04 45.7821 71.3507 46.459 71.3507 48.2161C71.3507 49.8731 70.1548 51.0827 68.0661 51.2269V51.2269ZM66.7555 44.9894V42.5976C66.4517 42.6435 66.1724 42.7909 65.963 43.0158C65.7537 43.2407 65.6267 43.5299 65.6027 43.8362C65.6027 44.4136 65.978 44.7162 66.7555 44.9894ZM69.5484 48.3918C69.5484 47.7316 69.0873 47.4269 68.0646 47.1223V49.6862C69.0462 49.5704 69.55 49.023 69.55 48.3892L69.5484 48.3918ZM67.375 30.9931C67.2583 30.9932 67.1427 30.9702 67.0348 30.9256C66.927 30.881 66.829 30.8155 66.7465 30.733C66.6639 30.6504 66.5985 30.5524 66.5538 30.4446C66.5092 30.3367 66.4863 30.2212 66.4863 30.1044V27.6481C66.4863 27.4125 66.58 27.1864 66.7466 27.0198C66.9133 26.8531 67.1393 26.7595 67.375 26.7595C67.6107 26.7595 67.8367 26.8531 68.0034 27.0198C68.17 27.1864 68.2637 27.4125 68.2637 27.6481V30.1055C68.2634 30.341 68.1697 30.5667 68.003 30.7332C67.8364 30.8996 67.6105 30.9931 67.375 30.9931V30.9931ZM67.375 25.1985C67.2583 25.1985 67.1427 25.1756 67.0348 25.131C66.927 25.0863 66.829 25.0209 66.7465 24.9383C66.6639 24.8558 66.5985 24.7578 66.5538 24.6499C66.5092 24.5421 66.4863 24.4265 66.4863 24.3098V23.2028C66.4863 22.9671 66.58 22.741 66.7466 22.5744C66.9133 22.4077 67.1393 22.3141 67.375 22.3141C67.6107 22.3141 67.8367 22.4077 68.0034 22.5744C68.17 22.741 68.2637 22.9671 68.2637 23.2028V24.3098C68.2637 24.5455 68.17 24.7715 68.0034 24.9382C67.8367 25.1048 67.6107 25.1985 67.375 25.1985ZM60.9766 32.4922C60.7409 32.492 60.515 32.3984 60.3483 32.2317C60.1817 32.0651 60.088 31.8391 60.0879 31.6035V29.1472C60.0879 28.9115 60.1815 28.6855 60.3482 28.5188C60.5148 28.3522 60.7409 28.2585 60.9766 28.2585C61.2123 28.2585 61.4383 28.3522 61.6049 28.5188C61.7716 28.6855 61.8652 28.9115 61.8652 29.1472V31.604C61.865 31.8396 61.7712 32.0654 61.6046 32.2319C61.438 32.3984 61.2121 32.492 60.9766 32.4922V32.4922ZM60.9766 26.6975C60.7409 26.6974 60.515 26.6037 60.3483 26.4371C60.1817 26.2705 60.088 26.0445 60.0879 25.8089V24.7018C60.0879 24.4661 60.1815 24.2401 60.3482 24.0734C60.5148 23.9068 60.7409 23.8131 60.9766 23.8131C61.2123 23.8131 61.4383 23.9068 61.6049 24.0734C61.7716 24.2401 61.8652 24.4661 61.8652 24.7018V25.8089C61.8651 26.0445 61.7714 26.2705 61.6048 26.4371C61.4382 26.6037 61.2122 26.6974 60.9766 26.6975V26.6975ZM73.7734 32.4922C73.5377 32.4922 73.3117 32.3985 73.1451 32.2319C72.9784 32.0652 72.8848 31.8392 72.8848 31.6035V29.1472C72.8848 28.9115 72.9784 28.6855 73.1451 28.5188C73.3117 28.3522 73.5377 28.2585 73.7734 28.2585C74.0091 28.2585 74.2352 28.3522 74.4018 28.5188C74.5685 28.6855 74.6621 28.9115 74.6621 29.1472V31.604C74.662 31.8396 74.5683 32.0655 74.4016 32.2321C74.235 32.3986 74.009 32.4922 73.7734 32.4922V32.4922ZM73.7734 26.6975C73.5377 26.6975 73.3117 26.6039 73.1451 26.4372C72.9784 26.2706 72.8848 26.0445 72.8848 25.8089V24.7018C72.8848 24.4661 72.9784 24.2401 73.1451 24.0734C73.3117 23.9068 73.5377 23.8131 73.7734 23.8131C74.0091 23.8131 74.2352 23.9068 74.4018 24.0734C74.5685 24.2401 74.6621 24.4661 74.6621 24.7018V25.8089C74.6621 26.0445 74.5685 26.2706 74.4018 26.4372C74.2352 26.6039 74.0091 26.6975 73.7734 26.6975V26.6975Z" fill="#F4DD45"/>
<path d="M75.6422 68.4453L77.257 66.8356C77.3709 67.2786 77.4289 67.734 77.4297 68.1914C77.4281 69.6185 76.8604 70.9867 75.8513 71.9959C74.8422 73.005 73.474 73.5726 72.0469 73.5742H59.1891C58.9534 73.5742 58.7273 73.4806 58.5607 73.314C58.394 73.1473 58.3004 72.9213 58.3004 72.6856C58.3004 72.4499 58.394 72.2238 58.5607 72.0572C58.7273 71.8905 58.9534 71.7969 59.1891 71.7969H72.0469C72.9588 71.7959 73.8366 71.4497 74.5038 70.828C75.1709 70.2062 75.578 69.355 75.6432 68.4453H75.6422Z" fill="#FEB983"/>
</g>
<defs>
<filter id="filter0_d_30_804" x="0" y="0" width="125" height="113" filterUnits="userSpaceOnUse" color-interpolation-filters="sRGB">
<feFlood flood-opacity="0" result="BackgroundImageFix"/>
<feColorMatrix in="SourceAlpha" type="matrix" values="0 0 0 0 0 0 0 0 0 0 0 0 0 0 0 0 0 0 127 0" result="hardAlpha"/>
<feOffset dy="4"/>
<feGaussianBlur stdDeviation="2"/>
<feComposite in2="hardAlpha" operator="out"/>
<feColorMatrix type="matrix" values="0 0 0 0 0 0 0 0 0 0 0 0 0 0 0 0 0 0 0.25 0"/>
<feBlend mode="normal" in2="BackgroundImageFix" result="effect1_dropShadow_30_804"/>
<feBlend mode="normal" in="SourceGraphic" in2="effect1_dropShadow_30_804" result="shape"/>
</filter>
</defs>
</svg>
