<svg width="125" height="113" viewBox="0 0 125 113" fill="none" xmlns="http://www.w3.org/2000/svg">
<g filter="url(#filter0_d_71_149)">
<rect x="4" width="117" height="105" rx="15" fill="#37A3A5"/>
<path d="M62.502 61.7854C62.3025 64.1729 62.7223 66.5715 63.7208 68.7494C64.4056 70.2578 65.3572 71.6301 66.5299 72.8002C68.1078 74.3781 70.0417 75.5539 72.1688 76.2285C74.2959 76.9032 76.554 77.0569 78.753 76.6768V82.6775C78.753 83.2932 78.5084 83.8836 78.073 84.319C77.6376 84.7543 77.0471 84.9989 76.4314 84.9989H32.3216C31.7262 85.0177 31.1476 84.7998 30.7125 84.393C30.2774 83.9863 30.0212 83.4237 30 82.8284V22.1716C30.0212 21.5763 30.2774 21.0137 30.7125 20.607C31.1476 20.2002 31.7262 19.9823 32.3216 20.0011H67.1451V29.2053C67.1342 29.5169 67.1862 29.8275 67.298 30.1186C67.4098 30.4097 67.579 30.6753 67.7957 30.8995C68.0124 31.1237 68.272 31.302 68.5591 31.4237C68.8462 31.5454 69.1549 31.6081 69.4667 31.6079H78.753V49.2153C76.8488 48.8866 74.8971 48.9577 73.0218 49.424C71.1466 49.8903 69.3889 50.7416 67.8605 51.9238C66.3321 53.106 65.0664 54.5933 64.1439 56.291C63.2214 57.9888 62.6622 59.8599 62.502 61.7854Z" fill="url(#paint0_linear_71_149)"/>
<path d="M78.7529 31.6082H69.4666C69.1548 31.6084 68.8461 31.5457 68.559 31.424C68.2719 31.3023 68.0123 31.124 67.7956 30.8998C67.5789 30.6756 67.4097 30.41 67.2979 30.1189C67.1861 29.8278 67.1341 29.5172 67.145 29.2056V20.0014L78.7529 31.6082ZM62.5019 62.9464H40.447C40.1391 62.9464 39.8439 62.8241 39.6262 62.6064C39.4085 62.3887 39.2862 62.0935 39.2862 61.7857C39.2862 61.4779 39.4085 61.1826 39.6262 60.965C39.8439 60.7473 40.1391 60.625 40.447 60.625H62.5019C62.8098 60.625 63.105 60.7473 63.3227 60.965C63.5404 61.1826 63.6627 61.4779 63.6627 61.7857C63.6627 62.0935 63.5404 62.3887 63.3227 62.6064C63.105 62.8241 62.8098 62.9464 62.5019 62.9464ZM63.7672 69.9104H40.447C40.1391 69.9104 39.8439 69.7881 39.6262 69.5705C39.4085 69.3528 39.2862 69.0576 39.2862 68.7497C39.2862 68.4419 39.4085 68.1467 39.6262 67.929C39.8439 67.7113 40.1391 67.5891 40.447 67.5891H63.7672C64.075 67.5891 64.3703 67.7113 64.588 67.929C64.8057 68.1467 64.9279 68.4419 64.9279 68.7497C64.9279 69.0576 64.8057 69.3528 64.588 69.5705C64.3703 69.7881 64.075 69.9104 63.7672 69.9104ZM68.3058 76.8745H40.447C40.1391 76.8745 39.8439 76.7522 39.6262 76.5345C39.4085 76.3168 39.2862 76.0216 39.2862 75.7138C39.2862 75.406 39.4085 75.1107 39.6262 74.8931C39.8439 74.6754 40.1391 74.5531 40.447 74.5531H68.3058C68.6137 74.5531 68.9089 74.6754 69.1266 74.8931C69.3443 75.1107 69.4666 75.406 69.4666 75.7138C69.4666 76.0216 69.3443 76.3168 69.1266 76.5345C68.9089 76.7522 68.6137 76.8745 68.3058 76.8745Z" fill="#B4CDE1"/>
<path d="M94.3191 81.192C94.1035 81.4078 93.8475 81.579 93.5656 81.6958C93.2838 81.8126 92.9817 81.8728 92.6766 81.8728C92.3715 81.8728 92.0694 81.8126 91.7876 81.6958C91.5057 81.579 91.2497 81.4078 91.0341 81.192L83.3033 73.4619L86.5883 70.1772L94.3191 77.9072C94.535 78.1228 94.7062 78.3789 94.823 78.6607C94.9399 78.9425 95 79.2445 95 79.5496C95 79.8547 94.9399 80.1567 94.823 80.4385C94.7062 80.7203 94.535 80.9764 94.3191 81.192Z" fill="url(#paint1_linear_71_149)"/>
<path d="M86.2865 72.8003C84.9924 74.0988 83.4547 75.129 81.7615 75.832C80.0684 76.535 78.2531 76.8968 76.4198 76.8968C74.5865 76.8968 72.7712 76.535 71.078 75.832C69.3849 75.129 67.8472 74.0988 66.5531 72.8003C65.3887 71.6283 64.445 70.2561 63.7672 68.7495C62.7089 66.4366 62.3041 63.878 62.597 61.3514C62.8898 58.8247 63.869 56.4265 65.4283 54.4169C66.9877 52.4072 69.0676 50.8629 71.4425 49.9515C73.8173 49.0401 76.3965 48.7963 78.9001 49.2467C81.4037 49.697 83.7361 50.8243 85.6444 52.5062C87.5527 54.1881 88.964 56.3603 89.7251 58.7874C90.4862 61.2144 90.5681 63.8035 89.9619 66.2738C89.3558 68.744 88.0846 71.0012 86.2865 72.8003Z" fill="url(#paint2_linear_71_149)"/>
<path d="M76.4313 73.3921C82.201 73.3921 86.8784 68.7153 86.8784 62.9461C86.8784 57.1769 82.201 52.5 76.4313 52.5C70.6615 52.5 65.9842 57.1769 65.9842 62.9461C65.9842 68.7153 70.6615 73.3921 76.4313 73.3921Z" fill="url(#paint3_linear_71_149)"/>
<path d="M69.3738 36.9703C69.256 36.6867 69.0306 36.4614 68.747 36.3436C68.6074 36.2841 68.4575 36.2526 68.3059 36.2507H63.6627C63.3549 36.2507 63.0596 36.373 62.8419 36.5907C62.6242 36.8083 62.5019 37.1036 62.5019 37.4114C62.5019 37.7192 62.6242 38.0144 62.8419 38.2321C63.0596 38.4498 63.3549 38.5721 63.6627 38.5721H65.5084L56.1176 47.9619L51.7182 43.5514C51.6103 43.4426 51.4819 43.3562 51.3405 43.2973C51.199 43.2384 51.0473 43.208 50.8941 43.208C50.7408 43.208 50.5891 43.2384 50.4477 43.2973C50.3062 43.3562 50.1778 43.4426 50.0699 43.5514L39.6228 53.9974C39.514 54.1053 39.4277 54.2337 39.3688 54.3751C39.3098 54.5166 39.2795 54.6683 39.2795 54.8215C39.2795 54.9747 39.3098 55.1264 39.3688 55.2679C39.4277 55.4093 39.514 55.5377 39.6228 55.6456C39.7307 55.7544 39.8591 55.8407 40.0006 55.8996C40.142 55.9586 40.2938 55.9889 40.447 55.9889C40.6002 55.9889 40.752 55.9586 40.8934 55.8996C41.0349 55.8407 41.1632 55.7544 41.2712 55.6456L50.8941 46.012L55.2934 50.4225C55.4014 50.5313 55.5297 50.6177 55.6712 50.6766C55.8126 50.7355 55.9644 50.7659 56.1176 50.7659C56.2708 50.7659 56.4226 50.7355 56.564 50.6766C56.7055 50.6177 56.8338 50.5313 56.9418 50.4225L67.1451 40.2086V42.0541C67.1451 42.3619 67.2674 42.6571 67.4851 42.8748C67.7027 43.0925 67.998 43.2148 68.3059 43.2148C68.6137 43.2148 68.909 43.0925 69.1267 42.8748C69.3443 42.6571 69.4666 42.3619 69.4666 42.0541V37.4114C69.4648 37.2597 69.4333 37.1099 69.3738 36.9703Z" fill="url(#paint4_linear_71_149)"/>
</g>
<defs>
<filter id="filter0_d_71_149" x="0" y="0" width="125" height="113" filterUnits="userSpaceOnUse" color-interpolation-filters="sRGB">
<feFlood flood-opacity="0" result="BackgroundImageFix"/>
<feColorMatrix in="SourceAlpha" type="matrix" values="0 0 0 0 0 0 0 0 0 0 0 0 0 0 0 0 0 0 127 0" result="hardAlpha"/>
<feOffset dy="4"/>
<feGaussianBlur stdDeviation="2"/>
<feComposite in2="hardAlpha" operator="out"/>
<feColorMatrix type="matrix" values="0 0 0 0 0 0 0 0 0 0 0 0 0 0 0 0 0 0 0.25 0"/>
<feBlend mode="normal" in2="BackgroundImageFix" result="effect1_dropShadow_71_149"/>
<feBlend mode="normal" in="SourceGraphic" in2="effect1_dropShadow_71_149" result="shape"/>
</filter>
<linearGradient id="paint0_linear_71_149" x1="54.3765" y1="84.9989" x2="54.3765" y2="20.0011" gradientUnits="userSpaceOnUse">
<stop stop-color="#D3E6F5"/>
<stop offset="1" stop-color="#F0F7FC"/>
</linearGradient>
<linearGradient id="paint1_linear_71_149" x1="83.3033" y1="76.027" x2="94.9924" y2="76.027" gradientUnits="userSpaceOnUse">
<stop stop-color="#54A5FF"/>
<stop offset="1" stop-color="#8AD3FE"/>
</linearGradient>
<linearGradient id="paint2_linear_71_149" x1="76.4314" y1="76.8743" x2="76.4314" y2="49.0181" gradientUnits="userSpaceOnUse">
<stop stop-color="#54A5FF"/>
<stop offset="1" stop-color="#8AD3FE"/>
</linearGradient>
<linearGradient id="paint3_linear_71_149" x1="65.9842" y1="62.9461" x2="86.8784" y2="62.9461" gradientUnits="userSpaceOnUse">
<stop stop-color="#D3E6F5"/>
<stop offset="1" stop-color="#F0F7FC"/>
</linearGradient>
<linearGradient id="paint4_linear_71_149" x1="39.2862" y1="46.1164" x2="69.4666" y2="46.1164" gradientUnits="userSpaceOnUse">
<stop stop-color="#FE9661"/>
<stop offset="1" stop-color="#FFB369"/>
</linearGradient>
</defs>
</svg>
