<svg width="125" height="113" viewBox="0 0 125 113" fill="none" xmlns="http://www.w3.org/2000/svg">
<g filter="url(#filter0_d_71_51)">
<rect x="4" width="117" height="105" rx="15" fill="#37A3A5"/>
<path d="M46.1693 40.4469C44.2361 39.996 42.2893 40.3954 40.7751 41.4003L47.7646 52.326C49.3869 51.4885 50.6577 50.0326 51.1309 48.1902C51.9961 44.7502 49.779 41.2844 46.1693 40.4469Z" fill="#EF5A9D"/>
<path d="M46.1694 40.4463C44.7634 40.1242 43.3439 40.2402 42.1001 40.7169C43.0059 40.5494 43.9658 40.5623 44.9257 40.7942C48.5353 41.6317 50.7525 45.0975 49.8737 48.5375C49.5087 49.9676 48.6705 51.153 47.5619 52.0162L47.7647 52.3254C49.387 51.488 50.6578 50.0321 51.131 48.1896C51.9962 44.7496 49.7791 41.2838 46.1694 40.4463Z" fill="#F06EA9"/>
<path d="M49.3193 50.8445L42.7219 40.5244C42.0324 40.7177 41.37 41.014 40.7751 41.4005L47.7646 52.3262C48.6704 51.8624 49.468 51.2053 50.0629 50.3936C49.8195 50.5611 49.5762 50.7157 49.3193 50.8445Z" fill="#E43D91"/>
<path d="M89.1332 60.585C89.1332 71.6138 77.5337 80.5553 63.2303 80.5553C48.927 80.5553 37.3275 71.6138 37.3275 60.585C37.3275 52.03 44.3034 44.7248 54.1184 41.8903C56.9574 41.0657 60.0263 40.6147 63.2303 40.6147C66.4344 40.6147 69.5168 41.0657 72.3423 41.8903C82.1438 44.7248 89.1332 52.03 89.1332 60.585Z" fill="#EF5A9D"/>
<path d="M54.1052 43.1645C56.9442 42.3399 60.0131 41.889 63.2172 41.889C66.4212 41.889 69.5036 42.3399 72.3291 43.1645C81.8873 45.9346 88.755 52.9435 89.1065 61.2151C89.1201 61.0089 89.1201 60.7899 89.1201 60.5709C89.1201 52.0159 82.1441 44.7106 72.3291 41.8761C69.4901 41.0515 66.4212 40.6006 63.2172 40.6006C60.0131 40.6006 56.9307 41.0515 54.1052 41.8761C44.2902 44.7235 37.3143 52.0159 37.3143 60.5709C37.3143 60.7899 37.3143 60.996 37.3278 61.2151C37.6793 52.9435 44.5471 45.9346 54.1052 43.1645Z" fill="#F06EA9"/>
<path d="M63.2305 41.1938C60.2698 41.1938 57.4984 41.5288 55.1054 42.1215C54.3348 42.3148 53.7941 42.9718 53.7941 43.732C53.7941 44.7885 54.8215 45.5873 55.9031 45.3554C58.1067 44.8787 60.5943 44.6081 63.2305 44.6081C65.8668 44.6081 68.3543 44.8787 70.5579 45.3554C71.6395 45.5873 72.6669 44.7885 72.6669 43.732C72.6669 42.9718 72.1262 42.3148 71.3556 42.1215C68.9491 41.5288 66.1777 41.1938 63.2305 41.1938Z" fill="#A72973"/>
<path d="M71.3556 42.1215C68.9627 41.5288 66.1912 41.1938 63.2305 41.1938C60.2698 41.1938 57.4984 41.5288 55.1054 42.1215C54.3348 42.3148 53.7941 42.9718 53.7941 43.732C53.7941 43.9768 53.8482 44.1958 53.9428 44.402C54.1591 43.951 54.5782 43.6032 55.1054 43.4743C57.4984 42.8817 60.2698 42.5467 63.2305 42.5467C66.1912 42.5467 68.9627 42.8817 71.3556 43.4743C71.8828 43.6032 72.3019 43.951 72.5182 44.402C72.6129 44.1958 72.6669 43.9639 72.6669 43.732C72.6669 42.9718 72.1262 42.3019 71.3556 42.1215Z" fill="#E43D91"/>
<path d="M50.2117 84.9866H44.6823C43.5602 84.9866 42.6544 84.1234 42.6544 83.054V71.3037H55.2814L52.1855 83.5049C51.9556 84.381 51.1445 84.9866 50.2117 84.9866Z" fill="#EF5A9D"/>
<path d="M44.0063 83.054V71.3037H42.6544V83.054C42.6544 84.1234 43.5602 84.9866 44.6823 84.9866H46.0342C44.9121 84.9866 44.0063 84.1234 44.0063 83.054Z" fill="#F06EA9"/>
<path d="M53.9563 76.522L52.1853 83.518C51.969 84.3812 51.1443 84.9997 50.2115 84.9997H47.5077C48.4405 84.9997 49.2652 84.3941 49.4815 83.518L51.2525 76.522H53.9563Z" fill="#E43D91"/>
<path d="M76.2354 84.9876H81.7647C82.8868 84.9876 83.7926 84.1243 83.7926 83.0549V71.3047H71.1656L74.2615 83.5059C74.4914 84.382 75.3025 84.9876 76.2354 84.9876Z" fill="#EF5A9D"/>
<path d="M82.4408 71.3047V83.0549C82.4408 84.1243 81.535 84.9876 80.4129 84.9876H81.7649C82.887 84.9876 83.7927 84.1243 83.7927 83.0549V71.3047H82.4408Z" fill="#F06EA9"/>
<path d="M78.9394 84.9875H76.2355C75.3027 84.9875 74.4915 84.3819 74.2617 83.5058L72.4907 76.5098H75.1945L76.9655 83.5058C77.1954 84.3819 78.0065 84.9875 78.9394 84.9875Z" fill="#E43D91"/>
<path d="M41.4643 68.4828L31.8116 67.3877C30.7571 67.2202 30 66.3441 30 65.3391V55.8049C30 54.7871 30.7706 53.9238 31.8116 53.7563L41.4643 52.6612V68.4828Z" fill="#EF5A9D"/>
<path d="M31.8252 53.7687C30.7707 53.9362 30.0136 54.8123 30.0136 55.8172V57.1056C30.0136 56.0878 30.7842 55.2246 31.8252 55.0571L38.5848 54.2969C39.3959 54.2067 40.0314 53.6012 40.126 52.8281L31.8252 53.7687Z" fill="#F06EA9"/>
<path d="M30 62.7748V65.3517C30 66.3695 30.7706 67.2327 31.8116 67.4002L41.4643 68.4954L39.869 65.9186L31.8116 64.8234C30.7706 64.643 30 63.7798 30 62.7748Z" fill="#E43D91"/>
<path d="M86.6991 55.9073C85.4959 55.9073 84.5225 54.9797 84.5225 53.833C84.5225 52.6863 85.4959 51.7587 86.6991 51.7587C88.8622 51.7587 90.6332 50.0837 90.6332 48.0094C90.6332 46.8627 91.6066 45.9351 92.8098 45.9351C94.013 45.9351 94.9864 46.8627 94.9864 48.0094C94.9999 52.3642 91.2821 55.9073 86.6991 55.9073Z" fill="#EF5A9D"/>
<path d="M93.5264 46.0386C93.6075 46.2447 93.6481 46.4766 93.6481 46.7214C93.6481 51.0762 89.9303 54.6322 85.3472 54.6322C85.1039 54.6322 84.8606 54.5936 84.6307 54.5163C84.9282 55.328 85.7393 55.9206 86.6992 55.9206C91.2687 55.9206 95 52.3775 95 48.0098C95 47.0951 94.3781 46.322 93.5264 46.0386Z" fill="#E43D91"/>
<path d="M75.3978 31.6085V31.9951C75.1815 38.2309 69.8144 43.2171 63.2305 43.2171C56.6331 43.2171 51.266 38.2309 51.0632 31.9951V31.222C51.2795 24.9861 56.6467 20 63.2305 20C69.8279 20 75.1951 24.9861 75.3978 31.222V31.6085Z" fill="#E4F247"/>
<path d="M75.2223 31.7755V32.1492C75.0059 38.2948 69.7199 43.2166 63.2307 43.2166C56.7279 43.2166 51.4419 38.2948 51.2391 32.1492V31.4019C51.4419 25.2562 56.7415 20.3345 63.2307 20.3345C69.7334 20.3345 75.0195 25.2562 75.2223 31.4019V31.7755Z" fill="#E7AD27"/>
<path d="M75.3978 31.6082V31.9947H51.0632V31.2217H75.3978V31.6082Z" fill="#F7CB15"/>
<path d="M75.3976 31.2354H75.2083C75.2083 31.2869 75.2084 31.3513 75.2219 31.4028V31.9955H75.3976V31.2354ZM51.2252 31.7765V31.4028C51.2252 31.3513 51.2252 31.2869 51.2387 31.2354H51.0495V32.0084H51.2252V31.7765Z" fill="#F5F5F5"/>
<path d="M63.23 20.0122H63.6356V43.2035H62.8244V20.0122H63.23Z" fill="#F7CB15"/>
<path d="M62.8244 43.2043H62.8785C62.865 43.2172 62.8379 43.2043 62.8244 43.2043ZM63.23 20.348C63.3652 20.348 63.5004 20.348 63.6356 20.3609V20.0259H62.8244V20.3609C62.9596 20.348 63.0948 20.348 63.23 20.348ZM63.23 43.2172H63.5004H63.23ZM63.568 43.2172H63.622C63.6085 43.2043 63.5815 43.2172 63.568 43.2172ZM63.23 43.2172H62.9596H63.23Z" fill="#F5F5F5"/>
<path d="M71.8288 39.8155L71.5449 40.0861L54.3349 23.6847L54.6188 23.4141L54.9027 23.1436L72.1127 39.545L71.8288 39.8155Z" fill="#F7CB15"/>
<path d="M71.5179 40.0474L71.5584 40.0861L71.8423 39.8155L72.1262 39.545L72.0857 39.5063C71.8964 39.6996 71.7071 39.8799 71.5179 40.0474ZM55.119 23.3497L54.9027 23.1436L54.6188 23.4141L54.3349 23.6847L54.5377 23.8779C54.727 23.6976 54.9162 23.5172 55.119 23.3497Z" fill="#F5F5F5"/>
<path d="M71.8288 23.4012L72.1127 23.6718L54.9027 40.0861L54.6188 39.8155L54.3349 39.545L71.5449 23.1436C71.6395 23.2337 71.7342 23.311 71.8288 23.4012Z" fill="#F7CB15"/>
<path d="M71.8964 23.8779L72.0992 23.6847L71.8153 23.4141L71.5314 23.1436L71.3151 23.3497C71.5314 23.5172 71.7206 23.6976 71.8964 23.8779ZM54.3755 39.5063L54.3349 39.545L54.6188 39.8155L54.9027 40.0861L54.9433 40.0474C54.7405 39.8799 54.5512 39.6996 54.3755 39.5063Z" fill="#F5F5F5"/>
<path d="M63.2305 40.7045C68.5018 40.7045 72.775 36.632 72.775 31.6084C72.775 26.5847 68.5018 22.5122 63.2305 22.5122C57.9591 22.5122 53.6859 26.5847 53.6859 31.6084C53.6859 36.632 57.9591 40.7045 63.2305 40.7045Z" fill="#E4F247"/>
<path d="M63.2305 39.8147C67.9866 39.8147 71.8422 36.1402 71.8422 31.6075C71.8422 27.0749 67.9866 23.4004 63.2305 23.4004C58.4743 23.4004 54.6187 27.0749 54.6187 31.6075C54.6187 36.1402 58.4743 39.8147 63.2305 39.8147Z" fill="#F5F5F5"/>
<path d="M66.4613 33.283C66.3126 32.948 66.0963 32.6646 65.8124 32.4198C65.542 32.1879 65.2176 31.9817 64.8525 31.8142C64.501 31.6596 64.109 31.505 63.6899 31.3762C63.2843 31.2473 62.9463 31.1185 62.6895 30.9896C62.4596 30.8737 62.2704 30.7577 62.1487 30.6289C62.0405 30.5258 61.9729 30.4227 61.9324 30.3068C61.8918 30.1779 61.8648 30.0105 61.8648 29.8301C61.8648 29.6497 61.8918 29.4822 61.9594 29.3276C62.0135 29.1859 62.0946 29.057 62.2163 28.954C62.3244 28.8509 62.4732 28.7607 62.6624 28.6963C62.8517 28.6319 63.095 28.5932 63.3654 28.5932C63.6223 28.5932 63.8386 28.6319 64.0279 28.7092C64.2171 28.7865 64.3523 28.8895 64.474 29.0313C64.5957 29.173 64.7038 29.3534 64.7579 29.5466C64.8255 29.7657 64.8661 29.9976 64.8661 30.2681V30.4099C64.8661 30.5902 65.0148 30.732 65.204 30.732H66.2991C66.4884 30.732 66.6371 30.5902 66.6371 30.4099V30.2681C66.6371 29.8043 66.5695 29.3791 66.4478 28.9926C66.3261 28.6061 66.1234 28.2582 65.88 27.9877C65.6231 27.7042 65.3122 27.4723 64.9607 27.3048C64.839 27.2533 64.7038 27.2017 64.5686 27.1502C64.3659 27.0858 64.2171 26.9054 64.2171 26.6992V26.055C64.2171 25.8747 64.0684 25.7329 63.8792 25.7329H62.8923C62.703 25.7329 62.5543 25.8747 62.5543 26.055V26.6864C62.5543 26.9054 62.4056 27.0858 62.1893 27.1502C62.0676 27.1888 61.9459 27.2275 61.8378 27.2661C61.4863 27.4079 61.1753 27.614 60.9184 27.8588C60.6616 28.1036 60.4588 28.3999 60.3236 28.7478C60.1884 29.0828 60.1208 29.4564 60.1208 29.843C60.1208 30.281 60.2019 30.6675 60.3506 31.0025C60.4994 31.3375 60.7157 31.6338 60.9996 31.8786C61.2699 32.1106 61.5944 32.3167 61.9594 32.4842C62.3109 32.6388 62.703 32.7934 63.1356 32.9222C63.5141 33.0511 63.8251 33.167 64.0819 33.2959C64.3118 33.4118 64.4875 33.5278 64.6227 33.6566C64.7444 33.7726 64.8255 33.8757 64.8661 34.0045C64.9201 34.1333 64.9472 34.288 64.9472 34.4555C64.9472 34.6358 64.9201 34.7904 64.839 34.945C64.7714 35.0868 64.6768 35.2156 64.5551 35.3316C64.4199 35.4475 64.2577 35.5377 64.0549 35.6021C63.8521 35.6794 63.6088 35.7052 63.3249 35.7052C63.1086 35.7052 62.8787 35.6794 62.6489 35.6279C62.4461 35.5764 62.2704 35.4991 62.0946 35.3702C61.9324 35.2543 61.8107 35.0997 61.7026 34.8935C61.5944 34.6874 61.5403 34.4168 61.5403 34.0947V33.953C61.5403 33.7726 61.3916 33.6309 61.2024 33.6309H60.1073C59.918 33.6309 59.7693 33.7726 59.7693 33.953V34.0947C59.7693 34.6358 59.8639 35.1254 60.0397 35.5119C60.229 35.9114 60.4723 36.2463 60.7833 36.504C61.0942 36.7617 61.4457 36.955 61.8378 37.0709C61.9459 37.1096 62.0405 37.1353 62.1487 37.1611C62.365 37.2126 62.5272 37.4059 62.5272 37.6249V38.1532C62.5272 38.3336 62.6759 38.4753 62.8652 38.4753H63.8386C64.0279 38.4753 64.1766 38.3336 64.1766 38.1532V37.5992C64.1766 37.3801 64.3253 37.1998 64.5551 37.1353L64.9201 37.0194C65.2852 36.8777 65.6096 36.6844 65.88 36.4396C66.1504 36.1948 66.3667 35.8985 66.5019 35.5506C66.6371 35.2156 66.7182 34.842 66.7182 34.4297C66.6912 34.0045 66.6101 33.618 66.4613 33.283Z" fill="#E7AD27"/>
<path d="M66.4616 32.6521C66.3129 32.3171 66.0966 32.0337 65.8127 31.7889C65.5423 31.557 65.2178 31.3508 64.8528 31.1833C64.5013 31.0287 64.1093 30.8741 63.6902 30.7453C63.2846 30.6164 62.9466 30.4876 62.6897 30.3587C62.4599 30.2428 62.2707 30.1268 62.149 29.998C62.0408 29.8949 61.9732 29.7918 61.9327 29.6759C61.8921 29.5471 61.8651 29.3796 61.8651 29.1992C61.8651 29.0188 61.8921 28.8513 61.9597 28.6967C62.0138 28.555 62.0949 28.4261 62.2166 28.3231C62.3247 28.22 62.4734 28.1298 62.6627 28.0654C62.852 28.001 63.0953 27.9623 63.3657 27.9623C63.6226 27.9623 63.8389 28.001 64.0282 28.0783C64.2174 28.1556 64.3526 28.2586 64.4743 28.4004C64.596 28.5421 64.7041 28.7225 64.7582 28.9157C64.8258 29.1348 64.8663 29.3667 64.8663 29.6372V29.779C64.8663 29.9593 65.0151 30.1011 65.2043 30.1011H66.2994C66.4887 30.1011 66.6374 29.9593 66.6374 29.779V29.6372C66.6374 29.1734 66.5698 28.7482 66.4481 28.3617C66.3264 27.9752 66.1236 27.6273 65.8803 27.3568C65.6234 27.0733 65.3125 26.8414 64.961 26.6739C64.8393 26.6224 64.7041 26.5708 64.5689 26.5193C64.3661 26.4549 64.2174 26.2745 64.2174 26.0684V25.4242C64.2174 25.2438 64.0687 25.1021 63.8794 25.1021H62.8925C62.7033 25.1021 62.5546 25.2438 62.5546 25.4242V26.0555C62.5546 26.2745 62.4058 26.4549 62.1895 26.5193C62.0679 26.5579 61.9462 26.5966 61.838 26.6353C61.4865 26.777 61.1756 26.9831 60.9187 27.2279C60.6619 27.4727 60.4591 27.769 60.3239 28.1169C60.1887 28.4519 60.1211 28.8255 60.1211 29.2121C60.1211 29.6501 60.2022 30.0366 60.3509 30.3716C60.4996 30.7066 60.7159 31.003 60.9998 31.2477C61.2702 31.4797 61.5947 31.6858 61.9597 31.8533C62.3112 32.0079 62.7033 32.1625 63.1359 32.2914C63.5144 32.4202 63.8254 32.5362 64.0822 32.665C64.3121 32.781 64.4878 32.8969 64.623 33.0257C64.7447 33.1417 64.8258 33.2448 64.8663 33.3736C64.9204 33.5025 64.9475 33.6571 64.9475 33.8246C64.9475 34.0049 64.9204 34.1595 64.8393 34.3142C64.7717 34.4559 64.6771 34.5847 64.5554 34.7007C64.4202 34.8166 64.258 34.9068 64.0552 34.9712C63.8524 35.0485 63.6091 35.0743 63.3252 35.0743C63.1088 35.0743 62.879 35.0485 62.6492 34.997C62.4464 34.9455 62.2707 34.8682 62.0949 34.7393C61.9327 34.6234 61.811 34.4688 61.7028 34.2626C61.5947 34.0565 61.5406 33.7859 61.5406 33.4638V33.2963C61.5406 33.1159 61.3919 32.9742 61.2026 32.9742H60.1076C59.9183 32.9742 59.7696 33.1159 59.7696 33.2963V33.438C59.7696 33.9792 59.8642 34.4688 60.04 34.8553C60.2292 35.2547 60.4726 35.5897 60.7835 35.8474C61.0945 36.105 61.446 36.2983 61.838 36.4143C61.9462 36.4529 62.0408 36.4787 62.149 36.5044C62.3653 36.556 62.5275 36.7492 62.5275 36.9683V37.4965C62.5275 37.6769 62.6762 37.8186 62.8655 37.8186H63.8389C64.0282 37.8186 64.1769 37.6769 64.1769 37.4965V36.9425C64.1769 36.7235 64.3256 36.5431 64.5554 36.4787L64.9204 36.3627C65.2854 36.221 65.6099 36.0277 65.8803 35.7829C66.1507 35.5381 66.367 35.2418 66.5022 34.8939C66.6374 34.5589 66.7185 34.1853 66.7185 33.773C66.6914 33.3736 66.6103 32.9871 66.4616 32.6521Z" fill="#E5F9E7"/>
<path d="M47.6834 55.7145C48.9228 55.7145 49.9276 54.757 49.9276 53.5758C49.9276 52.3946 48.9228 51.437 47.6834 51.437C46.444 51.437 45.4392 52.3946 45.4392 53.5758C45.4392 54.757 46.444 55.7145 47.6834 55.7145Z" fill="#A72973"/>
<path d="M47.6834 55.1994C48.9228 55.1994 49.9276 54.2418 49.9276 53.0606C49.9276 51.8794 48.9228 50.9219 47.6834 50.9219C46.444 50.9219 45.4392 51.8794 45.4392 53.0606C45.4392 54.2418 46.444 55.1994 47.6834 55.1994Z" fill="#E43D91"/>
<path d="M47.6834 51.6305C48.792 51.6305 49.7248 52.4035 49.9005 53.4214C49.9141 53.3054 49.9276 53.1895 49.9276 53.0606C49.9276 51.8753 48.9272 50.9219 47.6834 50.9219C46.4396 50.9219 45.4392 51.8753 45.4392 53.0606C45.4392 53.1766 45.4527 53.3054 45.4662 53.4214C45.642 52.4035 46.5748 51.6305 47.6834 51.6305Z" fill="#F06EA9"/>
<path d="M63.2303 76.6895C49.7652 76.6895 38.7064 68.7787 37.4491 58.6519C37.368 59.2832 37.3275 59.9274 37.3275 60.5845C37.3275 71.6132 48.927 80.5548 63.2303 80.5548C77.5337 80.5548 89.1332 71.6132 89.1332 60.5845C89.1332 59.9274 89.0927 59.2832 89.0115 58.6519C87.7407 68.7658 76.682 76.6895 63.2303 76.6895Z" fill="#E43D91"/>
<path d="M92.8097 45.9224C91.6065 45.9224 90.6331 46.85 90.6331 47.9967C90.6331 50.0581 88.8756 51.746 86.699 51.746C86.3475 51.746 86.0231 51.8233 85.7392 51.965C85.9014 52.1196 86.1988 52.3129 86.645 52.3515C86.7126 52.3644 86.7802 52.3644 86.8342 52.3773H86.8883C89.2407 52.3773 91.1604 50.5477 91.1604 48.3059C91.1604 47.0562 92.2149 46.0512 93.5263 46.0383C93.2964 45.9739 93.0666 45.9224 92.8097 45.9224Z" fill="#F06EA9"/>
</g>
<defs>
<filter id="filter0_d_71_51" x="0" y="0" width="125" height="113" filterUnits="userSpaceOnUse" color-interpolation-filters="sRGB">
<feFlood flood-opacity="0" result="BackgroundImageFix"/>
<feColorMatrix in="SourceAlpha" type="matrix" values="0 0 0 0 0 0 0 0 0 0 0 0 0 0 0 0 0 0 127 0" result="hardAlpha"/>
<feOffset dy="4"/>
<feGaussianBlur stdDeviation="2"/>
<feComposite in2="hardAlpha" operator="out"/>
<feColorMatrix type="matrix" values="0 0 0 0 0 0 0 0 0 0 0 0 0 0 0 0 0 0 0.25 0"/>
<feBlend mode="normal" in2="BackgroundImageFix" result="effect1_dropShadow_71_51"/>
<feBlend mode="normal" in="SourceGraphic" in2="effect1_dropShadow_71_51" result="shape"/>
</filter>
</defs>
</svg>
