<svg width="125" height="113" viewBox="0 0 125 113" fill="none" xmlns="http://www.w3.org/2000/svg">
<g filter="url(#filter0_d_71_138)">
<rect x="4" width="117" height="105" rx="15" fill="#37A3A5"/>
<path d="M49.0516 51.3788V49.1374C49.0516 48.8402 48.9335 48.5551 48.7233 48.345C48.5132 48.1348 48.2281 48.0167 47.9309 48.0167H36.724C36.4268 48.0167 36.1417 48.1348 35.9316 48.345C35.7214 48.5551 35.6033 48.8402 35.6033 49.1374V51.3788C35.6053 52.0725 35.8217 52.7485 36.223 53.3143C36.6243 53.8801 37.1907 54.308 37.8447 54.5392V69.5117C37.1907 69.7429 36.6243 70.1708 36.223 70.7366C35.8217 71.3024 35.6053 71.9784 35.6033 72.6721V74.9135C35.6033 75.2107 35.7214 75.4958 35.9316 75.7059C36.1417 75.9161 36.4268 76.0342 36.724 76.0342H47.9309C48.2281 76.0342 48.5132 75.9161 48.7233 75.7059C48.9335 75.4958 49.0516 75.2107 49.0516 74.9135V72.6721C49.0496 71.9784 48.8332 71.3024 48.4319 70.7366C48.0306 70.1708 47.4642 69.7429 46.8102 69.5117V54.5392C47.4642 54.308 48.0306 53.8801 48.4319 53.3143C48.8332 52.7485 49.0496 52.0725 49.0516 51.3788ZM69.224 51.3788V49.1374C69.224 48.8402 69.1059 48.5551 68.8958 48.345C68.6856 48.1348 68.4005 48.0167 68.1033 48.0167H56.8964C56.5992 48.0167 56.3141 48.1348 56.104 48.345C55.8938 48.5551 55.7757 48.8402 55.7757 49.1374V51.3788C55.7777 52.0725 55.9941 52.7485 56.3954 53.3143C56.7967 53.8801 57.3631 54.308 58.0171 54.5392V69.5117C57.3631 69.7429 56.7967 70.1708 56.3954 70.7366C55.9941 71.3024 55.7777 71.9784 55.7757 72.6721V74.9135C55.7757 75.2107 55.8938 75.4958 56.104 75.7059C56.3141 75.9161 56.5992 76.0342 56.8964 76.0342H68.1033C68.4005 76.0342 68.6856 75.9161 68.8958 75.7059C69.1059 75.4958 69.224 75.2107 69.224 74.9135V72.6721C69.2221 71.9784 69.0056 71.3024 68.6043 70.7366C68.2031 70.1708 67.6366 69.7429 66.9826 69.5117V54.5392C67.6366 54.308 68.2031 53.8801 68.6043 53.3143C69.0056 52.7485 69.2221 52.0725 69.224 51.3788ZM89.3964 51.3788V49.1374C89.3964 48.8402 89.2783 48.5551 89.0682 48.345C88.858 48.1348 88.5729 48.0167 88.2757 48.0167H77.0688C76.7716 48.0167 76.4865 48.1348 76.2764 48.345C76.0662 48.5551 75.9481 48.8402 75.9481 49.1374V51.3788C75.9501 52.0725 76.1665 52.7485 76.5678 53.3143C76.9691 53.8801 77.5355 54.308 78.1895 54.5392V69.5117C77.5355 69.7429 76.9691 70.1708 76.5678 70.7366C76.1665 71.3024 75.9501 71.9784 75.9481 72.6721V74.9135C75.9481 75.2107 76.0662 75.4958 76.2764 75.7059C76.4865 75.9161 76.7716 76.0342 77.0688 76.0342H88.2757C88.5729 76.0342 88.858 75.9161 89.0682 75.7059C89.2783 75.4958 89.3964 75.2107 89.3964 74.9135V72.6721C89.3945 71.9784 89.178 71.3024 88.7767 70.7366C88.3755 70.1708 87.809 69.7429 87.155 69.5117V54.5392C87.809 54.308 88.3755 53.8801 88.7767 53.3143C89.178 52.7485 89.3945 52.0725 89.3964 51.3788Z" fill="#D7E9F7"/>
<path d="M90.1026 40.4298L67.1845 21.6693C65.862 20.5897 64.2072 20 62.5 20C60.7928 20 59.138 20.5897 57.8155 21.6693L34.8974 40.4298C34.7183 40.5759 34.5887 40.774 34.5265 40.9967C34.4643 41.2194 34.4725 41.4559 34.55 41.6737C34.6283 41.8903 34.7715 42.0775 34.96 42.2099C35.1485 42.3422 35.3732 42.4133 35.6035 42.4134H89.3966C89.6269 42.4133 89.8516 42.3422 90.0401 42.2099C90.2286 42.0775 90.3717 41.8903 90.45 41.6737C90.5275 41.4559 90.5357 41.2194 90.4735 40.9967C90.4114 40.774 90.2818 40.5759 90.1026 40.4298Z" fill="url(#paint0_linear_71_138)"/>
<path d="M90.5172 40.1721H34.4827C32.6259 40.1721 31.1206 41.6773 31.1206 43.5342V46.8963C31.1206 48.7531 32.6259 50.2584 34.4827 50.2584H90.5172C92.374 50.2584 93.8792 48.7531 93.8792 46.8963V43.5342C93.8792 41.6773 92.374 40.1721 90.5172 40.1721Z" fill="url(#paint1_linear_71_138)"/>
<path d="M62.9258 30.0857H61.8051C61.6565 30.0857 61.5139 30.0267 61.4089 29.9216C61.3038 29.8165 61.2447 29.674 61.2447 29.5254C61.2447 29.3768 61.3038 29.2342 61.4089 29.1292C61.5139 29.0241 61.6565 28.965 61.8051 28.965H64.7413C65.0385 28.965 65.3236 28.847 65.5337 28.6368C65.7439 28.4266 65.862 28.1416 65.862 27.8443C65.862 27.5471 65.7439 27.2621 65.5337 27.0519C65.3236 26.8417 65.0385 26.7236 64.7413 26.7236H63.6206V25.6029C63.6206 25.3057 63.5025 25.0207 63.2923 24.8105C63.0822 24.6003 62.7971 24.4822 62.4999 24.4822C62.2027 24.4822 61.9176 24.6003 61.7075 24.8105C61.4973 25.0207 61.3792 25.3057 61.3792 25.6029V26.7236C60.6361 26.7801 59.946 27.1295 59.4605 27.6948C58.975 28.2602 58.7339 28.9952 58.7904 29.7383C58.8469 30.4814 59.1962 31.1716 59.7616 31.6571C60.3269 32.1426 61.062 32.3836 61.8051 32.3271H62.9258C63.0744 32.3271 63.2169 32.3862 63.322 32.4913C63.4271 32.5963 63.4861 32.7389 63.4861 32.8875C63.4861 33.0361 63.4271 33.1786 63.322 33.2837C63.2169 33.3888 63.0744 33.4478 62.9258 33.4478H60.2585C59.9613 33.4478 59.6762 33.5659 59.4661 33.7761C59.2559 33.9862 59.1378 34.2713 59.1378 34.5685C59.1378 34.8658 59.2559 35.1508 59.4661 35.361C59.6762 35.5712 59.9613 35.6892 60.2585 35.6892H61.3792V36.8099C61.3792 37.1072 61.4973 37.3922 61.7075 37.6024C61.9176 37.8125 62.2027 37.9306 62.4999 37.9306C62.7971 37.9306 63.0822 37.8125 63.2923 37.6024C63.5025 37.3922 63.6206 37.1072 63.6206 36.8099V35.5884C64.2876 35.4271 64.8718 35.0256 65.2616 34.4608C65.6513 33.8959 65.8192 33.2073 65.7332 32.5264C65.6473 31.8456 65.3134 31.2203 64.7955 30.77C64.2776 30.3198 63.612 30.0762 62.9258 30.0857Z" fill="#F0F7FC"/>
<path d="M89.3965 73.793H35.6034C34.1173 73.793 32.6921 74.3834 31.6412 75.4342C30.5904 76.4851 30 77.9104 30 79.3965V83.8793C30 84.1765 30.1181 84.4616 30.3282 84.6718C30.5384 84.8819 30.8235 85 31.1207 85H93.8793C94.1765 85 94.4616 84.8819 94.6718 84.6718C94.8819 84.4616 95 84.1765 95 83.8793V79.3965C95 77.9104 94.4096 76.4851 93.3588 75.4342C92.3079 74.3834 90.8827 73.793 89.3965 73.793Z" fill="url(#paint2_linear_71_138)"/>
</g>
<defs>
<filter id="filter0_d_71_138" x="0" y="0" width="125" height="113" filterUnits="userSpaceOnUse" color-interpolation-filters="sRGB">
<feFlood flood-opacity="0" result="BackgroundImageFix"/>
<feColorMatrix in="SourceAlpha" type="matrix" values="0 0 0 0 0 0 0 0 0 0 0 0 0 0 0 0 0 0 127 0" result="hardAlpha"/>
<feOffset dy="4"/>
<feGaussianBlur stdDeviation="2"/>
<feComposite in2="hardAlpha" operator="out"/>
<feColorMatrix type="matrix" values="0 0 0 0 0 0 0 0 0 0 0 0 0 0 0 0 0 0 0.25 0"/>
<feBlend mode="normal" in2="BackgroundImageFix" result="effect1_dropShadow_71_138"/>
<feBlend mode="normal" in="SourceGraphic" in2="effect1_dropShadow_71_138" result="shape"/>
</filter>
<linearGradient id="paint0_linear_71_138" x1="48.2561" y1="55.5368" x2="76.7442" y2="27.0488" gradientUnits="userSpaceOnUse">
<stop stop-color="#54A5FF"/>
<stop offset="1" stop-color="#8AD3FE"/>
</linearGradient>
<linearGradient id="paint1_linear_71_138" x1="62.4999" y1="50.2584" x2="62.4999" y2="40.1721" gradientUnits="userSpaceOnUse">
<stop stop-color="#54A5FF"/>
<stop offset="1" stop-color="#8AD3FE"/>
</linearGradient>
<linearGradient id="paint2_linear_71_138" x1="62.5" y1="85" x2="62.5" y2="73.793" gradientUnits="userSpaceOnUse">
<stop stop-color="#54A5FF"/>
<stop offset="1" stop-color="#8AD3FE"/>
</linearGradient>
</defs>
</svg>
