<svg width="125" height="113" viewBox="0 0 125 113" fill="none" xmlns="http://www.w3.org/2000/svg">
<g filter="url(#filter0_d_71_126)">
<rect x="4" width="117" height="105" rx="15" fill="#37A3A5"/>
<path d="M41.627 59.582H52.1031C53.3242 59.582 54.5328 59.8029 55.6566 60.2317C56.7805 60.6605 57.7964 61.2882 58.6437 62.0773L61.336 64.5859H73.1379C74.2034 64.5859 75.2253 64.9658 75.9787 65.642C76.7322 66.3181 77.1554 67.2352 77.1554 68.1914C77.1554 68.2777 77.152 68.3636 77.1452 68.4484L87.3809 59.263C88.1343 58.5872 89.1559 58.2075 90.2212 58.2075C91.2864 58.2075 92.308 58.5872 93.0614 59.263C93.8145 59.9392 94.2376 60.856 94.2376 61.812C94.2376 62.768 93.8145 63.6849 93.0614 64.361L77.6279 78.2095C76.5411 79.1849 75.0671 79.7329 73.53 79.733H41.627V59.582Z" fill="#FCD0A3"/>
<path d="M30.7632 57.5177H41.627V81.7977H30.7632V57.5177Z" fill="#132D46"/>
<path d="M77.6145 54.8386C82.962 50.0396 82.962 42.259 77.6145 37.46C72.2671 32.661 63.5972 32.661 58.2498 37.46C52.9023 42.259 52.9023 50.0396 58.2498 54.8386C63.5972 59.6376 72.2671 59.6376 77.6145 54.8386Z" fill="#F4DD45"/>
<path d="M74.574 52.11C78.2423 48.818 78.2423 43.4806 74.574 40.1886C70.9058 36.8966 64.9585 36.8966 61.2902 40.1886C57.622 43.4806 57.622 48.818 61.2902 52.11C64.9585 55.402 70.9058 55.402 74.574 52.11Z" fill="#FCC101"/>
<path d="M68.7022 51.2269V52.1491H67.2418V51.1842C65.8435 51.0425 64.5326 50.5024 63.5015 49.643L64.6576 48.3608C65.3779 48.9763 66.2712 49.4046 67.2418 49.5999V46.7901C65.2675 46.3296 63.935 45.6958 63.935 43.9972C63.935 42.4417 65.2675 41.2458 67.2418 41.03V40.15H68.7022V41.0432C69.9551 41.1593 71.135 41.628 72.073 42.3823L70.9815 43.7077C70.3337 43.1831 69.5503 42.8118 68.7022 42.6276V45.3358C70.9017 45.7821 72.3621 46.459 72.3621 48.2161C72.3621 49.8731 71.0296 51.0827 68.7022 51.2269ZM67.2418 44.9894V42.5976C66.9033 42.6435 66.592 42.7909 66.3588 43.0158C66.1255 43.2407 65.984 43.5299 65.9573 43.8362C65.9573 44.4136 66.3755 44.7162 67.2418 44.9894ZM70.3539 48.3918C70.3539 47.7316 69.8402 47.4269 68.7005 47.1223V49.6862C69.7943 49.5704 70.3556 49.023 70.3556 48.3892L70.3539 48.3918ZM67.9321 30.9931C67.8021 30.9932 67.6733 30.9702 67.5531 30.9256C67.4329 30.881 67.3237 30.8155 67.2317 30.733C67.1398 30.6504 67.0668 30.5524 67.0171 30.4446C66.9674 30.3367 66.9418 30.2212 66.9419 30.1044V27.6481C66.9419 27.4125 67.0462 27.1864 67.2319 27.0198C67.4176 26.8531 67.6695 26.7595 67.9321 26.7595C68.1947 26.7595 68.4466 26.8531 68.6323 27.0198C68.818 27.1864 68.9223 27.4125 68.9223 27.6481V30.1055C68.922 30.341 68.8176 30.5667 68.6319 30.7332C68.4462 30.8996 68.1945 30.9931 67.9321 30.9931ZM67.9321 25.1985C67.8021 25.1985 67.6733 25.1756 67.5531 25.131C67.4329 25.0863 67.3237 25.0209 67.2317 24.9383C67.1398 24.8558 67.0668 24.7578 67.0171 24.6499C66.9674 24.5421 66.9418 24.4265 66.9419 24.3098V23.2028C66.9419 22.9671 67.0462 22.741 67.2319 22.5744C67.4176 22.4077 67.6695 22.3141 67.9321 22.3141C68.1947 22.3141 68.4466 22.4077 68.6323 22.5744C68.818 22.741 68.9223 22.9671 68.9223 23.2028V24.3098C68.9223 24.5455 68.818 24.7715 68.6323 24.9382C68.4466 25.1048 68.1947 25.1985 67.9321 25.1985ZM60.8024 32.4922C60.5398 32.492 60.2881 32.3984 60.1024 32.2317C59.9167 32.0651 59.8123 31.8391 59.8122 31.6035V29.1472C59.8122 28.9115 59.9165 28.6855 60.1022 28.5188C60.2879 28.3522 60.5398 28.2585 60.8024 28.2585C61.0651 28.2585 61.3169 28.3522 61.5026 28.5188C61.6883 28.6855 61.7927 28.9115 61.7927 29.1472V31.604C61.7924 31.8396 61.6879 32.0654 61.5023 32.2319C61.3166 32.3984 61.0649 32.492 60.8024 32.4922ZM60.8024 26.6975C60.5398 26.6974 60.2881 26.6037 60.1024 26.4371C59.9167 26.2705 59.8123 26.0445 59.8122 25.8089V24.7018C59.8122 24.4661 59.9165 24.2401 60.1022 24.0734C60.2879 23.9068 60.5398 23.8131 60.8024 23.8131C61.0651 23.8131 61.3169 23.9068 61.5026 24.0734C61.6883 24.2401 61.7927 24.4661 61.7927 24.7018V25.8089C61.7925 26.0445 61.6881 26.2705 61.5025 26.4371C61.3168 26.6037 61.065 26.6974 60.8024 26.6975ZM75.0618 32.4922C74.7992 32.4922 74.5473 32.3985 74.3616 32.2319C74.1759 32.0652 74.0716 31.8392 74.0716 31.6035V29.1472C74.0716 28.9115 74.1759 28.6855 74.3616 28.5188C74.5473 28.3522 74.7992 28.2585 75.0618 28.2585C75.3244 28.2585 75.5763 28.3522 75.762 28.5188C75.9477 28.6855 76.052 28.9115 76.052 29.1472V31.604C76.0519 31.8396 75.9475 32.0655 75.7618 32.2321C75.5761 32.3986 75.3243 32.4922 75.0618 32.4922ZM75.0618 26.6975C74.7992 26.6975 74.5473 26.6039 74.3616 26.4372C74.1759 26.2706 74.0716 26.0445 74.0716 25.8089V24.7018C74.0716 24.4661 74.1759 24.2401 74.3616 24.0734C74.5473 23.9068 74.7992 23.8131 75.0618 23.8131C75.3244 23.8131 75.5763 23.9068 75.762 24.0734C75.9477 24.2401 76.052 24.4661 76.052 24.7018V25.8089C76.052 26.0445 75.9477 26.2706 75.762 26.4372C75.5763 26.6039 75.3244 26.6975 75.0618 26.6975Z" fill="#F4DD45"/>
<path d="M77.1441 68.4453L78.9435 66.8355C79.0704 67.2785 79.1351 67.734 79.1359 68.1914C79.1341 69.6185 78.5016 70.9867 77.3772 71.9958C76.2527 73.005 74.7282 73.5726 73.1379 73.5742H58.8107C58.548 73.5742 58.2962 73.4806 58.1105 73.3139C57.9248 73.1473 57.8204 72.9212 57.8204 72.6855C57.8204 72.4498 57.9248 72.2238 58.1105 72.0572C58.2962 71.8905 58.548 71.7969 58.8107 71.7969H73.1379C74.1541 71.7959 75.1322 71.4497 75.8756 70.8279C76.6191 70.2062 77.0727 69.3549 77.1453 68.4453H77.1441Z" fill="#FEB983"/>
</g>
<defs>
<filter id="filter0_d_71_126" x="0" y="0" width="125" height="113" filterUnits="userSpaceOnUse" color-interpolation-filters="sRGB">
<feFlood flood-opacity="0" result="BackgroundImageFix"/>
<feColorMatrix in="SourceAlpha" type="matrix" values="0 0 0 0 0 0 0 0 0 0 0 0 0 0 0 0 0 0 127 0" result="hardAlpha"/>
<feOffset dy="4"/>
<feGaussianBlur stdDeviation="2"/>
<feComposite in2="hardAlpha" operator="out"/>
<feColorMatrix type="matrix" values="0 0 0 0 0 0 0 0 0 0 0 0 0 0 0 0 0 0 0.25 0"/>
<feBlend mode="normal" in2="BackgroundImageFix" result="effect1_dropShadow_71_126"/>
<feBlend mode="normal" in="SourceGraphic" in2="effect1_dropShadow_71_126" result="shape"/>
</filter>
</defs>
</svg>
