<svg width="125" height="113" viewBox="0 0 125 113" fill="none" xmlns="http://www.w3.org/2000/svg">
<g filter="url(#filter0_d_71_36)">
<rect x="4" width="117" height="105" rx="15" fill="#37A3A5"/>
<path d="M63.5186 39.7295C63.5186 39.7295 77.4748 47.3503 78.2401 63.549C78.4384 67.2032 77.43 70.8214 75.3701 73.8462C73.3102 76.871 70.3131 79.1348 66.8402 80.289C63.5532 81.32 60.1247 81.829 56.6799 81.7972C53.2351 81.829 49.8066 81.32 46.5196 80.289C43.0467 79.1348 40.0496 76.871 37.9897 73.8462C35.9298 70.8214 34.9213 67.2032 35.1197 63.549C35.885 47.3498 49.8412 39.7295 49.8412 39.7295H63.5186ZM63.5186 35.8702L67.8289 26.1978C67.8289 26.1978 64.0117 23.2018 56.6799 23.2018C49.3481 23.2018 45.5309 26.1978 45.5309 26.1978L49.8412 35.8702H63.5186Z" fill="#64D465"/>
<path d="M65.9465 68.8343C70.4038 63.7163 69.8682 55.9541 64.7503 51.4968C59.6323 47.0396 51.8701 47.5751 47.4128 52.6931C42.9556 57.811 43.4912 65.5732 48.6091 70.0305C53.727 74.4878 61.4892 73.9522 65.9465 68.8343Z" fill="#F4DD45"/>
<path d="M62.911 66.4405C66.0465 62.9992 65.7987 57.6676 62.3573 54.532C58.916 51.3965 53.5843 51.6444 50.4488 55.0857C47.3132 58.527 47.5611 63.8587 51.0025 66.9942C54.4438 70.1298 59.7754 69.8819 62.911 66.4405Z" fill="#FCC101"/>
<path d="M49.8412 35.8701H63.5191V39.7295H49.8412V35.8701Z" fill="#477B9E"/>
<path d="M89.352 46.0274H67.1424C66.0197 46.0274 65.1096 46.9375 65.1096 48.0602V79.7644C65.1096 80.8871 66.0197 81.7972 67.1424 81.7972H89.352C90.4747 81.7972 91.3848 80.8871 91.3848 79.7644V48.0602C91.3848 46.9375 90.4747 46.0274 89.352 46.0274Z" fill="#477B9E"/>
<path d="M68.679 49.6014H87.8159V56.8134H68.679V49.6014Z" fill="#DBEDFF"/>
<path d="M76.2144 60.3823H80.2805V63.9517H76.2144V60.3823ZM83.7498 60.3823H87.8159V63.9517H83.7498V60.3823ZM68.679 60.3823H72.745V63.9517H68.679V60.3823ZM76.2144 67.5206H80.2805V71.09H76.2144V67.5206Z" fill="#F4DD45"/>
<path d="M83.7498 67.5206H87.8159V78.2278H83.7498V67.5206Z" fill="#F87C68"/>
<path d="M68.679 67.5206H72.745V71.09H68.679V67.5206ZM76.2144 74.6589H80.2805V78.2278H76.2144V74.6589ZM68.679 74.6589H72.745V78.2278H68.679V74.6589ZM57.371 65.8407V66.7629H56.0604V65.7981C54.8056 65.6564 53.6294 65.1162 52.7042 64.2569L53.7417 62.9746C54.388 63.5901 55.1895 64.0184 56.0604 64.2137V61.404C54.2886 60.9434 53.0932 60.3096 53.0932 58.611C53.0932 57.0551 54.2886 55.8597 56.0604 55.6433V54.7648H57.371V55.6581C58.4954 55.774 59.5543 56.2428 60.3961 56.9972L59.417 58.3226C58.8355 57.7979 58.1323 57.4267 57.371 57.2424V59.9496C59.3449 60.396 60.6555 61.0729 60.6555 62.8304C60.6555 64.4869 59.4602 65.697 57.371 65.8407ZM56.0604 59.6038V57.2125C55.7566 57.2585 55.4773 57.406 55.2681 57.631C55.0588 57.856 54.932 58.1452 54.9081 58.4516C54.9081 59.0274 55.2829 59.3301 56.0604 59.6038ZM58.8533 63.0031C58.8533 62.3404 58.3927 62.0382 57.3695 61.7335V64.2975C58.3511 64.1842 58.8548 63.6368 58.8548 63.0031H58.8533Z" fill="#F4DD45"/>
</g>
<defs>
<filter id="filter0_d_71_36" x="0" y="0" width="125" height="113" filterUnits="userSpaceOnUse" color-interpolation-filters="sRGB">
<feFlood flood-opacity="0" result="BackgroundImageFix"/>
<feColorMatrix in="SourceAlpha" type="matrix" values="0 0 0 0 0 0 0 0 0 0 0 0 0 0 0 0 0 0 127 0" result="hardAlpha"/>
<feOffset dy="4"/>
<feGaussianBlur stdDeviation="2"/>
<feComposite in2="hardAlpha" operator="out"/>
<feColorMatrix type="matrix" values="0 0 0 0 0 0 0 0 0 0 0 0 0 0 0 0 0 0 0.25 0"/>
<feBlend mode="normal" in2="BackgroundImageFix" result="effect1_dropShadow_71_36"/>
<feBlend mode="normal" in="SourceGraphic" in2="effect1_dropShadow_71_36" result="shape"/>
</filter>
</defs>
</svg>
