<svg width="125" height="113" viewBox="0 0 125 113" fill="none" xmlns="http://www.w3.org/2000/svg">
<g filter="url(#filter0_d_30_816)">
<rect x="4" width="117" height="105" rx="15" fill="#37A3A5"/>
<path d="M46.1693 40.4468C44.2361 39.9958 42.2893 40.3952 40.7751 41.4002L47.7646 52.3259C49.3869 51.4885 50.6577 50.0326 51.1309 48.1901C51.9961 44.7501 49.779 41.2842 46.1693 40.4468V40.4468Z" fill="#EF5A9D"/>
<path d="M46.1694 40.4464C44.7634 40.1243 43.3439 40.2403 42.1001 40.717C43.0059 40.5495 43.9658 40.5624 44.9256 40.7943C48.5353 41.6318 50.7524 45.0976 49.8737 48.5377C49.5087 49.9678 48.6705 51.1531 47.5619 52.0164L47.7647 52.3256C49.387 51.4881 50.6578 50.0322 51.131 48.1898C51.9962 44.7497 49.7791 41.2839 46.1694 40.4464V40.4464Z" fill="#F06EA9"/>
<path d="M49.3193 50.8447L42.7219 40.5245C42.0324 40.7178 41.37 41.0141 40.7751 41.4007L47.7646 52.3264C48.6704 51.8626 49.468 51.2055 50.0629 50.3938C49.8195 50.5613 49.5762 50.7159 49.3193 50.8447V50.8447Z" fill="#E43D91"/>
<path d="M89.1332 60.5853C89.1332 71.6141 77.5337 80.5556 63.2303 80.5556C48.927 80.5556 37.3275 71.6141 37.3275 60.5853C37.3275 52.0302 44.3034 44.7249 54.1184 41.8904C56.9574 41.0658 60.0263 40.6149 63.2303 40.6149C66.4344 40.6149 69.5168 41.0658 72.3423 41.8904C82.1438 44.7249 89.1332 52.0302 89.1332 60.5853Z" fill="#EF5A9D"/>
<path d="M54.1052 43.1645C56.9442 42.3399 60.0131 41.889 63.2172 41.889C66.4212 41.889 69.5036 42.3399 72.3291 43.1645C81.8872 45.9346 88.755 52.9436 89.1065 61.2152C89.12 61.009 89.12 60.79 89.12 60.571C89.12 52.0159 82.1441 44.7106 72.3291 41.8761C69.4901 41.0515 66.4212 40.6006 63.2172 40.6006C60.0131 40.6006 56.9307 41.0515 54.1052 41.8761C44.2902 44.7235 37.3143 52.0159 37.3143 60.571C37.3143 60.79 37.3143 60.9961 37.3278 61.2152C37.6793 52.9436 44.5471 45.9346 54.1052 43.1645Z" fill="#F06EA9"/>
<path d="M63.2305 41.1938C60.2698 41.1938 57.4984 41.5288 55.1055 42.1215C54.3349 42.3148 53.7941 42.9719 53.7941 43.732C53.7941 44.7885 54.8216 45.5873 55.9031 45.3554C58.1067 44.8787 60.5943 44.6081 63.2305 44.6081C65.8668 44.6081 68.3543 44.8787 70.558 45.3554C71.6395 45.5873 72.667 44.7885 72.667 43.732C72.667 42.9719 72.1262 42.3148 71.3556 42.1215C68.9492 41.5288 66.1777 41.1938 63.2305 41.1938Z" fill="#A72973"/>
<path d="M71.3556 42.1215C68.9627 41.5288 66.1912 41.1938 63.2305 41.1938C60.2698 41.1938 57.4984 41.5288 55.1055 42.1215C54.3349 42.3148 53.7941 42.9719 53.7941 43.732C53.7941 43.9768 53.8482 44.1959 53.9428 44.402C54.1591 43.9511 54.5782 43.6032 55.1055 43.4743C57.4984 42.8817 60.2698 42.5467 63.2305 42.5467C66.1912 42.5467 68.9627 42.8817 71.3556 43.4743C71.8828 43.6032 72.3019 43.9511 72.5182 44.402C72.6129 44.1959 72.667 43.9639 72.667 43.732C72.667 42.9719 72.1262 42.3019 71.3556 42.1215Z" fill="#E43D91"/>
<path d="M50.2117 84.987H44.6823C43.5602 84.987 42.6544 84.1238 42.6544 83.0544V71.3041H55.2814L52.1855 83.5053C51.9557 84.3815 51.1445 84.987 50.2117 84.987V84.987Z" fill="#EF5A9D"/>
<path d="M44.0063 83.0544V71.3041H42.6544V83.0544C42.6544 84.1238 43.5602 84.987 44.6823 84.987H46.0342C44.9121 84.987 44.0063 84.1238 44.0063 83.0544Z" fill="#F06EA9"/>
<path d="M53.9563 76.5223L52.1853 83.5184C51.969 84.3817 51.1443 85.0001 50.2115 85.0001H47.5077C48.4405 85.0001 49.2652 84.3945 49.4815 83.5184L51.2525 76.5223H53.9563Z" fill="#E43D91"/>
<path d="M76.2354 84.988H81.7647C82.8868 84.988 83.7926 84.1248 83.7926 83.0554V71.3051H71.1656L74.2616 83.5063C74.4914 84.3824 75.3025 84.988 76.2354 84.988Z" fill="#EF5A9D"/>
<path d="M82.4409 71.3051V83.0554C82.4409 84.1248 81.5351 84.988 80.413 84.988H81.7649C82.887 84.988 83.7928 84.1248 83.7928 83.0554V71.3051H82.4409Z" fill="#F06EA9"/>
<path d="M78.9394 84.9879H76.2355C75.3027 84.9879 74.4915 84.3823 74.2617 83.5062L72.4907 76.5101H75.1945L76.9656 83.5062C77.1954 84.3823 78.0065 84.9879 78.9394 84.9879Z" fill="#E43D91"/>
<path d="M41.4643 68.4828L31.8116 67.3877C30.7571 67.2202 30 66.3441 30 65.3391V55.8049C30 54.787 30.7706 53.9238 31.8116 53.7563L41.4643 52.6611V68.4828Z" fill="#EF5A9D"/>
<path d="M31.8252 53.7688C30.7707 53.9363 30.0136 54.8124 30.0136 55.8174V57.1058C30.0136 56.0879 30.7842 55.2247 31.8252 55.0572L38.5848 54.297C39.396 54.2068 40.0314 53.6013 40.126 52.8282L31.8252 53.7688V53.7688Z" fill="#F06EA9"/>
<path d="M30 62.7751V65.352C30 66.3698 30.7706 67.2331 31.8116 67.4005L41.4643 68.4957L39.869 65.9189L31.8116 64.8237C30.7706 64.6433 30 63.7801 30 62.7751V62.7751Z" fill="#E43D91"/>
<path d="M86.6991 55.9074C85.4959 55.9074 84.5225 54.9797 84.5225 53.833C84.5225 52.6863 85.4959 51.7587 86.6991 51.7587C88.8622 51.7587 90.6332 50.0837 90.6332 48.0094C90.6332 46.8627 91.6066 45.9351 92.8098 45.9351C94.013 45.9351 94.9864 46.8627 94.9864 48.0094C94.9999 52.3642 91.2821 55.9074 86.6991 55.9074V55.9074Z" fill="#EF5A9D"/>
<path d="M93.5264 46.0387C93.6075 46.2448 93.6481 46.4768 93.6481 46.7216C93.6481 51.0764 89.9303 54.6324 85.3473 54.6324C85.1039 54.6324 84.8606 54.5938 84.6307 54.5165C84.9282 55.3282 85.7393 55.9208 86.6992 55.9208C91.2687 55.9208 95 52.3777 95 48.01C95 47.0952 94.3781 46.3221 93.5264 46.0387Z" fill="#E43D91"/>
<path d="M75.3978 31.6086V31.9951C75.1815 38.231 69.8144 43.2172 63.2305 43.2172C56.6331 43.2172 51.266 38.231 51.0632 31.9951V31.2221C51.2795 24.9862 56.6467 20 63.2305 20C69.8279 20 75.1951 24.9862 75.3978 31.2221V31.6086Z" fill="#E4F247"/>
<path d="M75.2223 31.7756V32.1492C75.006 38.2949 69.7199 43.2167 63.2307 43.2167C56.728 43.2167 51.4419 38.2949 51.2391 32.1492V31.4019C51.4419 25.2562 56.7415 20.3345 63.2307 20.3345C69.7335 20.3345 75.0195 25.2562 75.2223 31.4019V31.7756Z" fill="#E7AD27"/>
<path d="M75.3978 31.6083V31.9948H51.0632V31.2218H75.3978V31.6083Z" fill="#F7CB15"/>
<path d="M75.3976 31.2354H75.2084C75.2084 31.2869 75.2084 31.3513 75.2219 31.4028V31.9955H75.3976V31.2354ZM51.2252 31.7765V31.4028C51.2252 31.3513 51.2252 31.2869 51.2387 31.2354H51.0495V32.0084H51.2252V31.7765V31.7765Z" fill="#F5F5F5"/>
<path d="M63.23 20.0122H63.6356V43.2036H62.8244V20.0122H63.23V20.0122Z" fill="#F7CB15"/>
<path d="M62.8244 43.2043H62.8785C62.865 43.2172 62.838 43.2043 62.8244 43.2043ZM63.23 20.3479C63.3652 20.3479 63.5004 20.3479 63.6356 20.3607V20.0258H62.8244V20.3607C62.9596 20.3479 63.0948 20.3479 63.23 20.3479ZM63.23 43.2172H63.5004H63.23ZM63.568 43.2172H63.6221C63.6085 43.2043 63.5815 43.2172 63.568 43.2172ZM63.23 43.2172H62.9596H63.23Z" fill="#F5F5F5"/>
<path d="M71.8288 39.8155L71.5449 40.0861L54.3349 23.6846L54.6188 23.414L54.9027 23.1434L72.1127 39.5449L71.8288 39.8155V39.8155Z" fill="#F7CB15"/>
<path d="M71.5179 40.0474L71.5584 40.0861L71.8423 39.8155L72.1262 39.5449L72.0857 39.5063C71.8964 39.6995 71.7071 39.8799 71.5179 40.0474V40.0474ZM55.119 23.3496L54.9027 23.1434L54.6188 23.414L54.3349 23.6846L54.5377 23.8778C54.727 23.6974 54.9162 23.5171 55.119 23.3496V23.3496Z" fill="#F5F5F5"/>
<path d="M71.8288 23.4011L72.1127 23.6717L54.9027 40.0861L54.6188 39.8155L54.3349 39.5449L71.5449 23.1434C71.6395 23.2336 71.7342 23.3109 71.8288 23.4011V23.4011Z" fill="#F7CB15"/>
<path d="M71.8964 23.8778L72.0992 23.6846L71.8153 23.414L71.5314 23.1434L71.3151 23.3496C71.5314 23.5171 71.7206 23.6974 71.8964 23.8778V23.8778ZM54.3755 39.5063L54.3349 39.5449L54.6188 39.8155L54.9027 40.0861L54.9433 40.0474C54.7405 39.8799 54.5512 39.6995 54.3755 39.5063V39.5063Z" fill="#F5F5F5"/>
<path d="M63.2305 40.7046C68.5018 40.7046 72.7751 36.6321 72.7751 31.6084C72.7751 26.5847 68.5018 22.5122 63.2305 22.5122C57.9592 22.5122 53.6859 26.5847 53.6859 31.6084C53.6859 36.6321 57.9592 40.7046 63.2305 40.7046Z" fill="#E4F247"/>
<path d="M63.2305 39.8149C67.9866 39.8149 71.8422 36.1404 71.8422 31.6077C71.8422 27.075 67.9866 23.4005 63.2305 23.4005C58.4743 23.4005 54.6187 27.075 54.6187 31.6077C54.6187 36.1404 58.4743 39.8149 63.2305 39.8149Z" fill="#F5F5F5"/>
<path d="M66.4613 33.283C66.3126 32.948 66.0963 32.6646 65.8124 32.4198C65.542 32.1879 65.2176 31.9817 64.8526 31.8142C64.5011 31.6596 64.109 31.505 63.6899 31.3762C63.2843 31.2473 62.9463 31.1185 62.6895 30.9896C62.4596 30.8737 62.2704 30.7577 62.1487 30.6289C62.0406 30.5258 61.973 30.4227 61.9324 30.3068C61.8918 30.1779 61.8648 30.0104 61.8648 29.8301C61.8648 29.6497 61.8918 29.4822 61.9594 29.3276C62.0135 29.1859 62.0946 29.057 62.2163 28.9539C62.3245 28.8509 62.4732 28.7607 62.6624 28.6963C62.8517 28.6318 63.0951 28.5932 63.3654 28.5932C63.6223 28.5932 63.8386 28.6318 64.0279 28.7091C64.2171 28.7864 64.3523 28.8895 64.474 29.0312C64.5957 29.173 64.7038 29.3533 64.7579 29.5466C64.8255 29.7656 64.8661 29.9976 64.8661 30.2681V30.4098C64.8661 30.5902 65.0148 30.732 65.2041 30.732H66.2991C66.4884 30.732 66.6371 30.5902 66.6371 30.4098V30.2681C66.6371 29.8043 66.5695 29.3791 66.4478 28.9926C66.3262 28.6061 66.1234 28.2582 65.88 27.9876C65.6231 27.7042 65.3122 27.4723 64.9607 27.3048C64.839 27.2532 64.7038 27.2017 64.5686 27.1502C64.3659 27.0857 64.2171 26.9054 64.2171 26.6992V26.055C64.2171 25.8746 64.0684 25.7329 63.8792 25.7329H62.8923C62.703 25.7329 62.5543 25.8746 62.5543 26.055V26.6863C62.5543 26.9054 62.4056 27.0857 62.1893 27.1502C62.0676 27.1888 61.9459 27.2275 61.8378 27.2661C61.4863 27.4078 61.1753 27.614 60.9185 27.8588C60.6616 28.1036 60.4588 28.3999 60.3236 28.7478C60.1884 29.0828 60.1208 29.4564 60.1208 29.8429C60.1208 30.281 60.2019 30.6675 60.3506 31.0025C60.4994 31.3375 60.7157 31.6338 60.9996 31.8786C61.27 32.1106 61.5944 32.3167 61.9594 32.4842C62.3109 32.6388 62.703 32.7934 63.1356 32.9223C63.5141 33.0511 63.8251 33.1671 64.082 33.2959C64.3118 33.4118 64.4875 33.5278 64.6227 33.6566C64.7444 33.7726 64.8255 33.8757 64.8661 34.0045C64.9201 34.1334 64.9472 34.288 64.9472 34.4555C64.9472 34.6358 64.9202 34.7904 64.839 34.9451C64.7714 35.0868 64.6768 35.2156 64.5551 35.3316C64.4199 35.4475 64.2577 35.5377 64.0549 35.6021C63.8521 35.6795 63.6088 35.7052 63.3249 35.7052C63.1086 35.7052 62.8787 35.6795 62.6489 35.6279C62.4461 35.5764 62.2704 35.4991 62.0946 35.3702C61.9324 35.2543 61.8107 35.0997 61.7026 34.8935C61.5944 34.6874 61.5403 34.4168 61.5403 34.0947V33.953C61.5403 33.7726 61.3916 33.6309 61.2024 33.6309H60.1073C59.918 33.6309 59.7693 33.7726 59.7693 33.953V34.0947C59.7693 34.6358 59.864 35.1254 60.0397 35.512C60.229 35.9114 60.4723 36.2464 60.7833 36.504C61.0942 36.7617 61.4457 36.955 61.8378 37.0709C61.9459 37.1096 62.0406 37.1354 62.1487 37.1611C62.365 37.2127 62.5272 37.4059 62.5272 37.625V38.1532C62.5272 38.3336 62.676 38.4753 62.8652 38.4753H63.8386C64.0279 38.4753 64.1766 38.3336 64.1766 38.1532V37.5992C64.1766 37.3802 64.3253 37.1998 64.5551 37.1354L64.9202 37.0194C65.2852 36.8777 65.6096 36.6844 65.88 36.4396C66.1504 36.1948 66.3667 35.8985 66.5019 35.5506C66.6371 35.2156 66.7182 34.842 66.7182 34.4297C66.6912 34.0045 66.6101 33.618 66.4613 33.283V33.283Z" fill="#E7AD27"/>
<path d="M66.4616 32.6523C66.3129 32.3173 66.0966 32.0338 65.8127 31.789C65.5423 31.5571 65.2179 31.351 64.8528 31.1835C64.5013 31.0289 64.1093 30.8743 63.6902 30.7454C63.2846 30.6166 62.9466 30.4877 62.6898 30.3589C62.4599 30.2429 62.2707 30.127 62.149 29.9981C62.0408 29.8951 61.9732 29.792 61.9327 29.676C61.8921 29.5472 61.8651 29.3797 61.8651 29.1993C61.8651 29.0189 61.8921 28.8515 61.9597 28.6968C62.0138 28.5551 62.0949 28.4263 62.2166 28.3232C62.3247 28.2201 62.4734 28.1299 62.6627 28.0655C62.852 28.0011 63.0953 27.9624 63.3657 27.9624C63.6226 27.9624 63.8389 28.0011 64.0282 28.0784C64.2174 28.1557 64.3526 28.2588 64.4743 28.4005C64.596 28.5422 64.7041 28.7226 64.7582 28.9159C64.8258 29.1349 64.8664 29.3668 64.8664 29.6374V29.7791C64.8664 29.9595 65.0151 30.1012 65.2043 30.1012H66.2994C66.4887 30.1012 66.6374 29.9595 66.6374 29.7791V29.6374C66.6374 29.1736 66.5698 28.7484 66.4481 28.3619C66.3264 27.9753 66.1236 27.6275 65.8803 27.3569C65.6234 27.0734 65.3125 26.8415 64.961 26.674C64.8393 26.6225 64.7041 26.571 64.5689 26.5194C64.3661 26.455 64.2174 26.2746 64.2174 26.0685V25.4243C64.2174 25.2439 64.0687 25.1022 63.8794 25.1022H62.8925C62.7033 25.1022 62.5546 25.2439 62.5546 25.4243V26.0556C62.5546 26.2746 62.4059 26.455 62.1895 26.5194C62.0679 26.5581 61.9462 26.5967 61.838 26.6354C61.4865 26.7771 61.1756 26.9833 60.9187 27.2281C60.6619 27.4729 60.4591 27.7692 60.3239 28.1171C60.1887 28.452 60.1211 28.8257 60.1211 29.2122C60.1211 29.6503 60.2022 30.0368 60.3509 30.3718C60.4996 30.7068 60.7159 31.0031 60.9999 31.2479C61.2702 31.4798 61.5947 31.686 61.9597 31.8535C62.3112 32.0081 62.7033 32.1627 63.1359 32.2915C63.5144 32.4204 63.8254 32.5363 64.0822 32.6652C64.3121 32.7811 64.4878 32.8971 64.623 33.0259C64.7447 33.1419 64.8258 33.2449 64.8664 33.3738C64.9204 33.5026 64.9475 33.6572 64.9475 33.8247C64.9475 34.0051 64.9204 34.1597 64.8393 34.3143C64.7717 34.456 64.6771 34.5849 64.5554 34.7008C64.4202 34.8168 64.258 34.907 64.0552 34.9714C63.8524 35.0487 63.6091 35.0745 63.3252 35.0745C63.1089 35.0745 62.879 35.0487 62.6492 34.9972C62.4464 34.9456 62.2707 34.8683 62.0949 34.7395C61.9327 34.6235 61.811 34.4689 61.7029 34.2628C61.5947 34.0566 61.5406 33.7861 61.5406 33.464V33.2965C61.5406 33.1161 61.3919 32.9744 61.2026 32.9744H60.1076C59.9183 32.9744 59.7696 33.1161 59.7696 33.2965V33.4382C59.7696 33.9793 59.8642 34.4689 60.04 34.8555C60.2293 35.2549 60.4726 35.5898 60.7835 35.8475C61.0945 36.1052 61.446 36.2985 61.838 36.4144C61.9462 36.4531 62.0408 36.4789 62.149 36.5046C62.3653 36.5562 62.5275 36.7494 62.5275 36.9684V37.4967C62.5275 37.6771 62.6762 37.8188 62.8655 37.8188H63.8389C64.0282 37.8188 64.1769 37.6771 64.1769 37.4967V36.9427C64.1769 36.7236 64.3256 36.5433 64.5554 36.4789L64.9204 36.3629C65.2855 36.2212 65.6099 36.0279 65.8803 35.7831C66.1507 35.5383 66.367 35.242 66.5022 34.8941C66.6374 34.5591 66.7185 34.1855 66.7185 33.7732C66.6915 33.3738 66.6103 32.9873 66.4616 32.6523V32.6523Z" fill="#E5F9E7"/>
<path d="M47.6834 55.7148C48.9228 55.7148 49.9276 54.7572 49.9276 53.576C49.9276 52.3948 48.9228 51.4373 47.6834 51.4373C46.4439 51.4373 45.4392 52.3948 45.4392 53.576C45.4392 54.7572 46.4439 55.7148 47.6834 55.7148Z" fill="#A72973"/>
<path d="M47.6834 55.1996C48.9228 55.1996 49.9276 54.2421 49.9276 53.0609C49.9276 51.8797 48.9228 50.9221 47.6834 50.9221C46.4439 50.9221 45.4392 51.8797 45.4392 53.0609C45.4392 54.2421 46.4439 55.1996 47.6834 55.1996Z" fill="#E43D91"/>
<path d="M47.6834 51.6307C48.792 51.6307 49.7248 52.4038 49.9005 53.4216C49.914 53.3057 49.9276 53.1897 49.9276 53.0609C49.9276 51.8755 48.9271 50.9221 47.6834 50.9221C46.4396 50.9221 45.4392 51.8755 45.4392 53.0609C45.4392 53.1768 45.4527 53.3057 45.4662 53.4216C45.642 52.4038 46.5748 51.6307 47.6834 51.6307V51.6307Z" fill="#F06EA9"/>
<path d="M63.2303 76.6897C49.7652 76.6897 38.7064 68.7789 37.4491 58.652C37.368 59.2833 37.3275 59.9275 37.3275 60.5846C37.3275 71.6134 48.927 80.555 63.2303 80.555C77.5337 80.555 89.1332 71.6134 89.1332 60.5846C89.1332 59.9275 89.0926 59.2833 89.0115 58.652C87.7407 68.766 76.682 76.6897 63.2303 76.6897V76.6897Z" fill="#E43D91"/>
<path d="M92.8098 45.9225C91.6065 45.9225 90.6332 46.8501 90.6332 47.9968C90.6332 50.0583 88.8757 51.7461 86.6991 51.7461C86.3476 51.7461 86.0231 51.8234 85.7392 51.9651C85.9014 52.1197 86.1989 52.313 86.645 52.3517C86.7126 52.3645 86.7802 52.3645 86.8343 52.3774H86.8883C89.2407 52.3774 91.1604 50.5479 91.1604 48.306C91.1604 47.0563 92.2149 46.0513 93.5263 46.0384C93.2964 45.974 93.0666 45.9225 92.8098 45.9225Z" fill="#F06EA9"/>
</g>
<defs>
<filter id="filter0_d_30_816" x="0" y="0" width="125" height="113" filterUnits="userSpaceOnUse" color-interpolation-filters="sRGB">
<feFlood flood-opacity="0" result="BackgroundImageFix"/>
<feColorMatrix in="SourceAlpha" type="matrix" values="0 0 0 0 0 0 0 0 0 0 0 0 0 0 0 0 0 0 127 0" result="hardAlpha"/>
<feOffset dy="4"/>
<feGaussianBlur stdDeviation="2"/>
<feComposite in2="hardAlpha" operator="out"/>
<feColorMatrix type="matrix" values="0 0 0 0 0 0 0 0 0 0 0 0 0 0 0 0 0 0 0.25 0"/>
<feBlend mode="normal" in2="BackgroundImageFix" result="effect1_dropShadow_30_816"/>
<feBlend mode="normal" in="SourceGraphic" in2="effect1_dropShadow_30_816" result="shape"/>
</filter>
</defs>
</svg>
