<svg width="125" height="113" viewBox="0 0 125 113" fill="none" xmlns="http://www.w3.org/2000/svg">
<g filter="url(#filter0_d_30_872)">
<rect x="4" width="117" height="105" rx="15" fill="#37A3A5"/>
<path d="M62.7757 39.7296C62.7757 39.7296 76.732 47.3503 77.4972 63.549C77.6956 67.2033 76.6872 70.8214 74.6273 73.8462C72.5674 76.8711 69.5702 79.1349 66.0973 80.289C62.8103 81.3201 59.3818 81.829 55.937 81.7973C52.4922 81.829 49.0638 81.3201 45.7767 80.289C42.3039 79.1349 39.3067 76.8711 37.2468 73.8462C35.1869 70.8214 34.1785 67.2033 34.3768 63.549C35.1421 47.3498 49.0983 39.7296 49.0983 39.7296H62.7757ZM62.7757 35.8702L67.0861 26.1979C67.0861 26.1979 63.2688 23.2018 55.937 23.2018C48.6052 23.2018 44.788 26.1979 44.788 26.1979L49.0983 35.8702H62.7757Z" fill="#64D465"/>
<path d="M65.2037 68.8343C69.6609 63.7164 69.1254 55.9542 64.0074 51.4969C58.8895 47.0396 51.1273 47.5752 46.67 52.6931C42.2128 57.8111 42.7483 65.5733 47.8663 70.0306C52.9842 74.4878 60.7464 73.9522 65.2037 68.8343Z" fill="#F4DD45"/>
<path d="M62.1681 66.4405C65.3037 62.9992 65.0558 57.6676 61.6144 54.532C58.1731 51.3964 52.8415 51.6443 49.7059 55.0857C46.5704 58.527 46.8183 63.8586 50.2596 66.9942C53.7009 70.1297 59.0326 69.8819 62.1681 66.4405Z" fill="#FCC101"/>
<path d="M49.0983 35.8701H62.7763V39.7295H49.0983V35.8701Z" fill="#477B9E"/>
<path d="M88.6092 46.0275H66.3995C65.2768 46.0275 64.3667 46.9376 64.3667 48.0602V79.7645C64.3667 80.8872 65.2768 81.7973 66.3995 81.7973H88.6092C89.7319 81.7973 90.642 80.8872 90.642 79.7645V48.0602C90.642 46.9376 89.7319 46.0275 88.6092 46.0275Z" fill="#477B9E"/>
<path d="M67.9361 49.6014H87.073V56.8134H67.9361V49.6014Z" fill="#DBEDFF"/>
<path d="M75.4716 60.3823H79.5376V63.9517H75.4716V60.3823ZM83.007 60.3823H87.073V63.9517H83.007V60.3823ZM67.9361 60.3823H72.0022V63.9517H67.9361V60.3823ZM75.4716 67.5206H79.5376V71.0901H75.4716V67.5206Z" fill="#F4DD45"/>
<path d="M83.007 67.5206H87.073V78.2279H83.007V67.5206Z" fill="#F87C68"/>
<path d="M67.9361 67.5206H72.0022V71.0901H67.9361V67.5206ZM75.4716 74.659H79.5376V78.2279H75.4716V74.659ZM67.9361 74.659H72.0022V78.2279H67.9361V74.659ZM56.6282 65.8408V66.763H55.3175V65.7981C54.0628 65.6564 52.8865 65.1163 51.9614 64.2569L52.9988 62.9747C53.6452 63.5902 54.4466 64.0184 55.3175 64.2138V61.404C53.5457 60.9434 52.3503 60.3097 52.3503 58.6111C52.3503 57.0551 53.5457 55.8597 55.3175 55.6434V54.7649H56.6282V55.6581C57.7526 55.7741 58.8114 56.2428 59.6532 56.9972L58.6741 58.3226C58.0926 57.798 57.3894 57.4267 56.6282 57.2425V59.9497C58.602 60.396 59.9127 61.0729 59.9127 62.8305C59.9127 64.487 58.7173 65.6971 56.6282 65.8408ZM55.3175 59.6038V57.2125C55.0137 57.2585 54.7345 57.4061 54.5252 57.6311C54.316 57.8561 54.1891 58.1453 54.1653 58.4516C54.1653 59.0275 54.54 59.3301 55.3175 59.6038ZM58.1105 63.0031C58.1105 62.3404 57.6499 62.0383 56.6266 61.7336V64.2976C57.6082 64.1843 58.112 63.6369 58.112 63.0031H58.1105Z" fill="#F4DD45"/>
</g>
<defs>
<filter id="filter0_d_30_872" x="0" y="0" width="125" height="113" filterUnits="userSpaceOnUse" color-interpolation-filters="sRGB">
<feFlood flood-opacity="0" result="BackgroundImageFix"/>
<feColorMatrix in="SourceAlpha" type="matrix" values="0 0 0 0 0 0 0 0 0 0 0 0 0 0 0 0 0 0 127 0" result="hardAlpha"/>
<feOffset dy="4"/>
<feGaussianBlur stdDeviation="2"/>
<feComposite in2="hardAlpha" operator="out"/>
<feColorMatrix type="matrix" values="0 0 0 0 0 0 0 0 0 0 0 0 0 0 0 0 0 0 0.25 0"/>
<feBlend mode="normal" in2="BackgroundImageFix" result="effect1_dropShadow_30_872"/>
<feBlend mode="normal" in="SourceGraphic" in2="effect1_dropShadow_30_872" result="shape"/>
</filter>
</defs>
</svg>
