<svg width="125" height="113" viewBox="0 0 125 113" fill="none" xmlns="http://www.w3.org/2000/svg">
<g filter="url(#filter0_d_71_107)">
<rect x="4" width="117" height="105" rx="15" fill="#37A3A5"/>
<path d="M63.913 20H32.8261C31.2653 20 30 21.7119 30 23.8235V50.5882C30 52.6999 31.2653 54.4118 32.8261 54.4118H63.913C65.4738 54.4118 66.7391 52.6999 66.7391 50.5882V23.8235C66.7391 21.7119 65.4738 20 63.913 20Z" fill="#6FABE6"/>
<path d="M66.7391 23.8235V48.6765H38.4783C37.354 48.6765 36.2757 48.0722 35.4807 46.9966C34.6858 45.9211 34.2391 44.4623 34.2391 42.9412V20H63.913C64.6626 20 65.3814 20.4028 65.9114 21.1199C66.4414 21.8369 66.7391 22.8095 66.7391 23.8235Z" fill="#82BCF4"/>
<path d="M95 60.1471V85L89.3478 81.1765C85.2217 80.5456 82.4239 80.6603 79.2304 77.9647C73.3239 72.9941 71.6424 68.2147 69.4804 65.0794C66.9087 61.2559 65.0152 60.2235 59.0663 55.5206C58.4853 55.066 57.9925 54.4312 57.6282 53.6685C57.264 52.9058 57.0388 52.0371 56.9712 51.1337C56.9036 50.2303 56.9955 49.3181 57.2394 48.4721C57.4833 47.6261 57.8721 46.8706 58.3739 46.2677C61.6522 43.3044 62.938 45.2735 66.7391 48.1794V32.3309C75.7788 34.6485 83.8468 41.4707 89.3478 51.4485C90.9777 54.6331 92.8744 57.552 95 60.1471Z" fill="#F6CCAF"/>
<path d="M95 60.1471V78.3088L90.7609 75.4412C86.6348 74.8103 83.837 74.925 80.6435 72.2294C74.737 67.2588 73.0554 62.4794 70.8935 59.3441C65.7783 51.8309 59.4761 51.5441 58.487 46.1912C58.9429 45.6591 59.4774 45.2646 60.0548 45.0339C60.6323 44.8031 61.2394 44.7414 61.8359 44.8529C62.7544 45.0632 62.8533 45.1779 66.7391 48.2368V32.3309C75.7789 34.6485 83.8468 41.4707 89.3478 51.4485C90.9777 54.6331 92.8744 57.552 95 60.1471Z" fill="#FFDEC7"/>
<path d="M73.5076 55.8073L66.0326 49.9382C65.7118 49.6829 65.4784 49.2665 65.3832 48.7797C65.2879 48.2929 65.3385 47.7749 65.5239 47.3382L66.7391 48.2941V46.3823C67.2619 46.3823 66.7391 46.1147 74.9206 52.4809C75.2467 52.7344 75.4849 53.1528 75.583 53.6439C75.681 54.1351 75.6308 54.6589 75.4435 55.1C75.2561 55.5411 74.9469 55.8635 74.5838 55.9961C74.2208 56.1288 73.8336 56.0609 73.5076 55.8073Z" fill="#EDB996"/>
<path d="M63.8141 59.2485L62.1043 63.225C61.7127 64.1342 61.1103 64.8431 60.3905 65.2418C59.6707 65.6405 58.8737 65.7066 58.1233 65.4299C57.3728 65.1532 56.7109 64.5492 56.2401 63.7115C55.7693 62.8738 55.516 61.8494 55.5196 60.7971C55.5196 59.0191 56.0424 58.3118 57.8511 54.4118C58.275 54.4118 58.0489 54.775 59.0663 55.5588L63.8141 59.2485Z" fill="#F6CCAF"/>
<path d="M61.3696 57.8147L60.6913 59.4015C60.4386 59.9815 60.0986 60.4832 59.6932 60.8738C59.2879 61.2644 58.8263 61.5352 58.3385 61.6686C57.8507 61.8021 57.3477 61.7951 56.862 61.6483C56.3763 61.5014 55.9189 61.2179 55.5196 60.8162C55.5196 58.9044 56.0565 58.2735 57.8511 54.4118C58.275 54.4118 58.0489 54.775 59.0663 55.5588C61.6663 57.6044 61.6804 57.3941 61.3696 57.8147Z" fill="#FFDEC7"/>
<path d="M57.9359 54.2397L57.8511 54.4118L57.9359 54.2397ZM69.4804 65.0794L68.9152 66.3985C68.5236 67.3077 67.9212 68.0167 67.2013 68.4154C66.4815 68.814 65.6846 68.8801 64.9341 68.6034C64.1837 68.3267 63.5217 67.7227 63.051 66.885C62.5802 66.0474 62.3269 65.0229 62.3304 63.9706C62.3304 62.3456 62.8956 61.4088 63.8141 59.2485C65.9279 60.7555 67.8426 62.7258 69.4804 65.0794Z" fill="#F6CCAF"/>
<path d="M67.5022 62.575C67.2495 63.1551 66.9095 63.6567 66.5041 64.0473C66.0988 64.4379 65.6372 64.7087 65.1494 64.8422C64.6616 64.9756 64.1586 64.9687 63.6729 64.8218C63.1872 64.6749 62.7298 64.3914 62.3304 63.9897C62.3304 62.3074 62.8815 61.4279 63.8141 59.2485C65.119 60.1958 66.354 61.3097 67.5022 62.575Z" fill="#FFDEC7"/>
<path d="M30 29.5588H66.7391V37.2059H30V29.5588Z" fill="#374F68"/>
<path d="M66.7391 29.5588V33.3824H37.0652C36.3157 33.3824 35.5969 32.9795 35.0669 32.2625C34.5369 31.5454 34.2391 30.5729 34.2391 29.5588H66.7391Z" fill="#425B72"/>
<path d="M48.3696 48.6765H35.6522C35.2774 48.6765 34.918 48.475 34.653 48.1165C34.388 47.758 34.2391 47.2717 34.2391 46.7647C34.2391 46.2577 34.388 45.7714 34.653 45.4129C34.918 45.0544 35.2774 44.8529 35.6522 44.8529H48.3696C48.7443 44.8529 49.1037 45.0544 49.3687 45.4129C49.6337 45.7714 49.7826 46.2577 49.7826 46.7647C49.7826 47.2717 49.6337 47.758 49.3687 48.1165C49.1037 48.475 48.7443 48.6765 48.3696 48.6765Z" fill="#EDEBF2"/>
</g>
<defs>
<filter id="filter0_d_71_107" x="0" y="0" width="125" height="113" filterUnits="userSpaceOnUse" color-interpolation-filters="sRGB">
<feFlood flood-opacity="0" result="BackgroundImageFix"/>
<feColorMatrix in="SourceAlpha" type="matrix" values="0 0 0 0 0 0 0 0 0 0 0 0 0 0 0 0 0 0 127 0" result="hardAlpha"/>
<feOffset dy="4"/>
<feGaussianBlur stdDeviation="2"/>
<feComposite in2="hardAlpha" operator="out"/>
<feColorMatrix type="matrix" values="0 0 0 0 0 0 0 0 0 0 0 0 0 0 0 0 0 0 0.25 0"/>
<feBlend mode="normal" in2="BackgroundImageFix" result="effect1_dropShadow_71_107"/>
<feBlend mode="normal" in="SourceGraphic" in2="effect1_dropShadow_71_107" result="shape"/>
</filter>
</defs>
</svg>
