<svg width="125" height="113" viewBox="0 0 125 113" fill="none" xmlns="http://www.w3.org/2000/svg">
<g filter="url(#filter0_d_30_887)">
<rect x="4" width="117" height="105" rx="15" fill="#37A3A5"/>
<path d="M63.913 20H32.8261C31.2653 20 30 21.7119 30 23.8235V50.5882C30 52.6999 31.2653 54.4118 32.8261 54.4118H63.913C65.4738 54.4118 66.7391 52.6999 66.7391 50.5882V23.8235C66.7391 21.7119 65.4738 20 63.913 20Z" fill="#6FABE6"/>
<path d="M66.7391 23.8235V48.6765H38.4783C37.354 48.6765 36.2757 48.0722 35.4807 46.9966C34.6858 45.9211 34.2391 44.4623 34.2391 42.9412V20H63.913C64.6626 20 65.3814 20.4028 65.9114 21.1199C66.4414 21.8369 66.7391 22.8095 66.7391 23.8235Z" fill="#82BCF4"/>
<path d="M95 60.1471V85L89.3478 81.1765C85.2217 80.5456 82.4239 80.6603 79.2304 77.9648C73.3239 72.9942 71.6424 68.2148 69.4804 65.0795C66.9087 61.2559 65.0152 60.2236 59.0663 55.5206C58.4853 55.066 57.9925 54.4312 57.6282 53.6686C57.264 52.9059 57.0388 52.0371 56.9712 51.1337C56.9036 50.2303 56.9955 49.3181 57.2394 48.4721C57.4833 47.6262 57.8721 46.8706 58.3739 46.2677C61.6522 43.3045 62.938 45.2736 66.7391 48.1795V32.3309C75.7788 34.6486 83.8468 41.4707 89.3478 51.4486C90.9777 54.6332 92.8744 57.5521 95 60.1471Z" fill="#F6CCAF"/>
<path d="M95 60.1471V78.3089L90.7609 75.4412C86.6348 74.8103 83.837 74.925 80.6435 72.2295C74.737 67.2589 73.0554 62.4795 70.8935 59.3442C65.7783 51.8309 59.4761 51.5442 58.487 46.1912C58.9429 45.6592 59.4774 45.2647 60.0548 45.0339C60.6323 44.8032 61.2394 44.7415 61.8359 44.853C62.7544 45.0633 62.8533 45.178 66.7391 48.2368V32.3309C75.7789 34.6486 83.8468 41.4707 89.3478 51.4486C90.9777 54.6332 92.8744 57.5521 95 60.1471Z" fill="#FFDEC7"/>
<path d="M73.5076 55.8075L66.0326 49.9384C65.7118 49.683 65.4784 49.2667 65.3832 48.7798C65.2879 48.293 65.3385 47.775 65.5239 47.3384L66.7391 48.2942V46.3825C67.2619 46.3825 66.7391 46.1148 74.9206 52.481C75.2467 52.7345 75.4849 53.1529 75.583 53.6441C75.681 54.1352 75.6308 54.659 75.4435 55.1001C75.2561 55.5412 74.9469 55.8636 74.5838 55.9962C74.2208 56.1289 73.8336 56.061 73.5076 55.8075Z" fill="#EDB996"/>
<path d="M63.8141 59.2487L62.1043 63.2252C61.7127 64.1344 61.1103 64.8433 60.3905 65.242C59.6707 65.6407 58.8737 65.7068 58.1233 65.4301C57.3728 65.1534 56.7109 64.5493 56.2401 63.7117C55.7693 62.874 55.516 61.8495 55.5196 60.7972C55.5196 59.0193 56.0424 58.3119 57.8511 54.4119C58.275 54.4119 58.0489 54.7752 59.0663 55.559L63.8141 59.2487Z" fill="#F6CCAF"/>
<path d="M61.3696 57.8149L60.6913 59.4016C60.4386 59.9817 60.0986 60.4833 59.6932 60.8739C59.2879 61.2645 58.8263 61.5354 58.3385 61.6688C57.8507 61.8022 57.3477 61.7953 56.862 61.6484C56.3763 61.5015 55.9189 61.218 55.5196 60.8163C55.5196 58.9046 56.0565 58.2737 57.8511 54.4119C58.275 54.4119 58.0489 54.7752 59.0663 55.559C61.6663 57.6046 61.6804 57.3943 61.3696 57.8149Z" fill="#FFDEC7"/>
<path d="M57.9359 54.2399L57.8511 54.4119L57.9359 54.2399ZM69.4804 65.0796L68.9152 66.3987C68.5236 67.3079 67.9212 68.0169 67.2013 68.4155C66.4815 68.8142 65.6846 68.8803 64.9341 68.6036C64.1837 68.3269 63.5217 67.7229 63.051 66.8852C62.5802 66.0475 62.3269 65.0231 62.3304 63.9708C62.3304 62.3458 62.8956 61.409 63.8141 59.2487C65.9279 60.7556 67.8426 62.7259 69.4804 65.0796Z" fill="#F6CCAF"/>
<path d="M67.5022 62.5746C67.2495 63.1547 66.9095 63.6564 66.5041 64.047C66.0988 64.4376 65.6372 64.7084 65.1494 64.8418C64.6616 64.9752 64.1586 64.9683 63.6729 64.8214C63.1872 64.6746 62.7298 64.3911 62.3304 63.9893C62.3304 62.307 62.8815 61.4276 63.8141 59.2482C65.119 60.1954 66.354 61.3093 67.5022 62.5746Z" fill="#FFDEC7"/>
<path d="M30 29.559H66.7391V37.206H30V29.559Z" fill="#374F68"/>
<path d="M66.7391 29.559V33.3825H37.0652C36.3157 33.3825 35.5969 32.9797 35.0669 32.2626C34.5369 31.5456 34.2391 30.573 34.2391 29.559H66.7391Z" fill="#425B72"/>
<path d="M48.3696 48.6765H35.6522C35.2774 48.6765 34.918 48.4751 34.653 48.1166C34.388 47.758 34.2391 47.2718 34.2391 46.7647C34.2391 46.2577 34.388 45.7714 34.653 45.4129C34.918 45.0544 35.2774 44.853 35.6522 44.853H48.3696C48.7443 44.853 49.1037 45.0544 49.3687 45.4129C49.6337 45.7714 49.7826 46.2577 49.7826 46.7647C49.7826 47.2718 49.6337 47.758 49.3687 48.1166C49.1037 48.4751 48.7443 48.6765 48.3696 48.6765Z" fill="#EDEBF2"/>
</g>
<defs>
<filter id="filter0_d_30_887" x="0" y="0" width="125" height="113" filterUnits="userSpaceOnUse" color-interpolation-filters="sRGB">
<feFlood flood-opacity="0" result="BackgroundImageFix"/>
<feColorMatrix in="SourceAlpha" type="matrix" values="0 0 0 0 0 0 0 0 0 0 0 0 0 0 0 0 0 0 127 0" result="hardAlpha"/>
<feOffset dy="4"/>
<feGaussianBlur stdDeviation="2"/>
<feComposite in2="hardAlpha" operator="out"/>
<feColorMatrix type="matrix" values="0 0 0 0 0 0 0 0 0 0 0 0 0 0 0 0 0 0 0.25 0"/>
<feBlend mode="normal" in2="BackgroundImageFix" result="effect1_dropShadow_30_887"/>
<feBlend mode="normal" in="SourceGraphic" in2="effect1_dropShadow_30_887" result="shape"/>
</filter>
</defs>
</svg>
