<svg width="458" height="339" viewBox="0 0 458 339" fill="none" xmlns="http://www.w3.org/2000/svg">
<path d="M65.933 197.353C63.9697 186.651 62.2408 174.975 69.4421 165.718C72.7314 161.492 77.6691 158.116 80.658 153.759C83.6324 149.431 84.4822 144.457 85.9034 139.687C87.4638 134.447 89.7715 129.342 92.7604 124.493C97.1706 117.349 103.764 110.347 113.485 107.877C114.628 107.588 115.874 107.367 117.009 107.673C120.005 108.477 119.683 111.831 118.577 114.131C112.115 127.546 98.8336 139.064 96.2915 153.249C95.515 157.595 95.7274 162.217 92.9802 166.053C89.0096 171.605 79.8595 174.046 76.0427 179.661C73.9109 182.793 73.757 186.464 72.9366 189.943C71.889 194.362 69.6765 198.616 66.4824 202.372C60.0357 200.237 53.0614 197.721 50.0358 192.826C47.7941 189.206 48.197 184.991 48.4314 180.981C48.893 173.027 48.4827 164.982 45.9553 157.266C44.3509 152.383 41.9187 147.669 40.666 142.729C37.6477 130.815 41.6916 118.584 45.7136 106.846C46.6293 104.177 48.1531 101.045 51.6475 100.506C55.6768 99.8832 58.8196 103.243 59.999 106.291C66.1161 122.108 51.0981 138.571 53.164 155.006C53.8306 160.342 56.3068 165.486 56.7244 170.84C57.2518 177.57 54.6145 184.788 58.5705 190.798C60.4532 193.654 63.6986 195.965 64.9074 199.03C66.1161 202.095 63.5667 206.383 59.4716 205.885C58.0137 205.709 56.7903 204.967 55.6401 204.248C47.6549 199.268 39.5451 194.18 33.8236 187.592C29.56 182.68 26.7029 177.021 21.604 172.607C17.5455 169.089 12.2709 166.557 7.82404 163.328C3.37723 160.099 -0.388282 155.748 0.0439457 151.046C0.476173 146.343 6.8497 141.959 12.5419 143.641C16.1829 144.718 18.2415 147.72 19.2964 150.626C20.3513 153.533 20.7469 156.626 22.5784 159.288C25.9336 164.178 33.5086 166.772 36.4756 171.809C38.1313 174.619 38.1532 177.893 39.9554 180.652C42.0946 183.921 46.3729 185.96 49.7574 188.527C56.2042 193.416 59.5009 200.673 58.4313 207.607L65.9403 197.37L65.933 197.353Z" fill="#5C4CA0"/>
<path d="M102.145 123.394C97.9545 126.946 96.0497 131.563 94.8996 136.197C93.6981 141.024 93.2073 145.964 91.4711 150.706C90.6359 153 89.4857 155.232 87.8228 157.249C85.7129 159.81 82.8119 161.872 80.2771 164.172C75.6618 168.358 72.2333 173.293 70.16 178.544C68.0722 183.813 67.3469 189.427 68.1454 194.911C68.2407 195.574 68.3579 196.237 68.4971 196.894C68.6143 197.432 69.6765 197.206 69.5593 196.667C68.4238 191.274 68.8341 185.705 70.6142 180.42C72.3871 175.174 75.5079 170.183 79.8449 165.917C82.2258 163.577 85.0609 161.549 87.3979 159.186C89.3539 157.215 90.7897 155 91.83 152.654C93.8593 148.083 94.46 143.228 95.4783 138.486C96.4673 133.886 97.8446 129.144 101.493 125.326C101.932 124.867 102.409 124.425 102.914 124C103.39 123.598 102.614 122.992 102.138 123.399L102.145 123.394Z" fill="#F9F9FA"/>
<path d="M46.8637 125.348C45.1055 129.733 45.1055 134.345 45.9113 138.86C46.7465 143.528 48.3655 148.083 49.7428 152.672C50.4387 154.983 51.0761 157.311 51.523 159.662C51.9918 162.132 52.1896 164.619 52.1603 167.118C52.0944 172.234 51.2373 177.327 51.4131 182.442C51.5669 186.906 52.49 191.467 55.2152 195.455C55.5522 195.954 55.9258 196.435 56.3141 196.911C56.695 197.37 57.6547 196.945 57.2665 196.481C54.1237 192.702 52.9002 188.221 52.5852 183.785C52.2263 178.782 53.0101 173.797 53.2152 168.806C53.3178 166.302 53.2665 163.792 52.9002 161.3C52.5632 158.971 52.0065 156.671 51.3691 154.382C50.0798 149.805 48.4314 145.29 47.3912 140.673C46.3948 136.254 46.0066 131.671 47.3399 127.263C47.5084 126.697 47.7062 126.141 47.9333 125.586C48.1457 125.059 47.0762 124.838 46.871 125.36L46.8637 125.348Z" fill="#F9F9FA"/>
<path d="M10.0145 153.714C10.0511 157.668 13.3844 161.039 17.0546 163.543C21.0033 166.24 25.5966 168.392 28.82 171.684C31.7943 174.726 33.6698 178.29 35.6038 181.768C37.5671 185.292 39.6623 188.764 42.8564 191.739C45.9919 194.656 49.9699 197.053 54.3947 198.679C54.9588 198.888 55.5302 199.081 56.1017 199.262C56.38 199.353 56.7097 199.166 56.783 198.962C56.8709 198.718 56.6731 198.526 56.3947 198.435C51.9479 197.007 47.926 194.798 44.6733 192.05C43.0396 190.674 41.633 189.155 40.4242 187.541C39.2008 185.909 38.1679 184.193 37.1935 182.465C35.2448 179.032 33.4939 175.485 30.7834 172.352C29.3695 170.721 27.6992 169.259 25.8018 167.956C23.8238 166.597 21.6773 165.39 19.6187 164.098C15.8825 161.758 12.0877 158.847 11.2525 155.017C11.1573 154.581 11.1134 154.144 11.1134 153.703C11.1134 153.153 10.0071 153.153 10.0071 153.703L10.0145 153.714Z" fill="#F9F9FA"/>
<path d="M47.7941 187.733C51.0395 190.866 53.5083 194.486 55.0321 198.322C55.4643 199.409 55.8233 200.52 56.1017 201.636C56.1603 201.862 56.5119 201.993 56.783 201.936C57.0907 201.874 57.2225 201.636 57.1712 201.409C56.6658 199.392 55.9039 197.415 54.9149 195.506C53.9112 193.586 52.6951 191.733 51.2446 189.988C50.4241 188.997 49.5303 188.045 48.578 187.127C48.3948 186.946 47.9919 186.974 47.8014 187.127C47.5743 187.303 47.6109 187.552 47.8014 187.728L47.7941 187.733Z" fill="#F9F9FA"/>
<path d="M71.9768 206.015H41.8015C36.9371 206.015 32.9958 202.967 32.9958 199.205C32.9958 195.444 36.9371 192.396 41.8015 192.396H71.9768C76.8412 192.396 80.7826 195.444 80.7826 199.205C80.7826 202.967 76.8412 206.015 71.9768 206.015Z" fill="#FCB415"/>
<path d="M73.8669 205.041H39.9114L46.2044 228.381H67.5813L73.8669 205.041Z" fill="#FCB415"/>
<path d="M43.5451 206.089H71.4714C72.182 206.089 72.182 205.233 71.4714 205.233H43.5451C42.8345 205.233 42.8345 206.089 43.5451 206.089Z" fill="#D79128"/>
<path d="M31.3841 225.384H86.2477C84.2624 227.809 78.5995 229.452 72.2186 229.452H45.4425C39.3913 229.452 33.9482 227.973 31.7211 225.724L31.3841 225.384Z" fill="#D79128"/>
<path d="M34.6588 300.749L33.8163 300.63C32.4683 300.437 31.5819 299.434 31.8383 298.398L38.4902 236.369L44.2044 237.196L37.5525 299.225C37.3034 300.267 36.0068 300.953 34.6661 300.754L34.6588 300.749Z" fill="#D79128"/>
<path d="M82.5115 300.749L83.354 300.63C84.7019 300.437 85.5884 299.434 85.332 298.398L78.68 236.369L72.9659 237.196L79.6178 299.225C79.8668 300.267 81.1635 300.953 82.5042 300.754L82.5115 300.749Z" fill="#D79128"/>
<path d="M80.2918 248.334H37.6844V251.331H80.2918V248.334Z" fill="#D79128"/>
<path d="M85.1781 237.406H31.9848C29.157 237.406 26.8714 235.633 26.8714 233.452C26.8714 231.271 29.1644 229.497 31.9848 229.497H85.1781C88.0059 229.497 90.2916 231.271 90.2916 233.452C90.2916 235.633 87.9986 237.406 85.1781 237.406Z" fill="#5C4CA0"/>
<path d="M424.33 158.325H433.971L455.121 339L451.238 338.552L424.33 158.325Z" fill="#D79128"/>
<path d="M422.462 158.325H412.821L391.679 339L395.561 338.552L422.462 158.325Z" fill="#D79128"/>
<path d="M458 126.895C458 129.263 442.506 131.178 423.4 131.178C404.294 131.178 388.8 129.257 388.8 126.895C388.8 124.532 404.294 122.612 423.4 122.612C442.506 122.612 458 124.532 458 126.895Z" fill="#E18926"/>
<path d="M424.477 339H422.748L419.876 117.383H426.924L424.477 339Z" fill="#D79128"/>
<path d="M423.612 122.612C440.857 122.612 455.158 124.176 457.78 126.221V94.8015L445.517 93.6118C430.792 92.1841 415.891 92.1841 401.158 93.6174L389.005 94.8015V126.9C389.005 124.532 404.499 122.618 423.605 122.618L423.612 122.612Z" fill="#FCB415"/>
<path d="M304.23 325.154L299.343 324.678L308.237 253.45L313.123 253.931L304.23 325.154Z" fill="#D79128"/>
<path d="M363.738 325.154L368.617 324.678L359.723 253.45L354.844 253.931L363.738 325.154Z" fill="#D79128"/>
<path d="M361.049 274.864H306.911V276.966H361.049V274.864Z" fill="#D79128"/>
<path d="M365.804 257.738H302.156C299.651 257.738 297.614 256.169 297.614 254.226C297.614 252.283 299.644 250.714 302.156 250.714H365.804C368.309 250.714 370.346 252.283 370.346 254.226C370.346 256.169 368.316 257.738 365.804 257.738Z" fill="#5C4CA0"/>
<path d="M352.595 72.6563V124.855C352.595 125.116 353.123 125.116 353.123 124.855V72.6563C353.123 72.3957 352.595 72.3957 352.595 72.6563Z" fill="#5C4CA0"/>
<path d="M352.859 125.762C354.214 125.762 355.313 124.912 355.313 123.864C355.313 122.816 354.214 121.966 352.859 121.966C351.503 121.966 350.405 122.816 350.405 123.864C350.405 124.912 351.503 125.762 352.859 125.762Z" fill="#5C4CA0"/>
<path d="M176.495 65.824V217.714H365.489V65.824H176.495ZM362.661 144.916H264.589V68.26H362.661V144.916ZM261.754 68.26V144.916H179.323V68.26H261.754ZM179.323 147.352H261.754V215.272H179.323V147.352ZM264.582 215.272V147.352H362.654V215.272H264.582Z" fill="#FCB415"/>
<path d="M393.188 215.238H148.796V221.878H393.188V215.238Z" fill="#5C4CA0"/>
<path d="M195.477 193.404C193.543 188.334 188.7 184.283 184.012 180.437C191.169 181.083 197.733 184.805 200.685 189.886C200.715 184.997 203.499 180.153 208.173 176.856C206.407 180.799 205.557 184.992 205.696 189.161C209.455 184.754 215.498 181.547 222.172 180.431C215.498 185.071 210.268 190.94 207.022 197.41C203.044 198.055 198.957 198.276 194.905 198.056L195.477 193.404Z" fill="#3A2F81"/>
<path d="M206.81 188.379C206.363 188.283 206.129 187.813 206.385 187.513C206.649 187.207 207.293 187.224 207.586 187.501C207.726 187.632 208.033 187.49 207.953 187.337C207.828 187.088 207.748 186.821 207.762 186.555C207.777 186.346 207.894 186.102 208.107 186C208.209 185.949 208.282 185.932 208.414 185.915C208.385 185.915 208.466 185.915 208.473 185.915C208.502 185.915 208.531 185.915 208.568 185.915C208.634 185.915 208.627 185.915 208.7 185.932C208.722 185.932 208.751 185.943 208.773 185.949C208.846 185.972 208.868 185.983 208.898 186C208.986 186.062 208.978 186.051 209.015 186.102C209.037 186.159 209.044 186.181 209.052 186.204C209.191 186.176 209.337 186.142 209.476 186.113C209.352 185.881 209.286 185.626 209.323 185.371C209.337 185.258 209.381 185.145 209.455 185.043C209.52 184.952 209.608 184.873 209.704 184.827C209.887 184.737 210.121 184.72 210.326 184.765C210.539 184.81 210.671 184.895 210.7 185.065C210.839 185.037 210.986 185.003 211.125 184.975C211.015 184.55 210.971 184.028 211.323 183.655C211.396 183.581 211.462 183.524 211.557 183.485C211.645 183.445 211.718 183.428 211.835 183.411C211.909 183.405 211.938 183.405 211.967 183.4C212.019 183.4 212.099 183.4 212.128 183.4C212.15 183.4 212.231 183.417 212.268 183.422C212.29 183.422 212.312 183.434 212.334 183.439C212.378 183.451 212.348 183.439 212.385 183.456C212.429 183.473 212.502 183.507 212.517 183.519C212.517 183.519 212.553 183.547 212.568 183.553C212.671 183.66 212.685 183.694 212.685 183.785C212.824 183.757 212.956 183.728 213.095 183.7C212.868 183.286 212.876 182.737 213.242 182.369C213.33 182.284 213.432 182.21 213.557 182.153C213.616 182.125 213.63 182.125 213.696 182.108C213.748 182.097 213.843 182.08 213.865 182.074C214.121 182.051 214.356 182.085 214.568 182.176C214.627 182.204 214.685 182.233 214.722 182.255C214.751 182.272 214.773 182.295 214.795 182.312C214.817 182.329 214.839 182.352 214.839 182.352C214.876 182.397 214.912 182.442 214.92 182.471C214.942 182.527 214.956 182.573 214.956 182.618L215.389 182.573C215.183 182.199 215.176 181.717 215.513 181.377C215.594 181.298 215.696 181.23 215.813 181.179C215.894 181.145 216.026 181.117 216.114 181.117C216.348 181.105 216.561 181.156 216.758 181.264C216.846 181.309 216.927 181.383 216.978 181.456C217.029 181.53 217.051 181.609 217.037 181.711H217.476C217.454 181.304 217.63 180.737 218.202 180.595C218.319 180.567 218.421 180.567 218.539 180.595C218.656 180.618 218.773 180.669 218.861 180.731C218.956 180.794 219.022 180.867 219.051 180.947C219.081 181.026 219.073 181.083 219.022 181.162L219.425 181.292C219.557 180.907 219.703 180.476 220.092 180.199C220.26 180.08 220.429 180.018 220.634 180.018C220.824 180.018 221.007 180.063 221.169 180.153C221.227 180.187 221.286 180.238 221.33 180.306C221.315 180.284 221.344 180.335 221.344 180.346C221.359 180.431 221.352 180.448 221.344 180.488L221.777 180.533C221.762 180.442 221.777 180.403 221.835 180.335C221.835 180.335 221.901 180.284 221.916 180.272C221.945 180.255 222.011 180.221 222.062 180.21C222.231 180.153 222.443 180.159 222.583 180.272C222.744 180.397 222.766 180.595 222.707 180.76C222.641 180.958 222.458 181.105 222.209 181.173C221.894 181.258 221.535 181.236 221.235 181.122C221.125 181.083 220.993 181.1 220.934 181.185C220.876 181.264 220.905 181.372 221.015 181.417C221.352 181.558 221.462 181.944 221.227 182.17C220.985 182.403 220.436 182.391 220.209 182.148C220.04 181.966 219.718 182.119 219.828 182.318C219.982 182.595 219.828 182.935 219.572 183.156C219.293 183.394 218.89 183.53 218.495 183.445C218.334 183.405 218.18 183.53 218.224 183.655C218.341 184.006 218.128 184.363 217.777 184.606C217.418 184.85 216.942 184.958 216.495 184.822C216.304 184.765 216.158 184.952 216.246 185.071C216.473 185.377 216.451 185.779 216.172 186.062C215.916 186.323 215.462 186.465 215.044 186.402C214.89 186.38 214.707 186.482 214.773 186.612C215.066 187.241 214.334 187.994 213.462 187.949C213.213 187.932 213.161 188.243 213.403 188.283C213.528 188.306 213.608 188.362 213.645 188.464C213.689 188.572 213.682 188.685 213.63 188.787C213.476 189.065 213.015 189.195 212.671 189.297C212.531 189.337 212.465 189.444 212.539 189.546C212.92 190.102 212.187 190.94 211.367 190.849C211.257 190.838 211.147 190.861 211.103 190.946C211.066 191.014 211.088 191.127 211.191 191.161C211.337 191.206 211.396 191.274 211.425 191.393C211.454 191.495 211.425 191.626 211.359 191.727C211.154 192.016 210.656 192.118 210.282 192.203C210.107 192.243 210.085 192.39 210.187 192.487C210.253 192.555 210.282 192.645 210.282 192.736C210.282 192.827 210.238 192.929 210.18 193.019C210.114 193.104 210.033 193.178 209.931 193.229C209.806 193.291 209.711 193.302 209.564 193.291C209.403 193.274 209.286 193.45 209.374 193.546C209.491 193.676 209.498 193.858 209.345 193.971C209.191 194.084 208.956 194.079 208.795 193.988C208.7 193.937 208.546 193.977 208.495 194.05C208.429 194.135 208.473 194.232 208.575 194.283C208.898 194.458 209.381 194.424 209.66 194.209C209.938 193.994 209.982 193.62 209.755 193.37C209.689 193.455 209.63 193.54 209.564 193.625C209.989 193.665 210.378 193.444 210.575 193.166C210.788 192.866 210.781 192.515 210.509 192.237L210.414 192.521C210.927 192.402 211.55 192.243 211.791 191.829C211.982 191.501 211.916 191.014 211.433 190.855L211.264 191.167C211.872 191.235 212.422 191.002 212.773 190.628C213.11 190.26 213.205 189.767 212.934 189.365L212.802 189.614C213.308 189.467 213.901 189.274 214.084 188.838C214.231 188.493 214.041 188.022 213.535 187.937C213.513 188.051 213.498 188.158 213.476 188.272C214.619 188.34 215.601 187.337 215.213 186.504C215.125 186.572 215.03 186.646 214.942 186.714C215.55 186.799 216.18 186.617 216.553 186.232C216.927 185.847 216.956 185.292 216.649 184.873C216.568 184.958 216.48 185.043 216.399 185.122C217.601 185.484 218.993 184.482 218.67 183.536C218.583 183.604 218.487 183.677 218.399 183.745C218.956 183.87 219.55 183.683 219.923 183.354C220.312 183.009 220.473 182.544 220.231 182.114C220.106 182.17 219.975 182.227 219.85 182.284C220.158 182.618 220.736 182.725 221.22 182.561C221.703 182.397 221.901 181.966 221.762 181.587C221.681 181.377 221.506 181.19 221.257 181.083C221.183 181.179 221.11 181.281 221.037 181.377C221.425 181.519 221.872 181.57 222.289 181.473C222.692 181.383 223.007 181.162 223.139 180.856C223.264 180.578 223.205 180.255 222.963 180.023C222.736 179.802 222.348 179.74 222.004 179.825C221.637 179.916 221.308 180.176 221.359 180.488C221.374 180.573 221.432 180.646 221.55 180.658C221.659 180.669 221.762 180.618 221.791 180.533C221.938 180.08 221.432 179.723 220.89 179.649C220.605 179.61 220.304 179.638 220.055 179.763C219.769 179.899 219.55 180.108 219.396 180.34C219.22 180.601 219.117 180.879 219.022 181.162C218.956 181.349 219.301 181.468 219.425 181.292C219.747 180.85 219.271 180.374 218.722 180.238C218.092 180.08 217.498 180.431 217.257 180.862C217.11 181.117 217.044 181.4 217.059 181.677C217.066 181.898 217.469 181.893 217.498 181.677C217.572 181.145 216.89 180.771 216.268 180.737C215.535 180.697 214.978 181.173 214.861 181.7C214.788 182.012 214.824 182.335 214.986 182.624C215.03 182.703 215.11 182.759 215.227 182.748C215.33 182.737 215.425 182.669 215.418 182.578C215.381 182.023 214.685 181.677 214.019 181.683C213.22 181.683 212.663 182.199 212.553 182.782C212.487 183.139 212.553 183.496 212.737 183.825C212.773 183.893 212.898 183.921 212.986 183.904C213.081 183.881 213.147 183.813 213.147 183.74C213.154 183.258 212.531 182.986 211.967 183.003C211.667 183.014 211.374 183.094 211.161 183.252C210.898 183.451 210.737 183.728 210.678 184.006C210.605 184.34 210.641 184.674 210.729 185.009C210.751 185.099 210.89 185.15 211 185.128C211.125 185.099 211.176 185.009 211.154 184.918C211.066 184.504 210.48 184.306 209.989 184.351C209.718 184.374 209.462 184.459 209.279 184.618C209.052 184.81 208.942 185.054 208.912 185.309C208.876 185.586 208.949 185.881 209.088 186.142C209.198 186.346 209.557 186.266 209.513 186.051C209.44 185.632 208.839 185.467 208.356 185.524C208.114 185.552 207.872 185.637 207.711 185.785C207.484 185.983 207.381 186.244 207.359 186.499C207.337 186.793 207.433 187.093 207.564 187.371C207.689 187.314 207.814 187.258 207.931 187.207C207.572 186.861 206.876 186.804 206.392 187.025C205.858 187.263 205.748 187.779 206.011 188.187C206.151 188.413 206.414 188.589 206.729 188.651C207.008 188.708 207.125 188.379 206.847 188.323L206.81 188.379Z" fill="#5C4CA0"/>
<path d="M200.898 189.189C200.385 189.161 199.762 188.946 199.777 188.481C199.777 188.311 199.902 188.175 200.085 188.136C200.18 188.113 200.261 188.113 200.348 188.13C200.436 188.147 200.488 188.175 200.539 188.238L200.883 188.028C200.605 187.807 200.231 187.535 200.209 187.201C200.209 187.076 200.261 186.952 200.363 186.861C200.407 186.816 200.48 186.776 200.532 186.753C200.612 186.725 200.663 186.725 200.737 186.742C200.971 186.787 201.132 186.521 200.905 186.431C200.458 186.249 199.953 185.83 200.158 185.405C200.224 185.269 200.4 185.145 200.568 185.094C200.678 185.06 200.759 185.048 200.876 185.054C200.935 185.054 201.037 185.088 201.096 185.133C201.279 185.263 201.565 185.099 201.44 184.924C201.294 184.714 201.154 184.499 201.074 184.272C201.008 184.085 200.978 183.859 201.096 183.689C201.184 183.558 201.33 183.451 201.499 183.4C201.652 183.354 201.814 183.349 201.931 183.422C202.114 183.541 202.407 183.394 202.275 183.213C202.011 182.839 201.66 182.278 201.989 181.876C202.092 181.745 202.275 181.643 202.451 181.604C202.634 181.558 202.803 181.57 202.935 181.672C203.015 181.728 203.14 181.74 203.228 181.683C203.308 181.638 203.352 181.53 203.286 181.462C203.015 181.19 202.737 180.765 202.964 180.431C203.044 180.312 203.184 180.216 203.337 180.17C203.506 180.119 203.652 180.119 203.806 180.199L204.026 179.904C203.682 179.74 203.594 179.315 203.858 179.083C204.151 178.828 204.707 178.867 204.971 179.128C205.074 179.049 205.176 178.969 205.286 178.884C205.074 178.703 204.912 178.477 204.876 178.233C204.854 178.12 204.869 178.001 204.92 177.893C204.942 177.842 204.978 177.791 205.015 177.746C205 177.763 205.052 177.717 205.052 177.712C205.176 177.627 205.264 177.598 205.374 177.581C205.44 177.57 205.425 177.57 205.499 177.57C205.528 177.57 205.557 177.57 205.594 177.57C205.601 177.57 205.689 177.576 205.645 177.57C205.77 177.587 205.821 177.598 205.916 177.655C206.019 177.751 206.019 177.751 206.033 177.814C206.092 177.995 206.488 177.961 206.466 177.768C206.436 177.491 206.451 177.196 206.634 176.947C206.781 176.749 207.044 176.607 207.337 176.607C207.403 176.607 207.462 176.613 207.52 176.63C207.579 176.647 207.638 176.675 207.66 176.692C207.696 176.72 207.718 176.737 207.748 176.788C207.733 176.766 207.762 176.822 207.762 176.834C207.762 176.839 207.777 176.902 207.777 176.879C207.792 176.97 207.777 177.043 207.733 177.1C207.733 177.106 207.682 177.157 207.704 177.134C207.689 177.151 207.667 177.168 207.645 177.179C207.674 177.162 207.608 177.196 207.601 177.196C207.63 177.185 207.557 177.202 207.55 177.208L207.718 177.519C207.909 177.417 208.216 177.247 208.436 177.344C208.568 177.4 208.619 177.542 208.619 177.672C208.619 177.825 208.495 177.961 208.334 178.074C208.129 178.21 207.872 178.301 207.63 178.392C207.469 178.448 207.506 178.618 207.63 178.686C207.901 178.833 207.894 179.168 207.748 179.377C207.535 179.689 207.088 179.865 206.7 180.029L206.971 180.295C207.022 180.261 207.088 180.25 207.14 180.255C207.235 180.267 207.315 180.301 207.381 180.352C207.55 180.476 207.542 180.669 207.433 180.839C207.293 181.054 207.059 181.213 206.825 181.366C206.568 181.53 206.319 181.689 206.129 181.904C206.011 182.034 206.202 182.187 206.378 182.153C206.436 182.142 206.51 182.148 206.568 182.17C206.641 182.199 206.7 182.244 206.744 182.301C206.847 182.42 206.89 182.573 206.847 182.703C206.722 183.071 206.195 183.281 205.799 183.445C205.601 183.53 205.696 183.762 205.909 183.762C206.063 183.762 206.202 183.836 206.29 183.949C206.392 184.074 206.436 184.227 206.407 184.374C206.334 184.754 205.858 185.043 205.499 185.28C205.374 185.36 205.44 185.541 205.594 185.564C205.858 185.603 206.129 185.643 206.392 185.683C206.348 185.598 206.304 185.513 206.26 185.433C205.989 185.841 205.645 186.204 205.22 186.515C205.081 186.617 205.184 186.81 205.374 186.804C205.623 186.799 205.865 186.793 206.114 186.782C206.041 186.708 205.975 186.64 205.901 186.566C205.85 186.833 205.726 187.082 205.499 187.286C205.396 187.382 205.425 187.535 205.594 187.569C205.652 187.581 205.689 187.615 205.711 187.66C205.74 187.728 205.74 187.79 205.711 187.858C205.63 188.022 205.367 188.136 205.176 188.226C204.934 188.34 205.154 188.634 205.396 188.521C205.711 188.374 206.085 188.187 206.158 187.886C206.224 187.62 206.077 187.314 205.711 187.235L205.806 187.518C206.077 187.269 206.268 186.969 206.326 186.646C206.348 186.544 206.275 186.425 206.114 186.431C205.865 186.436 205.623 186.442 205.374 186.453L205.528 186.742C205.982 186.408 206.356 186.017 206.641 185.586C206.7 185.496 206.656 185.36 206.51 185.337C206.246 185.297 205.975 185.258 205.711 185.218L205.806 185.501C206.282 185.196 206.825 184.822 206.854 184.306C206.876 183.881 206.502 183.417 205.909 183.411L206.019 183.728C206.568 183.502 207.235 183.184 207.301 182.657C207.359 182.21 206.883 181.706 206.26 181.813C206.341 181.898 206.429 181.983 206.51 182.063C206.729 181.819 207.059 181.655 207.345 181.456C207.63 181.258 207.887 180.998 207.938 180.697C207.989 180.42 207.843 180.165 207.542 180.012C207.264 179.87 206.898 179.865 206.656 180.046C206.466 180.182 206.707 180.403 206.927 180.312C207.418 180.108 207.96 179.865 208.187 179.445C208.385 179.077 208.304 178.613 207.857 178.38V178.675C208.436 178.465 209.125 178.148 209.066 177.581C209.044 177.361 208.905 177.128 208.634 177.021C208.238 176.868 207.836 177.032 207.506 177.208C207.301 177.321 207.425 177.559 207.674 177.519C208.282 177.423 208.392 176.76 208.004 176.448C207.77 176.256 207.389 176.216 207.074 176.278C206.729 176.346 206.429 176.528 206.26 176.771C206.048 177.072 206.011 177.423 206.041 177.751L206.473 177.706C206.341 177.293 205.733 177.145 205.249 177.242C204.619 177.366 204.363 177.859 204.458 178.329C204.524 178.624 204.722 178.896 204.978 179.117C205.059 179.185 205.213 179.179 205.293 179.117C205.389 179.043 205.367 178.947 205.293 178.873C204.964 178.55 204.348 178.482 203.88 178.647C203.389 178.822 203.191 179.258 203.315 179.649C203.389 179.87 203.565 180.068 203.814 180.187C204.055 180.306 204.268 180.012 204.033 179.893C203.55 179.644 202.898 179.859 202.619 180.216C202.261 180.669 202.532 181.247 202.913 181.632C203.03 181.564 203.147 181.496 203.257 181.422C202.773 181.06 202.019 181.27 201.66 181.649C201.162 182.17 201.543 182.884 201.902 183.383L202.246 183.173C201.755 182.856 201.066 183.071 200.751 183.451C200.326 183.966 200.729 184.612 201.059 185.088C201.176 185.02 201.294 184.952 201.403 184.878C200.993 184.589 200.385 184.686 200.011 184.963C199.572 185.286 199.594 185.79 199.902 186.17C200.092 186.402 200.363 186.589 200.678 186.714C200.737 186.612 200.788 186.504 200.847 186.402C200.275 186.289 199.814 186.697 199.762 187.099C199.696 187.564 200.173 187.954 200.561 188.26C200.737 188.396 201.037 188.221 200.905 188.051C200.62 187.683 199.887 187.677 199.543 188C199.337 188.187 199.294 188.436 199.352 188.674C199.411 188.912 199.601 189.116 199.85 189.257C200.151 189.427 200.524 189.501 200.891 189.524C201.008 189.529 201.11 189.439 201.11 189.354C201.11 189.257 201.008 189.189 200.891 189.184L200.898 189.189Z" fill="#5C4CA0"/>
<path d="M195.74 193.574C195.411 193.739 194.913 193.699 194.664 193.444C194.422 193.189 194.495 192.815 194.788 192.611C194.913 192.526 194.847 192.351 194.693 192.328C194.246 192.254 193.799 191.977 193.762 191.603C193.726 191.274 194.121 190.883 194.583 190.951C194.568 190.849 194.546 190.742 194.532 190.64C194.129 190.81 193.587 190.736 193.279 190.475C192.964 190.215 192.942 189.75 193.228 189.473C193.323 189.376 193.308 189.218 193.132 189.189C192.634 189.099 191.99 188.997 191.682 188.651C191.557 188.515 191.506 188.357 191.513 188.192C191.521 188.051 191.601 187.915 191.77 187.841C191.997 187.739 191.836 187.496 191.601 187.53C191.22 187.581 190.81 187.411 190.649 187.15C190.48 186.878 190.59 186.538 190.869 186.34C190.949 186.283 190.949 186.181 190.883 186.113C190.81 186.04 190.7 186.034 190.598 186.068C190.165 186.221 189.616 186.108 189.316 185.836C189.008 185.552 189.001 185.088 189.294 184.793C189.352 184.731 189.382 184.657 189.33 184.584C189.279 184.521 189.176 184.482 189.081 184.504C188.642 184.606 188.144 184.504 187.829 184.244C187.521 183.989 187.426 183.57 187.601 183.247C187.638 183.184 187.645 183.116 187.587 183.06C187.535 183.009 187.44 182.975 187.352 182.997C187.147 183.048 186.935 183.082 186.722 183.071C186.561 183.06 186.356 182.997 186.283 182.907C186.246 182.861 186.224 182.822 186.217 182.771C186.209 182.731 186.217 182.657 186.217 182.629C186.246 182.555 186.261 182.544 186.268 182.533C186.29 182.51 186.305 182.499 186.319 182.493C186.378 182.471 186.4 182.471 186.422 182.465L186.253 182.153C185.645 182.374 185.008 181.944 184.627 181.621C184.51 181.524 184.407 181.422 184.305 181.32C184.195 181.207 184.078 181.088 184.004 180.958C183.953 180.862 183.924 180.754 183.982 180.652C184.026 180.573 184.129 180.499 184.224 180.522C184.327 180.539 184.481 180.499 184.495 180.403C184.532 180.204 184.832 180.108 185.081 180.153C185.44 180.216 185.689 180.488 185.894 180.703C185.968 180.782 186.144 180.833 186.239 180.737C186.62 180.369 187.47 180.42 187.755 180.845C187.836 180.958 188.056 180.952 188.136 180.845C188.356 180.556 188.832 180.408 189.242 180.505C189.675 180.607 189.938 180.958 189.909 181.292C189.894 181.428 190.107 181.502 190.239 181.439C190.466 181.337 190.744 181.36 190.971 181.456C191.206 181.553 191.389 181.728 191.404 181.921C191.404 181.989 191.469 182.074 191.565 182.085C191.997 182.142 192.297 182.454 192.253 182.788C192.231 182.958 192.568 183.014 192.664 182.873C192.803 182.674 193.162 182.589 193.411 182.697C193.675 182.816 193.733 183.099 193.587 183.286C193.491 183.405 193.653 183.592 193.836 183.536C194.158 183.434 194.605 183.36 194.913 183.536C195.023 183.604 195.096 183.7 195.125 183.802C195.154 183.892 195.14 183.989 195.059 184.062C194.979 184.13 194.971 184.238 195.059 184.306C195.14 184.368 195.294 184.374 195.374 184.306C195.433 184.255 195.477 184.249 195.543 184.261C195.638 184.272 195.726 184.317 195.784 184.374C195.953 184.555 195.843 184.844 195.777 185.037C195.916 185.065 196.063 185.099 196.202 185.127C196.297 184.771 196.913 184.527 197.286 184.759C197.609 184.958 197.543 185.428 197.154 185.558C196.957 185.626 197.052 185.892 197.264 185.875C197.425 185.864 197.513 185.875 197.645 185.955C197.74 186.006 197.828 186.102 197.887 186.204C197.997 186.396 197.982 186.617 197.777 186.759C197.894 186.827 198.011 186.895 198.121 186.969C198.297 186.759 198.773 186.736 198.979 186.935C199.184 187.127 199.052 187.49 198.751 187.575C198.81 187.677 198.861 187.784 198.92 187.886C199.008 187.858 199.14 187.96 199.176 188.039C199.257 188.204 199.125 188.413 199.044 188.561C198.993 188.646 199.015 188.742 199.125 188.793C199.22 188.838 199.381 188.816 199.425 188.731C199.587 188.453 199.748 188.136 199.55 187.841C199.381 187.598 199.03 187.484 198.7 187.592C198.473 187.666 198.634 187.971 198.869 187.903C199.462 187.733 199.726 187.122 199.323 186.725C198.927 186.334 198.077 186.391 197.733 186.793C197.587 186.963 197.902 187.122 198.077 187.003C198.773 186.527 198.187 185.456 197.25 185.53L197.359 185.847C197.88 185.671 198.026 185.144 197.814 184.771C197.565 184.323 196.869 184.221 196.349 184.436C196.055 184.555 195.821 184.771 195.755 185.026C195.697 185.241 196.114 185.331 196.18 185.116C196.29 184.782 196.385 184.374 196.048 184.096C195.792 183.887 195.308 183.813 195.037 184.051C195.14 184.13 195.242 184.21 195.352 184.295C195.675 184.006 195.587 183.57 195.242 183.315C194.832 183.009 194.187 183.043 193.697 183.196C193.777 183.281 193.865 183.366 193.946 183.445C194.224 183.099 194.07 182.595 193.609 182.391C193.147 182.187 192.51 182.329 192.261 182.686L192.671 182.771C192.737 182.295 192.268 181.813 191.66 181.74C191.711 181.796 191.77 181.847 191.821 181.904C191.77 181.247 190.744 180.799 189.99 181.128C190.1 181.179 190.209 181.224 190.319 181.275C190.371 180.788 189.938 180.301 189.33 180.159C188.73 180.017 188.041 180.238 187.726 180.652H188.107C187.697 180.046 186.451 179.938 185.894 180.476C186.012 180.488 186.129 180.499 186.239 180.51C185.953 180.204 185.601 179.848 185.081 179.791C184.649 179.74 184.107 179.916 184.034 180.289C184.122 180.25 184.217 180.21 184.305 180.17C183.938 180.102 183.631 180.301 183.514 180.556C183.382 180.839 183.579 181.134 183.785 181.36C184.188 181.802 184.693 182.25 185.36 182.454C185.719 182.567 186.1 182.555 186.451 182.431C186.546 182.397 186.583 182.289 186.539 182.216C186.495 182.136 186.393 182.102 186.275 182.119C185.748 182.193 185.631 182.708 185.851 183.031C186.151 183.468 186.927 183.451 187.44 183.315C187.36 183.23 187.272 183.145 187.191 183.065C186.935 183.53 187.023 184.074 187.462 184.459C187.88 184.822 188.576 184.963 189.169 184.827C189.096 184.731 189.023 184.635 188.957 184.544C188.517 184.98 188.502 185.615 188.957 186.051C189.396 186.464 190.18 186.572 190.795 186.357L190.524 186.091C190.092 186.397 189.975 186.912 190.231 187.32C190.495 187.728 191.118 187.937 191.682 187.858L191.513 187.547C190.964 187.796 190.927 188.379 191.22 188.77C191.572 189.246 192.341 189.399 192.979 189.518L192.883 189.235C192.451 189.665 192.444 190.288 192.913 190.708C193.352 191.099 194.143 191.184 194.722 190.94C194.883 190.872 194.861 190.657 194.671 190.628C193.96 190.526 193.286 191.008 193.286 191.563C193.286 192.107 193.887 192.555 194.546 192.668L194.451 192.385C193.99 192.702 193.916 193.291 194.29 193.665C194.664 194.045 195.418 194.141 195.931 193.88C196.165 193.761 195.946 193.467 195.711 193.586L195.74 193.574Z" fill="#5C4CA0"/>
<path d="M186.971 182C188.202 182.454 189.367 183.02 190.422 183.689C191.491 184.357 192.458 185.122 193.33 185.943C194.224 186.793 195.008 187.717 195.682 188.68C196.407 189.716 197.015 190.798 197.513 191.909C198.019 193.03 198.422 194.18 198.751 195.342C198.795 195.489 198.832 195.631 198.869 195.778C198.891 195.869 199.03 195.92 199.14 195.897C199.264 195.869 199.315 195.778 199.294 195.687C198.986 194.515 198.598 193.348 198.114 192.209C197.623 191.07 197.037 189.954 196.327 188.889C195.653 187.881 194.869 186.918 193.968 186.023C193.118 185.173 192.158 184.391 191.103 183.689C190.048 182.992 188.891 182.38 187.66 181.887C187.506 181.825 187.352 181.768 187.198 181.711C187.089 181.672 186.957 181.689 186.898 181.774C186.84 181.847 186.869 181.966 186.979 182.006L186.971 182Z" fill="white"/>
<path d="M205.506 180.233C204.7 182.221 203.902 184.215 203.264 186.238C202.634 188.238 202.165 190.277 202.041 192.339C201.967 193.495 202.004 194.651 202.18 195.795C202.195 195.886 202.275 195.965 202.4 195.965C202.51 195.965 202.634 195.886 202.619 195.795C202.312 193.761 202.436 191.705 202.825 189.682C203.22 187.643 203.872 185.637 204.619 183.655C205.037 182.539 205.484 181.428 205.938 180.318C206.026 180.108 205.594 180.018 205.513 180.227L205.506 180.233Z" fill="white"/>
<path d="M216.971 182.731C215.887 183.513 214.81 184.3 213.769 185.116C212.729 185.932 211.718 186.77 210.781 187.654C209.865 188.521 209.008 189.427 208.26 190.385C207.535 191.32 206.905 192.305 206.414 193.331C205.923 194.356 205.579 195.421 205.418 196.509C205.396 196.639 205.381 196.775 205.367 196.905C205.359 196.996 205.477 197.075 205.586 197.075C205.711 197.075 205.799 196.996 205.806 196.905C205.923 195.84 206.224 194.792 206.671 193.784C207.118 192.77 207.711 191.795 208.407 190.866C209.11 189.92 209.923 189.025 210.802 188.175C211.718 187.292 212.7 186.447 213.725 185.637C214.751 184.822 215.813 184.04 216.883 183.264C217.015 183.167 217.147 183.071 217.279 182.975C217.484 182.822 217.176 182.584 216.964 182.731H216.971Z" fill="white"/>
<path d="M215.916 193.829H189.667V198.752C192.524 198.752 194.839 200.542 194.839 202.752V208.598C194.839 211.998 198.4 214.751 202.795 214.751C207.191 214.751 210.751 211.998 210.751 208.598V202.752C210.751 200.542 213.066 198.752 215.923 198.752V193.829H215.916Z" fill="#FCB415"/>
<path d="M216.707 209.828H188.869C188.869 212.887 192.078 215.363 196.026 215.363H209.55C213.506 215.363 216.707 212.881 216.707 209.828Z" fill="#D79128"/>
<path d="M190.773 198.407H214.062C214.348 198.407 214.348 198.067 214.062 198.067H190.773C190.488 198.067 190.488 198.407 190.773 198.407Z" fill="#D79128"/>
<path d="M195.623 206.168C196.187 205.528 196.744 204.888 197.308 204.248C197.191 204.259 197.074 204.27 196.964 204.282C197.594 204.842 198.143 205.454 198.62 206.1C198.707 206.219 198.905 206.196 199.001 206.1C199.711 205.369 200.51 204.689 201.381 204.072C201.264 204.061 201.147 204.049 201.037 204.038C201.594 204.678 202.048 205.375 202.385 206.106C202.451 206.247 202.678 206.276 202.788 206.145C203.301 205.545 203.894 204.995 204.568 204.497C204.737 204.372 204.912 204.253 205.088 204.134C205.154 204.089 205.227 204.032 205.308 204.004C205.381 203.981 205.418 204.004 205.462 204.044C205.608 204.168 205.711 204.344 205.821 204.486C205.945 204.655 206.07 204.82 206.187 204.995C206.451 205.381 206.7 205.772 206.927 206.168C206.993 206.287 207.235 206.27 207.308 206.168C207.879 205.42 208.546 204.718 209.308 204.078C209.191 204.066 209.074 204.055 208.964 204.044C209.352 204.48 209.733 204.916 210.121 205.347C210.187 205.42 210.312 205.454 210.422 205.409C210.517 205.364 210.568 205.25 210.502 205.177L209.345 203.874C209.271 203.789 209.103 203.755 209 203.84C208.216 204.497 207.521 205.222 206.934 205.998H207.315C207.096 205.613 206.861 205.233 206.605 204.865C206.473 204.672 206.341 204.486 206.195 204.299C206.07 204.134 205.953 203.953 205.792 203.811C205.616 203.653 205.352 203.607 205.103 203.704C204.883 203.789 204.693 203.947 204.51 204.072C204.136 204.333 203.777 204.616 203.447 204.91C203.066 205.245 202.722 205.602 202.407 205.975C202.539 205.987 202.678 206.004 202.81 206.015C202.466 205.256 201.997 204.537 201.418 203.868C201.337 203.772 201.184 203.755 201.074 203.834C200.173 204.474 199.352 205.177 198.627 205.93H199.008C198.517 205.262 197.931 204.627 197.279 204.044C197.176 203.953 197.008 203.993 196.935 204.078C196.371 204.718 195.814 205.358 195.25 205.998C195.088 206.179 195.469 206.349 195.631 206.168H195.623Z" fill="#D79128"/>
<path d="M193.118 194.775H207.11C207.396 194.775 207.396 194.435 207.11 194.435H193.118C192.832 194.435 192.832 194.775 193.118 194.775Z" fill="#D79128"/>
<path d="M189.528 72.6563V97.7474C189.528 98.008 190.056 98.008 190.056 97.7474V72.6563C190.056 72.3957 189.528 72.3957 189.528 72.6563Z" fill="#443923"/>
<path d="M370.316 70.3901H169.045V78.6613H370.316V70.3901Z" fill="#D79128"/>
<path d="M370.316 79.7434H169.045V88.0146H370.316V79.7434Z" fill="#D79128"/>
<path d="M370.316 89.0967H169.045V97.3679H370.316V89.0967Z" fill="#D79128"/>
<path d="M196.62 331.567C203.601 330.876 210.583 330.185 217.572 329.488C219.828 329.267 222.297 328.956 223.791 327.63C224.275 327.205 224.634 326.622 224.436 326.078C224.172 325.347 223.088 325.018 222.128 324.848C216.524 323.863 210.678 324.65 205.022 325.437C201.184 325.97 197.345 326.508 193.506 327.041L196.62 331.562V331.567Z" fill="#5C4CA0"/>
<path d="M293.197 310.878C297.233 306.414 301.263 301.955 305.299 297.491C306.603 296.052 307.966 294.432 307.702 292.687C307.614 292.126 307.306 291.531 306.654 291.276C305.775 290.931 304.735 291.333 303.929 291.769C299.211 294.313 296.039 298.188 292.984 301.955C290.918 304.51 288.845 307.071 286.779 309.626L293.197 310.884V310.878Z" fill="#5C4CA0"/>
<path d="M223.051 288.75C218.707 296.902 214.934 305.235 211.755 313.699C210.788 316.266 209.784 318.974 207.301 320.832C202.4 324.508 192.151 325.279 186.854 328.616C191.382 329.007 210.612 327.199 212.194 327.012C214.099 326.786 216.048 327.103 217.975 327.024C219.901 326.944 222.026 326.304 222.707 324.905C223.176 323.936 222.832 322.86 222.758 321.823C222.524 318.413 225.271 315.365 227.791 312.555C235.718 303.723 242.677 294.018 244.619 283.373L223.051 288.744V288.75Z" fill="#F6A472"/>
<path d="M271.922 268.253C276.516 276.32 281.673 284.195 287.365 291.837C289.087 294.154 290.918 296.59 290.933 299.259C290.962 304.539 284.039 308.555 283.483 313.818C288.091 316.509 300.559 300.766 304.105 297.599C305.365 296.471 306.244 294.84 305.409 293.497C304.83 292.562 303.585 292.013 302.574 291.333C299.226 289.101 298.288 285.458 297.409 282.11C294.655 271.573 290.428 260.968 281.842 252.509L271.915 268.259L271.922 268.253Z" fill="#F6A472"/>
<path d="M333.233 147.975C330.31 147.975 327.936 146.14 327.936 143.879C327.936 141.619 330.31 139.783 333.233 139.783C336.156 139.783 338.529 141.619 338.529 143.879C338.529 146.14 336.156 147.975 333.233 147.975ZM333.233 140.1C330.537 140.1 328.346 141.794 328.346 143.879C328.346 145.964 330.537 147.658 333.233 147.658C335.929 147.658 338.119 145.964 338.119 143.879C338.119 141.794 335.929 140.1 333.233 140.1Z" fill="white"/>
<path d="M333.013 123.02C334.28 121.49 337.079 121.445 339.233 122.006C341.386 122.567 343.445 123.564 345.716 123.541C347.189 123.53 348.61 123.082 350.068 122.884C354.002 122.363 358.207 123.875 360.331 126.572C361.042 127.478 361.555 128.521 362.566 129.223C363.892 130.152 365.782 130.294 367.437 130.77C371.269 131.875 373.965 135.109 373.804 138.401C373.679 140.837 372.228 143.517 373.869 145.556C374.873 146.802 376.719 147.386 378.294 148.151C387.686 152.711 383.51 161.832 383.51 161.832C383.51 161.832 372.778 161.855 372.778 161.832C372.309 160.405 371.533 158.388 370.5 157.17C369.818 158.456 369.547 160.444 369.716 161.832C367.716 162.274 365.628 162.149 363.599 161.832C361.569 161.515 359.643 160.178 359.665 158.507C359.43 159.407 359.188 160.308 358.954 161.209C349.35 161.645 339.716 161.662 330.119 161.254C329.658 159.827 329.189 158.399 328.727 156.971C328.046 158.325 327.365 159.674 326.683 161.028C324.412 160.705 322.141 160.376 319.878 160.053C319.709 158.852 319.541 157.651 319.365 156.45C318.786 157.68 318.215 158.909 317.636 160.138C315.248 159.929 312.867 159.725 310.479 159.515C313.497 157.617 311.724 153.844 311.621 150.774C311.533 148.083 313.087 145.38 315.702 143.687C319.035 141.528 324.376 140.389 324.83 136.979C325.02 135.534 324.171 134.146 323.958 132.707C323.46 129.269 333.02 123.026 333.02 123.026L333.013 123.02Z" fill="#3F3622"/>
<path d="M314.537 205.618C327.467 209.811 340.91 213.063 354.624 215.317C353.855 221.742 352.368 228.109 350.192 234.335C348.537 239.071 346.339 243.898 341.87 247.382C334.713 252.957 323.607 253.79 313.468 254.3C297.724 255.087 281.973 255.874 266.23 256.662C256.128 270.887 247.293 285.651 239.828 300.817C225.689 299.768 211.63 298.018 197.777 295.588C204.26 280.58 212.209 265.981 220.15 251.393C222.575 246.94 225 242.482 227.974 238.233C229.63 235.865 231.498 233.525 234.172 231.797C237.41 229.701 241.557 228.676 245.637 227.832C254.765 225.94 264.12 224.705 273.541 224.144C278.985 223.821 284.662 223.685 289.483 221.708C291.995 220.682 294.134 219.204 296.259 217.736C302.2 213.635 308.142 209.533 314.076 205.432L314.537 205.618Z" fill="#37A3A5"/>
<path d="M335.951 167.378C340.874 167.639 337.145 167.611 341.658 167.565C347.965 167.503 354.324 167.429 360.47 166.364C363.804 165.786 367.276 165.214 370.507 166.081C380.243 168.693 381.298 177.536 382.448 181.032C385.701 190.912 385.342 204.82 379.855 212.626C375.269 213.125 368.316 210.785 363.73 211.284C361.613 205.545 364.258 201.625 363.093 195.733C361.65 202.582 357.181 208.644 354.61 215.289C354.47 215.657 341.592 214.258 330.852 211.612C321.482 209.307 314.046 205.754 314.046 205.443C314.054 201.721 314.552 196.707 314.559 192.985C310.164 198.418 305.204 203.579 299.739 208.394C295.497 206.349 289.05 200.763 284.809 198.718C290.809 192.056 304.882 173.027 317.284 168.506C325.922 165.356 335.936 167.384 335.936 167.384L335.951 167.378Z" fill="#235879"/>
<path d="M376.902 207.063C367.078 202.627 356.683 198.939 345.921 196.084C346.705 194.011 347.335 191.897 347.804 189.762C348.09 188.459 348.317 187.099 347.855 185.824C346.815 182.952 342.903 181.575 339.057 180.737C338.529 180.624 338.163 181.139 338.566 181.422C339.789 182.295 341.115 183.088 342.515 183.791C340.463 182.691 338.273 181.745 335.98 180.981C335.365 180.777 334.735 181.269 335.02 181.734C335.921 183.213 337.584 184.414 339.577 184.969L334.024 182.737C333.65 182.584 333.211 182.827 333.269 183.15C333.584 184.873 335.453 186.413 337.709 186.651C336.485 185.892 335.086 185.303 333.599 184.912C333.467 184.878 333.335 184.85 333.196 184.839C331.687 184.708 331.643 185.292 332.383 185.994C333.013 186.595 333.914 187.728 334.654 188.249C336.42 189.49 336.412 191.642 335.833 193.438C335.262 195.229 334.258 197.007 334.507 198.843C334.647 199.846 335.174 200.82 336.002 201.602C337.013 202.554 338.412 203.199 339.782 203.823L367.745 216.518C369.54 217.334 371.738 217.419 373.635 216.745L376.353 215.776C378.075 215.164 379.349 213.992 379.84 212.575C380.58 210.434 379.379 208.168 376.902 207.052V207.063Z" fill="#F6A472"/>
<path d="M329.445 131.495C329.291 136.979 329.65 142.882 329.65 142.882L321.863 143.488L329.035 148.916C329.035 148.916 328.72 153.561 329.365 155.221C330.083 157.073 332.456 158.314 334.903 158.716C337.35 159.119 339.885 158.835 342.361 158.558C342.39 161.203 342.419 163.843 342.449 166.489C342.397 166.455 338.837 167.9 332.727 166.852C336.434 173.304 334.815 178.137 343.929 177.746C353.042 177.355 359.372 173.678 361.408 165.934L357.166 166.064C357.166 166.064 355.357 153.459 355.379 150.009C357.95 151.567 361.54 151.816 364.185 150.337C366.837 148.859 367.686 145.652 365.701 143.647C363.708 141.641 357.335 143.738 357.335 143.738L356.456 130.759L329.445 131.495Z" fill="#F6A472"/>
<path d="M332.573 123.195C330.075 124.34 327.504 125.535 325.607 127.263C324.661 128.124 323.944 129.093 323.475 130.164C323.013 131.223 322.771 132.333 322.493 133.427C322.222 134.498 321.929 135.591 321.328 136.582C320.691 137.642 319.695 138.458 318.486 139.149C317.255 139.851 315.936 140.452 314.815 141.262C313.79 142.01 312.918 142.888 312.229 143.839C310.859 145.749 310.215 147.981 310.501 150.156C310.537 150.434 310.588 150.706 310.647 150.978C310.713 151.278 311.299 151.148 311.233 150.853C310.742 148.734 311.196 146.502 312.42 144.576C313.028 143.613 313.819 142.723 314.779 141.947C315.804 141.12 317.035 140.508 318.244 139.857C319.46 139.2 320.603 138.475 321.379 137.489C322.112 136.565 322.522 135.517 322.823 134.469C323.13 133.399 323.343 132.305 323.694 131.24C324.046 130.175 324.559 129.167 325.372 128.26C327.02 126.425 329.526 125.161 331.958 124.028C332.266 123.887 332.566 123.745 332.874 123.603C333.211 123.45 332.903 123.043 332.566 123.195H332.573Z" fill="#3F3622"/>
<path d="M369.254 133.908C370.265 134.016 370.961 134.617 371.459 135.268C372.067 136.061 372.492 136.962 372.844 137.84C373.203 138.752 373.459 139.681 373.613 140.627C373.752 141.483 373.847 142.344 374.097 143.182C374.338 143.992 374.741 144.769 375.423 145.414C376.141 146.089 377.122 146.547 378.053 147.018C379.899 147.947 381.371 149.153 382.573 150.581C383.913 152.179 384.91 153.929 385.877 155.674C386.03 155.952 386.558 155.714 386.404 155.436C384.683 152.354 382.8 149.085 379.188 147.052C378.258 146.525 377.217 146.111 376.368 145.505C375.54 144.91 375.042 144.145 374.756 143.307C374.47 142.474 374.375 141.613 374.243 140.758C374.089 139.8 373.862 138.854 373.511 137.931C373.137 136.945 372.668 135.925 371.987 135.036C371.415 134.294 370.58 133.585 369.415 133.461C369.254 133.444 369.093 133.489 369.042 133.625C368.998 133.733 369.093 133.897 369.254 133.914V133.908Z" fill="#3F3622"/>
<path opacity="0.46" d="M342.361 158.558L350.544 155.566L342.639 162.744L342.361 158.558Z" fill="#BF6F41"/>
<path d="M358.815 148.173C359.899 147.159 361.137 146.253 362.514 145.482C362.646 145.409 362.712 145.278 362.624 145.159C362.551 145.057 362.339 145.001 362.207 145.074C360.785 145.868 359.503 146.797 358.383 147.839C358.133 148.071 358.566 148.406 358.815 148.173Z" fill="#944F2C"/>
<path d="M360.859 146.859C360.954 146.921 360.991 146.95 361.02 146.972C361.057 147.001 361.086 147.029 361.115 147.057C361.137 147.08 361.152 147.091 361.166 147.108C361.218 147.165 361.262 147.222 361.298 147.284C361.306 147.301 361.32 147.318 361.328 147.335C361.35 147.375 361.364 147.414 361.379 147.448C361.408 147.516 361.423 147.579 361.437 147.647C361.437 147.669 361.437 147.692 361.445 147.709C361.445 147.743 361.445 147.777 361.445 147.811C361.445 147.85 361.445 147.884 361.445 147.924C361.423 148.054 361.401 148.128 361.372 148.196C361.32 148.315 361.43 148.451 361.584 148.485C361.752 148.519 361.906 148.44 361.958 148.321C362.251 147.641 361.899 146.876 361.166 146.451C361.035 146.378 360.829 146.434 360.749 146.536C360.661 146.655 360.727 146.78 360.859 146.859Z" fill="#944F2C"/>
<path d="M330.156 151.997C331.797 152.06 333.416 151.363 334.222 150.258C334.412 149.992 333.892 149.76 333.694 150.02C332.984 150.989 331.584 151.578 330.156 151.521C329.768 151.504 329.768 151.975 330.156 151.992V151.997Z" fill="#944F2C"/>
<path d="M336.625 145.097C336.625 145.839 336.075 146.44 335.394 146.44C334.713 146.44 334.163 145.839 334.163 145.097C334.163 144.355 334.713 143.755 335.394 143.755C336.075 143.755 336.625 144.355 336.625 145.097Z" fill="#010101"/>
<path d="M334.163 139.12C334.442 139.494 334.317 140.072 334.808 140.287C335.079 140.406 335.416 140.344 335.716 140.276C337.328 139.919 339.13 139.528 340.625 140.129C339.233 138.645 336.383 138.118 334.28 138.956L334.163 139.12Z" fill="#3F3622"/>
<path d="M336.969 149.108C333.995 149.108 331.57 147.239 331.57 144.933C331.57 142.627 333.987 140.758 336.969 140.758C339.951 140.758 342.368 142.627 342.368 144.933C342.368 147.239 339.951 149.108 336.969 149.108ZM336.969 141.233C334.332 141.233 332.185 142.893 332.185 144.933C332.185 146.972 334.332 148.632 336.969 148.632C339.606 148.632 341.753 146.972 341.753 144.933C341.753 142.893 339.606 141.233 336.969 141.233Z" fill="white"/>
<path d="M328.925 142.746C329.804 142.214 331.335 142.672 331.584 143.505C331.672 143.8 332.258 143.675 332.171 143.381C331.995 142.791 331.379 142.361 330.661 142.163C329.929 141.964 329.116 142.038 328.5 142.412C328.368 142.491 328.39 142.661 328.5 142.746C328.625 142.842 328.801 142.825 328.932 142.746H328.925Z" fill="white"/>
<path d="M341.943 144.627C346.024 144.638 350.104 144.48 354.163 144.145C355.32 144.049 356.478 143.941 357.628 143.817C357.789 143.8 357.877 143.641 357.84 143.528C357.796 143.392 357.628 143.347 357.467 143.364C353.452 143.789 349.408 144.043 345.357 144.128C344.222 144.151 343.086 144.162 341.943 144.157C341.555 144.157 341.548 144.627 341.943 144.627Z" fill="white"/>
<path d="M361.914 142.701C361.013 138.038 359.225 133.71 358.331 129.053C358.251 128.645 358.155 128.209 357.767 127.92C357.276 127.558 356.507 127.546 355.818 127.552C346.236 127.688 336.661 128.119 327.13 128.849C327.335 129.246 327.548 129.642 327.753 130.039L328.361 129.977C329.628 131.909 331.006 133.942 333.453 135.098C336.134 136.367 339.54 136.327 342.61 136.962C345.994 137.659 348.866 139.336 351.093 141.341C353.775 143.755 354.112 144.582 354.126 145.386C354.141 146.44 352.588 147.312 351.298 146.984C353.057 147.975 355.731 146.978 356.661 145.454C357.035 144.842 357.203 144.191 357.262 143.522C359.613 143.296 361.928 142.706 361.928 142.706L361.914 142.701Z" fill="#3F3622"/>
<path d="M333.335 185.173C336.039 185.864 338.441 187.167 340.229 188.878C340.478 189.116 340.903 188.782 340.661 188.544C338.808 186.77 336.302 185.433 333.504 184.714C333.13 184.618 332.969 185.071 333.343 185.167L333.335 185.173Z" fill="#944F2C"/>
<path d="M335.599 183.502C338.354 184.436 340.72 185.983 342.346 187.943C342.559 188.198 343.086 187.96 342.874 187.705C341.196 185.683 338.756 184.062 335.907 183.094C335.555 182.975 335.24 183.377 335.599 183.502Z" fill="#944F2C"/>
<path d="M339.269 182.657C342.053 183.36 344.441 184.867 345.899 186.827C346.097 187.088 346.617 186.855 346.427 186.589C344.888 184.521 342.361 182.941 339.43 182.204C339.057 182.108 338.896 182.567 339.269 182.657Z" fill="#944F2C"/>
<path d="M339.474 189.716C341.907 188.748 344.346 187.773 346.778 186.804C347.13 186.668 346.822 186.261 346.471 186.397C344.038 187.365 341.599 188.34 339.167 189.308C338.815 189.444 339.123 189.852 339.474 189.716Z" fill="#944F2C"/>
<path d="M345.716 196.356L342.471 198.939C342.2 199.154 342.625 199.489 342.903 199.273C343.987 198.412 345.064 197.551 346.148 196.69C346.419 196.475 345.994 196.141 345.716 196.356Z" fill="#944F2C"/>
<path d="M252.216 218.003C251.879 215.538 246.904 197.914 244.333 188.912C243.557 186.192 246.216 183.615 249.813 183.586L299.966 183.207C302.676 183.184 305.021 184.652 305.57 186.702L313.951 218.008H252.223L252.216 218.003Z" fill="#5BCF99"/>
<path d="M312.303 214.275H339.101V218.003H311.262L312.303 214.275Z" fill="#3A2F81"/>
<path d="M280.45 199.925C280.45 201.664 278.626 203.075 276.377 203.075C274.127 203.075 272.303 201.664 272.303 199.925C272.303 198.186 274.127 196.775 276.377 196.775C278.626 196.775 280.45 198.186 280.45 199.925Z" fill="#FCB415"/>
<path d="M299.27 185.133C300.032 184.924 300.867 185.139 301.468 185.53C302.134 185.966 302.574 186.566 302.999 187.15C303.189 187.416 303.717 187.178 303.526 186.912C303.043 186.249 302.537 185.564 301.739 185.093C301.006 184.657 300.01 184.425 299.109 184.674C298.742 184.776 298.904 185.229 299.27 185.127V185.133Z" fill="#F9F9FA"/>
<path d="M313.006 214.756C312.229 214.756 311.68 215.317 311.643 215.878C311.614 216.371 311.958 216.898 312.522 217.142C313.138 217.402 313.885 217.283 314.391 216.926C314.896 216.569 315.05 215.98 314.669 215.521C314.259 215.034 313.431 214.79 312.742 215.051C312.596 215.108 312.552 215.272 312.632 215.374C312.72 215.493 312.903 215.516 313.05 215.459C313.211 215.397 313.394 215.397 313.592 215.442C313.775 215.482 313.936 215.567 314.076 215.691C314.339 215.918 314.347 216.252 314.09 216.49C313.944 216.632 313.753 216.728 313.555 216.779C313.343 216.83 313.16 216.836 312.955 216.779C312.794 216.734 312.603 216.62 312.5 216.507C312.361 216.36 312.295 216.229 312.259 216.042C312.259 216.082 312.259 216.003 312.259 216.003C312.259 215.98 312.259 215.952 312.259 215.923C312.259 215.895 312.259 215.873 312.259 215.85C312.259 215.85 312.273 215.776 312.259 215.81C312.266 215.759 312.288 215.708 312.303 215.663C312.325 215.618 312.332 215.601 312.376 215.544C312.515 215.357 312.742 215.221 312.999 215.221C313.387 215.221 313.394 214.751 312.999 214.751L313.006 214.756Z" fill="#F9F9FA"/>
<path d="M316.12 215.255H335.189C335.577 215.255 335.584 214.785 335.189 214.785H316.12C315.731 214.785 315.724 215.255 316.12 215.255Z" fill="#F9F9FA"/>
<path d="M248.677 184.799C246.604 185.009 244.919 186.447 244.926 188.079C244.926 188.379 245.535 188.385 245.535 188.079C245.535 186.731 246.934 185.445 248.677 185.269C248.839 185.252 248.985 185.173 248.985 185.031C248.985 184.918 248.846 184.782 248.677 184.793V184.799Z" fill="#F9F9FA"/>
<path d="M312.383 221.645C302.164 219.391 293.666 213.997 284.179 210.298C273.651 206.191 261.966 204.197 250.34 202.667C245.893 202.083 241.3 201.562 236.905 202.355C227.989 203.964 221.879 210.836 220.546 217.844C219.213 224.852 221.769 231.945 224.971 238.579C233.066 255.325 245.527 270.802 261.388 283.81C261.615 283.997 261.857 284.189 262.172 284.28C262.714 284.433 263.307 284.24 263.835 284.053C275.366 279.895 287.512 276.762 299.959 274.745C293.263 263.766 287.658 252.396 283.197 240.76C293.922 235.259 303.944 228.942 313.072 221.929L312.369 221.657L312.383 221.645Z" fill="#37A3A5"/>
<path d="M256.509 213.165C259.124 215.85 261.659 218.58 264.113 221.356C266.574 224.144 268.955 226.971 271.256 229.837C273.549 232.692 275.754 235.587 277.871 238.522C279.996 241.457 282.032 244.425 283.981 247.428C285.93 250.43 287.79 253.467 289.563 256.537C289.783 256.923 290.003 257.308 290.222 257.687C290.354 257.92 290.794 257.976 291.058 257.857C291.365 257.716 291.409 257.449 291.277 257.211C289.527 254.135 287.688 251.087 285.761 248.079C283.827 245.054 281.805 242.063 279.695 239.111C277.593 236.171 275.41 233.265 273.138 230.398C270.867 227.531 268.516 224.705 266.084 221.923C263.651 219.141 261.139 216.394 258.545 213.697C258.223 213.363 257.893 213.023 257.571 212.689C257.373 212.485 257.044 212.383 256.736 212.519C256.479 212.638 256.318 212.961 256.516 213.165H256.509Z" fill="#F9F9FA"/>
<path d="M262.919 214.094C264.047 217.113 265.175 220.127 266.311 223.147C266.531 223.724 267.703 223.481 267.483 222.897C266.355 219.878 265.227 216.864 264.091 213.844C263.871 213.267 262.699 213.51 262.919 214.094Z" fill="#F9F9FA"/>
<path d="M266.963 223.515C272.04 222.631 277.138 221.844 282.267 221.152C287.336 220.473 292.435 219.883 297.541 219.396C300.435 219.119 303.336 218.875 306.237 218.665C306.567 218.643 306.845 218.467 306.845 218.195C306.845 217.957 306.567 217.702 306.237 217.725C301.021 218.11 295.812 218.592 290.633 219.17C285.483 219.748 280.354 220.422 275.248 221.198C272.369 221.634 269.498 222.104 266.64 222.603C266.318 222.659 266.135 222.943 266.216 223.181C266.303 223.436 266.64 223.566 266.963 223.509V223.515Z" fill="#F9F9FA"/>
<path d="M226.473 243.757C229.674 248.147 232.971 252.498 236.355 256.804C239.725 261.086 243.183 265.33 246.736 269.528C248.736 271.89 250.758 274.235 252.816 276.569C253 276.779 253.351 276.875 253.652 276.739C253.923 276.62 254.055 276.309 253.871 276.094C250.201 271.93 246.626 267.715 243.139 263.46C239.666 259.223 236.289 254.945 233 250.623C231.146 248.192 229.33 245.745 227.535 243.286C227.147 242.76 226.099 243.235 226.487 243.762L226.473 243.757Z" fill="#F9F9FA"/>
<path d="M286.288 304.448C289.072 306.436 291.966 308.34 294.962 310.141C292.779 313.371 288.406 315.648 283.71 315.988C283.277 316.022 282.801 316.028 282.45 315.829C281.951 315.546 281.922 314.991 281.952 314.515C282.215 310.85 286.281 304.442 286.281 304.442L286.288 304.448Z" fill="#5C4CA0"/>
<path d="M199.147 322.237C199.118 325.171 199.242 328.106 199.528 331.029C194.971 331.953 189.85 330.978 186.363 328.525C186.041 328.298 185.711 328.032 185.667 327.698C185.601 327.222 186.114 326.831 186.59 326.531C190.275 324.22 199.14 322.237 199.14 322.237H199.147Z" fill="#5C4CA0"/>
<path d="M295.065 292.936C294.889 293.389 295.014 293.899 295.358 294.29C295.717 294.698 296.252 294.976 296.896 295.032C297.057 295.044 297.204 294.913 297.204 294.794C297.204 294.658 297.065 294.573 296.896 294.557C296.83 294.545 296.794 294.545 296.764 294.539C296.706 294.528 296.647 294.517 296.589 294.5C296.523 294.477 296.493 294.466 296.471 294.46C296.42 294.438 296.369 294.415 296.318 294.392C296.156 294.307 295.973 294.166 295.863 294.035C295.724 293.871 295.658 293.752 295.607 293.554C295.607 293.548 295.592 293.486 295.6 293.503C295.6 293.525 295.6 293.463 295.6 293.452C295.6 293.406 295.6 293.361 295.6 293.31C295.6 293.287 295.6 293.265 295.6 293.242C295.614 293.163 295.629 293.112 295.651 293.067C295.768 292.778 295.175 292.653 295.065 292.942V292.936Z" fill="#944F2C"/>
<path d="M216.224 317.903C214.92 318.424 214.407 319.789 215.103 320.781C215.286 321.047 215.813 320.809 215.63 320.543C215.088 319.767 215.535 318.713 216.539 318.311C216.883 318.169 216.575 317.767 216.231 317.903H216.224Z" fill="#944F2C"/>
<path d="M259.542 280.943C263.791 279.096 268.054 277.255 272.45 275.612C276.787 273.992 281.263 272.57 285.908 271.584C288.501 271.035 291.146 270.621 293.812 270.389C294.142 270.36 294.42 270.19 294.42 269.919C294.42 269.686 294.142 269.42 293.812 269.448C288.926 269.868 284.164 270.853 279.571 272.202C274.97 273.55 270.538 275.232 266.201 277.023C263.754 278.031 261.336 279.079 258.919 280.133C258.238 280.427 258.846 281.243 259.534 280.943H259.542Z" fill="#F9F9FA"/>
<path d="M311.533 219.646C315.306 221.424 318.925 223.396 322.346 225.554C323.313 226.166 324.266 226.789 325.204 227.43C325.453 227.599 325.819 227.616 326.061 227.43C326.28 227.26 326.31 226.931 326.061 226.767C322.683 224.461 319.101 222.337 315.35 220.41C314.295 219.866 313.226 219.345 312.149 218.835C311.475 218.518 310.867 219.334 311.533 219.646Z" fill="#F9F9FA"/>
<path d="M315.167 220.365C318.713 221.187 322.119 222.325 325.328 223.759C326.009 224.064 326.617 223.249 325.943 222.948C322.654 221.475 319.138 220.303 315.497 219.459C314.742 219.283 314.427 220.195 315.174 220.365H315.167Z" fill="#F9F9FA"/>
<path d="M201.403 292.908C206.143 294.092 210.956 295.117 215.813 295.978C220.67 296.84 225.579 297.531 230.516 298.058C233.33 298.358 236.15 298.601 238.971 298.794C239.3 298.817 239.579 298.562 239.579 298.324C239.579 298.052 239.3 297.876 238.971 297.854C234.048 297.519 229.139 297.015 224.267 296.347C219.381 295.673 214.524 294.84 209.733 293.837C207.044 293.276 204.378 292.664 201.733 292.001C201.418 291.922 201.066 292.092 200.986 292.33C200.898 292.585 201.096 292.829 201.411 292.908H201.403Z" fill="#F9F9FA"/>
<path d="M315.643 172.925C314.024 175.689 313.131 178.647 312.383 181.609C311.621 184.618 310.618 187.767 311.834 190.787C312.449 192.317 313.497 193.727 314.72 195.013C314.918 195.217 315.248 195.319 315.555 195.183C315.819 195.064 315.966 194.747 315.775 194.537C314.735 193.444 313.804 192.266 313.211 190.98C312.574 189.614 312.383 188.204 312.522 186.759C312.662 185.263 313.079 183.791 313.446 182.318C313.804 180.879 314.185 179.445 314.654 178.029C315.182 176.448 315.826 174.885 316.698 173.395C316.83 173.163 316.786 172.891 316.478 172.749C316.215 172.63 315.782 172.687 315.643 172.919V172.925Z" fill="#4C4099"/>
<path d="M364.287 195.608C364.881 193.047 365.511 190.487 366.177 187.937C366.844 185.388 367.555 182.839 368.294 180.301C368.712 178.867 369.144 177.434 369.591 176.007C369.774 175.417 368.602 175.168 368.419 175.757C367.635 178.29 366.888 180.828 366.177 183.371C365.467 185.915 364.793 188.47 364.155 191.025C363.796 192.47 363.452 193.914 363.115 195.359C363.056 195.608 363.203 195.869 363.54 195.937C363.833 195.999 364.229 195.857 364.287 195.608Z" fill="#4C4099"/>
<path d="M369.569 178.748C368.324 179.944 367.254 181.235 366.404 182.623C366.265 182.85 366.324 183.133 366.624 183.269C366.888 183.388 367.313 183.332 367.459 183.099C368.265 181.791 369.261 180.544 370.434 179.417C370.639 179.219 370.683 178.947 370.434 178.754C370.221 178.59 369.782 178.556 369.576 178.754L369.569 178.748Z" fill="#4C4099"/>
<path d="M365.24 201.392C370.009 202.055 375.144 202.769 378.873 205.364C379.789 206.004 380.58 206.729 381.188 207.556C381.576 208.083 382.631 207.607 382.236 207.08C379.723 203.687 374.829 202.038 370.111 201.183C368.602 200.911 367.078 200.695 365.562 200.486C365.24 200.44 364.903 200.554 364.815 200.814C364.734 201.041 364.917 201.347 365.24 201.392Z" fill="#4C4099"/>
<path d="M324.962 195.132C326.925 195.183 328.845 195.636 330.515 196.435C331.182 196.752 331.797 195.942 331.13 195.625C329.277 194.741 327.138 194.248 324.962 194.192C324.178 194.169 324.178 195.115 324.962 195.132Z" fill="#4C4099"/>
<path d="M326.698 196.701H326.779C326.859 196.713 326.764 196.707 326.735 196.701C326.786 196.713 326.837 196.713 326.889 196.724C326.991 196.741 327.094 196.758 327.196 196.781C327.299 196.803 327.401 196.826 327.497 196.854C327.548 196.866 327.599 196.883 327.643 196.9C327.665 196.905 327.694 196.917 327.716 196.922C327.658 196.905 327.614 196.888 327.694 196.922C327.885 196.99 328.075 197.07 328.251 197.155C328.295 197.177 328.339 197.2 328.383 197.223C328.405 197.234 328.427 197.245 328.449 197.257C328.464 197.262 328.537 197.308 328.464 197.268C328.39 197.223 328.464 197.268 328.478 197.279C328.5 197.291 328.522 197.308 328.537 197.319C328.581 197.347 328.625 197.381 328.669 197.41C328.903 197.574 329.299 197.602 329.526 197.41C329.738 197.228 329.775 196.922 329.526 196.747C328.735 196.186 327.746 195.857 326.683 195.772C326.368 195.75 326.061 196.005 326.075 196.243C326.09 196.52 326.346 196.685 326.683 196.713L326.698 196.701Z" fill="#4C4099"/>
<path d="M359.818 172.556C357.357 174.936 353.994 176.726 350.236 177.638C349.167 177.899 348.068 178.091 346.954 178.21C346.632 178.244 346.449 178.567 346.529 178.788C346.624 179.06 346.954 179.151 347.276 179.117C351.357 178.681 355.232 177.264 358.309 175.151C359.166 174.562 359.965 173.916 360.683 173.219C360.888 173.021 360.932 172.749 360.683 172.556C360.47 172.392 360.031 172.358 359.826 172.556H359.818Z" fill="#4C4099"/>
<path d="M330.346 170.896C330.998 172.8 331.921 174.641 333.094 176.392C333.247 176.618 333.65 176.686 333.929 176.562C334.222 176.426 334.295 176.142 334.148 175.916C333.028 174.239 332.156 172.471 331.526 170.647C331.328 170.064 330.149 170.313 330.354 170.896H330.346Z" fill="#4C4099"/>
<path d="M340.698 166.767C340.537 168.608 340.786 170.466 341.408 172.245C341.723 173.134 342.134 174.001 342.632 174.845C342.881 175.27 343.152 175.684 343.452 176.091C343.709 176.443 343.98 176.834 344.449 177.043C344.94 177.259 345.526 177.225 346.053 177.134C346.551 177.049 347.035 176.924 347.504 176.771C348.427 176.471 349.269 176.052 350.038 175.553C351.569 174.562 352.756 173.293 353.833 172.007C355.401 170.137 356.91 168.24 358.441 166.353C358.654 166.098 358.126 165.86 357.914 166.115C356.551 167.786 355.196 169.452 353.833 171.123C352.822 172.364 351.76 173.599 350.419 174.636C349.76 175.145 349.035 175.604 348.222 175.967C347.408 176.329 346.449 176.658 345.511 176.726C344.932 176.766 344.551 176.596 344.251 176.222C343.951 175.859 343.694 175.468 343.445 175.077C342.94 174.284 342.515 173.463 342.185 172.619C341.438 170.727 341.137 168.744 341.306 166.772C341.335 166.472 340.727 166.472 340.698 166.772V166.767Z" fill="white"/>
<path d="M345.02 176.709C343.907 177.151 343.841 178.607 344.94 179.071C346.038 179.53 347.614 178.618 347.291 177.683C346.976 176.749 344.94 176.596 344.441 177.485L345.013 176.709H345.02Z" fill="white"/>
<path d="M304.933 0C304.867 9.60252 304.801 35.8437 304.735 37.6793L304.523 43.6164C304.486 44.5795 304.413 45.5426 304.42 46.5056C304.398 47.0835 305.043 47.5934 305.739 47.5707C306.471 47.548 307.043 47.1231 307.057 46.551C307.087 45.7578 307.116 44.9647 307.145 44.1716C307.211 42.2794 307.284 40.3816 307.35 38.4894C307.416 36.7048 307.475 9.69883 307.497 0.0056652H304.94L304.933 0Z" fill="#3A2F81"/>
<path d="M361.965 86.4169L311.043 52.0858V46.4886C311.043 44.3755 308.823 42.6589 306.09 42.6589C303.358 42.6589 301.138 44.3755 301.138 46.4886V52.9413L249.512 86.4113H361.965V86.4169Z" fill="#FCB415"/>
<path d="M361.965 86.417C361.965 88.836 336.244 90.7905 305.387 90.7905C274.53 90.7905 249.512 88.8304 249.512 86.417C249.512 84.0036 274.53 82.0435 305.387 82.0435C336.244 82.0435 361.965 84.0036 361.965 86.417Z" fill="#F39E1E"/>
<path d="M305.387 87.5104C312.026 87.5104 317.409 83.3482 317.409 78.2138C317.409 73.0795 312.026 68.9172 305.387 68.9172C298.748 68.9172 293.365 73.0795 293.365 78.2138C293.365 83.3482 298.748 87.5104 305.387 87.5104Z" fill="white"/>
<path d="M263.109 81.0124C267.966 80.2363 272.853 79.5848 277.768 79.0636C282.647 78.5481 287.549 78.1685 292.464 77.9079C297.409 77.6473 302.369 77.5227 307.328 77.5227C312.266 77.5227 317.196 77.653 322.119 77.9136C327.057 78.1742 331.98 78.5594 336.881 79.0863C337.489 79.1486 338.09 79.2166 338.698 79.2845C339.05 79.3242 339.409 79.2166 339.511 78.9276C339.599 78.6897 339.409 78.3385 339.05 78.2988C334.112 77.738 329.145 77.3074 324.163 77.0071C319.196 76.7069 314.215 76.5426 309.233 76.5086C304.252 76.4746 299.263 76.5709 294.288 76.7975C289.314 77.0241 284.347 77.3867 279.409 77.8739C274.457 78.3668 269.527 78.9843 264.626 79.7321C264.003 79.8284 263.38 79.9247 262.758 80.0267C261.923 80.1627 262.274 81.1427 263.109 81.0124Z" fill="#D79128"/>
<path d="M302.178 48.5507H308.596C309.446 48.5507 309.446 47.531 308.596 47.531H302.178C301.329 47.531 301.329 48.5507 302.178 48.5507Z" fill="#D79128"/>
<path d="M302.178 51.0322H309.885C310.735 51.0322 310.735 50.0125 309.885 50.0125H302.178C301.329 50.0125 301.329 51.0322 302.178 51.0322Z" fill="#D79128"/>
<path d="M116.665 53.4852C116.665 53.4852 107.661 54.1706 111.91 48.0919C116.159 42.0131 133.624 47.2534 125.595 53.5305" fill="#3F3622"/>
<path d="M122.115 51.1625C122.115 51.1625 106.064 48.3355 99.4636 63.099C92.863 77.8625 76.5995 77.313 80.6068 86.4283C84.614 95.5436 68.0209 96.1668 70.4238 108.523C72.8267 120.878 105.976 133.495 143.397 114.72C180.818 95.9459 143.771 82.61 142.591 73.1264C141.412 63.6429 136.042 51.9896 122.108 51.1625H122.115Z" fill="#3F3622"/>
<path d="M147.485 162.574C147.485 162.574 165.624 194.18 168.21 222.212C170.796 250.243 149.009 292.834 149.009 292.834L137.514 290.857C137.514 290.857 142.613 261.562 140.701 235.332C138.789 209.097 119.456 186.674 119.456 186.674V167.577L147.492 162.569L147.485 162.574Z" fill="#EFB9A4"/>
<path d="M96.8629 235.446C100.174 220.847 90.8117 206.417 87.918 196.203C84.0646 182.623 84.7532 169.163 87.6177 159.696L122.189 167.582C122.189 167.582 131.155 198.99 125.405 226.738C119.661 254.487 84.0866 294.166 84.0866 294.166L75.2662 288.161C75.2662 288.161 90.9876 261.33 96.8629 235.451V235.446Z" fill="#EFB9A4"/>
<path d="M97.6322 136.435C105.698 122.912 91.3905 122.725 93.4198 106.789C96.5113 86.1507 110.423 84.5304 120.775 85.1479C131.126 84.5361 147.272 84.4228 150.364 105.061C152.393 121.003 143.185 121.722 146.152 136.435C149.119 151.148 147.873 167.577 147.873 167.577C138.943 174.454 120.775 169.129 120.775 169.129C120.775 169.129 96.5553 166.568 87.6177 159.691C87.6177 159.691 88.6873 151.436 97.6322 136.435Z" fill="white"/>
<path d="M85.1708 292.919C85.1708 292.919 83.9547 297.536 85.3979 301.406C86.8411 305.269 88.8484 307.201 83.9474 310.357C79.4786 307.819 76.2186 302.34 74.3798 298.732C72.5483 295.123 68.5191 292.659 69.2736 290.534C70.0282 288.41 76.2332 286.45 76.2332 286.45L85.1708 292.914V292.919Z" fill="#FAF0E7"/>
<path d="M110.145 85.7598L33.8017 34.0309L27.6406 38.2911L95.5003 99.7869C95.5003 99.7869 107.962 96.5407 110.145 85.7598Z" fill="#EFB9A4"/>
<path d="M19.5968 29.527C20.4392 28.8132 24.2267 31.8724 24.2267 31.8724C24.2267 31.8724 19.6114 27.6405 20.1242 27.0174C20.9301 26.0259 26.0802 30.898 26.0802 30.898C26.0802 30.898 20.6517 25.4821 22.0876 24.8306C23.5161 24.1791 28.1021 30.0086 28.1021 30.0086C28.1021 30.0086 24.2267 24.3207 25.5747 23.9298C26.9227 23.5389 31.5526 31.0283 31.5526 31.0283C31.5526 31.0283 32.8493 26.9494 33.9409 27.1023C35.7797 27.3573 33.4867 36.1043 33.4867 36.1043L28.256 38.8576C28.256 38.8576 18.7543 30.2465 19.5968 29.527Z" fill="#EFB9A4"/>
<path d="M131.331 85.4709L207.674 33.7419L213.835 38.0022L148.21 97.7701C148.21 97.7701 133.514 96.2518 131.331 85.4709Z" fill="#EFB9A4"/>
<path d="M221.879 29.2381C221.037 28.5243 217.249 31.5835 217.249 31.5835C217.249 31.5835 221.865 27.3516 221.352 26.7284C220.546 25.737 215.396 30.6091 215.396 30.6091C215.396 30.6091 220.824 25.1932 219.388 24.5417C217.96 23.8902 213.374 29.7196 213.374 29.7196C213.374 29.7196 217.249 24.0318 215.901 23.6409C214.553 23.25 209.923 30.7394 209.923 30.7394C209.923 30.7394 208.627 26.6661 207.535 26.8134C205.696 27.0683 207.989 35.8154 207.989 35.8154L213.22 38.5687C213.22 38.5687 222.722 29.9576 221.879 29.2381Z" fill="#EFB9A4"/>
<path d="M127.331 273.692C127.331 273.692 141.368 280.037 162.84 274.184C185.272 213.323 165.265 189.427 153.155 164.648C150.803 150.575 146.994 141.415 146.994 141.415C122.357 146.87 95.83 139.557 95.83 139.557C95.83 139.557 79.5519 152.961 80.8266 179.819C82.1013 206.678 105.361 229.843 72.8633 267.296C84.973 278.994 106.321 276.06 106.321 276.06C106.321 276.06 132.452 246.006 132.13 216.241C135.954 235.015 134.665 245.009 127.339 273.692H127.331Z" fill="#37A3A5"/>
<path d="M106.416 90.3883C117.368 91.3174 126.328 91.4817 138.43 90.3996" stroke="#FCB415" stroke-miterlimit="10"/>
<path d="M105.559 93.895C117.09 94.8978 126.533 95.0734 139.258 93.912" stroke="#FCB415" stroke-miterlimit="10"/>
<path d="M104.709 97.3961C116.811 98.4838 126.738 98.6651 140.1 97.4131" stroke="#FCB415" stroke-miterlimit="10"/>
<path d="M103.866 100.892C116.533 102.064 126.95 102.257 140.943 100.909" stroke="#FCB415" stroke-miterlimit="10"/>
<path d="M103.031 104.381C116.255 105.645 127.163 105.849 141.785 104.398" stroke="#FCB415" stroke-miterlimit="10"/>
<path d="M102.196 107.865C115.969 109.225 127.375 109.435 142.628 107.882" stroke="#FCB415" stroke-miterlimit="10"/>
<path d="M101.368 111.35C115.69 112.806 127.588 113.032 143.478 111.361" stroke="#FCB415" stroke-miterlimit="10"/>
<path d="M100.548 114.828C115.412 116.386 127.8 116.624 144.335 114.839" stroke="#FCB415" stroke-miterlimit="10"/>
<path d="M99.7347 118.301C115.126 119.966 128.02 120.216 145.192 118.301" stroke="#FCB415" stroke-miterlimit="10"/>
<path d="M98.9215 121.774C114.848 123.541 128.232 123.807 146.049 121.774" stroke="#FCB415" stroke-miterlimit="10"/>
<path d="M97.3098 128.708C114.277 130.696 128.657 130.991 147.778 128.691" stroke="#FCB415" stroke-miterlimit="10"/>
<path d="M96.5113 132.175C113.991 134.271 128.877 134.583 148.65 132.146" stroke="#FCB415" stroke-miterlimit="10"/>
<path d="M98.1083 125.241C114.555 127.116 128.437 127.399 146.906 125.235" stroke="#FCB415" stroke-miterlimit="10"/>
<path d="M95.7127 135.642C113.705 137.851 129.089 138.18 149.514 135.608" stroke="#FCB415" stroke-miterlimit="10"/>
<path d="M94.9216 139.109C113.419 141.426 129.302 141.772 150.393 139.064" stroke="#FCB415" stroke-miterlimit="10"/>
<path d="M111.734 72.5429C112.504 70.4127 110.643 68.1183 107.786 68.0844C107.757 68.0844 107.727 68.0844 107.705 68.0844C104.892 68.0844 104.921 74.2651 108.921 74.2651C110.621 74.2651 111.405 73.4663 111.734 72.5429Z" fill="#F6A692"/>
<path d="M132.98 72.5429C132.21 70.4128 134.071 68.1183 136.928 68.0844C136.958 68.0844 136.987 68.0844 137.009 68.0844C139.822 68.0844 139.793 74.2651 135.793 74.2651C134.093 74.2651 133.309 73.4663 132.98 72.5429Z" fill="#F6A692"/>
<path d="M130.496 83.93C128.687 81.2787 129.405 77.2337 129.405 77.2337L122.357 76.3953L115.309 77.2337C115.309 77.2337 115.661 79.2109 115.258 81.3013C117.83 83.3238 122.775 85.7655 130.496 83.9243V83.93Z" fill="#F6A692"/>
<path d="M130.496 83.93C122.775 85.7655 117.83 83.3295 115.258 81.307C115.016 82.5534 114.511 83.845 113.5 84.7854C112.145 86.0431 114.357 86.9156 116.914 87.4764C120.467 88.2525 124.254 88.2525 127.807 87.4764C130.364 86.9156 132.577 86.0431 131.221 84.7854C130.943 84.5248 130.709 84.2359 130.503 83.93H130.496Z" fill="#F5B8A4"/>
<path d="M128.203 74.1121C128.203 71.9197 130.496 70.1465 133.331 70.1465C134.423 70.1465 135.434 70.4128 136.262 70.866C136.723 69.444 137.001 67.8068 137.001 65.9146C137.001 57.7454 132.005 54.1593 127.844 52.59C124.394 51.287 120.32 51.287 116.87 52.59C112.716 54.1593 107.713 57.7454 107.713 65.9146C107.713 67.8068 107.991 69.444 108.452 70.866C109.288 70.4184 110.291 70.1465 111.383 70.1465C114.218 70.1465 116.511 71.9197 116.511 74.1121C116.511 75.6191 115.412 76.9164 113.808 77.5849C114.401 77.9475 114.994 78.2817 115.588 78.548C119.786 80.4402 124.906 80.4402 129.104 78.548C129.698 78.2817 130.298 77.9475 130.884 77.5849C129.287 76.9164 128.181 75.6191 128.181 74.1121H128.203Z" fill="#EFB9A4"/>
<path d="M116.518 74.1121C116.518 71.9197 114.225 70.1465 111.39 70.1465C110.299 70.1465 109.295 70.4127 108.46 70.866C109.515 74.1121 111.588 76.2139 113.822 77.5906C115.419 76.9164 116.526 75.6247 116.526 74.1178L116.518 74.1121Z" fill="#F6A692"/>
<path d="M136.262 70.8604C135.426 70.4128 134.423 70.1409 133.331 70.1409C130.496 70.1409 128.203 71.9141 128.203 74.1065C128.203 75.6135 129.302 76.9108 130.906 77.5793C133.133 76.2026 135.207 74.1008 136.269 70.8547L136.262 70.8604Z" fill="#F6A692"/>
<path d="M125.8 74.2651C125.8 74.2651 124.621 75.2226 122.364 75.2226C120.108 75.2226 118.928 74.2651 118.928 74.2651" stroke="#703622" stroke-width="0.48" stroke-linecap="round" stroke-linejoin="round"/>
<path d="M115.918 69.2968C115.918 69.7727 116.416 70.1636 117.038 70.1636C117.661 70.1636 118.159 69.7784 118.159 69.2968C118.159 68.8153 117.661 68.4301 117.038 68.4301C116.416 68.4301 115.918 68.8153 115.918 69.2968Z" fill="#703622"/>
<path d="M126.767 69.2968C126.767 69.7727 127.265 70.1636 127.888 70.1636C128.511 70.1636 129.009 69.7784 129.009 69.2968C129.009 68.8153 128.511 68.4301 127.888 68.4301C127.265 68.4301 126.767 68.8153 126.767 69.2968Z" fill="#703622"/>
<path d="M122.46 73.2511V68.4301C122.46 68.4301 118.064 73.2511 122.46 73.2511Z" fill="#F6A692"/>
<path d="M115.507 66.5775C115.507 66.5775 116.277 65.5577 118.152 65.5577" stroke="#703622" stroke-width="0.48" stroke-linecap="round" stroke-linejoin="round"/>
<path d="M129.207 66.5775C129.207 66.5775 128.437 65.5577 126.562 65.5577" stroke="#703622" stroke-width="0.48" stroke-linecap="round" stroke-linejoin="round"/>
<path d="M70.1015 55.1621C70.1015 55.1621 69.0026 60.0965 63.5008 62.136C58.0064 64.1754 54.9222 70.1296 54.9222 70.1296C54.9222 70.1296 58.4386 73.744 63.5008 76.1913C68.5557 78.633 66.7975 87.6464 77.1343 92.2409C77.2369 92.2862 77.3394 92.3315 77.442 92.3768C83.2588 95.0281 85.9254 100.404 84.1965 105.446C83.017 108.88 81.6983 114.454 82.6361 120.465C84.1745 130.328 67.2444 135.772 65.0466 146.995C80.6581 155.838 104.628 155.498 104.628 155.498C104.628 155.498 115.002 136.452 110.145 124.21C105.288 111.967 122.386 98.4499 113.991 84.2416C103.398 74.2878 95.6102 74.5768 89.2294 66.9117C82.8485 59.2467 70.0941 55.1678 70.0941 55.1678L70.1015 55.1621Z" fill="#235879"/>
<path d="M174.847 55.1621C174.847 55.1621 175.946 60.0965 181.448 62.136C186.942 64.1754 190.026 70.1296 190.026 70.1296C190.026 70.1296 186.51 73.744 181.448 76.1913C176.393 78.633 178.151 87.6464 167.814 92.2409C167.712 92.2862 167.609 92.3315 167.506 92.3768C161.69 95.0281 159.023 100.404 160.752 105.446C161.931 108.88 163.25 114.454 162.312 120.465C160.774 130.328 171.001 137.5 173.199 148.723C157.587 157.566 140.32 155.499 140.32 155.499C140.32 155.499 129.947 136.452 134.804 124.21C139.661 111.967 122.826 98.9938 131.214 84.7854C141.807 74.8317 149.331 74.5768 155.712 66.9117C162.093 59.2467 174.847 55.1678 174.847 55.1678V55.1621Z" fill="#235879"/>
<path d="M104.599 68.413C104.599 68.413 112.46 69.0645 117.038 62.5835C121.617 56.1025 129.69 60.4987 134.122 56.2725C128.804 50.6696 109.822 44.5908 104.599 68.413Z" fill="#3F3622"/>
<path d="M57.435 66.5774L54.9295 70.1295C54.9295 70.1295 56.9075 72.2539 59.5229 73.8685C62.1382 75.4831 66.3726 76.2309 68.3725 83.471C70.1894 90.037 78.7826 93.0735 78.7826 93.0735" stroke="#703622" stroke-width="0.48" stroke-linecap="round" stroke-linejoin="round"/>
<path d="M69.2297 57.2752L70.1015 55.1621C70.1015 55.1621 77.2442 57.3545 83.4859 61.7961C89.7275 66.2319 89.4272 68.0278 92.5187 70.1636" stroke="#703622" stroke-width="0.48" stroke-linecap="round" stroke-linejoin="round"/>
<path d="M76.2479 58.5612C76.2479 58.5612 75.2662 64.5379 68.8927 70.8433" stroke="#4D419A" stroke-miterlimit="10"/>
<path d="M78.7753 61.3145C78.7753 61.3145 78.409 69.7273 76.2479 81.307" stroke="#4D419A" stroke-miterlimit="10"/>
<path d="M93.2952 72.5259C93.2952 72.5259 99.8812 85.2159 87.625 101.146" stroke="#4D419A" stroke-miterlimit="10"/>
<path d="M74.7241 58.5612C74.7241 58.5612 71.5446 65.4217 61.1126 70.8433" stroke="#4D419A" stroke-miterlimit="10"/>
<path d="M144.84 75.8684C144.84 75.8684 137.932 90.6206 157.77 102.619" stroke="#4D419A" stroke-miterlimit="10"/>
<path d="M171.052 58.5612C171.052 58.5612 169.345 68.9738 176.466 77.5849" stroke="#4D419A" stroke-miterlimit="10"/>
<path d="M169.221 59.0483C169.221 59.0483 166.298 67.1836 170.876 76.3952" stroke="#4D419A" stroke-miterlimit="10"/>
<path d="M163.243 66.906C163.243 66.906 159.302 84.6211 163.243 92.1955" stroke="#4D419A" stroke-miterlimit="10"/>
<path d="M72.856 141.664C72.856 141.664 88.7092 148.547 100.409 147.862" stroke="#4D419A" stroke-miterlimit="10"/>
<path d="M147.412 144.791C147.412 144.791 157.646 144.916 166.034 141.67" stroke="#4D419A" stroke-miterlimit="10"/>
<path d="M79.713 261.375C79.713 261.375 85.8155 268.893 107.749 269.42" stroke="white" stroke-width="2" stroke-linecap="round" stroke-linejoin="round"/>
<path d="M131.038 267.143C131.038 267.143 143.097 271.165 162.84 266.446" stroke="white" stroke-width="2" stroke-linecap="round" stroke-linejoin="round"/>
<path d="M132.621 214.167L128.833 174.653L133.976 172.03L128.833 149.748" stroke="white" stroke-width="2" stroke-linecap="round" stroke-linejoin="round"/>
<path d="M135.339 147.913C135.339 147.913 126.972 149.845 110.24 147.913" stroke="white" stroke-width="2" stroke-linecap="round" stroke-linejoin="round"/>
<path d="M122.928 150.694L128.833 172.381" stroke="white" stroke-width="2" stroke-linecap="round" stroke-linejoin="round"/>
<path d="M84.5115 170.285C84.5115 170.285 96.8849 172.908 101.302 157" stroke="white" stroke-width="2" stroke-linecap="round" stroke-linejoin="round"/>
<path d="M141.895 157.748C141.895 157.748 144.159 170.256 154.554 170.443" stroke="white" stroke-width="2" stroke-linecap="round" stroke-linejoin="round"/>
<path d="M102.929 68.43C102.929 68.43 108.987 69.7443 114.885 64.9515" stroke="#703622" stroke-width="0.48" stroke-linecap="round" stroke-linejoin="round"/>
<path d="M105.222 64.7023C105.222 64.7023 109.808 65.0649 113.822 61.3145C117.837 57.5641 120.13 56.9976 124.386 56.8673" stroke="#703622" stroke-width="0.48" stroke-linecap="round" stroke-linejoin="round"/>
<path d="M83.4126 294.16L75.2736 286.79L76.4017 286.155L84.7093 292.585" stroke="#703622" stroke-width="0.48" stroke-linecap="round" stroke-linejoin="round"/>
<path d="M74.2406 287.186C74.2406 287.186 70.2699 288.177 69.2736 290.54C68.541 292.489 72.6582 296.182 72.6582 296.182C72.6582 296.182 76.3211 305.094 83.3466 309.937" stroke="#703622" stroke-width="0.48" stroke-linecap="round" stroke-linejoin="round"/>
<path d="M85.0316 293.582C85.0316 293.582 83.7936 297.027 85.4052 301.406C87.0169 305.791 87.8741 307.484 84.5774 309.932" stroke="#703622" stroke-width="0.48" stroke-linecap="round" stroke-linejoin="round"/>
<path d="M80.9218 296.341H84.5774" stroke="#703622" stroke-width="0.48" stroke-linecap="round" stroke-linejoin="round"/>
<path d="M81.4492 298.771L84.7093 298.675" stroke="#703622" stroke-width="0.48" stroke-linecap="round" stroke-linejoin="round"/>
<path d="M82.2551 300.953H85.2441" stroke="#703622" stroke-width="0.48" stroke-linecap="round" stroke-linejoin="round"/>
<path d="M148.994 292.506C148.994 292.506 150.825 297.004 154.51 299.842C158.195 302.686 161.162 303.615 158.847 308.221C153.346 307.677 147.06 304.102 143.199 301.632C139.338 299.162 134.262 298.511 133.602 296.375C132.936 294.234 137.133 290.194 137.133 290.194L149.001 292.506H148.994Z" fill="#FAF0E7"/>
<path d="M148.232 294.251L136.496 290.851L137.082 289.871L148.379 292.387" stroke="#703622" stroke-width="0.48" stroke-linecap="round" stroke-linejoin="round"/>
<path d="M135.837 291.582C135.837 291.582 132.987 293.933 133.595 296.375C134.181 298.352 140.086 300.04 140.086 300.04C140.086 300.04 148.078 306.289 157.258 307.892" stroke="#703622" stroke-width="0.48" stroke-linecap="round" stroke-linejoin="round"/>
<path d="M149.287 293.135C149.287 293.135 150.357 296.613 154.51 299.842C158.664 303.071 160.481 304.233 159.126 307.609" stroke="#703622" stroke-width="0.48" stroke-linecap="round" stroke-linejoin="round"/>
<path d="M147.419 297.089L150.613 295.724" stroke="#703622" stroke-width="0.48" stroke-linecap="round" stroke-linejoin="round"/>
<path d="M149.404 299.015L152.195 297.712" stroke="#703622" stroke-width="0.48" stroke-linecap="round" stroke-linejoin="round"/>
<path d="M151.47 300.624L154.093 299.502" stroke="#703622" stroke-width="0.48" stroke-linecap="round" stroke-linejoin="round"/>
<path d="M128.833 57.3092C128.833 57.3092 129.705 65.5067 138.43 66.5775C137.61 59.5356 134.569 53.2982 128.833 57.3092Z" fill="#3F3622"/>
<path d="M130.496 89.1193C130.496 89.5328 130.928 89.8671 131.463 89.8671C131.998 89.8671 132.43 89.5328 132.43 89.1193C132.43 88.7057 131.998 88.3715 131.463 88.3715C130.928 88.3715 130.496 88.7057 130.496 89.1193Z" fill="#3A2F81"/>
<path d="M131.837 102.999C131.837 103.413 132.269 103.747 132.804 103.747C133.339 103.747 133.771 103.413 133.771 102.999C133.771 102.585 133.339 102.251 132.804 102.251C132.269 102.251 131.837 102.585 131.837 102.999Z" fill="#3A2F81"/>
<path d="M136.034 114.08C136.034 114.494 136.467 114.828 137.001 114.828C137.536 114.828 137.969 114.494 137.969 114.08C137.969 113.667 137.536 113.332 137.001 113.332C136.467 113.332 136.034 113.667 136.034 114.08Z" fill="#3A2F81"/>
<path d="M135.067 125.994C135.067 126.408 135.5 126.742 136.034 126.742C136.569 126.742 137.001 126.408 137.001 125.994C137.001 125.58 136.569 125.246 136.034 125.246C135.5 125.246 135.067 125.58 135.067 125.994Z" fill="#3A2F81"/>
<path d="M138.298 149.947C138.298 150.36 138.73 150.694 139.265 150.694C139.8 150.694 140.232 150.36 140.232 149.947C140.232 149.533 139.8 149.199 139.265 149.199C138.73 149.199 138.298 149.533 138.298 149.947Z" fill="#3A2F81"/>
<path d="M134.371 136.514C134.371 136.928 134.804 137.262 135.339 137.262C135.873 137.262 136.306 136.928 136.306 136.514C136.306 136.101 135.873 135.767 135.339 135.767C134.804 135.767 134.371 136.101 134.371 136.514Z" fill="#3A2F81"/>
<path opacity="0.06" d="M120.738 332.479C151.556 332.479 176.539 329.509 176.539 325.845C176.539 322.182 151.556 319.211 120.738 319.211C89.9198 319.211 64.9367 322.182 64.9367 325.845C64.9367 329.509 89.9198 332.479 120.738 332.479Z" fill="black"/>
<path d="M112.489 51.7913C112.489 51.7913 118.679 49.5478 125.903 51.7913" stroke="#703622" stroke-width="0.48" stroke-linecap="round" stroke-linejoin="round"/>
</svg>
