<svg width="459" height="296" viewBox="0 0 459 296" fill="none" xmlns="http://www.w3.org/2000/svg">
<path d="M211.086 100.122C228.756 97.624 245.51 90.7245 259.965 80.2663C281.556 64.6444 326.732 38.0706 369.827 51.3103C429.269 69.5685 429.538 122.397 414.05 151.091C398.569 179.786 288.765 263.814 146.414 250.444C19.0341 238.475 -5.78717 101.524 62.1512 76.7439C121.076 55.2466 141.176 110.014 211.086 100.122Z" fill="#37A3A5"/>
<g opacity="0.06">
<path d="M358.457 205.292C358.457 205.292 367.346 201.233 370.816 208.285C374.286 215.337 361.592 222.57 354.688 220.493C347.777 218.416 348.992 208.023 358.457 205.292Z" fill="black"/>
</g>
<g opacity="0.06">
<path d="M218.092 78.1386C218.092 78.1386 227.767 75.1101 230.422 82.8157C233.077 90.5214 219.081 96.3242 212.243 93.2884C205.404 90.2599 208.002 79.7219 218.092 78.1313V78.1386Z" fill="black"/>
</g>
<path d="M183.196 2.48369V54.651C183.196 56.0236 182.083 57.1276 180.715 57.1276H92.2692C90.8943 57.1276 89.7886 56.0164 89.7886 54.651V2.47643C89.7813 1.11106 90.8943 -0.00012207 92.2692 -0.00012207H180.715C182.09 -0.00012207 183.196 1.11106 183.196 2.48369Z" fill="white"/>
<path d="M128.809 32.0354C128.809 36.2695 127.202 40.1332 124.568 43.0455C121.556 46.379 117.199 48.4707 112.347 48.4707C103.253 48.4707 95.884 41.1136 95.884 32.0354C95.884 29.784 96.335 27.6415 97.1571 25.6806L112.347 32.0354L111.568 15.6219C111.823 15.6074 112.085 15.6001 112.347 15.6001C121.44 15.6001 128.809 22.9571 128.809 32.0354Z" fill="#235879"/>
<path d="M109.931 12.913C105.014 13.1381 100.663 15.5202 97.7972 19.137C96.8733 20.299 96.1094 21.5918 95.5275 22.9789L110.71 29.3265L109.931 12.913Z" fill="#E5F9E7"/>
<path d="M168.435 20.7201H166.172V22.9788H168.435V20.7201Z" fill="#37A3A5"/>
<path d="M178.059 21.5625H169.955C169.943 21.5625 169.933 21.5723 169.933 21.5843V22.1072C169.933 22.1192 169.943 22.129 169.955 22.129H178.059C178.071 22.129 178.081 22.1192 178.081 22.1072V21.5843C178.081 21.5723 178.071 21.5625 178.059 21.5625Z" fill="#E8D3E7"/>
<path d="M168.435 16.6967H166.172V18.9553H168.435V16.6967Z" fill="#37A3A5"/>
<path d="M178.059 17.5389H169.955C169.943 17.5389 169.933 17.5487 169.933 17.5607V18.0836C169.933 18.0957 169.943 18.1054 169.955 18.1054H178.059C178.071 18.1054 178.081 18.0957 178.081 18.0836V17.5607C178.081 17.5487 178.071 17.5389 178.059 17.5389Z" fill="#E8D3E7"/>
<path d="M168.435 24.7365H166.172V26.9951H168.435V24.7365Z" fill="#E5F9E7"/>
<path d="M178.059 25.5861H169.955C169.943 25.5861 169.933 25.5958 169.933 25.6078V26.1308C169.933 26.1428 169.943 26.1525 169.955 26.1525H178.059C178.071 26.1525 178.081 26.1428 178.081 26.1308V25.6078C178.081 25.5958 178.071 25.5861 178.059 25.5861Z" fill="#E8D3E7"/>
<path d="M177.797 34.0688H166.456C166.303 34.0688 166.172 33.9453 166.172 33.7856C166.172 33.633 166.296 33.5023 166.456 33.5023H177.797C177.95 33.5023 178.081 33.6258 178.081 33.7856C178.081 33.9381 177.957 34.0688 177.797 34.0688Z" fill="#E8D3E7"/>
<path d="M177.797 36.3855H166.456C166.303 36.3855 166.172 36.262 166.172 36.1022C166.172 35.9497 166.296 35.819 166.456 35.819H177.797C177.95 35.819 178.081 35.9424 178.081 36.1022C178.081 36.2547 177.957 36.3855 177.797 36.3855Z" fill="#E8D3E7"/>
<path d="M177.797 38.7097H166.456C166.303 38.7097 166.172 38.5862 166.172 38.4264C166.172 38.2739 166.296 38.1432 166.456 38.1432H177.797C177.95 38.1432 178.081 38.2667 178.081 38.4264C178.081 38.5789 177.957 38.7097 177.797 38.7097Z" fill="#E8D3E7"/>
<path d="M177.797 41.0263H166.456C166.303 41.0263 166.172 40.9029 166.172 40.7431C166.172 40.5906 166.296 40.4598 166.456 40.4598H177.797C177.95 40.4598 178.081 40.5833 178.081 40.7431C178.081 40.8956 177.957 41.0263 177.797 41.0263Z" fill="#E8D3E7"/>
<path d="M177.797 43.3503H166.456C166.303 43.3503 166.172 43.2268 166.172 43.0671C166.172 42.9145 166.296 42.7838 166.456 42.7838H177.797C177.95 42.7838 178.081 42.9073 178.081 43.0671C178.081 43.2196 177.957 43.3503 177.797 43.3503Z" fill="#E8D3E7"/>
<path d="M177.797 45.6669H166.456C166.303 45.6669 166.172 45.5435 166.172 45.3837C166.172 45.2312 166.296 45.1005 166.456 45.1005H177.797C177.95 45.1005 178.081 45.2239 178.081 45.3837C178.081 45.5362 177.957 45.6669 177.797 45.6669Z" fill="#E8D3E7"/>
<path d="M177.797 47.9913H166.456C166.303 47.9913 166.172 47.8678 166.172 47.708C166.172 47.5555 166.296 47.4248 166.456 47.4248H177.797C177.95 47.4248 178.081 47.5483 178.081 47.708C178.081 47.8606 177.957 47.9913 177.797 47.9913Z" fill="#E8D3E7"/>
<path d="M183.195 2.48381V6.83412H89.7807V2.47655C89.7807 1.11118 90.8937 0 92.2686 0H180.714C182.089 0 183.195 1.11118 183.195 2.48381Z" fill="#28100C"/>
<path d="M173.352 3.42044C173.352 4.05229 172.836 4.56793 172.203 4.56793C171.57 4.56793 171.053 4.05229 171.053 3.42044C171.053 2.78859 171.57 2.27295 172.203 2.27295C172.836 2.27295 173.352 2.78859 173.352 3.42044Z" fill="#E5F9E7"/>
<path d="M177.084 3.42044C177.084 4.05229 176.568 4.56793 175.935 4.56793C175.302 4.56793 174.785 4.05229 174.785 3.42044C174.785 2.78859 175.302 2.27295 175.935 2.27295C176.568 2.27295 177.084 2.78859 177.084 3.42044Z" fill="#235879"/>
<path d="M180.656 3.42044C180.656 4.05229 180.139 4.56793 179.506 4.56793C178.873 4.56793 178.357 4.05229 178.357 3.42044C178.357 2.78859 178.873 2.27295 179.506 2.27295C180.139 2.27295 180.656 2.78859 180.656 3.42044Z" fill="#37A3A5"/>
<path d="M128.809 32.0353C128.809 36.2694 127.201 40.1331 124.568 43.0454L112.347 32.0353L111.568 15.6218C111.823 15.6072 112.085 15.6 112.347 15.6C121.44 15.6 128.809 22.957 128.809 32.0353Z" fill="#37A3A5"/>
<path d="M150.073 27.8809H144.835V50.3005H150.073V27.8809Z" fill="#235879"/>
<path d="M144.835 44.3887C146.69 43.815 148.436 42.7909 150.073 41.687V50.3005H144.835V44.3887Z" fill="#37A3A5"/>
<path d="M141.503 34.1121H136.266V50.3004H141.503V34.1121Z" fill="#235879"/>
<path d="M140.536 44.7665C140.863 44.8173 141.183 44.8464 141.503 44.8536V50.3006H136.266V44.9045C137.189 44.5994 138.55 44.476 140.536 44.7665Z" fill="#37A3A5"/>
<path d="M158.635 21.1847H153.397V50.3005H158.635V21.1847Z" fill="#235879"/>
<path d="M158.643 37.1405V50.3004H153.405V39.3774C155.267 38.1137 157.006 37.1333 158.643 37.1405Z" fill="#37A3A5"/>
<path d="M158.432 12.6948L153.703 13.7043L154.976 14.9462L147.738 22.3178L145.199 19.8267L136.215 28.9703C135.873 29.3189 135.88 29.8782 136.23 30.2195C136.579 30.5608 137.139 30.5536 137.481 30.205L145.228 22.325L147.767 24.8161L156.249 16.1809L157.523 17.4228L158.446 12.6803L158.432 12.6948Z" fill="#235879"/>
<path d="M140.856 163.046V74.6741C140.856 73.3232 139.758 72.2266 138.405 72.2266H93.6071C92.254 72.2266 91.1556 73.3232 91.1556 74.6741V163.046C91.1556 165.776 93.3743 167.999 96.1169 167.999H135.902C138.637 167.999 140.864 165.784 140.864 163.046H140.856Z" fill="white"/>
<path d="M133.414 139.34H100.307C99.7034 139.34 99.216 138.854 99.216 138.251C99.216 137.648 99.7034 137.161 100.307 137.161H133.414C134.018 137.161 134.505 137.648 134.505 138.251C134.505 138.854 134.018 139.34 133.414 139.34Z" fill="#E8D3E7"/>
<path d="M133.414 146.254H100.307C99.7034 146.254 99.216 145.768 99.216 145.165C99.216 144.562 99.7034 144.075 100.307 144.075H133.414C134.018 144.075 134.506 144.562 134.506 145.165C134.506 145.768 134.018 146.254 133.414 146.254Z" fill="#E8D3E7"/>
<path d="M133.414 153.168H100.307C99.7034 153.168 99.216 152.682 99.216 152.079C99.216 151.476 99.7034 150.989 100.307 150.989H133.414C134.018 150.989 134.506 151.476 134.506 152.079C134.506 152.682 134.018 153.168 133.414 153.168Z" fill="#E8D3E7"/>
<path d="M133.414 160.082H100.307C99.7034 160.082 99.216 159.596 99.216 158.993C99.216 158.39 99.7034 157.903 100.307 157.903H133.414C134.018 157.903 134.506 158.39 134.506 158.993C134.506 159.596 134.018 160.082 133.414 160.082Z" fill="#E8D3E7"/>
<path d="M140.856 74.6741V81.4573H91.1556V74.6741C91.1556 73.3232 92.254 72.2266 93.6071 72.2266H138.405C139.758 72.2266 140.856 73.3232 140.856 74.6741Z" fill="#28100C"/>
<path d="M128.824 76.3953C128.824 77.2886 128.104 78.0076 127.209 78.0076C126.314 78.0076 125.594 77.2886 125.594 76.3953C125.594 75.502 126.314 74.783 127.209 74.783C128.104 74.783 128.824 75.502 128.824 76.3953Z" fill="#E5F9E7"/>
<path d="M134.062 76.3953C134.062 77.2886 133.341 78.0076 132.447 78.0076C131.552 78.0076 130.832 77.2886 130.832 76.3953C130.832 75.502 131.552 74.783 132.447 74.783C133.341 74.783 134.062 75.502 134.062 76.3953Z" fill="#235879"/>
<path d="M139.074 76.3953C139.074 77.2886 138.354 78.0076 137.459 78.0076C136.564 78.0076 135.844 77.2886 135.844 76.3953C135.844 75.502 136.564 74.783 137.459 74.783C138.354 74.783 139.074 75.502 139.074 76.3953Z" fill="#37A3A5"/>
<path d="M106.585 119.281H100.998V132.768H106.585V119.281Z" fill="#235879"/>
<path d="M114.827 109.702H109.24V132.76H114.827V109.702Z" fill="#37A3A5"/>
<path d="M123.957 102.635H118.37V132.767H123.957V102.635Z" fill="#E5F9E7"/>
<path d="M132.905 94.3411H127.318V132.76H132.905V94.3411Z" fill="#235879"/>
<path d="M122.604 88.4366L126.474 89.8528L126.031 85.3209L122.604 88.4366Z" fill="#E8D3E7"/>
<path d="M99.4557 112.73C99.2884 112.73 99.1284 112.628 99.0629 112.461C98.9829 112.243 99.092 112.004 99.3102 111.924C99.4776 111.859 116.304 105.424 124.51 88.1316C124.612 87.921 124.859 87.8338 125.07 87.9355C125.281 88.0372 125.368 88.2841 125.266 88.4947C116.908 106.107 99.7758 112.65 99.6085 112.716C99.5576 112.73 99.5139 112.745 99.463 112.745L99.4557 112.73Z" fill="#E8D3E7"/>
<path d="M200.967 3.41325V17.205C200.967 19.0279 202.451 20.5094 204.277 20.5094H229.36L236.933 23.2184C237.712 23.4944 238.454 22.7318 238.155 21.9692L235.289 14.5831V3.41325C235.289 1.59034 233.805 0.108765 231.979 0.108765H204.27C202.444 0.108765 200.96 1.59034 200.96 3.41325H200.967Z" fill="#235879"/>
<path d="M222.755 10.7052C222.755 12.027 223.824 13.0946 225.148 13.0946C226.472 13.0946 227.542 12.027 227.542 10.7052C227.542 9.3834 226.472 8.3158 225.148 8.3158C223.824 8.3158 222.755 9.3834 222.755 10.7052Z" fill="#37A3A5"/>
<path d="M215.182 10.7052C215.182 12.027 216.251 13.0946 217.575 13.0946C218.899 13.0946 219.969 12.027 219.969 10.7052C219.969 9.3834 218.899 8.3158 217.575 8.3158C216.251 8.3158 215.182 9.3834 215.182 10.7052Z" fill="#37A3A5"/>
<path d="M207.609 10.7051C207.609 12.0269 208.679 13.0945 210.003 13.0945C211.327 13.0945 212.396 12.0269 212.396 10.7051C212.396 9.38328 211.327 8.31567 210.003 8.31567C208.679 8.31567 207.609 9.38328 207.609 10.7051Z" fill="#37A3A5"/>
<path d="M282.488 4.47363H270.543C269.775 4.47363 269.153 5.09468 269.153 5.86079V17.786C269.153 18.5521 269.775 19.1732 270.543 19.1732H282.488C283.255 19.1732 283.877 18.5521 283.877 17.786V5.86079C283.877 5.09468 283.255 4.47363 282.488 4.47363Z" fill="#E5F9E7"/>
<path d="M280.676 8.80183C280.654 8.70015 280.625 8.59847 280.603 8.4968C280.516 8.14093 280.342 7.82864 280.101 7.54539C279.927 7.3493 279.73 7.175 279.505 7.04427C279.192 6.86271 278.843 6.9426 278.61 7.21858C278.203 7.71243 277.788 8.20629 277.388 8.70741C277.141 9.01244 277.177 9.43367 277.49 9.70239C277.708 9.89848 277.941 10.08 278.174 10.2689C278.203 10.2907 278.239 10.3124 278.261 10.327C277.715 11.7868 276.791 12.9197 275.467 13.7331C275.307 13.6024 275.14 13.4572 274.973 13.3192C274.885 13.2465 274.798 13.1739 274.711 13.1086C274.442 12.9052 274.136 12.8834 273.86 13.065C273.772 13.1231 273.7 13.2102 273.634 13.2901C273.263 13.7404 272.9 14.1907 272.529 14.6337C272.412 14.7717 272.339 14.9315 272.31 15.113L272.332 15.3091C272.398 15.4181 272.441 15.5561 272.529 15.6432C272.747 15.8611 272.987 16.0499 273.271 16.1806C273.605 16.3331 273.954 16.4203 274.318 16.3913C274.558 16.3695 274.798 16.3186 275.031 16.2533C275.628 16.0862 276.18 15.803 276.69 15.4544C277.199 15.113 277.664 14.7136 278.086 14.2706C278.661 13.675 279.17 13.0287 279.636 12.3387C280 11.8013 280.312 11.2348 280.523 10.6102C280.625 10.2979 280.698 9.97837 280.72 9.64429C280.727 9.51356 280.734 9.37557 280.734 9.24484L280.691 8.7873L280.676 8.80183Z" fill="white"/>
<path d="M304.173 4.21204H291.712C291.025 4.21204 290.468 4.76806 290.468 5.45394V17.8948C290.468 18.5807 291.025 19.1367 291.712 19.1367H304.173C304.86 19.1367 305.417 18.5807 305.417 17.8948V5.45394C305.417 4.76806 304.86 4.21204 304.173 4.21204Z" fill="#235879"/>
<path d="M302.711 11.3948C302.711 13.254 301.663 14.22 300.419 14.22C299.685 14.22 299.154 13.9367 298.877 13.3702C298.601 13.9077 298.135 14.22 297.393 14.22C296.338 14.22 295.327 13.2976 295.327 11.7943C295.327 10.2909 296.309 9.3758 297.393 9.3758C297.91 9.3758 298.31 9.54284 298.593 9.85514V9.46295H300.47V12.2518C300.47 12.6585 300.638 12.7892 300.849 12.7892C301.125 12.7892 301.343 12.5133 301.343 11.4239C301.343 9.65904 300.026 8.41714 298.019 8.41714C296.011 8.41714 294.672 9.81882 294.672 11.6708C294.672 13.5228 295.989 14.9462 297.982 14.9462C298.63 14.9462 299.292 14.8228 299.954 14.5177L300.361 15.7161C299.779 15.9993 298.848 16.1809 297.982 16.1809C295.043 16.1809 293.159 14.22 293.159 11.6708C293.159 9.12161 295.043 7.1825 298.019 7.1825C300.827 7.1825 302.711 9.06351 302.711 11.4021V11.3948ZM298.63 11.7943C298.63 11.2132 298.324 10.9082 297.924 10.9082C297.524 10.9082 297.233 11.2132 297.233 11.7943C297.233 12.3753 297.524 12.6876 297.924 12.6876C298.324 12.6876 298.63 12.3825 298.63 11.7943Z" fill="white"/>
<path d="M324.317 4.21204H311.855C311.168 4.21204 310.611 4.76806 310.611 5.45394V17.8948C310.611 18.5807 311.168 19.1367 311.855 19.1367H324.317C325.004 19.1367 325.561 18.5807 325.561 17.8948V5.45394C325.561 4.76806 325.004 4.21204 324.317 4.21204Z" fill="#37A3A5"/>
<path d="M318.861 15.1132V16.1735L317.5 16.159V15.1423C316.547 15.0769 315.623 14.8082 315.049 14.4523L315.791 12.811C316.424 13.1886 317.26 13.4355 318.002 13.4428C318.642 13.4428 318.875 13.3193 318.875 13.0869C318.875 12.2445 315.165 12.8908 315.187 10.3998C315.194 9.31764 315.987 8.41708 317.566 8.20646V7.16064L318.926 7.17517V8.1992C319.624 8.27182 320.315 8.46065 320.861 8.77294L320.17 10.407C319.508 10.0657 318.89 9.89865 318.308 9.89139C317.646 9.89139 317.435 10.073 317.435 10.3054C317.435 11.1115 321.145 10.4724 321.123 12.9417C321.116 13.973 320.359 14.8663 318.875 15.1132H318.861Z" fill="white"/>
<g opacity="0.06">
<path d="M366.415 281.099C366.415 283.198 387.141 284.898 412.704 284.898C438.268 284.898 458.993 283.198 458.993 281.099C458.993 279 438.268 277.301 412.704 277.301C387.141 277.301 366.415 279 366.415 281.099Z" fill="black"/>
</g>
<path d="M442.429 244.06H384.719C384.353 244.06 384.057 244.356 384.057 244.721V248.069C384.057 248.434 384.353 248.73 384.719 248.73H442.429C442.795 248.73 443.091 248.434 443.091 248.069V244.721C443.091 244.356 442.795 244.06 442.429 244.06Z" fill="#3D2027"/>
<path d="M440.494 192.335H386.53C385.634 192.335 384.908 193.061 384.908 193.955V200.579C384.908 201.473 385.634 202.198 386.53 202.198H440.494C441.39 202.198 442.116 201.473 442.116 200.579V193.955C442.116 193.061 441.39 192.335 440.494 192.335Z" fill="#8C5D55"/>
<path d="M414.051 166.684H419.296C419.296 166.684 419.55 166.161 420.001 165.21C420.22 164.759 420.474 164.215 420.772 163.583C421.522 162 422.497 159.879 423.631 157.373C423.639 157.351 423.653 157.33 423.66 157.308C430.731 141.613 443.419 111.139 438.232 105.075C432.339 98.1902 425.305 108.503 420.19 128.018C419.841 129.361 419.499 130.741 419.165 132.165C417.331 140.03 415.804 149.145 414.749 159.065C414.589 160.554 414.443 162.058 414.305 163.575C414.211 164.6 414.123 165.638 414.043 166.684H414.051Z" fill="#235879"/>
<path d="M414.312 163.583L415.891 166.691H419.295C419.295 166.691 419.55 166.168 420.001 165.217L420.19 128.025C417.608 137.873 415.52 150.074 414.312 163.583Z" fill="#37A3A5"/>
<path d="M415.702 166.684H416.56L433.081 112.65C433.147 112.432 433.023 112.207 432.812 112.142C432.594 112.076 432.368 112.2 432.303 112.418L415.709 166.684H415.702Z" fill="white"/>
<path d="M400.643 155.717C401.029 156.589 401.407 157.424 401.764 158.216C402.731 160.351 403.582 162.174 404.237 163.575C405.161 165.544 405.714 166.684 405.714 166.684H410.959C410.879 165.645 410.792 164.607 410.697 163.575C410.566 162.13 410.428 160.692 410.275 159.276C409.257 149.588 407.78 140.662 406.012 132.913C405.736 131.714 405.459 130.538 405.168 129.398C400.032 108.99 392.808 98.0231 386.778 105.068C381.758 110.929 393.463 139.631 400.636 155.71L400.643 155.717Z" fill="#235879"/>
<path d="M410.697 163.583L409.118 166.691H405.714C405.714 166.691 405.459 166.168 405.008 165.217L404.819 128.025C407.401 137.873 409.489 150.074 410.697 163.583Z" fill="#37A3A5"/>
<path d="M409.307 166.684H408.449L391.928 112.65C391.863 112.432 391.986 112.207 392.197 112.142C392.416 112.076 392.641 112.2 392.707 112.418L409.3 166.684H409.307Z" fill="white"/>
<path d="M406.02 132.92C406.754 143.255 407.773 152.914 408.5 159.232C409.031 163.851 409.41 166.684 409.41 166.684H414.051C414.597 164.091 415.091 161.52 415.557 158.985C417.274 149.551 418.459 140.517 419.165 132.172C421.878 100.187 417.623 78.4431 409.817 84.2314C404.216 88.3856 404.536 112.018 406.02 132.927V132.92Z" fill="#235879"/>
<path d="M401.764 158.216C402.731 160.351 403.582 162.174 404.237 163.575C405.161 165.544 405.714 166.684 405.714 166.684H419.296C419.296 166.684 419.55 166.161 420.001 165.21C420.22 164.759 420.474 164.215 420.772 163.583C421.522 161.999 422.497 159.879 423.631 157.373C421.965 157.853 419.07 158.579 415.564 158.985C415.302 159.015 415.033 159.044 414.756 159.073C413.345 159.211 411.839 159.291 410.282 159.283C409.693 159.283 409.104 159.269 408.5 159.24C406.296 159.131 404.012 158.818 401.764 158.223V158.216Z" fill="#37A3A5"/>
<path d="M412.13 94.2175L412.683 166.691H413.505L412.952 94.2175C412.952 93.9924 412.763 93.8181 412.538 93.8108C412.312 93.8108 412.13 93.9996 412.13 94.2248V94.2175Z" fill="white"/>
<path d="M388.807 166.125L389.484 167.926L389.913 169.066L391.142 172.327L391.572 173.467L392.837 176.815L393.267 177.955L398.694 192.335H428.323L433.75 177.955L434.18 176.815L435.445 173.467L435.875 172.327L437.104 169.066L437.533 167.926L438.21 166.125C438.675 164.89 437.766 163.575 436.442 163.575H390.568C389.251 163.575 388.342 164.89 388.8 166.125H388.807Z" fill="#FBB416"/>
<path d="M389.491 167.926L389.913 169.066H437.104L437.533 167.926H389.491Z" fill="#F8A81B"/>
<path d="M391.15 172.327L391.579 173.467H435.445L435.874 172.327H391.15Z" fill="#F8A81B"/>
<path d="M392.845 176.815L393.274 177.955H433.75L434.179 176.815H392.845Z" fill="#F8A81B"/>
<path d="M421.449 202.198L423.093 207.485L445.965 281.099H450.439L435.933 208.989L434.565 202.198H421.449Z" fill="#6E4945"/>
<path d="M434.565 202.198H421.449L423.093 207.485L435.933 208.989L434.565 202.198Z" fill="#3D2027"/>
<path d="M376.448 281.099H380.921L404.477 205.306L405.437 202.198H392.328L391.994 203.847L376.448 281.099Z" fill="#6E4945"/>
<path d="M391.994 203.847L404.477 205.306L405.437 202.198H392.328L391.994 203.847Z" fill="#3D2027"/>
<path d="M385.854 238.576H441.28C442.276 238.576 443.084 237.77 443.084 236.775V235.708C443.084 234.713 442.276 233.907 441.28 233.907H385.854C384.857 233.907 384.049 234.713 384.049 235.708V236.775C384.049 237.77 384.857 238.576 385.854 238.576Z" fill="#8C5D55"/>
<path d="M76.8435 58.6479C84.9061 50.5987 84.9061 37.5483 76.8435 29.4991C68.7809 21.4499 55.7089 21.4499 47.6463 29.4991C39.5837 37.5483 39.5837 50.5987 47.6463 58.6479C55.7089 66.6971 68.7809 66.6971 76.8435 58.6479Z" fill="#F2D6BA"/>
<path d="M76.8439 55.9613C84.9065 47.9121 84.9065 34.8618 76.8439 26.8126C68.7813 18.7634 55.7092 18.7634 47.6466 26.8126C39.584 34.8618 39.584 47.9121 47.6466 55.9613C55.7092 64.0106 68.7813 64.0106 76.8439 55.9613Z" fill="#FBB416"/>
<path d="M78.8241 44.0505C80.2987 34.9108 74.0726 26.3083 64.9177 24.8362C55.7629 23.3641 47.146 29.5798 45.6715 38.7195C44.1969 47.8592 50.423 56.4617 59.5779 57.9338C68.7327 59.4059 77.3496 53.1902 78.8241 44.0505Z" fill="white"/>
<path d="M45.4631 41.3893C45.4631 41.8323 45.4777 42.2753 45.514 42.7111C46.1906 34.0831 53.4435 27.2781 62.2458 27.2781C71.0482 27.2781 78.3011 34.0904 78.9776 42.7111C79.014 42.2753 79.0285 41.8323 79.0285 41.3893C79.0285 32.144 71.4992 24.6272 62.2386 24.6272C52.9851 24.6272 45.4486 32.144 45.4486 41.3893H45.4631Z" fill="#F2D6BA"/>
<path d="M62.246 43.1325C62.377 43.1325 62.5006 43.0743 62.5807 42.9654L70.8156 31.8972C70.9538 31.7084 70.9175 31.4469 70.7283 31.3089C70.5392 31.1709 70.2773 31.2072 70.1391 31.3961L62.1005 42.1956L52.9708 38.1939C52.7598 38.0995 52.5125 38.1939 52.4179 38.4118C52.3234 38.6224 52.4179 38.8693 52.6362 38.9637L62.0714 43.0961C62.1296 43.1179 62.1806 43.1325 62.2388 43.1325H62.246Z" fill="#28100C"/>
<g opacity="0.06">
<path d="M4.25237 282.174C4.25237 284.825 22.1263 286.975 44.1759 286.975C66.2255 286.975 84.0994 284.825 84.0994 282.174C84.0994 279.523 66.2255 277.374 44.1759 277.374C22.1263 277.374 4.25237 279.523 4.25237 282.174Z" fill="black"/>
</g>
<path d="M6.94382 145.833L16.2627 281.876H72.0887L81.4076 145.833H6.94382Z" fill="#6E4945"/>
<path d="M7.56237 154.897L80.4984 159.095L81.0222 151.462H7.32958L7.56237 154.897Z" fill="#3D2027"/>
<path d="M84.1865 143.022H4.16489C3.23278 143.022 2.47716 143.777 2.47716 144.707V149.777C2.47716 150.707 3.23278 151.462 4.16489 151.462H84.1865C85.1186 151.462 85.8742 150.707 85.8742 149.777V144.707C85.8742 143.777 85.1186 143.022 84.1865 143.022Z" fill="#8C5D55"/>
<path d="M15.2879 166.96L17.1139 199.163H71.2376L73.0635 166.96H15.2879Z" fill="#3D2027"/>
<path d="M41.4771 184.39C41.4771 185.879 42.6846 187.085 44.176 187.085C45.6673 187.085 46.8749 185.879 46.8749 184.39C46.8749 182.902 45.6673 181.696 44.176 181.696C42.6846 181.696 41.4771 182.902 41.4771 184.39Z" fill="#6E4945"/>
<path d="M17.8343 206.708L19.5002 236.071H68.8517L70.5176 206.708H17.8343Z" fill="#3D2027"/>
<path d="M41.4771 222.454C41.4771 223.943 42.6846 225.148 44.176 225.148C45.6673 225.148 46.8749 223.943 46.8749 222.454C46.8749 220.965 45.6673 219.759 44.176 219.759C42.6846 219.759 41.4771 220.965 41.4771 222.454Z" fill="#6E4945"/>
<path d="M20.0312 243.486L21.5589 270.401H66.7856L68.3206 243.486H20.0312Z" fill="#3D2027"/>
<path d="M41.4771 256.944C41.4771 258.433 42.6846 259.638 44.176 259.638C45.6673 259.638 46.8749 258.433 46.8749 256.944C46.8749 255.455 45.6673 254.249 44.176 254.249C42.6846 254.249 41.4771 255.455 41.4771 256.944Z" fill="#6E4945"/>
<path d="M20.3 95.14C21.122 99.6428 22.0677 103.129 22.0677 103.129C22.0677 103.129 24.3302 108.169 26.3525 109.658C27.7638 110.696 29.0514 109.999 29.3642 104.639C29.4152 103.768 29.4443 102.773 29.437 101.647C29.437 101.647 29.7571 99.0763 29.9098 95.5394C30.2445 87.8483 29.7935 75.6036 23.5663 75.3784C17.6884 75.1678 18.7941 86.8679 20.3 95.1327V95.14Z" fill="#235879"/>
<path d="M29.9026 95.5393C29.0006 97.3477 27.4947 99.3232 25.3196 99.1561C23.0644 98.9818 21.3476 96.8902 20.2928 95.1399C21.1148 99.6427 22.0605 103.129 22.0605 103.129C22.0605 103.129 24.3229 108.169 26.3453 109.658C27.582 108.881 28.6005 107.065 29.357 104.639L29.9026 95.5393Z" fill="#37A3A5"/>
<path d="M26.069 108.445C26.2582 108.445 26.4182 108.3 26.4255 108.111C26.7747 102.766 24.9778 85.4443 24.8978 84.7036C24.876 84.5075 24.7014 84.3622 24.505 84.384C24.3085 84.4058 24.1631 84.5801 24.1849 84.7762C24.2067 84.9577 26.0545 102.78 25.7126 108.06C25.698 108.256 25.8508 108.431 26.0472 108.445H26.069Z" fill="white"/>
<path d="M24.6001 118.802H32.1148C32.1148 118.802 38.9603 118.293 36.8216 112.527C34.6828 106.753 37.4326 105.388 40.7354 101.589C44.0381 97.7909 48.9849 89.7439 43.4852 87.2674C37.9855 84.7908 32.4859 90.7607 30.2744 97.1373C29.5905 99.1054 29.365 100.943 29.125 102.722C28.994 103.681 28.8631 104.618 28.6448 105.547C28.2665 107.189 27.6336 108.816 26.3533 110.471C26.3169 110.515 26.2878 110.559 26.2514 110.602C22.7669 114.996 24.6001 118.809 24.6001 118.809V118.802Z" fill="#235879"/>
<path d="M24.5995 118.802H31.1612C32.3834 112.984 30.2665 108.206 28.6369 105.54C28.2586 107.182 27.6257 108.808 26.3454 110.464C26.309 110.508 26.2799 110.551 26.2436 110.595C22.759 114.989 24.5922 118.802 24.5922 118.802H24.5995Z" fill="#37A3A5"/>
<path d="M29.9826 118.649C30.1791 118.649 30.3391 118.497 30.3391 118.3C30.6956 105.395 39.3452 94.2176 39.4325 94.1014C39.5561 93.9417 39.527 93.7165 39.3743 93.6003C39.2215 93.4769 38.9887 93.5059 38.8723 93.6584C38.785 93.7746 29.9972 105.133 29.6262 118.279C29.6262 118.475 29.7789 118.642 29.9754 118.649H29.9826Z" fill="white"/>
<path d="M7.17599 101.582C12.8575 106.201 15.7965 106.702 15.0618 111.118C14.8217 112.578 14.618 113.994 14.618 115.257C14.618 117.814 15.4764 119.724 18.5463 120.029C23.1294 120.487 26.9777 118.802 26.9777 118.802C26.9777 118.802 28.3453 115.541 28.549 111.691C28.7455 108.111 27.938 104.029 24.1115 101.582C16.1602 96.5054 17.6297 76.4388 7.17599 78.3271C-3.27774 80.2153 1.49446 96.9629 7.17599 101.582Z" fill="#235879"/>
<path d="M14.6182 115.257C14.6182 117.814 15.4767 119.724 18.5466 120.029C23.1296 120.486 26.9779 118.802 26.9779 118.802C26.9779 118.802 28.3456 115.541 28.5493 111.691C26.7743 112.795 21.2673 115.795 14.611 115.257H14.6182Z" fill="#37A3A5"/>
<path d="M22.5335 117.981C22.7153 117.981 22.8681 117.85 22.8899 117.661C22.9045 117.56 24.0248 107.523 17.463 101.43C11.1122 95.5323 8.60971 85.8657 8.58061 85.7713C8.52969 85.5752 8.33327 85.459 8.14413 85.5099C7.95499 85.5607 7.83132 85.7568 7.88224 85.9456C7.90406 86.0473 10.4575 95.9099 16.9683 101.952C23.2682 107.799 22.1843 117.473 22.1697 117.574C22.1479 117.77 22.2861 117.952 22.4825 117.974C22.4971 117.974 22.5116 117.974 22.5262 117.974L22.5335 117.981Z" fill="white"/>
<path d="M15.3315 143.146L13.4983 127.495L13.411 126.769L13.1564 124.619L13.0764 123.893L12.829 121.801L12.7417 121.068L12.2252 116.674H38.4214L37.9049 121.068L37.8176 121.801L37.5703 123.893L37.483 124.619L37.2356 126.769L37.1483 127.495L35.3078 143.146H15.3315Z" fill="#FBB416"/>
<path d="M12.7416 121.068L12.8289 121.801H37.8174L37.9047 121.068H12.7416Z" fill="#F8A81B"/>
<path d="M13.0763 123.893L13.1563 124.619H37.4829L37.5702 123.893H13.0763Z" fill="#F8A81B"/>
<path d="M13.4107 126.769L13.4979 127.495H37.148L37.2353 126.769H13.4107Z" fill="#F8A81B"/>
<path d="M54.0689 118.104L54.2581 120.305L54.3599 121.431L54.4545 122.498L54.5854 124.002L54.6436 124.706L54.9201 127.858L55.2256 131.279L55.2329 131.439L55.422 133.61L55.5166 134.67L55.5748 135.36L55.8803 138.854L56.2586 143.189H68.3273L68.4146 142.194L68.7784 137.982L69.0039 135.44L69.0694 134.67L69.1639 133.61L69.3676 131.279L69.3749 131.206L69.5931 128.671L69.9423 124.706L69.9641 124.423L70.1315 122.498L70.1824 121.903L70.226 121.431L70.517 118.104H54.0689Z" fill="#37A3A5"/>
<path d="M54.3603 121.431L54.4549 122.498H70.1318L70.1828 121.903L70.2264 121.431H54.3603Z" fill="#37A3A5"/>
<path d="M55.4222 133.61L55.5168 134.67H69.0695L69.1641 133.61H55.4222Z" fill="#37A3A5"/>
<path d="M54.6438 124.706L54.9203 127.858L55.2258 131.279H69.3678L69.3751 131.206L69.5933 128.672L69.9352 124.706H54.6438Z" fill="white"/>
<path d="M71.3609 114.902H53.2251V118.112H71.3609V114.902Z" fill="#37A3A5"/>
<path d="M54.5928 114.902H70.0006V113.253C70.0006 112.658 69.5204 112.178 68.9239 112.178H55.6694C55.0729 112.178 54.5928 112.658 54.5928 113.253V114.902Z" fill="#37A3A5"/>
<path d="M412.828 39.022H439.693L443.621 12.2012H416.763L412.828 39.022Z" fill="#8C5D55"/>
<path d="M443.621 12.2007L447.346 39.0215H439.693L443.621 12.2007Z" fill="#3D2027"/>
<path d="M438.057 37.1118L441.432 14.1111H418.393L415.025 37.1118H438.057Z" fill="#DFDBC8"/>
<path d="M437.729 36.7268L440.988 14.496H418.72L415.461 36.7268H437.729Z" fill="white"/>
<path d="M420.721 17.212L418.262 34.0032H435.743L438.202 17.212H420.721Z" fill="#E5C09F"/>
<path d="M434.165 27.0249C435.359 24.1456 433.99 20.8446 431.106 19.6519C428.222 18.4593 424.915 19.8266 423.72 22.7059C422.526 25.5853 423.895 28.8863 426.78 30.0789C429.664 31.2716 432.97 29.9043 434.165 27.0249Z" fill="#F2D6BA"/>
<path d="M429.487 25.3025C429.487 25.3025 425.944 21.1556 420.11 21.4388L418.269 34.0104L429.494 25.3098L429.487 25.3025Z" fill="#00443C"/>
<path d="M437.395 22.739C437.395 22.739 432.39 21.7222 427.188 25.615C421.987 29.5077 418.262 34.0106 418.262 34.0106H435.743L437.395 22.739Z" fill="#006D61"/>
<g opacity="0.06">
<path d="M345.159 50.199H457.291L458.76 45.0934H343.478L345.159 50.199Z" fill="black"/>
</g>
<path d="M343.383 45.0861L458.789 45.0861V39.0145L343.383 39.0145V45.0861Z" fill="#6E4945"/>
<path d="M453.035 45.0934L450.569 50.2426H444.764L443.112 45.0934H453.035Z" fill="#3D2027"/>
<path d="M350.927 45.0934L353.393 50.2426H359.199L360.85 45.0934H350.927Z" fill="#3D2027"/>
<path d="M356.762 32.5H355.911V31.229L388.225 31.2726C389.294 31.2726 390.269 31.7083 390.967 32.4128C391.666 33.11 392.102 34.0832 392.102 35.1508C392.102 37.2933 390.364 39.0218 388.217 39.0218L355.903 38.9782V37.8743H356.762V32.5072V32.5Z" fill="#37A3A5"/>
<path d="M356.536 32.4998V37.8669L386.181 37.9032C387.628 37.9032 388.8 36.7049 388.807 35.2233C388.807 34.4825 388.516 33.8071 388.043 33.3205C387.57 32.8339 386.915 32.5361 386.188 32.5289L356.536 32.4926V32.4998Z" fill="white"/>
<path d="M356.536 33.8582V34.6788L385.417 34.7151C385.642 34.7151 385.824 34.5336 385.824 34.3084C385.824 34.0833 385.642 33.8945 385.417 33.8945L356.536 33.8582Z" fill="#E5C09F"/>
<path d="M356.536 35.877V36.6976L385.417 36.7339C385.642 36.7339 385.824 36.5524 385.824 36.3272C385.824 36.1021 385.642 35.9133 385.417 35.9133L356.536 35.877Z" fill="#E5C09F"/>
<path d="M359.65 24.758H358.799V23.4871L391.113 23.5306C392.182 23.5306 393.157 23.9664 393.856 24.6709C394.554 25.3753 394.99 26.3413 394.99 27.4089C394.99 29.5513 393.252 31.2798 391.106 31.2798L358.792 31.2363V30.1324H359.65V24.7653V24.758Z" fill="#FBB416"/>
<path d="M359.424 24.7506V30.1176L389.069 30.1539C390.516 30.1539 391.688 28.9556 391.695 27.474C391.695 26.7332 391.404 26.0578 390.931 25.5712C390.458 25.0846 389.803 24.7869 389.076 24.7796L359.424 24.7433V24.7506Z" fill="white"/>
<path d="M359.424 26.116V26.9366L388.305 26.973C388.53 26.973 388.712 26.7914 388.712 26.5663C388.712 26.3411 388.53 26.1523 388.305 26.1523L359.424 26.116Z" fill="#E5C09F"/>
<path d="M359.424 28.135V28.9557L388.305 28.992C388.53 28.992 388.712 28.8104 388.712 28.5853C388.712 28.3601 388.53 28.1713 388.305 28.1713L359.424 28.135Z" fill="#E5C09F"/>
<path d="M354.012 17.0015H353.161V15.7306L385.475 15.7742C386.544 15.7742 387.519 16.2099 388.217 16.9144C388.916 17.6116 389.352 18.5848 389.352 19.6524C389.352 21.7949 387.614 23.5234 385.468 23.5234L353.153 23.4798V22.3759H354.012V17.0088V17.0015Z" fill="#235879"/>
<path d="M353.794 17.0015V22.3686L383.438 22.4049C384.886 22.4049 386.057 21.2066 386.064 19.725C386.064 18.9842 385.773 18.3088 385.3 17.8222C384.827 17.3356 384.173 17.0378 383.445 17.0306L353.794 16.9943V17.0015Z" fill="white"/>
<path d="M353.794 18.3596V19.1803L382.674 19.2166C382.9 19.2166 383.081 19.035 383.081 18.8099C383.081 18.5848 382.9 18.3959 382.674 18.3959L353.794 18.3596Z" fill="#E5C09F"/>
<path d="M353.787 20.3788V21.1995L382.667 21.2358C382.893 21.2358 383.074 21.0542 383.074 20.8291C383.074 20.6039 382.893 20.4151 382.667 20.4151L353.787 20.3788Z" fill="#E5C09F"/>
<path d="M329.842 157.639L365.264 147.378L369.387 161.565C370.388 165.011 368.399 168.619 364.948 169.619L342.039 176.255C338.588 177.255 334.973 175.269 333.972 171.824L329.849 157.637L329.842 157.639Z" fill="#FBB416"/>
<path d="M337.047 160.213L361.163 153.408" stroke="white" stroke-width="1.05458" stroke-linecap="round" stroke-linejoin="round"/>
<path d="M358.704 158.245L362.138 157.279" stroke="white" stroke-width="1.05458" stroke-linecap="round" stroke-linejoin="round"/>
<path d="M338.015 164.084L354.798 159.349" stroke="white" stroke-width="1.05458" stroke-linecap="round" stroke-linejoin="round"/>
<path d="M339.593 168.681L349.771 165.631" stroke="white" stroke-width="1.05458" stroke-linecap="round" stroke-linejoin="round"/>
<path d="M364.748 140.939L326.825 151.924L328.59 157.999L366.513 147.014L364.748 140.939Z" fill="#F8A81B"/>
<path d="M328.594 157.969C329.365 155.63 330.158 153.038 330.929 150.699L333.722 149.886C332.755 152.348 332.107 154.57 331.475 157.134C331.475 157.134 329.438 157.736 328.601 157.962L328.594 157.969Z" fill="white"/>
<path d="M335.265 156.022C336.036 153.684 336.815 151.12 337.586 148.782L340.343 147.975C339.375 150.437 338.684 152.653 338.051 155.224L335.265 156.022Z" fill="white"/>
<path d="M342.932 153.829C343.704 151.491 344.497 148.891 345.268 146.552L348.25 145.673C347.29 148.135 346.519 150.387 345.886 152.951L342.932 153.829Z" fill="white"/>
<path d="M350.564 151.614C351.335 149.276 352.142 146.632 352.913 144.294C352.913 144.294 355.67 143.582 355.692 143.509C354.725 145.971 353.975 148.23 353.342 150.794C353.342 150.794 350.571 151.578 350.571 151.607L350.564 151.614Z" fill="white"/>
<path d="M357.94 149.464C358.711 147.126 359.511 144.533 360.282 142.194L363.054 141.388L360.69 148.665L357.94 149.472V149.464Z" fill="white"/>
<path d="M355.807 124.53L323.281 146.881L326.873 152.092L359.4 129.74L355.807 124.53Z" fill="#F8A81B"/>
<path d="M326.87 152.086C326.87 149.624 326.797 146.915 326.79 144.453L329.183 142.805C329.045 145.441 329.125 147.758 329.336 150.394C329.336 150.394 327.597 151.607 326.87 152.086Z" fill="white"/>
<path d="M332.588 148.143C332.588 145.681 332.515 143.001 332.508 140.539L334.872 138.905C334.734 141.541 334.777 143.865 334.981 146.501L332.588 148.143Z" fill="white"/>
<path d="M339.171 143.647C339.171 141.185 339.098 138.469 339.091 136.007L341.645 134.235C341.506 136.871 341.484 139.253 341.695 141.882L339.164 143.647H339.171Z" fill="white"/>
<path d="M345.719 139.144C345.719 136.682 345.646 133.923 345.639 131.461C345.639 131.461 348.025 129.914 348.025 129.841C347.886 132.477 347.879 134.859 348.09 137.496C348.09 137.496 345.704 139.108 345.719 139.144Z" fill="white"/>
<path d="M352.047 134.787C352.047 132.325 351.982 129.616 351.975 127.146L354.353 125.505L354.404 133.153L352.047 134.779V134.787Z" fill="white"/>
<path d="M336.829 172.523C338.16 173.961 340.284 174.615 342.197 174.179" stroke="white" stroke-width="1.05458" stroke-linecap="round" stroke-linejoin="round"/>
<path d="M346.169 172.589L355.285 169.938" stroke="white" stroke-width="1.05458" stroke-linecap="round" stroke-linejoin="round"/>
<path d="M88.071 184.993H133.123C135.466 184.993 137.364 186.889 137.364 189.227V219.578C137.364 222.911 134.658 225.613 131.319 225.613H89.8751C86.536 225.613 83.8298 222.911 83.8298 219.578V189.227C83.8298 186.889 85.7285 184.993 88.071 184.993Z" fill="white"/>
<path d="M88.071 184.993H133.123C135.466 184.993 137.364 186.889 137.364 189.227V189.845H83.8298V189.227C83.8298 186.889 85.7285 184.993 88.071 184.993Z" fill="#493293"/>
<path d="M87.4454 187.419C87.4454 187.767 87.1617 188.051 86.8125 188.051C86.4633 188.051 86.1796 187.767 86.1796 187.419C86.1796 187.07 86.4633 186.787 86.8125 186.787C87.1617 186.787 87.4454 187.07 87.4454 187.419Z" fill="#010101"/>
<path d="M90.0061 188.051C90.3556 188.051 90.639 187.768 90.639 187.419C90.639 187.07 90.3556 186.787 90.0061 186.787C89.6565 186.787 89.3732 187.07 89.3732 187.419C89.3732 187.768 89.6565 188.051 90.0061 188.051Z" fill="white"/>
<path d="M93.4689 188.051C93.8184 188.051 94.1018 187.768 94.1018 187.419C94.1018 187.07 93.8184 186.787 93.4689 186.787C93.1193 186.787 92.836 187.07 92.836 187.419C92.836 187.768 93.1193 188.051 93.4689 188.051Z" fill="#C7B7DA"/>
<path d="M89.2568 219.265H86.1287V222.388H89.2568V219.265Z" fill="#493293"/>
<path d="M87.3071 221.357V220.289" stroke="white" stroke-width="0.674928" stroke-miterlimit="10"/>
<path d="M88.071 221.357V220.289" stroke="white" stroke-width="0.674928" stroke-miterlimit="10"/>
<path d="M133.291 220.064H90.2392V221.785H133.291V220.064Z" fill="#E5DBED"/>
<path d="M108.128 220.064H90.2392V221.785H108.128V220.064Z" fill="#493293"/>
<path d="M136.215 194.703V208.705" stroke="#9A89C1" stroke-width="1.05458" stroke-linecap="round" stroke-linejoin="round"/>
<path d="M136.215 191.834V193.229" stroke="#9A89C1" stroke-width="1.05458" stroke-linecap="round" stroke-linejoin="round"/>
<path d="M91.8394 224.698H108.658" stroke="#9A89C1" stroke-width="1.05458" stroke-linecap="round" stroke-linejoin="round"/>
<path d="M114.304 213.131C118.413 211.453 120.382 206.767 118.702 202.665C117.021 198.562 112.328 196.597 108.219 198.274C104.109 199.952 102.14 204.637 103.821 208.74C105.501 212.842 110.194 214.808 114.304 213.131Z" fill="#493293"/>
<path d="M108.804 208.8V202.612L114.602 205.139L108.804 208.8Z" fill="white"/>
<path d="M105.53 202.322C106.491 200.157 108.898 198.734 111.255 198.93" stroke="#9A89C1" stroke-width="1.05458" stroke-linecap="round" stroke-linejoin="round"/>
<g opacity="0.06">
<path d="M231.295 295.007C303.791 295.007 362.56 289.206 362.56 282.051C362.56 274.895 303.791 269.094 231.295 269.094C158.8 269.094 100.031 274.895 100.031 282.051C100.031 289.206 158.8 295.007 231.295 295.007Z" fill="black"/>
</g>
<path d="M157.712 262.805C159.262 264.352 160.942 265.826 162.768 267.221C171.89 274.214 184.505 279.226 201.258 280.903C286.932 289.466 315.245 249.34 322.164 187.608C325.248 160.097 318.032 141.94 309.084 130.269C308.145 129.049 307.192 127.902 306.232 126.82C305.687 126.21 305.134 125.614 304.559 125.033C293.007 113.253 276.326 107.705 259.936 110.399C247.053 112.512 235.348 119.383 225.854 133.116C210.665 155.071 225.032 173.947 181.631 175.211C148.408 176.176 127.355 232.571 157.719 262.812L157.712 262.805Z" fill="#FBB416"/>
<path d="M288.875 129.5C288.875 129.5 299.008 151.142 287.311 190.869C275.613 230.595 260.118 227.465 250.108 227.465C232.619 227.465 197.206 211.022 190.288 198.066C183.37 185.109 196.428 184.34 220.878 182.422C245.336 180.505 263.58 120.93 288.875 129.5Z" fill="#F8A81B"/>
<path d="M266.905 244.133C267.094 244.133 267.29 244.06 267.436 243.908C267.712 243.617 267.705 243.159 267.407 242.876C258.663 234.575 250.311 229.687 244.841 227.044C238.897 224.175 235.063 223.282 234.903 223.245C234.511 223.158 234.118 223.398 234.03 223.79C233.943 224.182 234.183 224.574 234.576 224.662C234.751 224.705 249.977 228.336 266.396 243.929C266.534 244.06 266.716 244.133 266.898 244.133H266.905Z" fill="#F8A81B"/>
<path d="M264.017 234.408C264.25 234.408 264.483 234.299 264.621 234.088C264.846 233.754 264.759 233.304 264.424 233.079C264.082 232.846 255.942 227.458 243.342 226.085C242.942 226.041 242.586 226.332 242.542 226.731C242.498 227.131 242.789 227.487 243.19 227.53C255.433 228.866 263.537 234.226 263.617 234.284C263.741 234.372 263.886 234.408 264.024 234.408H264.017Z" fill="#F8A81B"/>
<path d="M290.439 174.303C290.802 174.303 291.115 174.034 291.159 173.664C292.214 165.246 295.844 158.811 298.695 154.897C301.802 150.641 304.697 148.353 304.726 148.332C305.039 148.085 305.097 147.627 304.85 147.307C304.602 146.988 304.144 146.937 303.824 147.184C303.7 147.278 300.769 149.595 297.546 153.996C294.578 158.056 290.81 164.73 289.704 173.482C289.653 173.881 289.937 174.245 290.337 174.295C290.366 174.295 290.395 174.295 290.431 174.295L290.439 174.303Z" fill="#F8A81B"/>
<path d="M157.712 262.805C159.261 264.352 160.942 265.826 162.768 267.221C173.309 273.539 186.178 277.701 200.349 279.327C204.743 279.836 209.18 280.083 213.618 280.083C225.854 280.083 238.119 278.18 249.678 274.44C279.752 264.715 301.452 243.908 310.779 215.859C315.893 200.477 318.402 185.523 318.242 171.405C318.119 160.097 316.278 149.298 312.794 139.304C311.63 135.971 310.364 132.964 309.084 130.27C308.145 129.049 307.192 127.902 306.232 126.82C305.686 126.21 305.133 125.614 304.559 125.033C306.843 128.94 309.287 133.901 311.375 139.893C316.751 155.34 320.759 180.977 309.324 215.373C300.157 242.949 278.806 263.408 249.213 272.98C217.772 283.148 181.405 279.022 158.723 262.725C158.41 262.5 157.988 262.543 157.726 262.812L157.712 262.805Z" fill="#F8A81B"/>
<path d="M283.346 104.502C283.346 104.502 295.174 92.4315 277.948 83.927C260.714 75.4225 240.418 88.4153 237.093 97.893C233.761 107.371 283.353 104.502 283.353 104.502H283.346Z" fill="#235879"/>
<path d="M262.765 96.2224C262.867 96.2224 262.976 96.186 263.064 96.1134C267.763 92.0972 275.642 92.4676 275.722 92.4676H275.744C275.984 92.4676 276.187 92.2788 276.195 92.0391C276.209 91.7849 276.013 91.5743 275.765 91.5598C275.431 91.538 267.443 91.1676 262.467 95.4235C262.278 95.5832 262.256 95.8738 262.416 96.0626C262.504 96.1643 262.634 96.2224 262.765 96.2224Z" fill="#37A3A5"/>
<path d="M274.318 96.7961C274.478 96.7961 274.638 96.7089 274.718 96.5564C274.834 96.3313 274.754 96.0626 274.529 95.9391C274.296 95.8156 268.847 92.9542 264.984 93.8547C264.737 93.9128 264.584 94.1525 264.642 94.3994C264.701 94.6463 264.941 94.7989 265.188 94.7408C268.724 93.9201 274.049 96.7162 274.1 96.7452C274.165 96.7816 274.238 96.7961 274.311 96.7961H274.318Z" fill="#37A3A5"/>
<path d="M155.115 255.55L149.048 266.712C149.048 266.712 141.591 268.462 132.716 269.145C119.236 270.176 115.242 268.056 114.289 271.063C113.547 273.408 123.797 278.703 128.54 279.538C133.284 280.373 143.643 284.615 150.372 285.363C157.094 286.103 160.062 277.628 161.589 274.614C163.11 271.593 167.904 261.374 167.904 261.374L155.122 255.55H155.115Z" fill="#F79A86"/>
<path d="M119.578 274.011C119.549 274.854 119.701 275.653 120.145 276.299C120.218 276.401 120.291 276.495 120.378 276.589C122.764 279.218 132.323 280.497 132.323 280.497C131.559 279.763 131.195 278.732 131.086 277.577C130.788 274.541 132.236 270.649 132.861 269.131C133.036 268.717 133.145 268.484 133.145 268.484C131.494 268.099 129.922 267.882 128.504 267.78C127.107 267.678 125.856 267.678 124.823 267.722C122.873 267.809 121.68 268.049 121.68 268.049C121.68 268.049 121.346 268.586 120.945 269.414C120.363 270.605 119.643 272.392 119.585 274.011H119.578Z" fill="#235879"/>
<path d="M123.645 272.166L126.955 272.508C126.955 272.508 127.391 270.895 127.886 269.414C128.09 268.811 128.308 268.223 128.504 267.787C127.107 267.685 125.856 267.685 124.823 267.729C124.627 268.165 124.394 268.782 124.19 269.465C123.928 270.329 123.703 271.302 123.652 272.166H123.645Z" fill="#37A3A5"/>
<path d="M115.46 272.711C115.46 272.711 146.334 282.472 150.488 283.191C154.635 283.917 156.897 283.104 156.897 283.104C156.897 283.104 156.766 284.796 156.417 286.387C156.009 288.26 154.06 289.364 152.227 288.798C143.97 286.249 116.668 277.737 114.806 276.226C112.609 274.447 113.089 272.551 115.46 272.711Z" fill="#235879"/>
<path d="M183.566 252.986L183.966 263.016C183.966 263.016 178.452 268.332 171.177 273.445C160.12 281.216 155.602 281.434 156.322 284.498C156.882 286.888 168.413 286.212 172.908 284.506C177.411 282.806 188.491 281.158 194.653 278.369C200.814 275.573 199.017 266.778 198.785 263.408C198.544 260.038 198.043 252.441 198.043 252.441L183.566 252.986Z" fill="#F79A86"/>
<path d="M162.375 284.331C162.782 285.072 163.32 285.682 164.04 286.009C164.15 286.06 164.266 286.103 164.39 286.14C167.787 287.185 176.655 283.402 176.655 283.402C175.629 283.162 174.785 282.465 174.094 281.528C172.283 279.073 171.533 274.991 171.301 273.365C171.235 272.922 171.213 272.66 171.213 272.66C169.591 273.176 168.136 273.793 166.863 274.425C165.612 275.05 164.535 275.689 163.669 276.255C162.04 277.323 161.138 278.136 161.138 278.136C161.138 278.136 161.123 278.768 161.203 279.683C161.312 281.005 161.611 282.908 162.389 284.331H162.375Z" fill="#235879"/>
<path d="M164.921 280.671L167.94 279.276C167.94 279.276 167.489 277.664 167.154 276.139C167.016 275.514 166.907 274.904 166.849 274.425C165.597 275.05 164.521 275.689 163.655 276.255C163.713 276.727 163.822 277.381 163.997 278.071C164.215 278.95 164.521 279.901 164.921 280.671Z" fill="#37A3A5"/>
<path d="M158.163 285.319C158.163 285.319 189.698 277.94 193.634 276.444C197.57 274.948 199.097 273.096 199.097 273.096C199.097 273.096 199.854 274.621 200.37 276.161C200.974 277.976 199.868 279.923 198.006 280.373C189.604 282.399 161.778 289.023 159.407 288.674C156.606 288.267 156.046 286.394 158.17 285.312L158.163 285.319Z" fill="#235879"/>
<path d="M172.836 173.315C180.838 167.171 209.58 169.698 232.095 172.879C232.736 183.062 229.593 174.608 231.492 184.623C203.382 186.061 195.482 188.276 195.482 188.276C195.482 188.276 199.687 211.117 199.483 220.667C199.279 230.218 202.669 257.852 202.669 257.852L182.402 261.665C182.402 261.665 161.378 182.11 172.836 173.315Z" fill="white"/>
<path d="M181.376 257.22C181.464 257.249 181.558 257.256 181.653 257.234L201.665 253.153C201.964 253.095 202.153 252.804 202.095 252.506C202.036 252.209 201.745 252.02 201.447 252.078L181.435 256.159C181.136 256.218 180.947 256.508 181.005 256.806C181.049 257.002 181.187 257.154 181.369 257.213L181.376 257.22Z" fill="#D8D8D8"/>
<path d="M197.817 253.334C197.904 253.363 198.006 253.371 198.101 253.349C198.399 253.284 198.581 252.993 198.523 252.703C198.501 252.601 196.362 242.506 196.238 226.187C196.115 209.751 191.066 185.269 191.015 185.03C190.957 184.732 190.666 184.543 190.368 184.608C190.069 184.666 189.88 184.957 189.946 185.255C189.997 185.502 195.023 209.875 195.14 226.201C195.264 242.637 197.424 252.833 197.446 252.935C197.49 253.131 197.628 253.276 197.81 253.334H197.817Z" fill="#D8D8D8"/>
<path d="M205.259 68.0943C206.328 68.3122 207.783 67.1212 209.151 66.6636C210.948 66.0608 213.45 64.6083 214.651 63.41C216.447 61.6234 221.452 56.0602 221.365 53.954C221.271 51.8479 216.586 56.3144 215.604 57.2077C214.621 58.101 213.625 58.3479 213.625 58.3479C213.625 58.3479 223.591 47.2797 223.329 45.6166C223.067 43.9534 216.768 49.6909 215.218 51.1144C215.218 51.1144 222.26 42.3557 221.765 41.3534C220.769 39.3417 212.665 48.8412 212.665 48.8412C212.665 48.8412 218.215 41.1719 216.928 40.3003C215.56 39.3707 209.638 47.6065 209.638 47.6065C209.638 47.6065 212.526 42.0797 211.763 40.8232C210.999 39.5596 204.037 50.7004 203.171 52.5378C202.305 54.3753 199.57 59.1468 198.865 61.7105C198.384 63.4535 201.891 67.3971 205.266 68.0871L205.259 68.0943Z" fill="#F79A86"/>
<path d="M206.685 49.778C206.75 49.5819 206.947 49.4584 207.158 49.4947C212.068 50.3808 214.607 54.6076 214.709 54.7892C214.825 54.9853 214.76 55.2467 214.563 55.3629C214.367 55.4791 214.105 55.4138 213.989 55.2177C213.967 55.1741 211.53 51.1433 207.005 50.3227C206.779 50.2791 206.627 50.0612 206.67 49.8361C206.67 49.8215 206.677 49.7998 206.685 49.7852V49.778Z" fill="#F3796B"/>
<path d="M203.637 59.8513C203.688 59.6915 203.826 59.5753 204.001 59.5608C208.976 59.1614 210.271 55.4792 210.286 55.4357C210.359 55.2178 210.599 55.1016 210.817 55.1742C211.035 55.2468 211.152 55.4792 211.086 55.6971C211.028 55.8787 209.595 59.953 204.081 60.396C203.848 60.4178 203.651 60.2435 203.63 60.0111C203.63 59.953 203.63 59.9022 203.644 59.8513H203.637Z" fill="#F3796B"/>
<path d="M230.066 102.788H230.102V102.781H229.753L229.251 102.795C228.902 102.795 228.545 102.795 228.182 102.795C227.454 102.788 226.705 102.773 225.956 102.73C224.45 102.65 222.929 102.541 221.416 102.352C220.66 102.258 219.903 102.163 219.146 102.047C218.39 101.931 217.641 101.8 216.899 101.662C216.149 101.524 215.407 101.357 214.665 101.19C213.923 101.023 213.188 100.842 212.461 100.645C206.619 99.084 201.112 96.6583 196.224 93.3538C195.918 93.1505 195.613 92.9398 195.314 92.722C195.009 92.5114 194.718 92.2935 194.42 92.0683L194.194 91.9013C194.289 91.9667 194.376 92.0538 194.478 92.141C194.667 92.3153 194.871 92.5186 195.053 92.7365C195.234 92.9616 195.402 93.194 195.54 93.4337C195.678 93.6661 195.787 93.8985 195.875 94.1091C196.049 94.5304 196.115 94.8717 196.144 95.0751C196.173 95.2857 196.166 95.3801 196.158 95.3873C196.144 95.4019 196.151 95.1114 196.238 94.7047C196.318 94.298 196.464 93.775 196.646 93.2086C196.835 92.6421 197.06 92.0248 197.33 91.3857C197.853 90.1074 198.515 88.7566 199.221 87.384C200.661 84.6387 202.342 81.8353 204.11 79.0537C204.99 77.6593 205.906 76.2649 206.83 74.885C207.289 74.1878 207.754 73.4978 208.227 72.8152L209.587 70.8252L197.228 60.0475L196.704 60.5994L196.224 61.1151L195.278 62.1464C194.66 62.8363 194.056 63.5335 193.452 64.238C192.252 65.647 191.088 67.0777 189.939 68.552C187.654 71.5006 185.472 74.5727 183.442 77.9571C182.424 79.6493 181.456 81.4286 180.54 83.3677C180.089 84.3409 179.652 85.3649 179.237 86.4543C178.83 87.551 178.445 88.7203 178.132 90.0421C177.819 91.3639 177.557 92.8382 177.506 94.6393C177.484 95.5326 177.528 96.5276 177.688 97.617C177.848 98.6991 178.146 99.9192 178.663 101.168C178.917 101.793 179.237 102.432 179.601 103.049C179.972 103.667 180.394 104.277 180.86 104.843C181.325 105.402 181.835 105.94 182.366 106.405C182.627 106.644 182.904 106.855 183.166 107.066L183.479 107.298C183.893 107.61 184.315 107.923 184.737 108.228C185.159 108.533 185.588 108.83 186.017 109.128C186.876 109.716 187.749 110.283 188.636 110.835C189.524 111.372 190.419 111.903 191.328 112.396C192.237 112.897 193.154 113.37 194.078 113.827C195.009 114.277 195.94 114.713 196.886 115.113C200.661 116.747 204.553 117.996 208.489 118.904C210.453 119.354 212.432 119.717 214.411 119.993C216.389 120.262 218.375 120.472 220.369 120.567C221.365 120.618 222.362 120.647 223.358 120.661C224.355 120.676 225.352 120.661 226.356 120.618C227.36 120.581 228.363 120.523 229.382 120.429C229.891 120.378 230.408 120.327 230.931 120.262C231.193 120.233 231.462 120.196 231.739 120.16L232.721 120.008L230.08 102.788H230.066Z" fill="#235879"/>
<path d="M182.933 97.951C182.962 98.2125 183.188 98.4231 183.464 98.4304C187.64 98.5393 192.23 97.3482 192.419 97.2974C192.71 97.2248 192.885 96.9197 192.812 96.6292C192.739 96.3387 192.434 96.1644 192.143 96.237C192.099 96.2516 187.509 97.4354 183.486 97.3337C183.188 97.3264 182.933 97.5661 182.926 97.8639C182.926 97.8929 182.926 97.9147 182.926 97.9438L182.933 97.951Z" fill="#37A3A5"/>
<path d="M187.494 100.457C187.509 100.558 187.545 100.653 187.611 100.733C187.8 100.965 188.142 101.001 188.382 100.813C188.513 100.711 191.532 98.2561 192.361 97.2248C192.55 96.9924 192.514 96.6511 192.281 96.455C192.048 96.2662 191.706 96.3025 191.51 96.5349C190.746 97.4718 187.72 99.9411 187.683 99.9628C187.531 100.086 187.465 100.268 187.487 100.449L187.494 100.457Z" fill="#37A3A5"/>
<path d="M195.948 63.5044C195.962 63.6206 196.028 63.7368 196.137 63.8022C200.29 66.286 207.085 72.205 207.151 72.2631C207.318 72.4084 207.58 72.3938 207.732 72.2268C207.885 72.0598 207.871 71.7983 207.703 71.6531C207.638 71.595 200.785 65.6324 196.573 63.105C196.377 62.9888 196.122 63.0541 196.006 63.243C195.955 63.3228 195.933 63.4173 195.948 63.5044Z" fill="#37A3A5"/>
<path d="M227.949 103.325C226.516 107.668 228.895 118.228 226.588 136.799C226.421 138.164 226.225 139.573 225.999 141.033C225.788 142.398 225.555 143.814 225.294 145.274C225.046 146.632 224.777 148.034 224.486 149.465C224.224 150.721 223.948 152.014 223.642 153.328C223.329 154.686 223.002 156.066 222.646 157.483C222.544 157.882 222.435 158.318 222.318 158.768C222.289 158.884 222.26 158.993 222.231 159.109C222.202 159.211 222.18 159.313 222.151 159.422C222.129 159.502 222.115 159.581 222.093 159.654L222.049 159.828C222.02 159.93 221.998 160.039 221.969 160.141C221.969 160.162 221.962 160.184 221.954 160.199C221.925 160.322 221.889 160.453 221.853 160.584C221.853 160.605 221.845 160.62 221.838 160.642C221.809 160.751 221.78 160.867 221.751 160.976C221.613 161.499 221.467 162.051 221.322 162.617C221.285 162.755 221.249 162.9 221.205 163.046C221.154 163.235 221.103 163.431 221.052 163.627C220.951 164.012 220.841 164.397 220.74 164.796C220.689 164.992 220.63 165.195 220.58 165.392C220.463 165.82 220.347 166.249 220.223 166.692C220.201 166.771 220.179 166.851 220.158 166.931C219.874 167.977 219.568 169.052 219.263 170.156C219.125 170.65 218.979 171.158 218.841 171.659C218.666 172.269 218.492 172.887 218.317 173.504C218.055 174.412 217.793 175.32 217.524 176.227L217.182 177.382C217.08 177.731 216.971 178.079 216.869 178.428C216.746 178.842 216.622 179.263 216.498 179.677C216.418 179.953 216.331 180.229 216.244 180.505C216.193 180.679 216.142 180.846 216.091 181.021C215.989 181.362 215.88 181.703 215.778 182.045C215.676 182.386 215.567 182.72 215.465 183.054C215.393 183.294 215.32 183.526 215.247 183.759C215.182 183.969 215.116 184.173 215.051 184.376C215.029 184.434 215.014 184.485 215 184.543C214.963 184.659 214.927 184.783 214.883 184.899C214.803 185.139 214.731 185.385 214.651 185.618C214.563 185.894 214.469 186.177 214.382 186.453C213.661 188.661 212.956 190.716 212.294 192.496C217.211 198.139 225.563 203.07 235.384 206.026L240.832 202.489L245.394 208.263C254.989 209.664 265.268 209.112 274.74 205.67C277.868 199.286 283.026 175.864 284.488 168.863C284.779 167.469 285.041 166.067 285.281 164.665C286.445 157.918 287.063 151.07 287.478 143.872C287.499 143.48 287.521 143.088 287.543 142.696C287.543 142.652 287.543 142.601 287.55 142.558C287.994 136.494 295.931 118.628 295.131 112.2C293.545 99.4616 285.412 102.817 278.079 100.849C275.671 100.202 273.648 99.3889 271.99 98.5537C271.299 98.2051 270.673 97.8565 270.106 97.5152C269.866 97.3772 269.647 97.2392 269.436 97.094C267.159 95.6196 265.915 94.3777 265.915 94.3777L249.278 92.642C247.634 94.5738 245.692 95.6995 243.648 96.4258C243.422 96.5057 243.197 96.5783 242.964 96.6509C242.622 96.7599 242.28 96.8543 241.938 96.9414C236.06 98.4666 229.84 97.6314 227.956 103.325H227.949Z" fill="#235879"/>
<path d="M269.706 192.742C269.888 192.742 270.062 192.626 270.135 192.445C279.235 168.05 283.95 125.926 283.993 125.505C284.022 125.258 283.84 125.033 283.593 125.004C283.346 124.975 283.12 125.157 283.091 125.403C283.047 125.825 278.348 167.839 269.284 192.125C269.196 192.357 269.313 192.619 269.553 192.713C269.604 192.735 269.662 192.742 269.713 192.742H269.706Z" fill="#37A3A5"/>
<path d="M253.614 102.889C253.44 103.42 254.072 104.102 255.033 104.415C255.993 104.727 256.91 104.56 257.084 104.03C257.259 103.5 256.626 102.817 255.666 102.505C254.705 102.192 253.789 102.359 253.614 102.889Z" fill="#37A3A5"/>
<path d="M246.18 101.001C246.005 101.531 246.638 102.214 247.598 102.526C248.558 102.839 249.475 102.672 249.65 102.141C249.824 101.611 249.191 100.929 248.231 100.616C247.271 100.304 246.354 100.471 246.18 101.001Z" fill="#37A3A5"/>
<path d="M244.077 104.966C244.281 104.966 244.462 104.828 244.521 104.625C244.586 104.385 244.433 104.131 244.193 104.073C237.777 102.432 237.377 98.5753 237.362 98.4156C237.341 98.1686 237.122 97.9798 236.875 98.0016C236.628 98.0234 236.439 98.2413 236.46 98.4882C236.475 98.677 236.89 103.144 243.975 104.959C244.011 104.966 244.048 104.974 244.091 104.974L244.077 104.966Z" fill="#37A3A5"/>
<path d="M234.22 145.129C242.775 145.129 250.188 142.935 255.149 140.945C261.332 138.469 265.173 135.753 265.21 135.724C265.414 135.578 265.464 135.295 265.319 135.092C265.173 134.888 264.89 134.837 264.686 134.983C264.65 135.012 260.881 137.677 254.792 140.11C249.184 142.354 240.389 144.867 230.379 144.061C230.124 144.039 229.906 144.228 229.891 144.475C229.869 144.722 230.059 144.947 230.306 144.962C231.637 145.07 232.947 145.114 234.227 145.114L234.22 145.129Z" fill="#37A3A5"/>
<path d="M260.118 161.201C260.118 161.201 239.676 156.001 226.938 155.848L223.046 172.676C223.046 172.676 243.233 176.067 256.007 178.29L260.118 161.201Z" fill="#37A3A5"/>
<path d="M271.583 108.91C275.518 108.91 278.53 107.813 280.581 106.68C283.848 104.879 285.441 102.664 285.506 102.57C285.652 102.366 285.601 102.083 285.397 101.938C285.193 101.793 284.91 101.844 284.764 102.047C284.764 102.047 283.208 104.211 280.108 105.903C277.25 107.465 272.441 108.961 265.748 107.211C265.508 107.145 265.254 107.29 265.195 107.537C265.13 107.777 265.275 108.031 265.523 108.089C267.741 108.67 269.771 108.903 271.59 108.903L271.583 108.91Z" fill="#37A3A5"/>
<path d="M219.241 170.156C219.547 169.052 219.852 167.977 220.136 166.931C219.845 167.977 219.547 169.052 219.241 170.156Z" fill="#28100C"/>
<path d="M220.725 164.796C220.834 164.396 220.937 164.012 221.039 163.627C220.937 164.012 220.827 164.396 220.725 164.796Z" fill="#28100C"/>
<path d="M225.221 143.037C225.221 143.037 225.286 143.059 225.323 143.059C225.621 143.095 225.897 142.885 225.934 142.587C226.93 134.99 228.029 125.963 228.131 123.414C228.145 123.116 227.912 122.862 227.607 122.847C227.309 122.833 227.054 123.065 227.039 123.37C226.938 125.883 225.839 134.867 224.85 142.449C224.813 142.71 224.973 142.957 225.221 143.037Z" fill="#37A3A5"/>
<path d="M245.117 58.2246C245.117 58.2246 239.843 62.3643 243.306 68.6755C243.306 68.6755 245.204 61.304 245.117 58.2246Z" fill="#28100C"/>
<path d="M266.235 86.7012C266.235 86.7012 269.654 90.0202 270.36 87.5727C271.066 85.1252 269.873 83.905 269.873 83.905C269.873 83.905 273.568 87.4492 273.626 84.7766C273.685 82.1112 271.757 79.7218 271.757 79.7218C271.757 79.7218 275.183 77.2162 274.063 73.2072C272.943 69.1983 272.804 66.2642 273.925 62.9815C275.045 59.6988 274.536 56.3071 272.914 54.8401C270.542 52.6903 267.094 53.0244 267.094 53.0244C267.094 53.0244 265.261 47.0255 258.393 47.1853C251.526 47.3451 247.525 41.9925 244.062 43.3869C240.599 44.7814 236.627 56.2055 245.946 59.5898C245.946 59.5898 264.409 71.9508 266.235 86.7012Z" fill="#28100C"/>
<path d="M248.798 89.9623L248.347 94.2981C248.813 94.7629 249.285 95.1696 249.773 95.5327C256.836 100.834 265.552 96.092 265.552 96.092L267.123 81.0729L250.988 88.9092L248.805 89.9696L248.798 89.9623Z" fill="#F79A86"/>
<path d="M248.842 89.5845L248.347 94.298C248.813 94.7628 249.285 95.1695 249.773 95.5326C256.451 93.6661 261.827 87.4348 261.827 87.4348L250.988 88.9091L248.842 89.5918V89.5845Z" fill="#28100C"/>
<path d="M245.386 70.1935C245.386 70.1935 243.226 67.027 241.531 69.7941C239.836 72.5611 240.287 78.5528 244.142 77.979L245.393 70.1935H245.386Z" fill="#F3796B"/>
<path d="M241.69 80.1141C241.69 80.1141 240.738 89.0689 250.078 90.0203C259.353 90.9717 266.439 84.3554 266.803 84.0577H266.817L267.116 82.1766L268.665 72.4593L269.494 67.2665C269.494 67.2665 271.662 57.9849 262.889 55.334C256.48 53.3949 250.231 53.8452 246.783 56.9245C246.674 57.0262 246.565 57.1279 246.463 57.2296C245.364 58.3262 244.593 59.7207 244.244 61.4274L242.971 70.7743L242.658 73.0693L241.698 80.1068L241.69 80.1141Z" fill="#F79A86"/>
<path d="M268.658 72.4665C268.658 72.4665 266.556 73.1201 265.632 75.6693C264.242 75.5241 263.275 74.2313 263.529 72.8587C263.675 72.0598 263.864 71.1084 264.082 70.0335C264.751 66.8162 265.777 65.7994 263.908 63.7804C262.038 61.7614 263.798 60.5631 262.096 59.1396C260.227 57.5781 255.614 60.3452 252.217 59.6407C248.187 58.8055 248.529 56.0748 245.015 59.205C245.015 59.205 245.946 54.4915 250.529 53.2206C255.112 51.9424 267.989 53.0681 269.96 59.1904C271.932 65.3128 268.658 72.4665 268.658 72.4665Z" fill="#28100C"/>
<path d="M261.274 65.7051C260.655 66.7654 259.302 67.1358 258.226 66.533C257.6 66.1844 256.858 65.8286 256.058 65.5671C254.93 65.1967 254.334 63.9621 254.77 62.8582C254.77 62.8582 259.426 62.9163 261.274 65.7124V65.7051Z" fill="#28100C"/>
<path d="M244.011 63.7732C244.375 64.8699 245.553 65.4727 246.659 65.1313C247.307 64.928 248.063 64.7464 248.842 64.6592C249.955 64.5358 250.74 63.5117 250.558 62.4078C250.558 62.4078 246.252 61.5581 244.011 63.7732Z" fill="#28100C"/>
<path d="M255.011 73.2148C254.945 73.8684 256.233 74.5366 257.891 74.7109C259.55 74.8852 260.954 74.493 261.02 73.8466C261.085 73.193 259.797 72.5248 258.139 72.3505C256.48 72.1762 255.076 72.5684 255.011 73.2148Z" fill="#F3796B"/>
<path d="M242.644 73.0838C242.876 73.1346 243.117 73.171 243.364 73.1927C245.023 73.367 246.427 72.9749 246.492 72.3212C246.557 71.6676 245.27 70.9994 243.611 70.8251C243.386 70.8033 243.167 70.7888 242.957 70.7888L242.644 73.0838Z" fill="#F3796B"/>
<path d="M254.836 69.5688C254.741 70.4621 255.076 71.232 255.578 71.2828C256.08 71.3336 256.56 70.651 256.655 69.7577C256.749 68.8644 256.415 68.0945 255.913 68.0437C255.411 67.9928 254.931 68.6755 254.836 69.5688Z" fill="#28100C"/>
<path d="M245.823 68.6247C245.728 69.518 246.063 70.2879 246.565 70.3387C247.067 70.3896 247.547 69.7069 247.641 68.8136C247.736 67.9203 247.401 67.1504 246.899 67.0996C246.397 67.0488 245.917 67.7314 245.823 68.6247Z" fill="#28100C"/>
<path d="M248.754 77.8846C252.035 78.2259 255.011 75.6985 255.054 75.6622C255.207 75.5315 255.229 75.2918 255.091 75.1393C254.96 74.9868 254.72 74.965 254.567 75.103C254.37 75.27 249.758 79.1773 246.004 75.8655C245.852 75.7276 245.619 75.7421 245.481 75.8946C245.343 76.0471 245.357 76.2795 245.51 76.4175C246.557 77.3471 247.67 77.7684 248.754 77.8846Z" fill="#28100C"/>
<path d="M264.257 80.1214C264.286 80.2231 265.181 83.0845 266.796 84.0577H266.803L267.101 82.1767C267.101 82.1767 265.653 81.77 264.249 80.1141L264.257 80.1214Z" fill="#28100C"/>
<path d="M266.548 74.0716C266.548 74.0716 270.636 69.6342 272.87 73.6867C274.71 77.0275 269.763 84.7186 265.77 81.4867L266.548 74.0644V74.0716Z" fill="#F79A86"/>
<path d="M266.417 80.0996C266.606 80.1214 266.781 79.998 266.817 79.8091C267.596 76.2069 270.782 75.2627 270.92 75.2192C271.117 75.1611 271.233 74.9577 271.175 74.7616C271.117 74.5655 270.913 74.4493 270.716 74.5074C270.564 74.551 266.97 75.6041 266.09 79.6494C266.046 79.8527 266.177 80.0488 266.373 80.0924C266.388 80.0924 266.403 80.0924 266.417 80.0924V80.0996Z" fill="#28100C"/>
<path d="M270.091 78.2258C270.2 78.2404 270.309 78.204 270.389 78.1169C270.535 77.9716 270.535 77.7392 270.389 77.594C270.251 77.456 269.036 76.2795 267.901 76.4465C267.698 76.4755 267.559 76.6644 267.588 76.8677C267.618 77.0711 267.807 77.2091 268.01 77.18C268.665 77.0856 269.567 77.8264 269.865 78.1169C269.931 78.1823 270.011 78.2113 270.091 78.2258Z" fill="#28100C"/>
<path d="M250.697 73.6939C250.901 73.7157 251.082 73.5705 251.104 73.3671C251.126 73.1638 250.981 72.9822 250.777 72.9604C249.417 72.8152 248.856 72.0381 248.682 71.704C250.471 68.828 252.254 65.9302 252.275 65.8939C252.385 65.7196 252.326 65.4945 252.152 65.3855C251.977 65.2766 251.752 65.3347 251.643 65.509C251.621 65.538 249.773 68.552 247.947 71.4788C247.889 71.5733 247.874 71.6895 247.911 71.7984C247.932 71.8638 248.514 73.4688 250.697 73.6939Z" fill="#28100C"/>
<g opacity="0.5">
<path d="M250.522 70.7596C250.449 72.0088 252.472 73.1417 255.054 73.3015C257.629 73.4613 259.783 72.5752 259.856 71.3261C259.928 70.0769 257.906 68.9439 255.323 68.7842C252.748 68.6316 250.595 69.5104 250.522 70.7596Z" fill="white"/>
</g>
<g opacity="0.5">
<path d="M238.584 70.2586C238.512 71.5078 240.534 72.6408 243.117 72.8005C245.692 72.9603 247.845 72.0743 247.918 70.8251C247.991 69.5759 245.968 68.443 243.386 68.2832C240.811 68.1307 238.657 69.0094 238.584 70.2586Z" fill="white"/>
</g>
<path d="M247.896 70.8105C247.962 70.8105 248.027 70.7887 248.078 70.7452C249.06 69.8882 250.355 70.7306 250.406 70.7669C250.53 70.8468 250.704 70.8178 250.784 70.6943C250.864 70.5708 250.835 70.4038 250.711 70.3167C250.129 69.9245 248.754 69.4306 247.721 70.3384C247.605 70.4401 247.598 70.6072 247.692 70.7234C247.743 70.7887 247.823 70.8178 247.896 70.8178V70.8105Z" fill="#28100C"/>
<path d="M269.72 72.0668C269.8 72.0668 269.88 72.0305 269.938 71.9579C270.033 71.8417 270.011 71.6674 269.887 71.5729C265.77 68.3847 259.972 70.6869 259.732 70.7813C259.594 70.8394 259.528 70.9992 259.579 71.1372C259.637 71.2752 259.798 71.3405 259.936 71.2897C259.994 71.2679 265.683 69.0092 269.553 72.0087C269.604 72.045 269.662 72.0668 269.72 72.0668Z" fill="#28100C"/>
<path d="M277.395 198.11C277.395 198.11 276.107 235.592 230.793 220.667C206.591 212.693 195.853 206.57 195.853 206.57C195.853 206.57 188.222 227.719 184.119 236.347C180.016 244.975 168.617 266.095 168.617 266.095L149.062 261.287C149.062 261.287 171.832 182.168 185.894 178.82C199.956 175.472 216.826 180.795 246.579 187.535C246.579 187.535 272.565 191.508 277.388 198.11H277.395Z" fill="white"/>
<path d="M168.064 258.992C168.297 259.072 168.566 258.977 168.697 258.76C175.011 248.563 181.282 233.115 186.316 220.704C188.433 215.482 190.266 210.964 191.794 207.594C193.86 203.026 194.704 202.118 195.024 201.98C196.428 201.378 201.04 203.462 206.874 206.091C215.328 209.904 228.095 215.671 242.95 218.75C250.566 220.326 257.172 219.295 262.562 215.678C272.165 209.243 274.536 197.049 274.631 196.534C274.689 196.236 274.493 195.953 274.194 195.902C273.896 195.844 273.612 196.04 273.554 196.337C273.532 196.461 271.161 208.611 261.944 214.784C256.801 218.227 250.486 219.2 243.168 217.69C228.437 214.639 215.728 208.902 207.318 205.103C200.531 202.039 196.435 200.194 194.587 200.986C192.907 201.705 190.244 208.103 185.298 220.297C180.278 232.665 174.029 248.069 167.758 258.186C167.598 258.44 167.678 258.781 167.933 258.934C167.969 258.956 168.006 258.977 168.049 258.985L168.064 258.992Z" fill="#D8D8D8"/>
<path d="M151.427 255.23C151.427 255.23 151.448 255.23 151.456 255.237L171.221 260.452C171.512 260.532 171.81 260.357 171.89 260.067C171.97 259.776 171.796 259.471 171.505 259.399L151.739 254.184C151.448 254.104 151.15 254.279 151.07 254.569C150.997 254.852 151.157 255.136 151.427 255.223V255.23Z" fill="#D8D8D8"/>
<path d="M173.506 175.93L172.804 183.363C172.793 183.479 172.878 183.581 172.994 183.592L232.933 189.238C233.049 189.249 233.152 189.164 233.163 189.048L233.865 181.615C233.876 181.5 233.791 181.397 233.675 181.386L173.736 175.74C173.62 175.729 173.517 175.814 173.506 175.93Z" fill="#28100C"/>
<path d="M166.471 182.975C164.201 182.764 162.353 181.05 161.975 178.806L154.671 135.535C154.227 132.892 156.41 130.546 159.087 130.793L186.112 133.335C187.938 133.509 189.422 134.867 189.75 136.668L198.734 186.01L166.471 182.975Z" fill="#28100C"/>
<path d="M181.922 174.063L181.602 171.739L183.435 171.877L182.882 169.734L185.312 169.923L185.865 172.066L187.364 172.182L186.811 170.04L189.24 170.228L189.793 172.371L191.917 172.531L192.238 174.855L190.404 174.717L190.899 176.685L193.023 176.845L193.343 179.169L191.51 179.031L192.063 181.173L189.633 180.984L189.08 178.842L187.582 178.726L188.135 180.868L185.705 180.679L185.152 178.537L183.028 178.377L182.708 176.053L184.541 176.191L184.046 174.223L181.922 174.063ZM186.971 176.38L188.469 176.496L187.975 174.528L186.476 174.412L186.971 176.38Z" fill="#37A3A5"/>
<path d="M158.003 142.66C158.636 145.485 161.204 147.954 163.742 148.179C166.281 148.405 167.824 146.291 167.191 143.466C166.558 140.641 163.99 138.172 161.451 137.946C158.912 137.721 157.37 139.835 158.003 142.66Z" fill="#FBB416"/>
<path d="M163.139 142.151C163.262 142.718 163.546 143.19 163.764 143.212C163.982 143.233 164.062 142.79 163.932 142.224C163.808 141.657 163.524 141.185 163.306 141.163C163.088 141.142 163.008 141.585 163.139 142.151Z" fill="#28100C"/>
<path d="M160.738 141.941C160.862 142.507 161.146 142.979 161.364 143.001C161.582 143.023 161.662 142.58 161.531 142.013C161.407 141.447 161.124 140.975 160.905 140.953C160.687 140.931 160.607 141.374 160.738 141.941Z" fill="#28100C"/>
<path d="M163.117 145.55C165.096 145.725 165.052 143.56 165.052 143.539C165.052 143.422 164.95 143.299 164.841 143.263C164.725 143.226 164.637 143.292 164.645 143.415C164.645 143.495 164.666 145.253 163.022 145.107C161.371 144.962 160.593 143.132 160.563 143.059C160.513 142.936 160.389 142.849 160.287 142.871C160.185 142.885 160.142 143.001 160.192 143.125C160.2 143.147 161.145 145.383 163.124 145.558L163.117 145.55Z" fill="#28100C"/>
<path d="M189.75 136.675L198.661 185.611L201.753 185.901L192.841 136.966C192.514 135.165 191.03 133.799 189.204 133.632L186.112 133.342C187.938 133.516 189.422 134.874 189.75 136.675Z" fill="#28100C"/>
<path d="M198.385 185.284C198.385 185.284 198.436 185.284 198.465 185.277C198.712 185.233 198.879 184.993 198.828 184.746L190.019 135.92C189.975 135.673 189.735 135.506 189.488 135.55C189.24 135.593 189.073 135.833 189.124 136.08L197.934 184.906C197.97 185.124 198.166 185.284 198.385 185.284Z" fill="#5A4C54"/>
<path d="M179.922 159.189C180.285 161.898 178.43 163.888 175.775 163.641C173.12 163.395 170.675 160.991 170.312 158.282C169.948 155.573 171.803 153.583 174.458 153.83C177.114 154.077 179.558 156.481 179.922 159.182V159.189Z" fill="white"/>
<path d="M242.324 159.146C242.513 159.146 242.695 159.022 242.753 158.833C248.034 143.095 255.666 103.892 255.738 103.492C255.789 103.245 255.622 103.006 255.375 102.962C255.127 102.911 254.887 103.078 254.844 103.325C254.771 103.717 247.154 142.863 241.887 158.55C241.807 158.79 241.938 159.044 242.171 159.124C242.222 159.138 242.266 159.146 242.317 159.146H242.324Z" fill="white"/>
<path d="M231.033 157.65C231.259 157.65 231.455 157.483 231.484 157.257C234.7 133.828 248.121 102.294 248.26 101.974C248.362 101.742 248.252 101.473 248.02 101.379C247.787 101.277 247.518 101.386 247.423 101.619C247.285 101.938 233.812 133.581 230.582 157.134C230.546 157.381 230.72 157.613 230.975 157.65C230.997 157.65 231.019 157.65 231.04 157.65H231.033Z" fill="white"/>
<path d="M263.464 218.764C264.432 218.764 265.472 218.43 266.534 217.769C270.404 215.351 275.089 208.016 276.828 197.093C276.864 196.846 276.697 196.613 276.449 196.57C276.202 196.526 275.969 196.701 275.926 196.948C274.231 207.595 269.742 214.69 266.047 217C264.788 217.784 263.595 218.038 262.598 217.733C261.798 217.486 261.172 216.942 260.707 216.055C257.484 209.991 263.086 191.726 263.144 191.544C263.217 191.304 263.086 191.05 262.846 190.978C262.606 190.905 262.351 191.036 262.278 191.275C262.038 192.038 256.509 210.093 259.907 216.484C260.489 217.581 261.311 218.292 262.344 218.605C262.707 218.714 263.086 218.772 263.471 218.772L263.464 218.764Z" fill="white"/>
<path d="M322.738 77.8336C321.727 77.7755 320.701 76.3448 319.581 75.604C318.112 74.6308 316.206 72.7135 315.413 71.3554C314.227 69.3146 311.062 63.0978 311.652 61.2313C312.241 59.3575 315.384 64.5067 316.053 65.5453C316.722 66.5911 317.559 67.0486 317.559 67.0486C317.559 67.0486 311.266 54.6877 311.899 53.2569C312.532 51.8262 316.824 58.5006 317.872 60.1564C317.872 60.1564 313.645 50.577 314.336 49.7927C315.718 48.224 320.723 58.7257 320.723 58.7257C320.723 58.7257 317.581 50.4899 318.948 50.0106C320.403 49.5022 323.742 58.3408 323.742 58.3408C323.742 58.3408 322.476 52.6687 323.473 51.7173C324.47 50.7659 328.042 62.4659 328.376 64.3324C328.711 66.1989 330.02 71.152 330.035 73.6286C330.049 75.3135 325.939 78.0225 322.731 77.8264L322.738 77.8336Z" fill="#F79A86"/>
<path d="M325.874 60.9987C325.866 60.8026 325.714 60.6429 325.517 60.6283C320.883 60.2434 317.58 63.439 317.442 63.5697C317.289 63.7222 317.289 63.9691 317.442 64.1217C317.595 64.2742 317.842 64.2742 317.995 64.1217C317.995 64.1217 321.196 61.0423 325.459 61.3982C325.67 61.4127 325.859 61.2602 325.881 61.0423C325.881 61.0278 325.881 61.006 325.881 60.9915L325.874 60.9987Z" fill="#F3796B"/>
<path d="M326.194 70.8033C326.194 70.6508 326.092 70.5056 325.932 70.4547C321.553 68.9005 321.276 65.2692 321.269 65.2329C321.254 65.0223 321.072 64.8553 320.854 64.8698C320.643 64.8843 320.483 65.0659 320.49 65.2765C320.498 65.4508 320.803 69.467 325.67 71.1955C325.874 71.2681 326.092 71.1592 326.165 70.9558C326.179 70.905 326.187 70.8542 326.187 70.8106L326.194 70.8033Z" fill="#F3796B"/>
<path d="M288.031 104.502L288.002 104.487H288.031L288.125 104.517L288.344 104.575L288.824 104.705C289.158 104.792 289.507 104.887 289.864 104.974C290.577 105.148 291.304 105.315 292.046 105.468C293.53 105.766 295.044 106.034 296.564 106.23C297.328 106.325 298.092 106.419 298.855 106.499C299.619 106.572 300.383 106.637 301.154 106.681C301.918 106.732 302.689 106.753 303.453 106.775C304.217 106.797 304.981 106.804 305.745 106.79C311.855 106.717 317.879 105.708 323.546 103.674C323.902 103.551 324.251 103.42 324.608 103.282C324.964 103.151 325.306 103.006 325.655 102.868L325.917 102.759C325.808 102.803 325.699 102.861 325.575 102.919C325.343 103.042 325.088 103.187 324.855 103.362C324.615 103.536 324.39 103.725 324.193 103.928C323.997 104.124 323.822 104.328 323.677 104.509C323.393 104.88 323.233 105.199 323.153 105.388C323.066 105.584 323.051 105.686 323.051 105.693C323.058 105.715 323.131 105.424 323.16 105.003C323.189 104.582 323.197 104.037 323.175 103.427C323.153 102.817 323.095 102.156 323.007 101.466C322.847 100.079 322.578 98.5829 322.265 97.0578C321.618 94.0002 320.752 90.8192 319.799 87.6382C319.326 86.0477 318.817 84.4499 318.293 82.8521C318.039 82.0532 317.77 81.2616 317.501 80.47L316.722 78.175L331.701 70.6582L332.057 71.3336L332.385 71.9655L333.017 73.2146C333.425 74.0498 333.825 74.885 334.225 75.7275C335.003 77.4124 335.745 79.1119 336.458 80.8476C337.87 84.3192 339.15 87.8851 340.198 91.727C340.721 93.6444 341.18 95.6343 341.536 97.7768C341.711 98.8517 341.856 99.9628 341.951 101.139C342.053 102.316 342.096 103.565 342.045 104.945C341.987 106.325 341.842 107.843 341.398 109.622C341.172 110.508 340.86 111.474 340.401 112.513C339.95 113.537 339.325 114.662 338.481 115.759C338.059 116.311 337.579 116.856 337.055 117.371C336.524 117.887 335.949 118.381 335.338 118.817C334.727 119.252 334.087 119.645 333.447 119.971C333.127 120.138 332.799 120.284 332.486 120.422L332.115 120.574C331.621 120.777 331.133 120.981 330.639 121.177C330.144 121.373 329.649 121.562 329.147 121.743C328.151 122.114 327.147 122.448 326.136 122.767C325.124 123.072 324.106 123.37 323.087 123.632C322.069 123.9 321.043 124.133 320.018 124.351C318.992 124.561 317.959 124.757 316.933 124.917C312.816 125.585 308.684 125.84 304.61 125.745C302.573 125.702 300.55 125.564 298.55 125.331C296.549 125.099 294.563 124.808 292.599 124.409C291.617 124.213 290.642 123.995 289.668 123.755C288.693 123.515 287.725 123.261 286.765 122.964C285.797 122.673 284.837 122.368 283.87 122.019C283.382 121.845 282.902 121.664 282.407 121.467C282.16 121.366 281.913 121.271 281.651 121.162L280.734 120.77L288.023 104.487L288.031 104.502Z" fill="#235879"/>
<path d="M338.073 107.298C337.971 107.545 337.702 107.69 337.44 107.625C333.381 106.652 329.256 104.313 329.082 104.219C328.82 104.066 328.725 103.739 328.878 103.478C329.031 103.216 329.358 103.122 329.62 103.274C329.664 103.296 333.788 105.628 337.695 106.572C337.986 106.644 338.168 106.935 338.095 107.233C338.095 107.262 338.08 107.283 338.073 107.305V107.298Z" fill="#37A3A5"/>
<path d="M333.017 108.547C332.981 108.641 332.915 108.721 332.828 108.787C332.581 108.961 332.239 108.91 332.064 108.663C331.97 108.532 329.685 105.373 329.147 104.168C329.023 103.892 329.147 103.572 329.423 103.449C329.7 103.325 330.02 103.449 330.144 103.725C330.638 104.829 332.923 107.995 332.952 108.024C333.068 108.184 333.083 108.38 333.017 108.547Z" fill="#37A3A5"/>
<path d="M333.257 74.6962C333.214 74.8124 333.119 74.8996 332.988 74.9359C328.274 76.3231 320.061 80.4047 319.981 80.4482C319.777 80.5499 319.53 80.47 319.421 80.2594C319.319 80.056 319.399 79.8091 319.603 79.7074C319.683 79.6639 327.961 75.5532 332.748 74.1443C332.966 74.0789 333.199 74.2024 333.265 74.4275C333.294 74.5219 333.286 74.6164 333.25 74.6962H333.257Z" fill="#37A3A5"/>
<path d="M288.642 276.814C288.758 277.323 288.896 277.824 289.056 278.311C290.126 281.586 292.09 284.201 294.76 285.283C304.871 289.379 314.379 287.963 333.73 287.512C353.074 287.062 367.441 281.949 365.652 266.044C365.506 264.788 365.266 263.618 364.939 262.522C364.509 261.084 363.927 259.784 363.236 258.607C362.429 257.22 361.469 256 360.421 254.939C354.994 249.434 346.817 247.633 339.492 250.139C332.261 252.615 319.479 253.814 306.174 254.075C291.879 254.366 286.532 267.7 288.642 276.8V276.814Z" fill="#FBB416"/>
<path d="M288.641 276.814C288.758 277.323 288.896 277.824 289.056 278.311C292.483 281.296 298.942 283.184 308.305 283.925C311.244 284.164 314.481 284.273 317.958 284.273C326.012 284.273 335.396 283.649 345.646 282.421C354.317 281.383 360.181 278.332 363.083 273.357C365.244 269.654 365.353 265.608 364.938 262.529C364.509 261.091 363.927 259.791 363.236 258.614C363.985 260.917 365.637 267.453 362.414 272.98C359.642 277.737 353.968 280.656 345.551 281.666C315.143 285.312 294.447 283.54 288.641 276.814Z" fill="#F8A81B"/>
<path d="M346.454 257.14C352.397 257.619 356.791 263.03 355.816 268.906C355.794 269.022 355.78 269.131 355.751 269.247C354.47 275.645 345.85 275.456 321.916 275.682C303.169 275.856 293.53 269.16 298.521 260.888C302.485 254.308 333.796 256.123 346.454 257.14Z" fill="#F8A81B"/>
<path d="M301.241 261.984C309.964 272.827 345.537 273.437 350.207 265.318C352.484 261.367 351.852 256.298 350.615 252.143C350.484 251.708 350.346 251.279 350.207 250.865C348.927 247.125 347.319 244.394 347.319 244.394C347.319 244.394 347.465 248.258 334.341 246.871C332.843 246.711 331.133 246.646 329.307 246.667C328.965 246.667 328.623 246.675 328.274 246.689C314.125 247.11 293.712 252.623 301.249 261.991L301.241 261.984Z" fill="#28100C"/>
<path d="M329.824 255.521C331.875 257.808 335.447 258.673 340.139 258.012C340.248 257.997 340.35 257.983 340.452 257.968C346.366 257.06 349.247 254.25 350.608 252.143C350.477 251.708 350.338 251.279 350.2 250.865C349.196 252.804 346.548 256.109 339.994 257.024C335.651 257.634 332.385 256.879 330.566 254.852C328.929 253.022 328.493 250.197 329.293 246.66C328.951 246.66 328.609 246.667 328.26 246.682C327.452 250.444 327.991 253.487 329.817 255.521H329.824Z" fill="#C8FACB"/>
<path d="M306.174 254.09C306.174 254.09 297.822 253.472 296.833 249.267C295.844 245.062 315.005 248.752 317.115 240.08C319.232 231.416 310.757 224.502 308.007 227.036C304.748 230.043 311.884 231.321 312.27 235.781C312.59 239.485 310.291 242.898 303.155 243.406C296.018 243.915 292.832 245.019 292.861 248.33C292.897 251.933 298.674 255.651 302.187 255.884C305.701 256.116 306.174 254.09 306.174 254.09Z" fill="#28100C"/>
<path d="M342.817 241.199C342.817 241.199 345.297 237.981 349.327 235.839C349.917 235.527 350.615 235.999 350.542 236.659L349.778 244.038C349.778 244.038 343.988 244.532 342.809 241.206L342.817 241.199Z" fill="#28100C"/>
<path d="M348.367 243.145C348.694 241.475 348.775 239.717 349.16 237.742C349.16 237.742 344.803 240.334 344.548 241.758C344.548 241.758 346.949 243.573 348.367 243.145Z" fill="#5A4C54"/>
<path d="M335.258 241.496C335.258 241.496 331.854 239.448 327.394 238.889C326.667 238.795 326.129 239.565 326.456 240.225L329.504 246.297C329.504 246.297 335.375 245.026 335.251 241.496H335.258Z" fill="#28100C"/>
<path d="M330.799 245.324C329.882 243.886 329.169 242.274 328.093 240.581C328.093 240.581 333.091 241.417 333.854 242.651C333.854 242.651 332.276 245.215 330.799 245.331V245.324Z" fill="#5A4C54"/>
<path d="M346.054 241.329C346.054 241.329 351.212 242.114 350.826 248.149C350.441 254.184 344.555 254.823 344.555 254.823C344.555 254.823 343.508 256.762 339.87 257.547C337.543 258.048 334.08 257.888 333.2 256.181C333.2 256.181 328.151 254.337 328.209 249.841C328.275 244.859 334.283 238.744 346.054 241.329Z" fill="#28100C"/>
<path d="M351.292 255.593C351.292 255.593 349.189 264.156 347.421 265.928C345.661 267.693 343.748 268.666 341.289 268.964C337.324 269.443 338.052 272.087 339.237 272.994C340.605 274.047 343.035 273.445 346.687 273.445C349.837 273.445 352.805 272.82 353.874 270.75C354.936 268.68 354.871 262.565 353.736 259.123C353.038 257.002 352.055 255.891 351.299 255.6L351.292 255.593Z" fill="#28100C"/>
<path d="M324.644 256.16C324.644 256.16 326.747 264.722 328.514 266.494C330.275 268.259 332.203 269.138 334.647 269.53C337.637 270.002 337.36 272.82 336.698 273.561C335.542 274.846 332.901 274.011 329.249 274.011C326.099 274.011 322.375 272.755 321.305 270.685C320.243 268.615 321.065 263.132 322.2 259.689C322.898 257.569 323.88 256.457 324.637 256.167L324.644 256.16Z" fill="#28100C"/>
<path d="M307.032 254.453C307.032 254.453 301.482 253.124 299.692 257.3C296.877 263.865 299.125 267.62 306.625 268.666C314.125 269.712 322.644 271.128 316.206 265.797C309.76 260.473 307.032 254.453 307.032 254.453Z" fill="#28100C"/>
<path d="M336.902 251.076C336.902 251.076 339.143 250.836 339.739 251.112C340.743 251.57 339.128 253.436 338.102 253.596C337.077 253.756 336.08 252.557 336.095 251.773C336.109 250.996 336.902 251.076 336.902 251.076Z" fill="#5A4C54"/>
<path d="M335.753 249.355C335.862 249.289 335.978 249.427 335.898 249.522C335.454 250.052 334.632 250.749 333.519 250.517C332.603 250.321 332.254 249.681 332.13 249.122C332.101 248.999 332.275 248.926 332.334 249.042C332.574 249.456 333.032 249.878 333.927 249.936C334.603 249.979 335.294 249.645 335.753 249.362V249.355Z" fill="#5A4C54"/>
<path d="M344.431 248.897C344.526 248.81 344.664 248.926 344.606 249.035C344.264 249.638 343.588 250.473 342.453 250.451C341.514 250.43 341.056 249.863 340.831 249.333C340.78 249.217 340.932 249.115 341.02 249.217C341.325 249.58 341.856 249.914 342.751 249.805C343.42 249.725 344.046 249.268 344.439 248.904L344.431 248.897Z" fill="#5A4C54"/>
</svg>
