<svg width="464" height="295" viewBox="0 0 464 295" fill="none" xmlns="http://www.w3.org/2000/svg">
<path d="M212.38 100.12C230.247 97.6198 247.182 90.7191 261.79 80.2666C283.613 64.6476 329.289 38.0709 372.855 51.3098C432.95 69.5692 433.219 122.395 417.566 151.091C401.914 179.787 290.912 263.814 147.006 250.445C18.2367 238.472 -6.86117 101.521 61.8191 76.7407C121.386 55.2471 141.711 110.015 212.38 100.12Z" fill="#37A3A5"/>
<g opacity="0.06">
<path d="M361.359 205.286C361.359 205.286 370.345 201.229 373.858 208.281C377.365 215.338 364.533 222.566 357.551 220.488C350.569 218.41 351.792 208.02 361.359 205.286Z" fill="black"/>
</g>
<g opacity="0.06">
<path d="M219.468 78.1365C219.468 78.1365 229.251 75.1106 231.935 82.8185C234.619 90.5264 220.47 96.323 213.556 93.2919C206.642 90.2608 209.263 79.7301 219.468 78.1365Z" fill="black"/>
</g>
<path d="M184.186 2.47904V54.6481C184.186 56.0179 183.063 57.1272 181.676 57.1272H92.2646C90.8776 57.1272 89.7543 56.0179 89.7543 54.6481V2.47904C89.7543 1.10932 90.8776 0 92.2646 0H181.676C183.063 0 184.186 1.10932 184.186 2.47904Z" fill="white"/>
<path d="M129.202 32.0347C129.202 36.2689 127.578 40.1281 124.914 43.0446C121.866 46.3777 117.463 48.4662 112.558 48.4662C103.366 48.4662 95.9193 41.1124 95.9193 32.0347C95.9193 29.7849 96.3781 27.6392 97.2061 25.6809L112.558 32.0347L111.772 15.6242C112.031 15.6085 112.294 15.6033 112.558 15.6033C121.75 15.6033 129.197 22.9623 129.197 32.0347H129.202Z" fill="#5C4DA0"/>
<path d="M110.116 12.9108C105.143 13.1399 100.745 15.52 97.8495 19.1344C96.916 20.2958 96.1408 21.5874 95.5554 22.9727L110.907 29.3214L110.116 12.9108Z" fill="#675FA6"/>
<path d="M169.262 20.7177H166.978V22.9727H169.262V20.7177Z" fill="#3E3D98"/>
<path d="M178.992 21.5613H170.807C170.792 21.5613 170.78 21.573 170.78 21.5874V22.103C170.78 22.1174 170.792 22.129 170.807 22.129H178.992C179.006 22.129 179.018 22.1174 179.018 22.103V21.5874C179.018 21.573 179.006 21.5613 178.992 21.5613Z" fill="#E8D3E7"/>
<path d="M169.262 16.697H166.978V18.9521H169.262V16.697Z" fill="#3E3D98"/>
<path d="M178.992 17.5407H170.807C170.792 17.5407 170.78 17.5524 170.78 17.5668V18.0823C170.78 18.0967 170.792 18.1084 170.807 18.1084H178.992C179.006 18.1084 179.018 18.0967 179.018 18.0823V17.5668C179.018 17.5524 179.006 17.5407 178.992 17.5407Z" fill="#E8D3E7"/>
<path d="M169.262 24.7383H166.978V26.9934H169.262V24.7383Z" fill="#675FA6"/>
<path d="M178.992 25.582H170.807C170.792 25.582 170.78 25.5936 170.78 25.608V26.1236C170.78 26.138 170.792 26.1497 170.807 26.1497H178.992C179.006 26.1497 179.018 26.138 179.018 26.1236V25.608C179.018 25.5936 179.006 25.582 178.992 25.582Z" fill="#E8D3E7"/>
<path d="M178.728 34.0659H167.263C167.105 34.0659 166.978 33.9409 166.978 33.7847C166.978 33.6284 167.105 33.5034 167.263 33.5034H178.728C178.886 33.5034 179.013 33.6284 179.013 33.7847C179.013 33.9409 178.886 34.0659 178.728 34.0659Z" fill="#E8D3E7"/>
<path d="M178.728 36.3887H167.263C167.105 36.3887 166.978 36.2637 166.978 36.1075C166.978 35.9512 167.105 35.8262 167.263 35.8262H178.728C178.886 35.8262 179.013 35.9512 179.013 36.1075C179.013 36.2637 178.886 36.3887 178.728 36.3887Z" fill="#E8D3E7"/>
<path d="M178.728 38.7063H167.263C167.105 38.7063 166.978 38.5813 166.978 38.425C166.978 38.2688 167.105 38.1438 167.263 38.1438H178.728C178.886 38.1438 179.013 38.2688 179.013 38.425C179.013 38.5813 178.886 38.7063 178.728 38.7063Z" fill="#E8D3E7"/>
<path d="M178.728 41.0291H167.263C167.105 41.0291 166.978 40.9041 166.978 40.7479C166.978 40.5916 167.105 40.4666 167.263 40.4666H178.728C178.886 40.4666 179.013 40.5916 179.013 40.7479C179.013 40.9041 178.886 41.0291 178.728 41.0291Z" fill="#E8D3E7"/>
<path d="M178.728 43.3466H167.263C167.105 43.3466 166.978 43.2217 166.978 43.0654C166.978 42.9092 167.105 42.7842 167.263 42.7842H178.728C178.886 42.7842 179.013 42.9092 179.013 43.0654C179.013 43.2217 178.886 43.3466 178.728 43.3466Z" fill="#E8D3E7"/>
<path d="M178.728 45.6695H167.263C167.105 45.6695 166.978 45.5445 166.978 45.3882C166.978 45.232 167.105 45.107 167.263 45.107H178.728C178.886 45.107 179.013 45.232 179.013 45.3882C179.013 45.5445 178.886 45.6695 178.728 45.6695Z" fill="#E8D3E7"/>
<path d="M178.728 47.987H167.263C167.105 47.987 166.978 47.862 166.978 47.7058C166.978 47.5496 167.105 47.4246 167.263 47.4246H178.728C178.886 47.4246 179.013 47.5496 179.013 47.7058C179.013 47.862 178.886 47.987 178.728 47.987Z" fill="#E8D3E7"/>
<path d="M184.186 2.47904V6.83297H89.7543V2.47904C89.7543 1.10932 90.8776 0 92.2646 0H181.676C183.063 0 184.186 1.10932 184.186 2.47904Z" fill="#28100C"/>
<path d="M174.235 3.41648C174.235 4.05187 173.713 4.56746 173.069 4.56746C172.426 4.56746 171.904 4.05187 171.904 3.41648C171.904 2.7811 172.426 2.2655 173.069 2.2655C173.713 2.2655 174.235 2.7811 174.235 3.41648Z" fill="#675FA6"/>
<path d="M178.006 3.41648C178.006 4.05187 177.483 4.56746 176.84 4.56746C176.197 4.56746 175.674 4.05187 175.674 3.41648C175.674 2.7811 176.197 2.2655 176.84 2.2655C177.483 2.2655 178.006 2.7811 178.006 3.41648Z" fill="#5C4DA0"/>
<path d="M181.618 3.41648C181.618 4.05187 181.096 4.56746 180.453 4.56746C179.809 4.56746 179.287 4.05187 179.287 3.41648C179.287 2.7811 179.809 2.2655 180.453 2.2655C181.096 2.2655 181.618 2.7811 181.618 3.41648Z" fill="#3E3D98"/>
<path d="M129.202 32.0348C129.202 36.2689 127.578 40.1281 124.914 43.0446L112.558 32.0348L111.772 15.6242C112.031 15.6085 112.294 15.6033 112.558 15.6033C121.75 15.6033 129.197 22.9623 129.197 32.0348H129.202Z" fill="#3E3D98"/>
<path d="M150.703 27.884H145.403V50.2995H150.703V27.884Z" fill="#5C4DA0"/>
<path d="M145.403 44.3883C147.281 43.8154 149.042 42.7894 150.703 41.6853V50.2994H145.403V44.3883Z" fill="#3E3D98"/>
<path d="M142.044 34.1128H136.744V50.2994H142.044V34.1128Z" fill="#5C4DA0"/>
<path d="M141.063 44.7685C141.395 44.8154 141.722 44.8466 142.044 44.857V50.2995H136.744V44.9039C137.682 44.5966 139.053 44.4769 141.063 44.7633V44.7685Z" fill="#3E3D98"/>
<path d="M159.363 21.1864H154.063V50.2994H159.363V21.1864Z" fill="#5C4DA0"/>
<path d="M159.363 37.1439V50.3046H154.063V39.3781C155.945 38.1178 157.701 37.1387 159.363 37.1439Z" fill="#3E3D98"/>
<path d="M159.146 12.6973L154.363 13.7076L155.645 14.9524L148.325 22.3218L145.756 19.8323L136.675 28.9777C136.327 29.3266 136.332 29.8891 136.686 30.2276C137.039 30.5713 137.608 30.5661 137.951 30.2172L145.778 22.3374L148.346 24.8268L156.921 16.1919L158.203 17.4366L159.136 12.6973H159.146Z" fill="#5C4DA0"/>
<path d="M141.384 163.043V74.6731C141.384 73.319 140.277 72.2253 138.906 72.2253H93.6199C92.2488 72.2253 91.1413 73.319 91.1413 74.6731V163.043C91.1413 165.778 93.3879 167.996 96.1566 167.996H136.374C139.143 167.996 141.384 165.778 141.384 163.043Z" fill="white"/>
<path d="M133.864 139.336H100.391C99.7797 139.336 99.2892 138.847 99.2892 138.248C99.2892 137.644 99.785 137.159 100.391 137.159H133.864C134.476 137.159 134.966 137.649 134.966 138.248C134.966 138.852 134.471 139.336 133.864 139.336Z" fill="#E8D3E7"/>
<path d="M133.864 146.253H100.391C99.7797 146.253 99.2892 145.763 99.2892 145.164C99.2892 144.56 99.785 144.076 100.391 144.076H133.864C134.476 144.076 134.966 144.565 134.966 145.164C134.966 145.768 134.471 146.253 133.864 146.253Z" fill="#E8D3E7"/>
<path d="M133.864 153.164H100.391C99.7797 153.164 99.2892 152.674 99.2892 152.075C99.2892 151.471 99.785 150.987 100.391 150.987H133.864C134.476 150.987 134.966 151.476 134.966 152.075C134.966 152.679 134.471 153.164 133.864 153.164Z" fill="#E8D3E7"/>
<path d="M133.864 160.08H100.391C99.7797 160.08 99.2892 159.591 99.2892 158.992C99.2892 158.387 99.785 157.903 100.391 157.903H133.864C134.476 157.903 134.966 158.393 134.966 158.992C134.966 159.596 134.471 160.08 133.864 160.08Z" fill="#E8D3E7"/>
<path d="M141.384 74.6731V81.4592H91.1413V74.6731C91.1413 73.319 92.2488 72.2253 93.6199 72.2253H138.906C140.277 72.2253 141.384 73.319 141.384 74.6731Z" fill="#28100C"/>
<path d="M129.218 76.397C129.218 77.2876 128.485 78.0115 127.583 78.0115C126.681 78.0115 125.948 77.2876 125.948 76.397C125.948 75.5064 126.681 74.7825 127.583 74.7825C128.485 74.7825 129.218 75.5064 129.218 76.397Z" fill="#675FA6"/>
<path d="M134.513 76.397C134.513 77.2876 133.78 78.0115 132.878 78.0115C131.976 78.0115 131.243 77.2876 131.243 76.397C131.243 75.5064 131.976 74.7825 132.878 74.7825C133.78 74.7825 134.513 75.5064 134.513 76.397Z" fill="#5C4DA0"/>
<path d="M139.581 76.397C139.581 77.2876 138.848 78.0115 137.946 78.0115C137.044 78.0115 136.311 77.2876 136.311 76.397C136.311 75.5064 137.044 74.7825 137.946 74.7825C138.848 74.7825 139.581 75.5064 139.581 76.397Z" fill="#3E3D98"/>
<path d="M106.741 119.28H101.088V132.764H106.741V119.28Z" fill="#5C4DA0"/>
<path d="M115.079 109.703H109.425V132.764H115.079V109.703Z" fill="#3E3D98"/>
<path d="M124.308 102.635H118.655V132.764H124.308V102.635Z" fill="#675FA6"/>
<path d="M133.347 94.3387H127.694V132.759H133.347V94.3387Z" fill="#5C4DA0"/>
<path d="M122.932 88.4328L126.85 89.8546L126.396 85.3236L122.932 88.4328Z" fill="#E8D3E7"/>
<path d="M99.5371 112.728C99.3631 112.728 99.2049 112.624 99.1416 112.458C99.0625 112.239 99.1732 111.999 99.3894 111.921C99.5582 111.859 116.566 105.422 124.862 88.1256C124.962 87.9172 125.215 87.8287 125.426 87.9277C125.637 88.0266 125.727 88.2766 125.626 88.4849C117.178 106.099 99.8588 112.64 99.6848 112.708C99.6373 112.723 99.5846 112.734 99.5371 112.734V112.728Z" fill="#E8D3E7"/>
<path d="M202.149 3.41647V17.2074C202.149 19.0302 203.647 20.5093 205.492 20.5093H230.849L238.506 23.2227C239.292 23.504 240.046 22.7384 239.746 21.9728L236.85 14.5878V3.41647C236.85 1.59365 235.352 0.114563 233.507 0.114563H205.498C203.652 0.114563 202.154 1.59365 202.154 3.41647H202.149Z" fill="#5C4DA0"/>
<path d="M224.183 10.7026C224.183 12.0202 225.264 13.0931 226.603 13.0931C227.943 13.0931 229.024 12.0254 229.024 10.7026C229.024 9.38493 227.943 8.31207 226.603 8.31207C225.264 8.31207 224.183 9.37972 224.183 10.7026Z" fill="#4A429A"/>
<path d="M216.525 10.7026C216.525 12.0202 217.606 13.0931 218.946 13.0931C220.285 13.0931 221.366 12.0254 221.366 10.7026C221.366 9.38493 220.285 8.31207 218.946 8.31207C217.606 8.31207 216.525 9.37972 216.525 10.7026Z" fill="#4A429A"/>
<path d="M208.868 10.7026C208.868 12.0202 209.949 13.0931 211.288 13.0931C212.628 13.0931 213.709 12.0254 213.709 10.7026C213.709 9.38493 212.628 8.31207 211.288 8.31207C209.949 8.31207 208.868 9.37972 208.868 10.7026Z" fill="#4A429A"/>
<path d="M284.562 4.47894H272.49C271.713 4.47894 271.082 5.10151 271.082 5.86949V17.7907C271.082 18.5587 271.713 19.1813 272.49 19.1813H284.562C285.34 19.1813 285.97 18.5587 285.97 17.7907V5.86949C285.97 5.10151 285.34 4.47894 284.562 4.47894Z" fill="#675FA6"/>
<path d="M282.732 8.80162C282.706 8.70266 282.685 8.5985 282.658 8.49955C282.569 8.14019 282.395 7.82771 282.152 7.55168C281.978 7.35378 281.777 7.18191 281.545 7.05171C281.229 6.87463 280.876 6.94755 280.644 7.22357C280.227 7.71834 279.816 8.2131 279.404 8.71308C279.151 9.02035 279.193 9.437 279.504 9.71303C279.726 9.90572 279.963 10.088 280.195 10.2755C280.227 10.3015 280.259 10.3172 280.285 10.3328C279.737 11.7962 278.803 12.9212 277.464 13.7389C277.3 13.6034 277.131 13.4628 276.963 13.3274C276.873 13.2545 276.788 13.1816 276.699 13.1139C276.43 12.9108 276.119 12.8899 275.839 13.0722C275.75 13.1295 275.676 13.2128 275.607 13.2962C275.233 13.7441 274.864 14.192 274.489 14.6398C274.368 14.7805 274.294 14.9367 274.268 15.119C274.273 15.1867 274.283 15.2492 274.289 15.3169C274.352 15.4315 274.399 15.5617 274.489 15.6502C274.711 15.8637 274.948 16.0616 275.238 16.1866C275.576 16.3377 275.929 16.4262 276.298 16.395C276.541 16.3741 276.783 16.3221 277.021 16.2596C277.627 16.0929 278.181 15.8065 278.698 15.4627C279.214 15.119 279.679 14.7232 280.111 14.2805C280.691 13.6868 281.208 13.0358 281.677 12.3483C282.046 11.8067 282.363 11.2442 282.569 10.6192C282.674 10.3067 282.743 9.98385 282.764 9.65574C282.774 9.52554 282.774 9.39013 282.78 9.25993L282.732 8.80682V8.80162Z" fill="white"/>
<path d="M306.48 4.21332H293.881C293.188 4.21332 292.626 4.76827 292.626 5.45284V17.8949C292.626 18.5795 293.188 19.1344 293.881 19.1344H306.48C307.173 19.1344 307.735 18.5795 307.735 17.8949V5.45284C307.735 4.76827 307.173 4.21332 306.48 4.21332Z" fill="#5C4DA0"/>
<path d="M305.008 11.3952C305.008 13.2545 303.954 14.2232 302.688 14.2232C301.95 14.2232 301.406 13.9419 301.132 13.3743C300.858 13.9107 300.383 14.2232 299.634 14.2232C298.569 14.2232 297.546 13.2961 297.546 11.7962C297.546 10.2963 298.543 9.37969 299.634 9.37969C300.157 9.37969 300.563 9.54634 300.847 9.85883V9.46822H302.741V12.2545C302.741 12.666 302.909 12.791 303.126 12.791C303.4 12.791 303.627 12.5201 303.627 11.4265C303.627 9.66092 302.292 8.41619 300.262 8.41619C298.242 8.41619 296.882 9.81716 296.882 11.6712C296.882 13.5253 298.216 14.9419 300.225 14.9419C300.879 14.9419 301.549 14.8169 302.219 14.5148L302.635 15.7127C302.045 15.9939 301.106 16.1814 300.23 16.1814C297.261 16.1814 295.357 14.2232 295.357 11.6712C295.357 9.15574 297.261 7.18188 300.267 7.18188C303.11 7.18188 305.014 9.06199 305.014 11.4004L305.008 11.3952ZM300.884 11.7962C300.884 11.2129 300.578 10.9109 300.172 10.9109C299.766 10.9109 299.471 11.2129 299.471 11.7962C299.471 12.3795 299.766 12.692 300.172 12.692C300.578 12.692 300.884 12.3899 300.884 11.7962Z" fill="white"/>
<path d="M326.847 4.21332H314.248C313.555 4.21332 312.993 4.76827 312.993 5.45284V17.8949C312.993 18.5795 313.555 19.1344 314.248 19.1344H326.847C327.54 19.1344 328.102 18.5795 328.102 17.8949V5.45284C328.102 4.76827 327.54 4.21332 326.847 4.21332Z" fill="#3E3D98"/>
<path d="M321.336 15.1138L321.325 16.1762L319.96 16.1658L319.97 15.1503C319 15.0825 318.061 14.8169 317.486 14.4628L318.235 12.8223C318.873 13.2024 319.722 13.4472 320.471 13.4524C321.12 13.4576 321.352 13.3274 321.357 13.0983C321.362 12.2546 317.607 12.9056 317.629 10.4057C317.639 9.32244 318.441 8.42144 320.033 8.21312L320.044 7.17151L321.41 7.18192L321.399 8.20791C322.117 8.28082 322.813 8.46832 323.361 8.7808L322.66 10.4109C321.995 10.0724 321.368 9.90053 320.772 9.90053C320.102 9.89532 319.886 10.0828 319.886 10.312C319.88 11.114 323.635 10.4786 323.614 12.9472C323.604 13.9784 322.844 14.8742 321.336 15.119V15.1138Z" fill="white"/>
<g opacity="0.06">
<path d="M369.406 281.094C369.406 283.193 390.359 284.891 416.206 284.891C442.053 284.891 463.005 283.193 463.005 281.094C463.005 278.996 442.053 277.298 416.206 277.298C390.359 277.298 369.406 278.996 369.406 281.094Z" fill="black"/>
</g>
<path d="M446.24 244.055H387.912C387.539 244.055 387.237 244.353 387.237 244.721V248.055C387.237 248.423 387.539 248.721 387.912 248.721H446.24C446.613 248.721 446.915 248.423 446.915 248.055V244.721C446.915 244.353 446.613 244.055 446.24 244.055Z" fill="#3D2027"/>
<path d="M444.294 192.334H389.742C388.836 192.334 388.102 193.059 388.102 193.953V200.573C388.102 201.467 388.836 202.192 389.742 202.192H444.294C445.2 202.192 445.934 201.467 445.934 200.573V193.953C445.934 193.059 445.2 192.334 444.294 192.334Z" fill="#8C5D55"/>
<path d="M417.561 166.684H422.861C422.861 166.684 423.12 166.163 423.579 165.21C423.795 164.762 424.058 164.215 424.359 163.58C425.113 161.997 426.105 159.877 427.244 157.372C427.254 157.351 427.265 157.33 427.275 157.304C434.427 141.607 447.247 111.135 442.005 105.073C436.046 98.1927 428.937 108.499 423.768 128.014C423.415 129.352 423.067 130.738 422.735 132.16C420.884 140.029 419.338 149.143 418.273 159.064C418.115 160.549 417.967 162.054 417.825 163.575C417.73 164.601 417.646 165.637 417.561 166.679V166.684Z" fill="#235879"/>
<path d="M417.825 163.58L419.423 166.684H422.861C422.861 166.684 423.12 166.163 423.579 165.21L423.768 128.019C421.158 137.873 419.043 150.065 417.825 163.58Z" fill="#235879"/>
<path d="M419.233 166.684H420.098L436.795 112.655C436.863 112.437 436.737 112.213 436.52 112.145C436.299 112.077 436.067 112.202 436.004 112.416L419.233 166.684Z" fill="#235879"/>
<path d="M404.008 155.716C404.403 156.591 404.783 157.424 405.141 158.216C406.122 160.351 406.977 162.174 407.641 163.58C408.575 165.548 409.134 166.684 409.134 166.684H414.434C414.355 165.642 414.265 164.606 414.17 163.58C414.038 162.132 413.896 160.7 413.748 159.283C412.715 149.596 411.227 140.67 409.44 132.92C409.165 131.717 408.881 130.55 408.591 129.41C403.396 108.999 396.092 98.0312 389.995 105.078C384.922 110.937 396.751 139.644 404.008 155.716Z" fill="#235879"/>
<path d="M414.175 163.58L412.578 166.684H409.139C409.139 166.684 408.881 166.163 408.422 165.21L408.232 128.019C410.842 137.873 412.957 150.065 414.175 163.58Z" fill="#235879"/>
<path d="M412.773 166.684H411.908L395.211 112.655C395.142 112.437 395.269 112.213 395.485 112.145C395.707 112.077 395.939 112.202 396.002 112.416L412.773 166.684Z" fill="#235879"/>
<path d="M409.445 132.92C410.189 143.253 411.217 152.914 411.955 159.236C412.493 163.856 412.873 166.684 412.873 166.684H417.567C418.115 164.09 418.621 161.523 419.091 158.981C420.826 149.549 422.023 140.508 422.74 132.165C425.488 100.182 421.184 78.4333 413.289 84.2247C407.631 88.3807 407.952 112.01 409.445 132.915V132.92Z" fill="#235879"/>
<path d="M405.141 158.216C406.122 160.351 406.977 162.174 407.641 163.58C408.575 165.548 409.134 166.684 409.134 166.684H422.861C422.861 166.684 423.12 166.163 423.579 165.21C423.795 164.762 424.058 164.215 424.359 163.58C425.113 161.997 426.105 159.877 427.244 157.372C425.562 157.851 422.635 158.58 419.085 158.981C418.816 159.012 418.547 159.038 418.273 159.064C416.844 159.205 415.325 159.283 413.754 159.278C413.158 159.278 412.562 159.262 411.955 159.231C409.724 159.122 407.42 158.809 405.147 158.21L405.141 158.216Z" fill="#235879"/>
<path d="M415.62 94.2137L416.18 166.684H417.007L416.448 94.2085C416.448 93.9846 416.259 93.8075 416.032 93.8023C415.805 93.8023 415.62 93.9898 415.62 94.2137Z" fill="#235879"/>
<path d="M392.047 166.127L392.732 167.923L393.165 169.064L394.409 172.329L394.842 173.47L396.118 176.819L396.55 177.954L402.035 192.334H431.99L437.475 177.954L437.907 176.819L439.184 173.47L439.616 172.329L440.861 169.064L441.293 167.923L441.979 166.127C442.448 164.892 441.525 163.58 440.196 163.58H393.819C392.484 163.58 391.567 164.897 392.036 166.127H392.047Z" fill="#FBB416"/>
<path d="M392.732 167.923L393.165 169.064H440.871L441.304 167.923H392.732Z" fill="#F8A81B"/>
<path d="M394.409 172.324L394.847 173.465H439.189L439.627 172.324H394.409Z" fill="#F8A81B"/>
<path d="M396.123 176.819L396.556 177.954H437.48L437.913 176.819H396.123Z" fill="#F8A81B"/>
<path d="M425.039 202.192L426.706 207.484L449.826 281.094H454.346L439.685 208.984L438.303 202.192H425.039Z" fill="#6E4945"/>
<path d="M438.303 202.192H425.039L426.706 207.484L439.685 208.984L438.303 202.192Z" fill="#3D2027"/>
<path d="M379.553 281.094H384.073L407.879 205.307L408.859 202.192H395.601L395.269 203.843H395.264L379.553 281.094Z" fill="#6E4945"/>
<path d="M395.269 203.843L407.879 205.307L408.859 202.192H395.601L395.269 203.843Z" fill="#3D2027"/>
<path d="M388.55 238.576H445.612C446.335 238.576 446.92 237.998 446.92 237.284V235.201C446.92 234.488 446.335 233.91 445.612 233.91H388.55C387.828 233.91 387.242 234.488 387.242 235.201V237.284C387.242 237.998 387.828 238.576 388.55 238.576Z" fill="#8C5D55"/>
<path d="M76.6737 58.647C84.8254 50.597 84.8254 37.5452 76.6737 29.4952C68.5221 21.4451 55.3057 21.4451 47.154 29.4952C39.0024 37.5452 39.0024 50.597 47.154 58.6471C55.3057 66.6971 68.5221 66.6971 76.6737 58.647Z" fill="#F2D6BA"/>
<path d="M76.6782 55.9641C84.8298 47.914 84.8298 34.8623 76.6782 26.8122C68.5265 18.7621 55.3101 18.7621 47.1585 26.8122C39.0068 34.8623 39.0068 47.914 47.1585 55.9641C55.3101 64.0141 68.5265 64.0141 76.6782 55.9641Z" fill="#FBB416"/>
<path d="M78.6731 44.0541C80.1636 34.9159 73.8704 26.3147 64.6168 24.8428C55.3633 23.3709 46.6535 29.5857 45.1631 38.7239C43.6726 47.8622 49.9658 56.4634 59.2194 57.9353C68.4729 59.4072 77.1827 53.1924 78.6731 44.0541Z" fill="white"/>
<path d="M44.9483 41.3884C44.9483 41.8363 44.9642 42.279 45.0011 42.7113C45.6867 34.0867 53.0119 27.2746 61.9193 27.2746C70.8267 27.2746 78.152 34.0867 78.8376 42.7113C78.8745 42.2738 78.8903 41.8311 78.8903 41.3884C78.8903 32.1493 71.2803 24.6289 61.9193 24.6289C52.5637 24.6289 44.9483 32.1441 44.9483 41.3884Z" fill="#F2D6BA"/>
<path d="M61.914 43.1279C62.0459 43.1279 62.1725 43.0654 62.2568 42.9561L70.5841 31.8889C70.7265 31.7015 70.6843 31.4411 70.4945 31.3004C70.3046 31.1598 70.0409 31.2015 69.8985 31.389L61.7769 42.1905L52.5478 38.1907C52.3316 38.097 52.0837 38.1907 51.9888 38.4042C51.8939 38.6178 51.9888 38.8625 52.205 38.9563L61.7453 43.0915C61.798 43.1175 61.856 43.1279 61.914 43.1279Z" fill="#28100C"/>
<g opacity="0.06">
<path d="M3.29082 282.173C3.29082 284.823 21.3588 286.969 43.6457 286.969C65.9327 286.969 84.0006 284.818 84.0006 282.173C84.0006 279.527 65.9327 277.376 43.6457 277.376C21.3588 277.376 3.29082 279.527 3.29082 282.173Z" fill="black"/>
</g>
<path d="M6.00681 145.836L15.4258 281.87H71.8656L81.2846 145.836H6.00681Z" fill="#6E4945"/>
<path d="M6.63439 154.898L80.367 159.09L80.8943 151.461H6.39707L6.63439 154.898Z" fill="#3D2027"/>
<path d="M3.20117 143.018H84.0902C85.0342 143.018 85.799 143.774 85.799 144.706V149.773C85.799 150.706 85.0342 151.461 84.0902 151.461H3.20117C2.25717 151.461 1.49247 150.706 1.49247 149.773V144.706C1.49247 143.774 2.25717 143.018 3.20117 143.018Z" fill="#8C5D55"/>
<path d="M14.4396 166.955L16.2907 199.161H71.0007L72.8518 166.955H14.4396Z" fill="#3D2027"/>
<path d="M40.9139 184.386C40.9139 185.876 42.1374 187.084 43.6457 187.084C45.154 187.084 46.3775 185.876 46.3775 184.386C46.3775 182.897 45.154 181.688 43.6457 181.688C42.1374 181.688 40.9139 182.897 40.9139 184.386Z" fill="#6E4945"/>
<path d="M17.0132 206.703L18.7008 236.071H68.5906L70.2782 206.703H17.0132Z" fill="#3D2027"/>
<path d="M40.9139 222.452C40.9139 223.941 42.1374 225.15 43.6457 225.15C45.154 225.15 46.3775 223.941 46.3775 222.452C46.3775 220.962 45.154 219.754 43.6457 219.754C42.1374 219.754 40.9139 220.962 40.9139 222.452Z" fill="#6E4945"/>
<path d="M19.2387 243.487L20.7839 270.397H66.5075L68.0527 243.487H19.2387Z" fill="#3D2027"/>
<path d="M40.9139 256.945C40.9139 258.434 42.1374 259.642 43.6457 259.642C45.154 259.642 46.3775 258.434 46.3775 256.945C46.3775 255.455 45.154 254.247 43.6457 254.247C42.1374 254.247 40.9139 255.455 40.9139 256.945Z" fill="#6E4945"/>
<path d="M19.5077 95.1355C20.3409 99.6405 21.2955 103.13 21.2955 103.13C21.2955 103.13 23.5843 108.171 25.6252 109.661C27.0492 110.697 28.3518 110.005 28.6735 104.64C28.7262 103.771 28.7526 102.776 28.7473 101.646C28.7473 101.646 29.069 99.0728 29.2219 95.5418C29.5595 87.8495 29.1007 75.6053 22.809 75.3866C16.8655 75.1783 17.9836 86.8704 19.5077 95.146V95.1355Z" fill="#235879"/>
<path d="M29.2219 95.5366C28.3043 97.3438 26.7907 99.3228 24.5916 99.1562C22.308 98.9791 20.573 96.8907 19.5077 95.1356C20.3409 99.6405 21.2955 103.13 21.2955 103.13C21.2955 103.13 23.5843 108.171 25.6252 109.661C26.8751 108.88 27.9035 107.067 28.6735 104.64L29.2219 95.5418V95.5366Z" fill="#3E3D98"/>
<path d="M25.3405 108.447C25.5303 108.447 25.6885 108.302 25.7044 108.114C26.0577 102.771 24.2382 85.4434 24.1591 84.709C24.138 84.5111 23.964 84.3705 23.7583 84.3913C23.5579 84.4122 23.4155 84.5892 23.4366 84.7871C23.4577 84.9642 25.3246 102.786 24.9766 108.067C24.966 108.265 25.1137 108.437 25.3141 108.447C25.3246 108.447 25.3299 108.447 25.3405 108.447Z" fill="white"/>
<path d="M23.8533 118.801H31.4528C31.4528 118.801 38.3719 118.291 36.2097 112.52C34.0475 106.75 36.8267 105.38 40.165 101.578C43.5033 97.7761 48.5081 89.7296 42.9443 87.2558C37.3857 84.782 31.8219 90.7452 29.5911 97.1251C28.9002 99.0937 28.6735 100.932 28.4256 102.708C28.2938 103.661 28.1566 104.604 27.9404 105.536C27.5554 107.182 26.9226 108.802 25.6252 110.463C25.5883 110.505 25.5567 110.551 25.5198 110.593C21.9969 114.989 23.8533 118.801 23.8533 118.801Z" fill="#235879"/>
<path d="M23.8533 118.801H30.4877C31.727 112.978 29.5858 108.208 27.9404 105.536C27.5554 107.182 26.9226 108.802 25.6252 110.463C25.5883 110.505 25.5567 110.551 25.5198 110.593C21.9969 114.989 23.8533 118.801 23.8533 118.801Z" fill="#3E3D98"/>
<path d="M29.3011 118.65C29.4962 118.65 29.6597 118.494 29.665 118.301C30.0288 105.395 38.7675 94.219 38.8571 94.1044C38.9784 93.9481 38.9521 93.7242 38.7938 93.5992C38.6356 93.4794 38.4089 93.5055 38.2823 93.6617C38.1926 93.7763 29.3063 105.135 28.9372 118.28C28.9319 118.478 29.0901 118.645 29.2905 118.65H29.3011Z" fill="white"/>
<path d="M6.24414 101.583C11.9925 106.208 14.9564 106.703 14.2128 111.124C13.9649 112.583 13.7645 113.999 13.7645 115.259C13.7698 117.811 14.6294 119.723 17.7357 120.03C22.3713 120.483 26.2634 118.806 26.2634 118.806C26.2634 118.806 27.6451 115.546 27.856 111.697C28.0512 108.119 27.239 104.031 23.3681 101.583C15.3308 96.5053 16.8128 76.4438 6.24941 78.3292C-4.31395 80.2145 0.501005 96.9636 6.24941 101.583H6.24414Z" fill="#235879"/>
<path d="M13.7698 115.26C13.7751 117.811 14.6347 119.723 17.741 120.03C22.3766 120.483 26.2686 118.806 26.2686 118.806C26.2686 118.806 27.6504 115.546 27.8613 111.697C26.0682 112.801 20.4991 115.801 13.7751 115.26H13.7698Z" fill="#3E3D98"/>
<path d="M21.7648 117.978C21.9442 117.978 22.1024 117.843 22.1235 117.66C22.134 117.561 23.2731 107.526 16.6335 101.427C10.21 95.5314 7.67861 85.8652 7.65751 85.7662C7.61005 85.5735 7.40964 85.459 7.21451 85.5058C7.01938 85.5527 6.90336 85.7506 6.95082 85.9433C6.97719 86.0423 9.55607 95.9115 16.1377 101.953C22.5084 107.802 21.4115 117.473 21.401 117.572C21.3746 117.77 21.517 117.947 21.7174 117.973C21.7332 117.973 21.749 117.973 21.7596 117.973L21.7648 117.978Z" fill="white"/>
<path d="M14.4923 143.143L12.6307 127.493L12.5463 126.764L12.2932 124.618L12.2035 123.889L11.9556 121.796L11.8713 121.067L11.3492 116.671H37.8287L37.3066 121.067L37.217 121.796L36.9691 123.889L36.8847 124.618L36.6316 126.764L36.5419 127.493L34.6856 143.143H14.4923Z" fill="#FBB416"/>
<path d="M11.8713 121.067L11.9556 121.796H37.217L37.3066 121.067H11.8713Z" fill="#F8A81B"/>
<path d="M12.2035 123.889L12.2932 124.618H36.8847L36.9691 123.889H12.2035Z" fill="#F8A81B"/>
<path d="M12.5463 126.764L12.6307 127.493H36.5419L36.6316 126.764H12.5463Z" fill="#F8A81B"/>
<path d="M53.6448 118.108L53.8399 120.301L53.9401 121.431L54.035 122.499L54.1722 123.999L54.2354 124.707L54.5097 127.853L54.8156 131.274L54.8261 131.436L55.0212 133.607L55.1109 134.67L55.1742 135.357L55.48 138.852L55.8598 143.185H68.0633L68.1529 142.196L68.5221 137.977L68.7489 135.435L68.8121 134.67L68.9071 133.607L69.1127 131.274L69.118 131.207L69.3448 128.67L69.6929 124.707L69.7192 124.42L69.888 122.499L69.9407 121.9L69.9829 121.431L70.2782 118.108H53.6448Z" fill="#4A429A"/>
<path d="M53.9401 121.431L54.035 122.499H69.888L69.9407 121.9L69.9829 121.431H53.9401Z" fill="#3E3D98"/>
<path d="M55.0212 133.607L55.1109 134.67H68.8121L68.9071 133.607H55.0212Z" fill="#3E3D98"/>
<path d="M54.2302 124.707L54.5097 127.853L54.8156 131.274H69.1127L69.118 131.207L69.3448 128.67L69.6929 124.707H54.2302Z" fill="white"/>
<path d="M71.1326 114.9H52.7957V118.108H71.1326V114.9Z" fill="#4A429A"/>
<path d="M54.1774 114.9H69.7509V112.947C69.7509 112.52 69.4028 112.176 68.9704 112.176H54.9579C54.5255 112.176 54.1774 112.52 54.1774 112.947V114.9Z" fill="#3E3D98"/>
<path d="M416.327 39.0187H443.482L447.458 12.2025H420.304L416.327 39.0187Z" fill="#8C5D55"/>
<path d="M447.458 12.2025L451.218 39.0187H443.482L447.458 12.2025Z" fill="#3D2027"/>
<path d="M441.831 37.1074L445.238 14.1138H421.954L418.547 37.1074H441.831Z" fill="#DFDBC8"/>
<path d="M441.499 36.7272L444.795 14.494H422.286L418.99 36.7272H441.499Z" fill="white"/>
<path d="M424.306 17.2178L421.817 34.0034H439.495L441.979 17.2178H424.306Z" fill="#E5C09F"/>
<path d="M437.894 27.021C439.101 24.143 437.718 20.8436 434.803 19.6515C431.889 18.4594 428.548 19.8261 427.341 22.704C426.134 25.582 427.518 28.8814 430.432 30.0735C433.346 31.2656 436.687 29.8989 437.894 27.021Z" fill="#F2D6BA"/>
<path d="M433.166 25.3007C433.166 25.3007 429.58 21.1551 423.684 21.4364L421.822 34.0034L433.166 25.3007Z" fill="#00443C"/>
<path d="M441.161 22.7331C441.161 22.7331 436.099 21.7176 430.846 25.608C425.588 29.4984 421.817 34.0034 421.817 34.0034H439.49L441.161 22.7331Z" fill="#006D61"/>
<g opacity="0.06">
<path d="M347.921 50.1952H461.275L462.763 45.0913H346.223L347.921 50.1952Z" fill="black"/>
</g>
<path d="M346.123 45.0913L462.789 45.0913V39.0187L346.123 39.0187V45.0913Z" fill="#6E4945"/>
<path d="M456.972 45.0913L454.483 50.2421H448.613L446.941 45.0913H456.972Z" fill="#3D2027"/>
<path d="M353.749 45.0913L356.238 50.2421H362.108L363.779 45.0913H353.749Z" fill="#3D2027"/>
<path d="M359.65 32.4983H358.785V31.2223L391.451 31.264C392.532 31.264 393.513 31.6962 394.225 32.4045C394.931 33.1076 395.369 34.0711 395.369 35.144C395.369 37.2845 393.608 39.0135 391.44 39.0135L358.774 38.9719V37.8678H359.639V32.4983H359.65Z" fill="#4A429A"/>
<path d="M359.423 32.4983V37.8678L389.389 37.9043C390.85 37.9043 392.036 36.7064 392.041 35.2221C392.041 34.4773 391.746 33.8107 391.266 33.3212C390.786 32.8368 390.127 32.5347 389.394 32.5347L359.418 32.4983H359.423Z" fill="white"/>
<path d="M359.423 33.8575V34.6804L388.619 34.7169C388.846 34.7169 389.035 34.5346 389.035 34.3054C389.035 34.0763 388.851 33.894 388.624 33.894L359.423 33.8575Z" fill="#E5C09F"/>
<path d="M359.418 35.8783V36.7012L388.613 36.7376C388.84 36.7376 389.03 36.5553 389.03 36.3314C389.03 36.1022 388.846 35.92 388.619 35.92L359.418 35.8835V35.8783Z" fill="#E5C09F"/>
<path d="M362.566 24.7539H361.701V23.4779L394.367 23.5196C395.448 23.5196 396.429 23.9518 397.141 24.6601C397.848 25.3632 398.286 26.3267 398.286 27.3996C398.286 29.5401 396.524 31.2692 394.357 31.2692L361.691 31.2275V30.1234H362.556V24.7539H362.566Z" fill="#FBB416"/>
<path d="M362.345 24.7539V30.1234L392.31 30.1599C393.771 30.1599 394.958 28.962 394.963 27.4777C394.963 26.733 394.668 26.0663 394.188 25.5768C393.708 25.0924 393.049 24.7904 392.316 24.7904L362.34 24.7539H362.345Z" fill="white"/>
<path d="M362.34 26.1132V26.936L391.535 26.9725C391.762 26.9725 391.952 26.7902 391.952 26.5663C391.952 26.3371 391.767 26.1548 391.54 26.1548L362.34 26.1184V26.1132Z" fill="#E5C09F"/>
<path d="M362.34 28.1339V28.9568L391.535 28.9932C391.762 28.9932 391.952 28.811 391.952 28.5818C391.952 28.3527 391.767 28.1704 391.54 28.1704L362.34 28.1339Z" fill="#E5C09F"/>
<path d="M356.871 16.9991H356.006V15.7231L388.671 15.7647C389.753 15.7647 390.734 16.197 391.446 16.9053C392.152 17.6084 392.59 18.5719 392.59 19.6448C392.59 21.7853 390.828 23.5143 388.661 23.5143L355.995 23.4727V22.3686H356.86V16.9991H356.871Z" fill="#5C4DA0"/>
<path d="M356.649 16.9991V22.3686L386.615 22.4051C388.081 22.4051 389.262 21.2072 389.267 19.7229C389.267 18.9781 388.972 18.3115 388.492 17.822C388.012 17.3376 387.353 17.0355 386.62 17.0355L356.644 16.9991H356.649Z" fill="white"/>
<path d="M356.644 18.3583V19.1812L385.839 19.2177C386.066 19.2177 386.256 19.0354 386.256 18.8114C386.256 18.5823 386.072 18.4 385.845 18.4L356.644 18.3635V18.3583Z" fill="#E5C09F"/>
<path d="M356.644 20.3791V21.202L385.839 21.2384C386.066 21.2384 386.256 21.0561 386.256 20.8322C386.256 20.603 386.072 20.4208 385.845 20.4208L356.644 20.3843V20.3791Z" fill="#E5C09F"/>
<path d="M332.431 157.636L368.24 147.375L372.928 163.331C373.654 165.802 372.212 168.39 369.71 169.107L342.973 176.768C340.471 177.485 337.85 176.061 337.124 173.59L332.436 157.634L332.431 157.636Z" fill="#FBB416"/>
<path d="M339.715 160.21L364.101 153.403" stroke="white" stroke-linecap="round" stroke-linejoin="round"/>
<path d="M361.612 158.247L365.082 157.278" stroke="white" stroke-linecap="round" stroke-linejoin="round"/>
<path d="M340.696 164.08L357.662 159.346" stroke="white" stroke-linecap="round" stroke-linejoin="round"/>
<path d="M342.289 168.684L352.578 165.627" stroke="white" stroke-linecap="round" stroke-linejoin="round"/>
<path d="M367.718 140.939L329.382 151.924L331.168 158.001L369.504 147.017L367.718 140.939Z" fill="#F8A81B"/>
<path d="M331.177 157.971C331.957 155.632 332.754 153.039 333.534 150.7L336.356 149.888C335.38 152.351 334.721 154.57 334.083 157.138C334.083 157.138 332.026 157.736 331.177 157.971Z" fill="white"/>
<path d="M337.917 156.023C338.697 153.685 339.483 151.122 340.264 148.784L343.048 147.977C342.072 150.44 341.371 152.659 340.733 155.221L337.911 156.023H337.917Z" fill="white"/>
<path d="M345.669 153.83C346.45 151.492 347.246 148.893 348.027 146.555L351.043 145.68C350.068 148.143 349.292 150.393 348.654 152.955L345.664 153.836L345.669 153.83Z" fill="white"/>
<path d="M353.385 151.612C354.165 149.273 354.977 146.633 355.758 144.294C355.758 144.294 358.542 143.581 358.564 143.513C357.588 145.977 356.823 148.232 356.185 150.799C356.185 150.799 353.379 151.581 353.379 151.617L353.385 151.612Z" fill="white"/>
<path d="M360.842 149.466C361.622 147.128 362.429 144.534 363.21 142.196L366.015 141.388L363.626 148.664L360.847 149.466H360.842Z" fill="white"/>
<path d="M358.686 124.529L325.805 146.879L329.438 152.092L362.319 129.741L358.686 124.529Z" fill="#F8A81B"/>
<path d="M329.431 152.081C329.431 149.617 329.357 146.909 329.352 144.445L331.773 142.8C331.63 145.44 331.715 147.753 331.926 150.388C331.926 150.388 330.164 151.596 329.431 152.081Z" fill="white"/>
<path d="M335.211 148.138C335.211 145.675 335.137 142.998 335.132 140.534L337.521 138.899C337.379 141.539 337.421 143.862 337.632 146.497L335.211 148.133V148.138Z" fill="white"/>
<path d="M341.867 143.643C341.867 141.18 341.788 138.467 341.788 136.003L344.372 134.232C344.229 136.873 344.214 139.248 344.425 141.883L341.867 143.643Z" fill="white"/>
<path d="M348.485 139.138C348.485 136.675 348.412 133.915 348.406 131.451C348.406 131.451 350.822 129.905 350.822 129.837C350.679 132.477 350.679 134.857 350.885 137.493C350.885 137.493 348.475 139.107 348.485 139.138Z" fill="white"/>
<path d="M354.882 134.785C354.882 132.321 354.814 129.613 354.809 127.15L357.214 125.509L357.266 133.16L354.882 134.785Z" fill="white"/>
<path d="M339.499 172.522C340.844 173.96 342.995 174.616 344.926 174.173" stroke="white" stroke-linecap="round" stroke-linejoin="round"/>
<path d="M348.944 172.59L358.158 169.939" stroke="white" stroke-linecap="round" stroke-linejoin="round"/>
<path d="M336.856 66.3767H384.827C386.525 66.3767 387.901 67.736 387.901 69.413V102.672C387.901 105.062 385.939 107 383.519 107H338.164C335.744 107 333.782 105.062 333.782 102.672V69.413C333.782 67.736 335.158 66.3767 336.856 66.3767Z" fill="white"/>
<path d="M336.857 66.3767H384.827C386.525 66.3767 387.902 67.736 387.902 69.413V71.2306H333.777V69.413C333.777 67.736 335.153 66.3767 336.851 66.3767H336.857Z" fill="#493293"/>
<path d="M337.442 68.8036C337.442 69.1526 337.157 69.4338 336.804 69.4338C336.451 69.4338 336.166 69.1526 336.166 68.8036C336.166 68.4547 336.451 68.1735 336.804 68.1735C337.157 68.1735 337.442 68.4547 337.442 68.8036Z" fill="#010101"/>
<path d="M340.026 69.4338C340.379 69.4338 340.664 69.1517 340.664 68.8036C340.664 68.4556 340.379 68.1735 340.026 68.1735C339.674 68.1735 339.388 68.4556 339.388 68.8036C339.388 69.1517 339.674 69.4338 340.026 69.4338Z" fill="white"/>
<path d="M343.523 69.4338C343.875 69.4338 344.161 69.1517 344.161 68.8036C344.161 68.4556 343.875 68.1735 343.523 68.1735C343.17 68.1735 342.885 68.4556 342.885 68.8036C342.885 69.1517 343.17 69.4338 343.523 69.4338Z" fill="#C7B7DA"/>
<path d="M339.267 100.646H336.103V103.771H339.267V100.646Z" fill="#493293"/>
<path d="M337.3 102.745V101.677" stroke="white" stroke-width="0.64" stroke-miterlimit="10"/>
<path d="M338.07 102.745V101.677" stroke="white" stroke-width="0.64" stroke-miterlimit="10"/>
<path d="M383.788 101.448H340.264V103.166H383.788V101.448Z" fill="#E5DBED"/>
<path d="M358.347 101.448H340.264V103.166H358.347V101.448Z" fill="#493293"/>
<path d="M386.741 76.0845V90.089" stroke="#9A89C1" stroke-linecap="round" stroke-linejoin="round"/>
<path d="M386.741 73.2149V74.6159" stroke="#9A89C1" stroke-linecap="round" stroke-linejoin="round"/>
<path d="M341.883 106.083H358.885" stroke="#9A89C1" stroke-linecap="round" stroke-linejoin="round"/>
<path d="M364.578 94.5101C368.73 92.8336 370.719 88.1508 369.021 84.0507C367.324 79.9507 362.582 77.9861 358.43 79.6626C354.278 81.3392 352.289 86.022 353.987 90.122C355.684 94.222 360.426 96.1866 364.578 94.5101Z" fill="#493293"/>
<path d="M359.033 90.1828V83.9956L364.892 86.5267L359.033 90.1828Z" fill="white"/>
<path d="M355.721 83.7039C356.686 81.5426 359.128 80.1156 361.512 80.3135" stroke="#9A89C1" stroke-linecap="round" stroke-linejoin="round"/>
<g opacity="0.06">
<path d="M232.811 295C306.098 295 365.509 289.199 365.509 282.042C365.509 274.886 306.098 269.085 232.811 269.085C159.523 269.085 100.112 274.886 100.112 282.042C100.112 289.199 159.523 295 232.811 295Z" fill="black"/>
</g>
<path d="M103.566 171.257L119.061 285.308H121.877L112.722 170.626L103.566 171.257Z" fill="#6E4945"/>
<path d="M164.826 171.257L180.321 285.308H183.137L173.982 170.626L164.826 171.257Z" fill="#6E4945"/>
<path d="M259.596 200.193L261.22 276.319H254.802L256.732 200.193H259.596Z" fill="#3D2027"/>
<path d="M258.404 269.324C259.585 269.715 289.867 281.751 289.867 281.751V285.636H258.404V269.324Z" fill="#6E4945"/>
<path d="M258.014 269.324C256.833 269.715 226.551 281.751 226.551 281.751V285.636H258.014V269.324Z" fill="#6E4945"/>
<path d="M258.404 269.324C257.771 269.715 241.491 281.751 241.491 281.751V285.636H258.404V269.324Z" fill="#3D2027"/>
<path d="M200.983 185.334C203.188 168.429 224.773 173.564 231.661 161.34C235.057 155.315 241.349 124.478 248.922 116.384C251.996 113.098 247.561 136.409 247.561 136.409C245.188 149.154 248.822 163.106 246.575 176.215C245.262 183.87 242.541 190.203 237.03 195.141C233.116 198.651 227.716 201.12 224.52 205.489C221.899 209.072 221.351 213.676 220.164 217.582C193.125 221.499 199.174 199.25 200.989 185.329L200.983 185.334Z" fill="#FBB416"/>
<path d="M207.67 191.36C215.992 184.204 232.051 188.032 234.909 179.751C238.037 170.673 236.972 105.276 266.779 103.406C266.832 103.406 266.884 103.375 266.937 103.364C279.668 100.344 295.874 119.535 310.367 172.043C312.977 181.496 316.268 193.87 312.539 203.437C309.76 210.567 304.223 215.114 297.541 218.051H211.025C207.006 218.051 203.747 214.483 203.747 210.088C203.747 207.369 202.175 196.094 207.681 191.36H207.67Z" fill="#DC8827"/>
<path d="M172.141 163.908C172.141 164.903 173.101 165.705 174.282 165.705H240.083C241.264 165.705 242.224 164.898 242.224 163.908C242.224 162.913 241.264 162.111 240.083 162.111H174.282C173.101 162.111 172.141 162.918 172.141 163.908Z" fill="#DDDDDD"/>
<path d="M158.561 164.059C158.772 164.991 159.706 165.741 160.644 165.741H213.667C214.611 165.741 215.17 164.986 214.922 164.059L205.545 129.04C205.297 128.108 204.353 127.358 203.436 127.358H151.932C151.02 127.358 150.445 128.113 150.656 129.04L158.561 164.059Z" fill="#DDDDDD"/>
<path d="M157.427 164.059C157.638 164.991 158.566 165.741 159.51 165.741H212.533C213.477 165.741 214.036 164.986 213.788 164.059L204.438 129.04C204.19 128.108 203.246 127.358 202.333 127.358H150.83C149.917 127.358 149.343 128.113 149.554 129.04L157.433 164.059H157.427Z" fill="#DDDDDD"/>
<path d="M179.619 146.55C179.846 147.482 180.785 148.237 181.718 148.237C182.652 148.237 183.216 147.482 182.984 146.55C182.752 145.617 181.813 144.862 180.885 144.862C179.957 144.862 179.387 145.617 179.619 146.55Z" fill="#DDDDDD"/>
<path d="M197.318 156.408L196.996 154.08L198.853 154.221L198.294 152.075L200.746 152.263L201.305 154.408L202.824 154.523L202.265 152.377L204.717 152.565L205.276 154.711L207.423 154.872L207.744 157.2L205.888 157.059L206.389 159.033L208.535 159.195L208.857 161.523L207.001 161.382L207.56 163.528L205.107 163.34L204.548 161.195L203.03 161.08L203.589 163.226L201.136 163.038L200.577 160.892L198.431 160.731L198.109 158.403L199.965 158.544L199.464 156.57L197.318 156.408ZM202.423 158.726L203.942 158.841L203.441 156.867L201.922 156.752L202.423 158.726Z" fill="#4A429A"/>
<path d="M154.928 135.331C155.566 138.159 158.166 140.628 160.729 140.847C163.292 141.065 164.858 138.956 164.22 136.133C163.582 133.305 160.982 130.837 158.419 130.618C155.856 130.399 154.289 132.509 154.928 135.331Z" fill="#FBB416"/>
<path d="M160.122 134.821C160.249 135.389 160.534 135.857 160.755 135.878C160.977 135.899 161.056 135.456 160.929 134.889C160.802 134.321 160.518 133.852 160.296 133.831C160.075 133.811 159.996 134.253 160.122 134.821Z" fill="#28100C"/>
<path d="M157.696 134.613C157.823 135.18 158.108 135.649 158.329 135.67C158.551 135.691 158.63 135.248 158.503 134.68C158.377 134.113 158.092 133.644 157.87 133.623C157.649 133.602 157.57 134.045 157.696 134.613Z" fill="#28100C"/>
<path d="M160.096 138.222C162.095 138.394 162.052 136.232 162.052 136.212C162.052 136.092 161.952 135.967 161.836 135.936C161.72 135.899 161.63 135.967 161.636 136.087C161.636 136.165 161.662 137.925 159.996 137.779C158.329 137.633 157.538 135.805 157.506 135.727C157.454 135.607 157.332 135.519 157.227 135.54C157.127 135.555 157.079 135.67 157.132 135.79C157.142 135.811 158.097 138.05 160.096 138.222Z" fill="#28100C"/>
<path d="M184.429 148.133C184.798 150.841 182.921 152.836 180.236 152.586C177.552 152.336 175.079 149.94 174.709 147.232C174.34 144.524 176.218 142.529 178.902 142.779C181.586 143.029 184.06 145.425 184.429 148.133Z" fill="white"/>
<path d="M222.237 57.2834C222.237 57.2834 224.098 55.4762 225.032 53.5597C225.96 51.6431 226.851 49.5963 227.405 48.4037C228.069 46.9663 226.551 46.935 225.543 47.9766C224.019 49.5599 223.835 50.6848 223.835 50.6848C223.835 50.6848 225.802 42.4509 225.417 40.2062C225.069 38.1594 223.75 42.6488 222.458 46.2996C222.458 46.2996 222.959 38.0188 221.799 37.1959C220.275 36.1179 219.7 46.1486 219.7 46.1486C219.7 46.1486 219.009 38.6906 218.123 38.8938C217.126 39.1229 216.889 46.8465 216.889 46.8465C216.889 46.8465 215.956 41.7634 215.418 42.1071C214.347 42.7894 214.068 53.7784 217.137 57.7886C217.137 57.7886 221.293 58.0646 222.242 57.2782L222.237 57.2834Z" fill="#235879"/>
<path d="M225.306 73.5274C223.887 64.5383 222.659 56.9866 222.659 56.9866C220.807 55.5544 218.556 55.7991 216.298 56.0595C215.275 71.4233 217.126 83.605 219.547 92.8545C223.318 102.911 242.694 124.165 242.694 124.165C249.439 122.41 247.719 112.848 247.719 112.848C237.504 100.052 227.795 88.5578 227.642 88.3808C227.405 86.8704 226.514 81.1936 225.306 73.5326V73.5274Z" fill="#235879"/>
<path d="M346.028 171.257L330.533 285.308H327.717L336.873 170.626L346.028 171.257Z" fill="#6E4945"/>
<path d="M225.29 207.723C225.259 197.932 227.822 191.36 227.822 191.36C244.481 190.344 272.005 191.469 272.005 191.469C272.042 191.563 272.079 191.657 272.111 191.755C272.111 191.755 271.209 200.25 269.637 207.385C253.431 216.863 240.078 216.577 225.29 207.723Z" fill="#1E1E1E"/>
<path d="M297.525 218.056H268.087C268.124 217.947 268.161 217.843 268.198 217.728C269.511 213.176 268.714 206.468 268.767 201.531C268.873 191.183 262.918 177.168 273.74 172.361C281.145 169.074 299.244 173.038 299.835 163.314C300.441 153.284 294.582 136.019 290.374 126.858C285.643 116.556 277.833 103.979 266.774 103.406C266.826 103.39 266.879 103.37 266.932 103.364C281.329 102.026 295.869 119.535 310.361 172.043C312.972 181.496 316.263 193.87 312.534 203.437C309.755 210.567 304.217 215.114 297.536 218.051L297.525 218.056Z" fill="#FBB416"/>
<path d="M245.177 210.458C245.177 210.458 216.736 216.754 207.011 219.483C207.011 219.483 206.537 233.472 205.018 243.362C203.689 251.997 201.664 261.45 201.664 261.45L194.602 262.429C194.602 262.429 192.435 221.478 193.642 215.489C194.845 209.494 224.404 190.443 252.55 192.542L245.172 210.458H245.177Z" fill="#1E1E1E"/>
<path d="M182.989 280.636L204.744 275.006C205.772 274.741 206.41 273.767 206.283 272.767C206.268 272.626 206.236 272.486 206.183 272.345L202.307 261.293C202.307 261.293 201.294 261.116 199.944 261.148C199.148 261.168 198.368 260.793 197.946 260.122C197.914 260.075 197.888 260.023 197.856 259.971C196.78 257.929 193.426 258.059 193.405 260.33C193.405 260.622 193.405 260.908 193.421 261.179C193.421 261.247 193.426 261.314 193.431 261.377C193.458 261.856 193.5 262.293 193.553 262.674C193.553 262.684 193.553 262.689 193.553 262.7C193.684 263.663 193.853 264.262 193.853 264.262C193.663 264.7 193.479 265.127 193.299 265.543C193.21 265.752 193.12 265.96 193.036 266.163C192.846 266.606 192.667 267.033 192.482 267.449C192.398 267.642 192.313 267.835 192.229 268.017C192.028 268.47 191.823 268.897 191.612 269.303C191.517 269.486 191.422 269.668 191.322 269.845C190.51 271.298 189.587 272.387 188.3 272.918C186.027 273.85 182.24 275.1 181.286 279.001C181.265 279.084 181.254 279.162 181.249 279.24C181.196 280.136 182.061 280.871 182.984 280.631L182.989 280.636Z" fill="#DE9E26"/>
<path d="M182.989 280.636L204.744 275.006C205.772 274.741 206.41 273.767 206.283 272.767L181.254 279.24C181.201 280.136 182.066 280.871 182.989 280.631V280.636Z" fill="#BE812B"/>
<path d="M193.036 266.163C193.384 266.465 194.017 266.772 195.161 266.913C195.356 266.939 195.567 266.96 195.794 266.97L195.831 266.361C195.609 266.345 195.404 266.33 195.219 266.304C193.906 266.137 193.452 265.757 193.305 265.538C193.215 265.746 193.125 265.955 193.041 266.158L193.036 266.163Z" fill="white"/>
<path d="M195.14 266.84C195.24 267.21 195.62 267.429 195.989 267.33C196.364 267.231 196.585 266.856 196.485 266.491C196.385 266.121 196.005 265.903 195.636 266.002C195.261 266.101 195.04 266.475 195.14 266.84Z" fill="white"/>
<path d="M192.229 268.017C192.587 268.236 193.136 268.444 193.964 268.559C194.196 268.595 194.444 268.616 194.723 268.637L194.76 268.027C194.502 268.012 194.27 267.991 194.064 267.96C193.22 267.845 192.746 267.637 192.482 267.449C192.398 267.642 192.313 267.835 192.229 268.017Z" fill="white"/>
<path d="M193.959 268.533C194.059 268.902 194.439 269.121 194.808 269.022C195.182 268.923 195.404 268.548 195.303 268.184C195.203 267.814 194.824 267.595 194.454 267.694C194.08 267.793 193.858 268.168 193.959 268.533Z" fill="white"/>
<path d="M191.322 269.845C191.68 270.059 192.213 270.246 192.999 270.355C193.231 270.392 193.489 270.418 193.769 270.434L193.806 269.824C193.547 269.809 193.315 269.783 193.104 269.757C192.35 269.652 191.886 269.475 191.612 269.303C191.517 269.486 191.422 269.668 191.322 269.845Z" fill="white"/>
<path d="M192.994 270.335C193.094 270.704 193.473 270.923 193.843 270.824C194.217 270.725 194.439 270.35 194.338 269.986C194.238 269.616 193.858 269.397 193.489 269.496C193.115 269.595 192.893 269.97 192.994 270.335Z" fill="white"/>
<path d="M193.553 262.674C194.544 262.403 195.52 262.283 195.52 262.283L195.224 261.21C194.576 261.148 193.948 261.241 193.437 261.377C193.463 261.856 193.505 262.293 193.558 262.674H193.553Z" fill="white"/>
<path d="M215.76 233.102L185.795 272.579L191.227 277.339C205.366 264.111 218.677 253.33 225.274 241.44C237.594 232.316 263.936 207.385 263.936 207.385C261.473 201.875 254.164 192.068 254.164 192.068C240.842 202.505 215.76 233.102 215.76 233.102Z" fill="#1E1E1E"/>
<path d="M165.385 270.189L183.153 285.761C183.991 286.495 185.236 286.48 186.048 285.782C186.164 285.683 186.27 285.573 186.364 285.448L193.922 275.6C193.922 275.6 193.484 274.616 192.667 273.465C192.181 272.782 192.06 271.892 192.408 271.131C192.435 271.074 192.461 271.022 192.493 270.965C193.679 268.835 191.596 266.002 189.56 267.314C189.297 267.486 189.049 267.652 188.811 267.824C188.753 267.866 188.695 267.908 188.637 267.949C188.226 268.257 187.862 268.548 187.551 268.814C187.546 268.814 187.541 268.824 187.53 268.829C186.749 269.512 186.317 270.007 186.317 270.007C185.816 270.095 185.331 270.189 184.851 270.277C184.608 270.319 184.376 270.366 184.144 270.413C183.643 270.506 183.153 270.6 182.678 270.684C182.457 270.725 182.24 270.762 182.024 270.798C181.502 270.887 181.001 270.965 180.516 271.017C180.294 271.043 180.078 271.069 179.862 271.085C178.09 271.236 176.582 271.074 175.358 270.267C173.196 268.84 169.863 266.293 165.834 267.751C165.749 267.783 165.67 267.819 165.596 267.861C164.768 268.34 164.621 269.522 165.375 270.184L165.385 270.189Z" fill="#DE9E26"/>
<path d="M165.391 270.189L183.158 285.761C183.997 286.495 185.241 286.48 186.053 285.782L165.612 267.866C164.784 268.345 164.637 269.527 165.391 270.189Z" fill="#BE812B"/>
<path d="M184.16 270.418C184.097 270.897 184.192 271.626 184.74 272.699C184.83 272.881 184.935 273.079 185.057 273.282L185.621 272.959C185.5 272.756 185.399 272.569 185.31 272.397C184.687 271.157 184.761 270.543 184.867 270.288C184.624 270.329 184.392 270.376 184.16 270.423V270.418Z" fill="white"/>
<path d="M184.788 272.637C184.519 272.939 184.545 273.397 184.851 273.663C185.157 273.928 185.621 273.902 185.89 273.6C186.159 273.298 186.132 272.84 185.827 272.574C185.521 272.308 185.057 272.334 184.788 272.637Z" fill="white"/>
<path d="M182.035 270.809C182.051 271.251 182.188 271.845 182.573 272.631C182.678 272.85 182.805 273.084 182.947 273.334L183.511 273.012C183.374 272.782 183.258 272.564 183.163 272.366C182.768 271.564 182.678 271.032 182.689 270.694C182.467 270.736 182.251 270.772 182.035 270.809Z" fill="white"/>
<path d="M182.588 272.605C182.32 272.907 182.346 273.366 182.652 273.631C182.958 273.897 183.422 273.871 183.691 273.569C183.96 273.267 183.933 272.808 183.627 272.543C183.322 272.277 182.857 272.303 182.588 272.605Z" fill="white"/>
<path d="M179.878 271.09C179.899 271.522 180.041 272.095 180.405 272.845C180.511 273.069 180.637 273.303 180.785 273.558L181.349 273.23C181.212 272.996 181.096 272.782 181.001 272.579C180.648 271.861 180.537 271.361 180.526 271.022C180.305 271.048 180.089 271.074 179.872 271.09H179.878Z" fill="white"/>
<path d="M180.421 272.829C180.152 273.131 180.178 273.59 180.484 273.855C180.79 274.121 181.254 274.095 181.523 273.793C181.792 273.491 181.766 273.032 181.46 272.767C181.154 272.501 180.69 272.527 180.421 272.829Z" fill="white"/>
<path d="M187.567 268.819C188.39 269.522 189.07 270.293 189.07 270.293L189.85 269.408C189.523 268.803 189.075 268.319 188.653 267.955C188.242 268.262 187.878 268.553 187.567 268.819Z" fill="white"/>
<path d="M290.785 276.813C290.906 277.324 291.043 277.824 291.207 278.308C292.288 281.584 294.276 284.199 296.976 285.282C307.202 289.381 316.811 287.964 336.372 287.516C355.927 287.068 370.451 281.954 368.636 266.054C368.494 264.799 368.246 263.627 367.914 262.533C367.476 261.096 366.891 259.794 366.195 258.617C365.377 257.226 364.407 256.013 363.347 254.95C357.857 249.445 349.593 247.648 342.188 250.153C334.879 252.627 321.958 253.825 308.505 254.091C294.05 254.377 288.649 267.715 290.785 276.819V276.813Z" fill="#FBB416"/>
<path d="M290.785 276.814C290.906 277.324 291.043 277.824 291.207 278.308C294.672 281.292 301.206 283.178 310.662 283.922C313.636 284.157 316.906 284.271 320.424 284.271C328.561 284.271 338.049 283.646 348.412 282.423C357.177 281.381 363.104 278.334 366.037 273.355C368.22 269.652 368.331 265.611 367.914 262.523C367.476 261.085 366.891 259.783 366.195 258.606C366.954 260.913 368.621 267.444 365.361 272.97C362.556 277.725 356.823 280.647 348.317 281.657C317.581 285.297 296.655 283.532 290.785 276.808V276.814Z" fill="#F8A81B"/>
<path d="M349.224 257.137C355.231 257.617 359.671 263.028 358.69 268.902C358.669 269.017 358.648 269.132 358.627 269.246C357.33 275.647 348.623 275.454 324.421 275.678C305.473 275.855 295.727 269.158 300.768 260.887C304.776 254.309 336.43 256.122 349.224 257.143V257.137Z" fill="#F8A81B"/>
<path d="M303.521 261.981C312.334 272.819 348.301 273.433 353.021 265.314C355.32 261.361 354.687 256.299 353.432 252.143C353.3 251.705 353.163 251.273 353.021 250.862C351.729 247.122 350.099 244.388 350.099 244.388C350.099 244.388 350.247 248.252 336.983 246.862C335.464 246.706 333.74 246.638 331.894 246.659C331.551 246.659 331.203 246.669 330.85 246.68C316.542 247.102 295.906 252.612 303.526 261.981H303.521Z" fill="#28100C"/>
<path d="M332.421 255.518C334.499 257.804 338.101 258.669 342.848 258.012C342.953 257.997 343.059 257.981 343.169 257.966C349.15 257.054 352.061 254.247 353.437 252.138C353.306 251.7 353.168 251.268 353.026 250.857C352.008 252.794 349.329 256.101 342.711 257.018C338.318 257.627 335.021 256.877 333.181 254.846C331.525 253.018 331.082 250.19 331.899 246.654C331.557 246.654 331.209 246.664 330.855 246.674C330.043 250.435 330.581 253.476 332.432 255.513L332.421 255.518Z" fill="#FBAB47"/>
<path d="M308.505 254.091C308.505 254.091 300.062 253.476 299.06 249.268C298.058 245.06 317.428 248.752 319.564 240.086C321.7 231.42 313.135 224.509 310.356 227.045C307.06 230.05 314.28 231.326 314.665 235.784C314.986 239.487 312.661 242.899 305.451 243.409C298.242 243.919 295.015 245.023 295.046 248.336C295.078 251.94 300.921 255.653 304.476 255.887C308.025 256.122 308.51 254.096 308.51 254.096L308.505 254.091Z" fill="#28100C"/>
<path d="M345.553 241.201C345.553 241.201 348.058 237.982 352.14 235.842C352.731 235.529 353.437 235.998 353.369 236.659L352.599 244.039C352.599 244.039 346.74 244.529 345.553 241.201Z" fill="#28100C"/>
<path d="M351.164 243.138C351.497 241.466 351.576 239.706 351.966 237.737C351.966 237.737 347.562 240.326 347.299 241.753C347.299 241.753 349.73 243.57 351.159 243.138H351.164Z" fill="#5A4C54"/>
<path d="M337.906 241.498C337.906 241.498 334.468 239.451 329.953 238.888C329.215 238.795 328.672 239.565 329.009 240.222L332.095 246.294C332.095 246.294 338.027 245.024 337.906 241.498Z" fill="#28100C"/>
<path d="M333.397 245.32C332.474 243.883 331.746 242.274 330.66 240.576C330.66 240.576 335.718 241.409 336.488 242.643C336.488 242.643 334.895 245.211 333.402 245.32H333.397Z" fill="#5A4C54"/>
<path d="M348.823 241.326C348.823 241.326 354.039 242.112 353.643 248.148C353.253 254.179 347.304 254.825 347.304 254.825C347.304 254.825 346.244 256.768 342.568 257.549C340.216 258.049 336.714 257.893 335.828 256.184C335.828 256.184 330.723 254.336 330.781 249.841C330.845 244.862 336.925 238.748 348.823 241.326Z" fill="#28100C"/>
<path d="M354.123 255.591C354.123 255.591 351.998 264.153 350.215 265.923C348.433 267.694 346.497 268.658 344.013 268.955C340 269.434 340.744 272.074 341.941 272.986C343.328 274.038 345.78 273.439 349.466 273.439C352.652 273.439 355.652 272.808 356.728 270.746C357.804 268.679 357.73 262.559 356.586 259.117C355.879 256.992 354.888 255.882 354.118 255.591H354.123Z" fill="#28100C"/>
<path d="M327.179 256.153C327.179 256.153 329.305 264.715 331.087 266.486C332.87 268.257 334.816 269.132 337.289 269.517C340.311 269.991 340.032 272.809 339.362 273.548C338.196 274.834 335.522 274.001 331.836 274.001C328.651 274.001 324.885 272.741 323.809 270.673C322.734 268.606 323.572 263.116 324.716 259.679C325.423 257.554 326.415 256.445 327.185 256.153H327.179Z" fill="#28100C"/>
<path d="M309.37 254.45C309.37 254.45 303.759 253.122 301.95 257.299C299.107 263.866 301.38 267.621 308.958 268.663C316.537 269.704 325.154 271.121 318.641 265.798C312.128 260.476 309.37 254.45 309.37 254.45Z" fill="#28100C"/>
<path d="M339.573 251.075C339.573 251.075 341.835 250.836 342.442 251.112C343.454 251.57 341.825 253.435 340.791 253.596C339.752 253.752 338.745 252.554 338.761 251.773C338.776 250.992 339.578 251.075 339.578 251.075H339.573Z" fill="#5A4C54"/>
<path d="M338.407 249.351C338.518 249.284 338.634 249.419 338.555 249.518C338.107 250.049 337.273 250.747 336.15 250.513C335.222 250.32 334.868 249.674 334.742 249.117C334.716 248.992 334.884 248.924 334.948 249.034C335.185 249.45 335.654 249.872 336.556 249.93C337.242 249.971 337.938 249.638 338.402 249.351H338.407Z" fill="#5A4C54"/>
<path d="M347.188 248.893C347.283 248.81 347.425 248.919 347.362 249.029C347.019 249.633 346.334 250.471 345.184 250.445C344.235 250.424 343.771 249.857 343.544 249.325C343.491 249.206 343.649 249.107 343.734 249.206C344.045 249.57 344.583 249.903 345.479 249.794C346.16 249.711 346.787 249.258 347.188 248.893Z" fill="#5A4C54"/>
<path d="M296.011 174.517L287.779 289.297L284.968 289.474L286.835 174.454L296.011 174.517Z" fill="#6E4945"/>
<path d="M244.655 69.8817C244.655 69.8817 241.138 72.1733 242.398 78.3969C243.659 84.6257 246.095 85.2872 246.095 85.2872C246.095 85.2872 249.787 71.5014 244.655 69.8765V69.8817Z" fill="#28120E"/>
<path d="M259.211 98.9479L258.963 106.828L258.847 110.442C263.124 114.181 270.971 110.223 270.971 110.223L272.796 98.6666C270.803 97.073 265.244 97.7761 261.89 98.3906C260.308 98.6823 259.216 98.9479 259.216 98.9479H259.211Z" fill="#F9AE83"/>
<path d="M259.211 98.9479L258.963 106.828C264.443 106.067 269.595 99.1041 269.595 99.1041L261.89 98.3854C260.308 98.6771 259.216 98.9427 259.216 98.9427L259.211 98.9479Z" fill="#F58A69"/>
<path d="M245.362 73.0534C245.362 73.0534 236.761 69.1005 239.281 62.1269C241.802 55.1533 252.091 58.3615 261.347 58.7104C276.245 59.2677 280.913 66.9236 280.533 74.8919C280.153 82.8602 280.238 93.5471 276.583 97.5313C272.928 101.515 270.428 95.8856 268.535 90.9014C266.642 85.9173 254.971 70.6577 245.357 73.0586L245.362 73.0534Z" fill="#28120E"/>
<path d="M244.587 79.8291C244.587 80.1 244.597 80.3708 244.603 80.6468C244.756 85.5945 245.621 91.6098 246.47 96.5001C247.371 101.693 252.439 105.125 257.666 104.083C263.963 102.828 271.72 100.922 275.264 98.625C276.34 97.9271 277.026 97.1928 277.163 96.4272C277.479 94.6461 277.653 92.2087 277.738 89.563C277.986 81.5374 277.395 71.5275 277.395 71.5275C269.827 62.2467 248.743 65.8715 245.531 72.6576C244.798 74.2096 244.545 76.7876 244.587 79.8291Z" fill="#F9AE83"/>
<path d="M249.244 94.2086C249.244 94.2086 249.339 94.4429 249.555 94.7867C249.887 95.3179 250.504 96.1043 251.485 96.6251C252.408 97.1147 253.652 97.3751 255.287 96.9688C256.738 96.6095 257.671 95.9116 258.267 95.1096C259.106 93.9794 259.274 92.6409 259.274 91.7295C259.274 91.0994 259.19 90.6723 259.19 90.6723C255.298 93.5784 249.249 94.2086 249.249 94.2086H249.244Z" fill="#921A1D"/>
<path d="M251.49 96.6251C252.413 97.1147 253.658 97.3751 255.293 96.9688C256.743 96.6095 257.676 95.9116 258.272 95.1096C257.365 94.745 255.92 94.5054 254.264 95.0262C252.856 95.4689 252.155 96.0939 251.49 96.6251Z" fill="#F15D67"/>
<path d="M249.244 94.2086C249.244 94.2086 249.339 94.4429 249.555 94.7867C253.89 95.1044 257.813 92.7399 259.274 91.7295C259.274 91.0994 259.19 90.6723 259.19 90.6723C255.298 93.5784 249.249 94.2086 249.249 94.2086H249.244Z" fill="white"/>
<path d="M257.086 84.3133C257.086 85.3549 257.555 86.2038 258.135 86.2038C258.715 86.2038 259.185 85.3601 259.185 84.3133C259.185 83.2664 258.715 82.4227 258.135 82.4227C257.555 82.4227 257.086 83.2664 257.086 84.3133Z" fill="#28120E"/>
<path d="M246.327 84.3133C246.327 85.3549 246.797 86.2038 247.377 86.2038C247.957 86.2038 248.426 85.3601 248.426 84.3133C248.426 83.2716 247.957 82.4227 247.377 82.4227C246.797 82.4227 246.327 83.2664 246.327 84.3133Z" fill="#28120E"/>
<path d="M277.769 82.2092C277.769 82.2092 274.399 80.0427 271.562 83.9123H269.358C269.358 83.9123 269.484 79.4333 268.414 77.0064C267.343 74.5794 263.119 74.6419 262.486 71.7775C262.486 71.7775 252.513 75.6939 245.362 73.0535C238.211 70.4078 259.649 58.6428 269.985 64.3716C280.327 70.1005 279.373 74.595 277.769 82.2144V82.2092Z" fill="#28120E"/>
<path d="M262.581 81.8967C262.581 81.8967 261.753 79.7666 259.865 79.0896C258.114 78.4594 256.796 78.8084 256.126 79.0948C255.831 79.2198 255.683 79.5427 255.767 79.85C255.867 80.2093 256.258 80.4072 256.611 80.2822C257.74 79.876 260.181 79.4437 262.581 81.9019V81.8967Z" fill="#28120E"/>
<path d="M244.708 78.4803C244.687 78.7511 244.671 79.0219 244.655 79.2979C246.691 78.5323 248.326 79.1625 249.154 79.6365C249.238 79.6833 249.328 79.7094 249.423 79.7198C249.681 79.7406 249.945 79.6052 250.061 79.3552C250.198 79.0688 250.108 78.725 249.839 78.5532C249.228 78.1522 247.994 77.5845 246.158 77.9074C245.615 78.0011 245.125 78.2199 244.708 78.4855V78.4803Z" fill="#28120E"/>
<path d="M275.264 98.625C276.34 97.9271 277.026 97.1928 277.163 96.4272C277.479 94.646 277.653 92.2087 277.738 89.563L272.174 93.3388C272.174 93.3388 272.1 97.2501 275.27 98.6198L275.264 98.625Z" fill="#28120E"/>
<path d="M271.567 83.9122C271.567 83.9122 274.948 79.8708 277.775 82.2092C280.891 84.7872 278.502 93.5367 272.174 93.3388L271.573 83.907L271.567 83.9122Z" fill="#F9AE83"/>
<path d="M272.016 91.4431C272.295 91.4431 272.538 91.2348 272.569 90.9535C273.086 86.5267 275.744 85.8444 275.855 85.8184C276.15 85.7455 276.34 85.4538 276.272 85.157C276.203 84.8653 275.908 84.6778 275.612 84.7455C275.47 84.7768 272.074 85.584 271.467 90.8285C271.43 91.1306 271.652 91.4014 271.958 91.4379C271.979 91.4379 272 91.4379 272.021 91.4379L272.016 91.4431Z" fill="#F58A69"/>
<path d="M275.57 88.6412C275.702 88.6412 275.834 88.5943 275.945 88.5006C276.171 88.2975 276.193 87.9537 275.992 87.7298C275.945 87.6777 274.848 86.4851 273.018 86.8809C272.717 86.9486 272.527 87.2402 272.596 87.5371C272.664 87.8339 272.96 88.0214 273.26 87.9537C274.436 87.6985 275.138 88.4329 275.169 88.4641C275.28 88.5839 275.433 88.6412 275.581 88.6412H275.57Z" fill="#F58A69"/>
<path d="M254.739 99.4791C257.602 99.4791 259.011 97.6459 259.079 97.5573C259.264 97.3125 259.211 96.9688 258.963 96.7865C258.715 96.6042 258.367 96.6563 258.183 96.9011C258.119 96.9844 256.695 98.776 253.742 98.2917C253.441 98.2396 253.151 98.4427 253.099 98.7448C253.046 99.0468 253.252 99.3281 253.558 99.3801C253.974 99.4479 254.37 99.4791 254.739 99.4791Z" fill="#F58A69"/>
<path d="M252.023 90.3807C252.192 90.3807 252.355 90.3077 252.466 90.1619C252.65 89.9224 252.603 89.5734 252.36 89.3911L250.873 88.2714L252.16 87.9433C252.376 87.886 252.534 87.7141 252.571 87.4954L253.141 83.9956C253.188 83.6935 252.983 83.4123 252.677 83.3654C252.376 83.3133 252.086 83.5216 252.039 83.8237L251.527 86.9694L249.486 87.4902C249.281 87.5423 249.122 87.7089 249.08 87.912C249.038 88.1204 249.117 88.3287 249.286 88.4589L251.68 90.2661C251.78 90.3442 251.902 90.3807 252.018 90.3807H252.023Z" fill="#F58A69"/>
<path d="M271.9 193.182C271.61 194.224 270.84 195.083 269.806 195.578C268.213 196.339 271.299 195.563 267.728 196.063C264.506 196.521 251.68 199.094 248.363 198.786C245.425 198.552 244.371 198.375 241.67 197.573C238.174 196.526 233.691 194.787 229.641 192.719C227.869 191.813 227.062 189.855 227.737 188.11L237.304 153.679C237.425 153.367 237.499 153.039 237.531 152.711L244.45 114.786C244.592 113.077 245.969 111.687 247.799 111.4L256.353 110.057L259.86 109.51C261.795 109.208 263.757 109.145 265.698 109.301C267.639 109.484 269.558 109.88 271.409 110.51L275.191 111.801L282.954 114.442C284.704 115.041 285.817 116.645 285.659 118.353L280.259 156.903C280.238 157.111 280.201 157.315 280.143 157.518L271.889 193.193L271.9 193.182Z" fill="#235879"/>
<path d="M274.753 111.885L259.601 197.146C256.347 197.375 253.146 197.234 249.866 196.682C246.96 196.234 244.26 195.495 241.639 194.484L241.997 192.375L242.367 190.162L243.231 185.027L243.611 182.818L244.476 177.688L244.845 175.475L245.721 170.35L246.09 168.147L246.955 163.017L247.329 160.82L248.194 155.684L248.563 153.481L249.428 148.346L249.803 146.148L250.673 141.008L251.047 138.821L251.917 133.67L252.281 131.488L253.151 126.337L253.526 124.155L254.396 119.014L254.771 116.832L255.641 111.676L255.931 110.312L255.962 110.124L259.585 109.015C261.542 108.848 263.504 108.932 265.429 109.229C267.348 109.551 269.627 109.708 271.42 110.484L274.02 111.374L274.753 111.874V111.885Z" fill="white"/>
<path d="M274.268 114.723L273.883 116.874C270.534 116.874 267.322 116.546 264.4 116.072C260.788 115.489 257.624 114.671 255.224 113.947L255.588 111.77C259.807 113.056 266.747 114.728 274.225 114.707L274.262 114.723H274.268Z" fill="#E2E2E2"/>
<path d="M273.181 120.848L272.796 123.014C269.495 123.014 266.325 122.697 263.451 122.233C259.807 121.645 256.616 120.811 254.206 120.067L254.581 117.884C258.805 119.192 265.719 120.884 273.181 120.848Z" fill="#E2E2E2"/>
<path d="M272.058 127.144L271.668 129.321C268.414 129.326 265.292 129.019 262.454 128.561C258.789 127.967 255.583 127.118 253.146 126.347L253.521 124.165C257.729 125.499 264.601 127.212 272.058 127.139V127.144Z" fill="#E2E2E2"/>
<path d="M270.75 134.493L270.36 136.67C267.143 136.685 264.068 136.383 261.262 135.93C257.581 135.331 254.359 134.467 251.912 133.686L252.276 131.503C256.484 132.858 263.314 134.587 270.75 134.498V134.493Z" fill="#E2E2E2"/>
<path d="M269.442 141.847L269.057 144.018C265.882 144.039 262.845 143.753 260.065 143.3C256.358 142.701 253.13 141.815 250.673 141.019L251.047 138.831C255.24 140.211 262.022 141.951 269.442 141.847Z" fill="#E2E2E2"/>
<path d="M268.134 149.19L267.744 151.367C264.601 151.398 261.6 151.112 258.858 150.669C255.14 150.065 251.891 149.169 249.428 148.357L249.803 146.159C253.985 147.57 260.73 149.32 268.134 149.19Z" fill="#E2E2E2"/>
<path d="M266.826 156.539L266.436 158.715C263.33 158.757 260.355 158.476 257.639 158.038C253.921 157.434 250.668 156.528 248.189 155.695L248.558 153.492C252.735 154.924 259.433 156.69 266.826 156.539Z" fill="#E2E2E2"/>
<path d="M265.524 163.887L265.133 166.064C262.048 166.116 259.111 165.845 256.426 165.408C252.693 164.804 249.444 163.882 246.955 163.023L247.329 160.825C251.496 162.278 258.151 164.049 265.524 163.882V163.887Z" fill="#E2E2E2"/>
<path d="M264.216 171.236L263.826 173.423C260.772 173.47 257.866 173.204 255.198 172.772C251.464 172.168 248.215 171.23 245.721 170.356L246.09 168.153C250.24 169.637 256.864 171.423 264.216 171.236Z" fill="#E2E2E2"/>
<path d="M262.908 178.584L262.518 180.761C259.485 180.818 256.606 180.563 253.964 180.136C250.23 179.532 246.976 178.579 244.476 177.688L244.845 175.475C248.99 176.98 255.567 178.782 262.908 178.579V178.584Z" fill="#E2E2E2"/>
<path d="M261.6 185.928L261.21 188.12C258.204 188.183 255.345 187.933 252.73 187.511C248.985 186.907 245.737 185.943 243.232 185.037L243.611 182.829C247.746 184.355 254.28 186.162 261.6 185.933V185.928Z" fill="#E2E2E2"/>
<path d="M260.292 193.276L259.902 195.469C256.917 195.536 254.09 195.292 251.49 194.87C247.756 194.266 244.508 193.297 241.997 192.38L242.367 190.167C246.491 191.709 252.993 193.521 260.292 193.276Z" fill="#E2E2E2"/>
<path d="M356.918 167.46H91.4471V174.319H356.918V167.46Z" fill="#3D2027"/>
<path d="M356.918 167.46H261.705V174.319H356.918V167.46Z" fill="#3D2027"/>
<path d="M364.565 165.877H83.7949V169.043H364.565V165.877Z" fill="#8C5D55"/>
<path d="M313.188 65.1424C313.188 65.1424 311.669 63.0436 311.094 60.9968C310.514 58.95 309.997 56.7835 309.665 55.5127C309.264 53.9867 310.762 54.2159 311.574 55.4137C312.798 57.2314 312.782 58.3771 312.782 58.3771C312.782 58.3771 312.291 49.9297 313.067 47.7891C313.773 45.8309 314.274 50.4765 314.913 54.2992C314.913 54.2992 315.872 46.0601 317.159 45.4507C318.847 44.6487 317.65 54.6273 317.65 54.6273C317.65 54.6273 319.638 47.3985 320.482 47.7527C321.42 48.1485 320.297 55.7939 320.297 55.7939C320.297 55.7939 322.111 50.9504 322.581 51.3775C323.514 52.2316 321.858 63.106 318.13 66.5277C318.13 66.5277 313.99 66.0903 313.193 65.1528L313.188 65.1424Z" fill="#F9AE83"/>
<path d="M307.313 80.6104C310.293 72.0014 312.829 64.7727 312.829 64.7727C314.902 63.679 317.08 64.3039 319.258 64.9497C317.56 80.2562 313.599 91.9379 309.586 100.625C304.101 109.885 281.287 127.493 281.287 127.493C274.953 124.608 278.328 115.489 278.328 115.489C290.637 104.64 302.219 94.9846 302.403 94.8336C302.899 93.3909 304.776 87.9485 307.318 80.6104H307.313Z" fill="#235879"/>
</svg>
