<svg width="88" height="81" viewBox="0 0 88 81" fill="none" xmlns="http://www.w3.org/2000/svg">
<g clip-path="url(#clip0_644_11451)">
<path d="M52.0922 32.438V55.9653H26.408C21.8459 55.9631 17.3633 57.0442 13.4096 59.1002C9.45583 61.1562 6.1698 64.115 3.88089 67.6798C3.78731 67.8299 3.25636 68.715 3.25636 68.715C1.40758 71.9377 0 79.8204 0 79.8204V56.2914C0 56.1844 0 56.0723 0 55.9653C0.000506467 49.7256 2.7447 43.7416 7.629 39.3295C12.5133 34.9174 19.1377 32.4384 26.0451 32.438H52.0922Z" fill="#38A3A5"/>
<path d="M78.1373 0.0859375V23.6133H26.408C21.8458 23.6114 17.3632 24.6928 13.4094 26.7492C9.45566 28.8055 6.16971 31.7644 3.88089 35.3295C3.78731 35.4796 3.25636 36.3646 3.25636 36.3646C1.40758 39.5943 0 47.4684 0 47.4684V23.9411C0 23.8324 0 23.7219 0 23.6133C0.0010128 17.3737 2.74537 11.39 7.62956 6.97794C12.5138 2.56591 19.1378 0.0868524 26.0451 0.0859375H78.1373Z" fill="#38A3A5"/>
<path d="M78.1368 0.0860862V23.6134H29.0813C22.2477 23.4512 15.0111 25.4111 10.9374 28.2147C10.6604 28.4062 10.3797 28.5977 10.1085 28.7943C10.0684 28.8271 10.0263 28.8565 9.98241 28.8892C9.87355 28.9669 9.76851 29.0445 9.66346 29.1273C9.26239 29.431 8.87086 29.7484 8.48888 30.071C8.33227 30.2056 8.18139 30.3419 8.0286 30.4765L7.64662 30.8388C6.20252 32.1938 4.94264 33.6997 3.8937 35.3244C3.80011 35.4745 3.26916 36.3596 3.26916 36.3596C3.12019 36.6201 2.97504 36.9082 2.82989 37.2222C2.60643 37.7156 2.3887 38.2712 2.18243 38.8595C2.17711 38.8719 2.17265 38.8846 2.16906 38.8974C1.72975 40.022 1.3875 41.1756 1.14536 42.348C1.13009 42.4032 1.11671 42.4584 1.10143 42.5205C1.76417 30.4437 12.5608 20.5321 26.0579 20.3613H68.2111C68.3476 18.8907 69.091 17.5202 70.2938 16.5215C71.4966 15.5229 73.071 14.969 74.7047 14.9699C74.7658 14.9699 74.825 14.9699 74.8957 14.9699V8.75895C73.2284 8.7183 71.6421 8.10105 70.4639 7.03459C69.2858 5.96812 68.6059 4.53381 68.5644 3.02765H29.2207C20.0762 2.53767 7.99422 7.27523 3.03042 13.9778C2.8719 14.1935 2.71338 14.4126 2.56059 14.63C1.95821 15.5012 1.41604 16.4052 0.937187 17.3369C1.1739 16.5594 1.45504 15.7935 1.77945 15.0423C3.58396 11.2859 6.37659 7.98431 9.91471 5.42443C13.4528 2.86456 17.6294 1.12383 22.0816 0.353499C23.3922 0.166374 24.7177 0.0769362 26.0446 0.0860862H78.1368Z" fill="#22577A" stroke="#22577A" stroke-width="0.228765" stroke-miterlimit="10"/>
<path d="M52.1402 32.3481L52.0925 56.2913H28.9408C28.0757 56.2913 27.073 56.2654 26.0454 56.2913C26.0168 56.2895 25.9881 56.2895 25.9595 56.2913H25.9232C23.3314 56.3336 20.761 56.725 18.297 57.4523L18.2359 57.4679C9.35876 60.0143 2.7429 66.4513 1.08512 74.9154C1.7192 62.811 12.5311 52.8666 26.0454 52.7062H43.5954C43.6397 51.4623 44.2057 50.2802 45.1788 49.3992C46.1519 48.5183 47.4593 48.0044 48.8361 47.9617V40.2843C47.3972 40.2839 46.0174 39.7673 44.9999 38.8482C43.9825 37.9291 43.4106 36.6827 43.4101 35.3829H29.2216C28.1807 35.2759 27.1207 35.3829 26.0454 35.3829C16.1408 35.3829 7.45269 39.922 2.55382 46.9904C2.05218 47.7013 1.60055 48.44 1.20163 49.2022C1.1577 49.2781 1.11759 49.3557 1.07748 49.4351C1.265 48.7459 1.49713 48.0673 1.77268 47.4027C3.57691 43.6461 6.36946 40.3444 9.90763 37.7845C13.4458 35.2246 17.6225 33.484 22.0748 32.7139C23.3853 32.5256 24.7108 32.435 26.0378 32.443L52.1402 32.3481Z" fill="#22577A"/>
<path d="M29.3023 48.4509C34.0975 48.4509 37.9847 46.6952 37.9847 44.5294C37.9847 42.3636 34.0975 40.6079 29.3023 40.6079C24.5072 40.6079 20.62 42.3636 20.62 44.5294C20.62 46.6952 24.5072 48.4509 29.3023 48.4509Z" fill="#22577A"/>
<path d="M39.7927 15.4445C45.1869 15.4445 49.5599 13.4695 49.5599 11.0331C49.5599 8.59667 45.1869 6.62158 39.7927 6.62158C34.3984 6.62158 30.0255 8.59667 30.0255 11.0331C30.0255 13.4695 34.3984 15.4445 39.7927 15.4445Z" fill="#22577A"/>
<path d="M87.8551 59.2934C87.8543 64.017 86.0924 68.6028 82.8533 72.3111C79.6143 76.0194 75.0869 78.6341 70.0014 79.7336C64.9159 80.8331 59.5687 80.3533 54.822 78.3714C50.0754 76.3896 46.206 73.0214 43.8379 68.8099L43.5839 68.0508V67.6126C43.5834 67.2859 43.6543 66.9624 43.7926 66.6605C43.9308 66.3587 44.1337 66.0845 44.3896 65.8536C44.6455 65.6228 44.9493 65.4399 45.2837 65.3154C45.618 65.1909 45.9763 65.1273 46.3379 65.1282C47.4361 65.1282 48.116 65.4198 48.7616 66.2962L48.9201 66.5136C50.2887 69.0402 52.3808 71.1899 54.9794 72.7398C57.5779 74.2897 60.5881 75.1832 63.6979 75.3278C66.8076 75.4724 69.9036 74.8626 72.6645 73.5619C75.4254 72.2612 77.7507 70.3168 79.3992 67.9305C81.0478 65.5442 81.9594 62.8029 82.0396 59.991C82.1198 57.179 81.3656 54.399 79.8553 51.9392C78.345 49.4793 76.1336 47.4294 73.4505 46.0019C70.7674 44.5745 67.7103 43.8216 64.5964 43.8213C64.4857 43.8213 64.3787 43.8213 64.2718 43.8213C63.4848 43.7858 62.743 43.4784 62.1998 42.9627C61.6567 42.447 61.3538 41.7624 61.3538 41.0505C61.3538 40.3387 61.6567 39.6541 62.1998 39.1384C62.743 38.6227 63.4848 38.3153 64.2718 38.2798H64.5964C70.7649 38.2821 76.6799 40.4968 81.0413 44.4373C85.4027 48.3777 87.8536 53.7213 87.8551 59.2934V59.2934Z" fill="#22577A"/>
<path d="M87.4362 55.274H87.4534C88.646 60.6914 87.4299 66.3152 84.0681 70.9289C80.7063 75.5426 75.4689 78.7754 69.4889 79.928L69.3285 79.9659L69.17 79.9935C68.4764 80.0904 67.768 79.944 67.1901 79.5842C66.6123 79.2244 66.2087 78.6785 66.0621 78.0585C65.9156 77.4384 66.0372 76.7913 66.402 76.2496C66.7668 75.708 67.3471 75.313 68.0241 75.1455V75.1455C68.1291 75.1317 68.2361 75.111 68.3411 75.0903C72.8669 74.2174 76.8236 71.7565 79.3411 68.2487C81.8585 64.741 82.7307 60.4736 81.7657 56.3851H81.7848C81.7501 56.2924 81.7214 56.1979 81.6989 56.1022C81.5481 55.4347 81.6902 54.7405 82.0951 54.1658C82.5001 53.5911 83.1363 53.181 83.8695 53.0219C84.6028 52.8628 85.3758 52.9672 86.0255 53.313C86.6752 53.6588 87.1509 54.219 87.3521 54.8755C87.3655 54.9169 87.375 54.9601 87.3865 55.0066C87.4087 55.0948 87.4253 55.1841 87.4362 55.274V55.274Z" fill="#38A5A3" stroke="#38A5A3" stroke-width="0.228765" stroke-miterlimit="10"/>
</g>
<defs>
<clipPath id="clip0_644_11451">
<rect width="88" height="80.3107" fill="white"/>
</clipPath>
</defs>
</svg>
