<svg width="694" height="633" viewBox="0 0 694 633" fill="none" xmlns="http://www.w3.org/2000/svg">
<g clip-path="url(#clip0_1_939)">
<path fill-rule="evenodd" clip-rule="evenodd" d="M351.142 0C541.68 0 696.142 141.504 696.142 316.057C696.142 490.611 541.68 632.115 351.142 632.115C160.604 632.115 6.14159 490.611 6.14159 316.057C6.14159 141.504 160.604 0 351.142 0Z" fill="#C8FACB"/>
<path fill-rule="evenodd" clip-rule="evenodd" d="M467.915 180.708L850.263 531.297L850.765 531.877L851.232 532.482L851.667 533.109L852.064 533.757L852.427 534.43L852.751 535.124L853.037 535.84L853.279 536.575L470.931 185.984L470.686 185.249L470.403 184.534L470.08 183.84L469.716 183.168L469.319 182.518L468.885 181.891L468.417 181.288L467.915 180.708Z" fill="#37A3A5" fill-opacity="0.2"/>
<path fill-rule="evenodd" clip-rule="evenodd" d="M470.931 185.985L853.279 536.575L880.484 627.51L498.136 276.92L470.931 185.985Z" fill="#37A3A5" fill-opacity="0.2"/>
<path fill-rule="evenodd" clip-rule="evenodd" d="M535.204 282.535L917.551 633.124L918.09 633.707L918.591 634.309L919.063 634.935L919.497 635.58L919.897 636.241L920.257 636.923L920.581 637.621L920.867 638.334L921.109 639.065L921.311 639.806L921.469 640.562L921.584 641.331L921.654 642.108L921.678 642.895V654.899L539.33 304.308V292.306L539.307 291.518L539.236 290.74L539.122 289.972L538.964 289.216L538.762 288.474L538.516 287.745L538.233 287.031L537.91 286.334L537.546 285.653L537.149 284.99L536.715 284.345L536.244 283.721L535.739 283.117L535.204 282.535Z" fill="#37A3A5" fill-opacity="0.2"/>
<path fill-rule="evenodd" clip-rule="evenodd" d="M539.33 304.308L921.678 654.899V686.208L539.33 335.619V304.308Z" fill="#37A3A5" fill-opacity="0.2"/>
<path fill-rule="evenodd" clip-rule="evenodd" d="M539.33 335.619L921.678 686.208V711.258L539.33 360.669V335.619Z" fill="#37A3A5" fill-opacity="0.2"/>
<path fill-rule="evenodd" clip-rule="evenodd" d="M539.33 360.67L921.678 711.259V715.83L539.33 365.241V360.67Z" fill="#37A3A5" fill-opacity="0.2"/>
<path fill-rule="evenodd" clip-rule="evenodd" d="M539.33 365.24L921.678 715.829V719.351L539.33 368.762V365.24Z" fill="#37A3A5" fill-opacity="0.2"/>
<path fill-rule="evenodd" clip-rule="evenodd" d="M539.33 368.763L921.678 719.352V722.022L539.33 371.433V368.763Z" fill="#37A3A5" fill-opacity="0.2"/>
<path fill-rule="evenodd" clip-rule="evenodd" d="M539.33 371.432L921.678 722.021V725.543L539.33 374.954V371.432Z" fill="#37A3A5" fill-opacity="0.2"/>
<path fill-rule="evenodd" clip-rule="evenodd" d="M539.33 374.954L921.678 725.543V728.213L539.33 377.624V374.954Z" fill="#37A3A5" fill-opacity="0.2"/>
<path fill-rule="evenodd" clip-rule="evenodd" d="M539.33 377.623L921.678 728.212V731.737L539.33 381.145V377.623Z" fill="#37A3A5" fill-opacity="0.2"/>
<path fill-rule="evenodd" clip-rule="evenodd" d="M539.33 381.145L921.678 731.737V736.308L539.33 385.716V381.145Z" fill="#37A3A5" fill-opacity="0.2"/>
<path fill-rule="evenodd" clip-rule="evenodd" d="M211.513 411.97L593.861 762.559L593.272 762.195L592.7 761.806L592.148 761.396L209.8 410.807L210.352 411.217L210.923 411.603L211.513 411.97Z" fill="#37A3A5" fill-opacity="0.2"/>
<path fill-rule="evenodd" clip-rule="evenodd" d="M539.33 385.717L921.678 736.309V792.147L921.654 792.934L921.584 793.711L921.469 794.48L921.311 795.236L921.109 795.977L920.863 796.708L920.581 797.421L920.257 798.119L919.894 798.801L919.497 799.462L919.059 800.107L918.591 800.733L918.086 801.335L917.551 801.918L916.982 802.477L916.386 803.011L915.76 803.523L915.104 804.005L914.424 804.465L913.717 804.894L912.987 805.295L912.233 805.669L911.455 806.008L910.657 806.32L909.839 806.595L909.005 806.838L908.153 807.045L907.285 807.218L906.399 807.354L905.501 807.453L904.588 807.514L903.666 807.533H611.873L610.951 807.514L610.038 807.453L609.14 807.354L608.258 807.218L607.386 807.045L606.534 806.838L605.7 806.595L604.882 806.32L604.084 806.011L603.31 805.669L602.556 805.298L601.822 804.897L601.115 804.465L600.435 804.008L599.782 803.523L217.433 452.934L218.087 453.419L218.768 453.876L219.475 454.305L220.206 454.706L220.961 455.079L221.737 455.419L222.534 455.731L223.351 456.005L224.186 456.249L225.04 456.456L225.909 456.629L226.793 456.765L227.692 456.863L228.603 456.922L229.525 456.944H521.318L522.241 456.922L523.153 456.863L524.052 456.765L524.934 456.629L525.805 456.456L526.657 456.249L527.492 456.005L528.31 455.728L529.108 455.419L529.882 455.079L530.639 454.706L531.37 454.305L532.076 453.876L532.756 453.416L533.409 452.931L534.039 452.422L534.635 451.885L535.204 451.326L535.739 450.746L536.244 450.141L536.712 449.518L537.146 448.873L537.546 448.209L537.91 447.53L538.233 446.832L538.516 446.116L538.761 445.388L538.963 444.647L539.122 443.891L539.236 443.122L539.307 442.345L539.33 441.557V385.717Z" fill="#37A3A5" fill-opacity="0.2"/>
<path fill-rule="evenodd" clip-rule="evenodd" d="M175.471 244.759L449.679 175.783C458.988 173.442 468.553 178.037 470.931 185.985L498.137 276.92H521.318C531.225 276.92 539.33 283.849 539.33 292.306V441.556C539.33 450.014 531.219 456.943 521.318 456.943H229.525C219.624 456.943 211.513 450.019 211.513 441.556V411.97C208.318 410.077 205.879 407.23 204.833 403.731L162.871 263.475C160.491 255.523 166.161 247.1 175.471 244.759H175.471Z" fill="#37A3A5" fill-opacity="0.2"/>
<path fill-rule="evenodd" clip-rule="evenodd" d="M229.526 276.92H521.319C531.225 276.92 539.331 283.849 539.331 292.306V441.557C539.331 450.015 531.22 456.944 521.319 456.944H229.526C219.625 456.944 211.514 450.02 211.514 441.557V292.306C211.514 283.844 219.619 276.92 229.526 276.92Z" fill="#235879"/>
<path fill-rule="evenodd" clip-rule="evenodd" d="M539.331 360.67V385.717H211.513V360.67H539.331Z" fill="#89A0A8"/>
<path fill-rule="evenodd" clip-rule="evenodd" d="M539.331 365.241V368.763H211.513V365.241H539.331ZM539.331 371.433V374.955H211.513V371.433H539.331ZM539.331 377.625V381.147H211.513V377.625H539.331Z" fill="#FFFFFE"/>
<path fill-rule="evenodd" clip-rule="evenodd" d="M539.331 304.308V335.619H211.513V304.308H539.331Z" fill="#38261A"/>
<path d="M446.887 445.264H445.22V439.5C444.61 440.023 443.893 440.41 443.066 440.659V439.271C443.5 439.141 443.974 438.894 444.484 438.53C444.995 438.164 445.346 437.738 445.534 437.252H446.887V445.264ZM455.014 443.843V445.264H449.167C449.232 444.727 449.42 444.218 449.738 443.737C450.054 443.256 450.68 442.619 451.612 441.824C452.366 441.183 452.826 440.746 452.996 440.518C453.225 440.202 453.341 439.89 453.341 439.581C453.341 439.241 453.241 438.98 453.041 438.795C452.84 438.612 452.564 438.521 452.212 438.521C451.864 438.521 451.588 438.617 451.381 438.809C451.177 439.002 451.057 439.322 451.025 439.767L449.364 439.614C449.462 438.773 449.773 438.169 450.295 437.802C450.818 437.436 451.47 437.252 452.254 437.252C453.113 437.252 453.788 437.466 454.279 437.889C454.769 438.314 455.014 438.842 455.014 439.474C455.014 439.832 454.943 440.174 454.803 440.499C454.663 440.824 454.441 441.164 454.137 441.519C453.934 441.755 453.569 442.095 453.045 442.537C452.518 442.979 452.184 443.275 452.044 443.419C451.904 443.564 451.789 443.706 451.701 443.843H455.014H455.014ZM461.793 439.239L460.178 439.403C460.14 439.098 460.036 438.874 459.87 438.727C459.704 438.582 459.487 438.509 459.222 438.509C458.871 438.509 458.573 438.654 458.329 438.946C458.085 439.236 457.934 439.839 457.869 440.757C458.286 440.308 458.801 440.083 459.418 440.083C460.115 440.083 460.711 440.326 461.207 440.813C461.704 441.298 461.953 441.926 461.953 442.695C461.953 443.512 461.692 444.166 461.169 444.66C460.649 445.153 459.976 445.4 459.157 445.4C458.28 445.4 457.557 445.087 456.991 444.461C456.426 443.836 456.142 442.81 456.142 441.383C456.142 439.922 456.436 438.868 457.026 438.221C457.616 437.575 458.381 437.252 459.323 437.252C459.984 437.252 460.531 437.422 460.964 437.761C461.398 438.1 461.673 438.593 461.793 439.239V439.239ZM458.013 442.576C458.013 443.072 458.136 443.456 458.385 443.726C458.634 443.997 458.921 444.133 459.24 444.133C459.55 444.133 459.806 444.021 460.012 443.8C460.219 443.579 460.32 443.215 460.32 442.712C460.32 442.193 460.21 441.812 459.988 441.571C459.767 441.329 459.489 441.209 459.157 441.209C458.837 441.209 458.566 441.324 458.345 441.554C458.122 441.785 458.013 442.127 458.013 442.576ZM464.334 440.959C463.902 440.792 463.588 440.562 463.394 440.271C463.199 439.982 463.097 439.649 463.1 439.31C463.1 438.716 463.325 438.224 463.778 437.835C464.233 437.447 464.877 437.252 465.711 437.252C466.538 437.252 467.18 437.447 467.636 437.835C468.094 438.223 468.323 438.716 468.323 439.31C468.323 439.68 468.217 440.009 468.007 440.298C467.799 440.586 467.502 440.807 467.123 440.959C467.606 441.136 467.973 441.396 468.224 441.738C468.475 442.078 468.601 442.472 468.601 442.918C468.601 443.655 468.345 444.254 467.833 444.714C467.32 445.175 466.639 445.405 465.788 445.405C464.996 445.405 464.338 445.216 463.811 444.835C463.189 444.383 462.879 443.767 462.879 442.983C462.879 442.552 462.997 442.156 463.229 441.794C463.462 441.434 463.832 441.155 464.334 440.959ZM464.678 439.42C464.678 439.725 464.771 439.962 464.96 440.131C465.148 440.302 465.397 440.388 465.711 440.388C466.027 440.388 466.281 440.302 466.471 440.129C466.66 439.956 466.755 439.719 466.755 439.414C466.755 439.126 466.662 438.898 466.473 438.725C466.285 438.552 466.038 438.467 465.728 438.467C465.407 438.467 465.152 438.554 464.962 438.727C464.773 438.901 464.678 439.132 464.678 439.42ZM464.524 442.836C464.524 443.258 464.642 443.586 464.877 443.823C465.112 444.058 465.405 444.175 465.758 444.175C466.102 444.175 466.388 444.062 466.613 443.836C466.838 443.609 466.951 443.282 466.951 442.853C466.951 442.479 466.836 442.178 466.607 441.951C466.378 441.725 466.086 441.612 465.734 441.612C465.327 441.612 465.023 441.742 464.824 441.998C464.623 442.256 464.524 442.535 464.524 442.836ZM471.095 440.959C470.663 440.792 470.349 440.562 470.155 440.271C469.96 439.982 469.858 439.649 469.861 439.31C469.861 438.716 470.086 438.224 470.54 437.835C470.993 437.447 471.638 437.252 472.472 437.252C473.299 437.252 473.941 437.447 474.397 437.835C474.855 438.223 475.084 438.716 475.084 439.31C475.084 439.68 474.978 440.009 474.768 440.298C474.559 440.586 474.264 440.807 473.884 440.959C474.367 441.136 474.733 441.396 474.985 441.738C475.236 442.078 475.362 442.472 475.362 442.918C475.362 443.655 475.106 444.254 474.593 444.714C474.081 445.175 473.4 445.405 472.55 445.405C471.757 445.405 471.099 445.216 470.572 444.835C469.95 444.383 469.64 443.767 469.64 442.983C469.64 442.552 469.757 442.156 469.991 441.794C470.224 441.434 470.592 441.155 471.095 440.959ZM471.439 439.42C471.439 439.725 471.533 439.962 471.72 440.131C471.909 440.302 472.158 440.388 472.472 440.388C472.789 440.388 473.042 440.302 473.232 440.129C473.421 439.956 473.516 439.719 473.516 439.414C473.516 439.126 473.423 438.898 473.234 438.725C473.046 438.552 472.798 438.467 472.489 438.467C472.169 438.467 471.913 438.554 471.722 438.727C471.534 438.901 471.439 439.132 471.439 439.42ZM471.285 442.836C471.285 443.258 471.403 443.586 471.638 443.823C471.873 444.058 472.166 444.175 472.519 444.175C472.863 444.175 473.149 444.062 473.374 443.836C473.599 443.609 473.712 443.282 473.712 442.853C473.712 442.479 473.597 442.178 473.368 441.951C473.139 441.725 472.847 441.612 472.495 441.612C472.087 441.612 471.784 441.742 471.585 441.998C471.384 442.256 471.285 442.535 471.285 442.836ZM476.425 438.814V437.395H482.128V438.504C481.658 438.929 481.18 439.538 480.692 440.334C480.204 441.131 479.831 441.982 479.58 442.866C479.324 443.761 479.199 444.56 479.203 445.264H477.594C477.623 444.161 477.87 443.036 478.34 441.89C478.807 440.742 479.433 439.719 480.218 438.814H476.425ZM486.456 445.264V443.659H482.894V442.32L486.671 437.252H488.071V442.314H489.15V443.659H488.071V445.264H486.456V445.264ZM486.456 442.314V439.587L484.456 442.314H486.456H486.456ZM494.214 445.264H492.546V439.5C491.937 440.023 491.219 440.41 490.393 440.659V439.271C490.826 439.141 491.3 438.894 491.811 438.53C492.321 438.164 492.672 437.738 492.86 437.252H494.214V445.264ZM499.978 445.264V443.659H496.416V442.32L500.193 437.252H501.593V442.314H502.672V443.659H501.593V445.264H499.978V445.264ZM499.978 442.314V439.587L497.978 442.314H499.978ZM507.736 445.264H506.068V439.5C505.458 440.023 504.741 440.41 503.914 440.659V439.271C504.348 439.141 504.822 438.894 505.333 438.53C505.843 438.164 506.194 437.738 506.382 437.252H507.736V445.264ZM513.826 445.264H512.158V439.5C511.549 440.023 510.831 440.41 510.005 440.659V439.271C510.438 439.141 510.912 438.894 511.423 438.53C511.933 438.164 512.284 437.738 512.472 437.252H513.826V445.264ZM519.138 437.252C519.983 437.252 520.642 437.529 521.115 438.08C521.681 438.732 521.965 439.815 521.965 441.329C521.965 442.838 521.679 443.923 521.11 444.584C520.64 445.128 519.983 445.4 519.138 445.4C518.293 445.4 517.61 445.102 517.092 444.504C516.573 443.908 516.314 442.843 516.314 441.313C516.314 439.81 516.6 438.729 517.169 438.069C517.639 437.525 518.295 437.252 519.138 437.252ZM519.138 438.52C518.938 438.52 518.757 438.58 518.599 438.697C518.441 438.816 518.317 439.028 518.231 439.332C518.117 439.728 518.058 440.393 518.058 441.329C518.058 442.266 518.111 442.909 518.212 443.258C518.315 443.609 518.445 443.841 518.601 443.958C518.759 444.073 518.938 444.133 519.138 444.133C519.341 444.133 519.521 444.073 519.679 443.954C519.837 443.837 519.961 443.626 520.047 443.321C520.161 442.929 520.22 442.266 520.22 441.329C520.22 440.393 520.167 439.751 520.066 439.399C519.963 439.05 519.833 438.816 519.677 438.697C519.519 438.58 519.341 438.521 519.138 438.521V438.52Z" fill="white"/>
<path fill-rule="evenodd" clip-rule="evenodd" d="M175.471 244.759L449.679 175.783C458.989 173.442 468.553 178.037 470.931 185.985L512.893 326.24C515.271 334.188 509.597 342.617 500.293 344.957L226.085 413.932C216.781 416.273 207.212 411.683 204.833 403.73L162.871 263.475C160.491 255.523 166.162 247.1 175.471 244.759Z" fill="#37A3A5"/>
<path d="M379.566 313.067L377.183 313.666L374.718 305.429C374.071 306.396 373.211 307.206 372.137 307.859L371.544 305.876C372.108 305.535 372.679 305.011 373.253 304.307C373.826 303.601 374.145 302.867 374.206 302.103L376.14 301.617L379.566 313.067ZM390.57 308.115L391.178 310.146L382.823 312.247C382.686 311.457 382.738 310.662 382.986 309.86C383.232 309.059 383.854 307.923 384.847 306.452C385.649 305.265 386.119 304.476 386.265 304.089C386.457 303.555 386.489 303.067 386.357 302.627C386.211 302.141 385.958 301.802 385.593 301.611C385.227 301.421 384.795 301.39 384.291 301.516C383.793 301.642 383.441 301.879 383.227 302.226C383.017 302.576 382.983 303.076 383.127 303.725L380.688 304.104C380.47 302.866 380.655 301.891 381.245 301.178C381.835 300.468 382.689 299.97 383.809 299.688C385.037 299.38 386.093 299.442 386.974 299.871C387.857 300.303 388.432 300.969 388.702 301.871C388.856 302.384 388.901 302.898 388.839 303.412C388.779 303.927 388.606 304.493 388.323 305.109C388.135 305.519 387.759 306.136 387.198 306.956C386.634 307.777 386.283 308.32 386.145 308.577C386.007 308.835 385.903 309.078 385.837 309.305L390.57 308.115ZM398.29 299.1L396.052 299.914C395.867 299.492 395.623 299.208 395.323 299.059C395.023 298.911 394.682 298.885 394.303 298.981C393.803 299.107 393.439 299.421 393.213 299.926C392.99 300.428 393.031 301.345 393.33 302.679C393.735 301.887 394.374 301.381 395.257 301.159C396.253 300.908 397.208 301.042 398.125 301.559C399.042 302.074 399.667 302.881 399.995 303.98C400.345 305.148 400.251 306.176 399.715 307.071C399.182 307.961 398.326 308.556 397.157 308.85C395.903 309.166 394.736 308.98 393.661 308.289C392.585 307.596 391.741 306.233 391.132 304.194C390.507 302.106 390.475 300.494 391.042 299.359C391.608 298.223 392.564 297.486 393.91 297.147C394.854 296.91 395.709 296.957 396.473 297.285C397.238 297.615 397.842 298.219 398.29 299.1ZM394.314 305.226C394.526 305.935 394.867 306.441 395.338 306.736C395.81 307.034 396.276 307.125 396.733 307.01C397.176 306.898 397.494 306.647 397.694 306.257C397.895 305.867 397.885 305.31 397.669 304.591C397.447 303.85 397.128 303.346 396.707 303.081C396.288 302.815 395.839 302.742 395.365 302.862C394.908 302.976 394.569 303.238 394.352 303.647C394.131 304.056 394.122 304.584 394.314 305.226ZM402.655 300.645C401.967 300.561 401.42 300.345 401.018 299.998C400.612 299.652 400.335 299.227 400.187 298.731C399.933 297.881 400.044 297.098 400.527 296.38C401.009 295.661 401.846 295.151 403.038 294.851C404.22 294.554 405.221 294.602 406.039 294.993C406.859 295.383 407.396 296.004 407.65 296.854C407.808 297.382 407.798 297.889 407.621 298.38C407.446 298.866 407.118 299.288 406.642 299.642C407.406 299.721 408.041 299.961 408.547 300.359C409.051 300.754 409.399 301.272 409.59 301.909C409.905 302.963 409.796 303.909 409.26 304.752C408.725 305.595 407.85 306.169 406.634 306.475C405.503 306.759 404.48 306.725 403.565 306.37C402.484 305.949 401.777 305.179 401.442 304.058C401.257 303.443 401.256 302.835 401.434 302.233C401.613 301.635 402.021 301.104 402.655 300.645ZM402.489 298.321C402.619 298.756 402.854 299.062 403.196 299.236C403.538 299.412 403.93 299.445 404.379 299.332C404.831 299.219 405.157 299.005 405.354 298.69C405.55 298.376 405.584 298.002 405.454 297.566C405.331 297.155 405.1 296.861 404.757 296.682C404.414 296.503 404.024 296.47 403.581 296.581C403.124 296.696 402.796 296.913 402.598 297.229C402.404 297.546 402.366 297.909 402.489 298.321ZM403.729 303.258C403.91 303.86 404.219 304.288 404.655 304.54C405.092 304.793 405.562 304.854 406.066 304.728C406.557 304.604 406.917 304.34 407.142 303.935C407.366 303.53 407.388 303.022 407.205 302.409C407.045 301.875 406.752 301.487 406.328 301.245C405.904 301.004 405.438 300.947 404.935 301.074C404.353 301.22 403.974 301.515 403.8 301.953C403.624 302.394 403.601 302.828 403.729 303.258ZM412.316 298.215C411.628 298.131 411.081 297.915 410.679 297.568C410.273 297.222 409.996 296.797 409.848 296.301C409.594 295.451 409.705 294.667 410.187 293.95C410.67 293.231 411.507 292.721 412.699 292.421C413.881 292.124 414.882 292.172 415.7 292.563C416.52 292.953 417.057 293.574 417.311 294.423C417.469 294.952 417.459 295.459 417.282 295.949C417.107 296.436 416.779 296.858 416.303 297.212C417.067 297.291 417.702 297.531 418.208 297.929C418.712 298.324 419.06 298.842 419.251 299.479C419.566 300.533 419.457 301.48 418.921 302.322C418.386 303.165 417.511 303.739 416.295 304.044C415.164 304.329 414.141 304.295 413.226 303.94C412.144 303.519 411.438 302.749 411.103 301.628C410.918 301.013 410.917 300.405 411.095 299.803C411.274 299.205 411.682 298.674 412.316 298.215ZM412.15 295.89C412.28 296.326 412.515 296.632 412.857 296.806C413.199 296.982 413.591 297.015 414.04 296.902C414.492 296.788 414.818 296.575 415.015 296.26C415.211 295.945 415.245 295.572 415.115 295.136C414.992 294.725 414.762 294.431 414.418 294.252C414.075 294.073 413.685 294.04 413.243 294.151C412.785 294.266 412.457 294.483 412.259 294.799C412.065 295.115 412.027 295.479 412.15 295.89ZM413.391 300.828C413.571 301.43 413.88 301.857 414.316 302.11C414.753 302.363 415.223 302.424 415.727 302.298C416.218 302.174 416.578 301.909 416.803 301.505C417.027 301.1 417.049 300.592 416.866 299.979C416.706 299.445 416.413 299.057 415.989 298.815C415.565 298.574 415.099 298.517 414.596 298.644C414.013 298.79 413.635 299.085 413.461 299.522C413.285 299.964 413.262 300.397 413.391 300.828ZM419.016 293.233L418.409 291.205L426.559 289.155L427.033 290.739C426.543 291.516 426.12 292.559 425.763 293.871C425.407 295.184 425.236 296.535 425.256 297.889C425.274 299.26 425.436 300.446 425.743 301.451L423.444 302.029C423.013 300.442 422.885 298.747 423.067 296.94C423.245 295.132 423.702 293.444 424.435 291.869L419.016 293.233H419.016ZM436.107 298.844L435.421 296.551L430.331 297.831L429.759 295.917L432.989 287.317L434.989 286.814L437.154 294.048L438.696 293.66L439.271 295.582L437.729 295.97L438.415 298.264L436.107 298.844ZM434.846 294.628L433.68 290.731L431.988 295.347L434.846 294.628V294.628ZM447.192 296.055L444.81 296.655L442.345 288.418C441.698 289.385 440.838 290.195 439.764 290.848L439.17 288.865C439.734 288.523 440.306 288 440.88 287.296C441.453 286.59 441.772 285.856 441.833 285.093L443.767 284.606L447.192 296.055ZM455.429 293.984L454.743 291.69L449.653 292.97L449.081 291.057L452.311 282.457L454.311 281.954L456.475 289.188L458.018 288.799L458.594 290.721L457.05 291.11L457.737 293.403L455.429 293.983V293.984ZM454.168 289.768L453.002 285.871L451.311 290.487L454.168 289.768ZM466.515 291.195L464.132 291.794L461.668 283.557C461.02 284.525 460.16 285.335 459.086 285.988L458.492 284.005C459.056 283.663 459.628 283.14 460.202 282.436C460.775 281.729 461.094 280.996 461.155 280.232L463.089 279.746L466.514 291.195H466.515ZM475.217 289.006L472.834 289.605L470.37 281.368C469.723 282.336 468.863 283.146 467.789 283.798L467.195 281.816C467.759 281.474 468.331 280.95 468.905 280.247C469.478 279.54 469.797 278.807 469.858 278.043L471.792 277.557L475.217 289.006ZM479.383 275.648C480.59 275.343 481.649 275.502 482.563 276.121C483.649 276.849 484.518 278.295 485.165 280.458C485.81 282.613 485.865 284.267 485.335 285.416C484.895 286.363 484.074 286.987 482.866 287.29C481.659 287.594 480.556 287.415 479.56 286.746C478.563 286.081 477.738 284.652 477.083 282.465C476.441 280.318 476.387 278.67 476.918 277.523C477.358 276.576 478.179 275.95 479.383 275.648ZM479.925 277.46C479.639 277.532 479.406 277.682 479.231 277.906C479.056 278.132 478.97 278.48 478.976 278.946C478.983 279.553 479.183 280.524 479.583 281.862C479.984 283.2 480.334 284.1 480.627 284.562C480.925 285.027 481.21 285.312 481.483 285.423C481.758 285.531 482.038 285.552 482.325 285.48C482.608 285.411 482.855 285.252 483.021 285.031C483.197 284.806 483.283 284.46 483.277 283.993C483.272 283.392 483.072 282.423 482.672 281.085C482.272 279.747 481.921 278.848 481.627 278.382C481.33 277.92 481.045 277.632 480.771 277.519C480.505 277.408 480.206 277.388 479.925 277.46ZM251.292 345.333L248.909 345.932L246.444 337.695C245.797 338.663 244.937 339.473 243.863 340.125L243.27 338.143C243.834 337.801 244.405 337.278 244.979 336.573C245.552 335.867 245.871 335.133 245.933 334.37L247.866 333.884L251.292 345.333ZM262.296 340.381L262.904 342.412L254.549 344.513C254.412 343.723 254.464 342.928 254.712 342.126C254.958 341.325 255.58 340.19 256.572 338.718C257.375 337.531 257.846 336.742 257.991 336.355C258.183 335.821 258.215 335.333 258.083 334.893C257.937 334.407 257.684 334.068 257.319 333.878C256.953 333.687 256.521 333.656 256.017 333.783C255.519 333.908 255.166 334.145 254.953 334.493C254.743 334.842 254.709 335.342 254.854 335.991L252.414 336.37C252.196 335.132 252.381 334.158 252.971 333.444C253.561 332.734 254.415 332.236 255.535 331.955C256.763 331.646 257.818 331.708 258.7 332.138C259.583 332.569 260.158 333.235 260.428 334.138C260.582 334.65 260.627 335.164 260.565 335.678C260.505 336.194 260.332 336.759 260.049 337.376C259.861 337.785 259.485 338.402 258.924 339.223C258.36 340.044 258.009 340.586 257.871 340.843C257.733 341.1 257.629 341.344 257.563 341.571L262.296 340.381H262.296ZM270.016 331.366L267.778 332.18C267.593 331.759 267.349 331.475 267.049 331.325C266.749 331.177 266.408 331.152 266.029 331.247C265.529 331.373 265.165 331.687 264.939 332.192C264.716 332.694 264.757 333.611 265.056 334.945C265.461 334.153 266.1 333.647 266.983 333.425C267.979 333.174 268.934 333.308 269.852 333.825C270.768 334.339 271.392 335.147 271.721 336.246C272.071 337.414 271.977 338.443 271.441 339.337C270.908 340.227 270.052 340.822 268.883 341.116C267.629 341.432 266.462 341.245 265.387 340.554C264.311 339.863 263.468 338.499 262.858 336.461C262.233 334.371 262.202 332.76 262.768 331.625C263.334 330.489 264.29 329.752 265.636 329.413C266.58 329.176 267.435 329.224 268.199 329.551C268.964 329.881 269.568 330.485 270.016 331.366ZM266.04 337.493C266.252 338.202 266.593 338.707 267.064 339.002C267.535 339.3 268.002 339.391 268.459 339.276C268.902 339.165 269.22 338.914 269.42 338.524C269.621 338.133 269.611 337.577 269.395 336.857C269.174 336.116 268.854 335.612 268.432 335.347C268.013 335.081 267.565 335.008 267.091 335.128C266.633 335.243 266.294 335.505 266.078 335.913C265.857 336.323 265.848 336.85 266.04 337.493ZM274.381 332.911C273.693 332.827 273.146 332.611 272.743 332.264C272.338 331.918 272.061 331.494 271.913 330.997C271.659 330.148 271.77 329.364 272.252 328.646C272.735 327.928 273.572 327.417 274.765 327.117C275.946 326.82 276.947 326.868 277.765 327.259C278.585 327.649 279.122 328.27 279.376 329.12C279.535 329.648 279.524 330.156 279.347 330.646C279.172 331.132 278.844 331.554 278.368 331.908C279.132 331.987 279.768 332.227 280.273 332.625C280.777 333.021 281.125 333.539 281.316 334.175C281.631 335.229 281.522 336.176 280.986 337.018C280.451 337.861 279.576 338.435 278.36 338.741C277.228 339.026 276.206 338.991 275.291 338.636C274.209 338.215 273.503 337.445 273.168 336.324C272.983 335.709 272.982 335.102 273.16 334.5C273.339 333.901 273.747 333.37 274.381 332.911ZM274.215 330.587C274.345 331.022 274.58 331.328 274.922 331.502C275.264 331.679 275.656 331.711 276.105 331.598C276.557 331.484 276.883 331.271 277.081 330.956C277.276 330.642 277.31 330.268 277.18 329.832C277.057 329.421 276.826 329.128 276.483 328.949C276.14 328.769 275.75 328.736 275.307 328.847C274.85 328.962 274.522 329.179 274.324 329.495C274.13 329.812 274.092 330.175 274.215 330.587V330.587ZM275.455 335.524C275.636 336.127 275.945 336.554 276.381 336.807C276.818 337.06 277.288 337.121 277.792 336.994C278.284 336.87 278.643 336.606 278.868 336.201C279.092 335.797 279.114 335.289 278.931 334.675C278.771 334.142 278.478 333.753 278.054 333.512C277.63 333.27 277.164 333.213 276.661 333.34C276.079 333.486 275.7 333.781 275.526 334.219C275.35 334.66 275.327 335.093 275.455 335.524ZM284.042 330.48C283.354 330.397 282.807 330.181 282.405 329.834C281.999 329.488 281.722 329.064 281.574 328.567C281.32 327.718 281.431 326.933 281.913 326.215C282.396 325.498 283.233 324.987 284.425 324.687C285.607 324.39 286.608 324.438 287.426 324.829C288.246 325.219 288.783 325.84 289.037 326.69C289.196 327.218 289.185 327.726 289.008 328.216C288.833 328.702 288.505 329.124 288.029 329.478C288.793 329.557 289.428 329.797 289.934 330.195C290.438 330.591 290.786 331.108 290.977 331.745C291.292 332.799 291.183 333.746 290.647 334.588C290.112 335.431 289.237 336.005 288.021 336.311C286.89 336.595 285.867 336.561 284.952 336.206C283.871 335.785 283.164 335.015 282.829 333.894C282.644 333.278 282.643 332.671 282.821 332.07C283 331.471 283.408 330.94 284.042 330.48ZM283.876 328.157C284.006 328.592 284.241 328.898 284.583 329.072C284.925 329.248 285.317 329.281 285.766 329.168C286.218 329.054 286.544 328.841 286.741 328.526C286.937 328.212 286.971 327.838 286.841 327.402C286.718 326.991 286.488 326.698 286.144 326.519C285.801 326.34 285.411 326.306 284.968 326.417C284.511 326.532 284.183 326.749 283.985 327.064C283.791 327.382 283.753 327.745 283.876 328.157ZM285.117 333.094C285.297 333.696 285.606 334.124 286.042 334.377C286.479 334.629 286.949 334.691 287.453 334.564C287.944 334.44 288.304 334.176 288.529 333.771C288.753 333.367 288.775 332.858 288.592 332.245C288.432 331.712 288.139 331.323 287.715 331.081C287.291 330.84 286.825 330.783 286.322 330.91C285.74 331.056 285.361 331.351 285.187 331.789C285.011 332.23 284.988 332.664 285.117 333.094ZM290.742 325.499L290.135 323.471L298.285 321.421L298.759 323.006C298.27 323.782 297.846 324.825 297.489 326.137C297.133 327.451 296.962 328.801 296.982 330.155C297 331.526 297.162 332.713 297.469 333.717L295.17 334.296C294.739 332.708 294.611 331.013 294.793 329.207C294.971 327.398 295.428 325.711 296.161 324.136L290.742 325.499H290.742ZM307.833 331.11L307.147 328.817L302.058 330.097L301.485 328.183L304.715 319.584L306.715 319.08L308.88 326.314L310.422 325.926L310.997 327.848L309.455 328.236L310.141 330.529L307.833 331.11ZM306.572 326.895L305.406 322.998L303.714 327.613L306.572 326.894V326.895ZM318.918 328.322L316.536 328.921L314.071 320.684C313.424 321.652 312.564 322.461 311.49 323.114L310.897 321.131C311.46 320.79 312.032 320.266 312.606 319.562C313.179 318.856 313.498 318.122 313.559 317.358L315.493 316.872L318.918 328.322ZM327.155 326.25L326.469 323.957L321.379 325.236L320.807 323.322L324.037 314.723L326.037 314.22L328.202 321.454L329.744 321.066L330.319 322.988L328.776 323.376L329.463 325.669L327.155 326.249V326.25ZM325.894 322.034L324.728 318.137L323.037 322.753L325.894 322.034H325.894ZM338.24 323.461L335.858 324.061L333.393 315.823C332.746 316.792 331.886 317.601 330.812 318.254L330.218 316.271C330.782 315.929 331.354 315.406 331.928 314.702C332.501 313.995 332.82 313.261 332.881 312.498L334.815 312.012L338.24 323.461ZM346.944 321.272L344.56 321.872L342.096 313.634C341.449 314.602 340.589 315.412 339.515 316.065L338.921 314.082C339.485 313.74 340.057 313.217 340.631 312.513C341.204 311.806 341.523 311.073 341.584 310.309L343.518 309.823L346.944 321.272ZM351.109 307.913C352.316 307.609 353.375 307.768 354.289 308.386C355.375 309.115 356.244 310.561 356.891 312.724C357.536 314.88 357.591 316.533 357.06 317.682C356.621 318.629 355.8 319.253 354.592 319.557C353.385 319.86 352.282 319.681 351.286 319.012C350.289 318.347 349.464 316.919 348.809 314.732C348.167 312.584 348.113 310.936 348.644 309.789C349.083 308.842 349.905 308.216 351.109 307.913ZM351.651 309.726C351.365 309.798 351.132 309.948 350.957 310.173C350.782 310.399 350.696 310.746 350.702 311.213C350.709 311.819 350.909 312.79 351.309 314.128C351.71 315.466 352.06 316.366 352.353 316.829C352.651 317.293 352.936 317.578 353.209 317.689C353.484 317.797 353.764 317.818 354.051 317.746C354.334 317.677 354.581 317.518 354.747 317.297C354.923 317.073 355.009 316.726 355.003 316.259C354.998 315.658 354.798 314.69 354.398 313.351C353.998 312.013 353.647 311.114 353.353 310.648C353.056 310.187 352.771 309.898 352.497 309.785C352.231 309.675 351.932 309.654 351.651 309.726Z" fill="white"/>
<path fill-rule="evenodd" clip-rule="evenodd" d="M214.66 271.07L247.196 262.885C249.941 262.195 252.876 263.932 253.717 266.744L260.451 289.25C261.292 292.062 259.734 294.93 256.989 295.62L224.453 303.804C221.709 304.494 218.774 302.758 217.932 299.945L211.199 277.44C210.357 274.626 211.914 271.76 214.66 271.07Z" fill="#EDB81A"/>
<path fill-rule="evenodd" clip-rule="evenodd" d="M217.852 270.267L219.672 269.809L229.466 302.544L227.646 303.001L217.852 270.267ZM225.963 268.227L227.783 267.769L237.577 300.503L235.756 300.961L225.963 268.226V268.227ZM234.073 266.186L235.893 265.728L245.686 298.463L243.866 298.921L234.073 266.186ZM242.183 264.146L244.003 263.688L253.797 296.423L251.977 296.881L242.183 264.146Z" fill="#424242"/>
<path fill-rule="evenodd" clip-rule="evenodd" d="M253.445 266.021C253.551 266.253 253.643 266.494 253.717 266.744L253.997 267.677L211.478 278.372L211.199 277.439C211.125 277.193 211.069 276.943 211.031 276.69L253.445 266.021H253.445ZM255.722 273.444L256.221 275.113L213.703 285.809L213.203 284.14L255.722 273.444ZM257.947 280.881L258.446 282.55L215.928 293.245L215.428 291.576L257.947 280.881ZM260.172 288.317L260.451 289.25C260.525 289.5 260.581 289.751 260.619 290L218.205 300.669C218.097 300.433 218.006 300.192 217.932 299.945L217.653 299.013L260.172 288.317H260.172Z" fill="#424242"/>
</g>
<defs>
<clipPath id="clip0_1_939">
<rect width="694" height="632.115" fill="white"/>
</clipPath>
</defs>
</svg>
