<svg width="128" height="128" viewBox="0 0 128 128" fill="none" xmlns="http://www.w3.org/2000/svg">
<g clip-path="url(#clip0_1_967)">
<path d="M128 92.6C127.6 93.3 103.8 83.3 73.1 69.7C72.5 70.4 71.9 71 71.2 71.5C81.9 86.3 89.5 97.5 88.9 97.9C88.2 98.3 79.6 87.7 68.5 73C67.6 73.4 66.7 73.6 65.7 73.7C65.5 104.5 64.8 128 64 128C63.2 128 62.5 104.5 62.4 73.8C61.4 73.7 60.5 73.4 59.6 73.1C48.5 87.8 39.8 98.4 39.1 98C38.4 97.6 46 86.3 56.8 71.6C56.1 71.1 55.5 70.4 54.9 69.8C24.2 83.3 0.399998 93.3 -1.84821e-06 92.6C-0.400002 91.9 22.8 80.9 53.5 67.1C53.3 66.7 53.2 66.3 53.2 65.9C33.6 65.8 19.1 65.2 19.1 64.5C19.1 63.8 33.5 63.2 53 63.1C53.1 62.4 53.2 61.6 53.5 61C22.8 47.2 -0.400002 36.1 -1.84821e-06 35.4C0.399998 34.7 24.2 44.7 54.9 58.3C55.3 57.8 55.8 57.3 56.3 56.8C45.8 42.4 38.5 31.4 39.1 31C39.7 30.6 48.1 40.9 59 55.1C60 54.6 61.2 54.3 62.4 54.1C62.5 23.5 63.2 0 64 0C64.8 0 65.5 23.5 65.6 54.2C66.8 54.3 67.9 54.7 69 55.2C79.8 40.9 88.2 30.6 88.8 31C89.4 31.4 82.1 42.3 71.6 56.8C72.2 57.2 72.6 57.7 73.1 58.3C103.9 44.7 127.7 34.8 128 35.4C128.4 36.1 105.2 47.1 74.6 60.9C74.8 61.6 75 62.3 75.1 63C94.6 63.2 109 63.7 109 64.5C109 65.2 94.5 65.8 75 66C74.9 66.4 74.8 66.8 74.7 67.1C105.1 80.9 128.4 91.9 128 92.6Z" fill="#4D4D4D" fill-opacity="0.2"/>
</g>
<defs>
<clipPath id="clip0_1_967">
<rect width="128" height="128" fill="white"/>
</clipPath>
</defs>
</svg>
