<svg width="142" height="142" viewBox="0 0 142 142" fill="none" xmlns="http://www.w3.org/2000/svg">
<path d="M95.6281 74.3281C95.6281 74.3281 86.6422 69.8906 75.6594 63.1234C75.8812 70.4453 71 142 71 142C71 142 66.1188 70.3344 66.3406 62.9016C55.5797 69.225 46.7047 73.3297 45.5953 73.8844C46.3719 73.2188 52.9172 67.6719 62.6797 61.0156C27.4016 60.5719 0 57.7984 0 57.7984C0 57.7984 27.6234 55.025 63.1234 54.6922C53.5828 47.8141 47.2594 42.0453 46.4828 41.2687C47.0375 41.4906 56.0234 45.9281 66.7844 52.6953C68.2266 21.7437 71 0 71 0C71 0 73.8844 21.8547 75.2156 53.0281C86.0875 46.5938 95.2953 42.3781 96.4047 41.8234C95.6281 42.4891 89.0828 48.0359 79.3203 54.6922C114.598 55.1359 142 57.7984 142 57.7984C142 57.7984 114.487 60.5719 78.9875 60.9047C89.0828 68.3375 95.6281 74.3281 95.6281 74.3281Z" fill="#4D4D4D" fill-opacity="0.2"/>
</svg>
