<svg width="93" height="93" viewBox="0 0 93 93" fill="none" xmlns="http://www.w3.org/2000/svg">
<path d="M62.6297 48.6797C62.6297 48.6797 56.7445 45.7734 49.5516 41.3414C49.6969 46.1367 46.5 93 46.5 93C46.5 93 43.3031 46.0641 43.4484 41.1961C36.4008 45.3375 30.5883 48.0258 29.8617 48.3891C30.3703 47.9531 34.657 44.3203 41.0508 39.9609C17.9461 39.6703 0 37.8539 0 37.8539C0 37.8539 18.0914 36.0375 41.3414 35.8195C35.093 31.3148 30.9516 27.5367 30.443 27.0281C30.8063 27.1734 36.6914 30.0797 43.7391 34.5117C44.6836 14.2406 46.5 0 46.5 0C46.5 0 48.3891 14.3133 49.2609 34.7297C56.3813 30.5156 62.4117 27.7547 63.1383 27.3914C62.6297 27.8273 58.343 31.4602 51.9492 35.8195C75.0539 36.1102 93 37.8539 93 37.8539C93 37.8539 74.9812 39.6703 51.7312 39.8883C58.343 44.7563 62.6297 48.6797 62.6297 48.6797Z" fill="#4D4D4D" fill-opacity="0.2"/>
</svg>
